M48
;Layer_Color=9474304
;FILE_FORMAT=2:5
INCH,LZ
;TYPE=PLATED
T1F00S00C0.02800
T2F00S00C0.03500
T3F00S00C0.04500
T4F00S00C0.09449
%
T01
X0165Y01791
X0171294
X01651Y01861
X0165006Y0193
X01713
X0176924Y0204908
Y0211208
X0183647Y0217608
X01626Y0226
X01579Y02643
X01662Y02788
X0177524Y0276208
X0183647
X0189924
Y0269908
X0183647
X0177524
X02Y02735
X0210024Y0276208
X0216147
X0222424
Y0269908
X0216147
X0210024
X02327Y02735
X0242524Y0276208
X0248647
X0254924
Y0269908
X0248647
X0242524
X02654Y02735
X0251563Y02903
X0246724Y03118
X02141Y03116
X0218963Y02901
X0186463
X0176192Y03041
X0181656Y0311481
X01622Y03014
X0209424Y0211208
Y0204908
X0216147Y0217608
X0241924Y0211208
Y0204908
X0248647Y0217608
X027694Y02231
X02843Y02312
X02994Y0203
X027694Y01896
X01495Y02774
X01562Y02987
X01511Y03178
X01444Y0322553
X01436Y03744
X01831Y037755
X01901Y03823
X01965Y0386
X01964Y03779
X01993Y03537
X02074
X02075Y03615
X01993Y03449
X02032Y03164
X01926Y03125
X01784Y03181
X01572Y03178
X01625Y03402
X0161846Y03473
X01795Y03894
X01867Y03985
X02291Y03965
X0229Y03825
X0233065Y03697
X0241465
X0249165Y03698
Y03524
X0241465
X0233276
Y03611
X02332Y03186
X02729Y03524
X02806Y03525
X0289
X0288788Y03611
Y03698
X02806
X02729
Y03794
Y0388
T02
X03023Y02926
Y03026
Y0316
Y0326
Y0336
T03
X0205Y015
X0225
X0245
X0246532Y03986
X0266532
T04
X01575Y015
X02925
Y03925
X01575
M30
