G04*
G04 #@! TF.GenerationSoftware,Altium Limited,Altium Designer,18.1.6 (161)*
G04*
G04 Layer_Physical_Order=1*
G04 Layer_Color=255*
%FSLAX25Y25*%
%MOIN*%
G70*
G01*
G75*
%ADD12C,0.01000*%
%ADD13C,0.01500*%
%ADD14R,0.03937X0.05315*%
%ADD15R,0.07087X0.03937*%
%ADD16R,0.04331X0.02362*%
%ADD17R,0.06299X0.11811*%
%ADD18R,0.26378X0.26378*%
%ADD19R,0.05315X0.03937*%
%ADD20R,0.02362X0.03937*%
%ADD21R,0.03937X0.07087*%
%ADD22R,0.18110X0.09055*%
%ADD23R,0.02362X0.05512*%
%ADD24R,0.02362X0.05906*%
%ADD25R,0.09843X0.06299*%
%ADD26R,0.09606X0.04449*%
%ADD46C,0.01200*%
%ADD47C,0.02200*%
%ADD48C,0.02000*%
%ADD49C,0.04000*%
%ADD50C,0.02500*%
%ADD51C,0.12500*%
%ADD52C,0.06200*%
%ADD53C,0.10000*%
%ADD54R,0.10000X0.10000*%
%ADD55C,0.15748*%
%ADD56R,0.07500X0.07500*%
%ADD57C,0.07500*%
%ADD58C,0.05000*%
G36*
X214540Y391815D02*
Y383154D01*
X211981Y380594D01*
X209619D01*
X207060Y383154D01*
Y391815D01*
X209619Y394374D01*
X211981D01*
X214540Y391815D01*
D02*
G37*
G36*
X255100Y349000D02*
X221277D01*
X219600Y350677D01*
Y370700D01*
X215500Y374800D01*
Y380300D01*
X220777Y380300D01*
X221200Y380300D01*
X221277Y380223D01*
X221277Y380768D01*
X221277Y406000D01*
X255100Y406000D01*
Y349000D01*
D02*
G37*
G36*
X197400Y390100D02*
X206000Y381500D01*
Y375154D01*
X205646Y374800D01*
X204400Y374800D01*
X203700Y374100D01*
X201800Y372200D01*
Y366900D01*
X197900D01*
Y372200D01*
X195500Y372200D01*
X186900Y380800D01*
X186900Y384600D01*
X192400Y390100D01*
X197400Y390100D01*
D02*
G37*
G36*
X211981Y374881D02*
X211900Y374800D01*
X214600Y372100D01*
X215700D01*
Y350969D01*
X215672Y350900D01*
X203800D01*
Y364900D01*
X205600Y366700D01*
Y372500D01*
X207731D01*
X209619Y374388D01*
Y379945D01*
X211981D01*
Y374881D01*
D02*
G37*
G36*
X278400Y386800D02*
X292800Y372400D01*
Y348600D01*
X260300Y348600D01*
X260300Y406000D01*
X278400Y406000D01*
Y386800D01*
D02*
G37*
G36*
X172944Y310356D02*
Y306000D01*
X168700D01*
X165100Y302400D01*
Y300300D01*
X159700Y294900D01*
Y292196D01*
X157750D01*
X157087Y292064D01*
X156524Y291689D01*
X156300Y291353D01*
X155800Y291505D01*
Y294600D01*
X153200Y297200D01*
X153200Y300100D01*
X155300Y302200D01*
Y312600D01*
X170700D01*
X172944Y310356D01*
D02*
G37*
G36*
X160500Y319200D02*
Y315800D01*
X159100Y314400D01*
X153000D01*
X151000Y312400D01*
Y293900D01*
X151800Y293100D01*
Y287800D01*
X147900D01*
X141200Y294500D01*
Y313200D01*
X149500Y321500D01*
X158200D01*
X160500Y319200D01*
D02*
G37*
G36*
X256700Y307246D02*
Y291500D01*
X249600Y284400D01*
Y281400D01*
X245700D01*
Y286900D01*
X243100Y289500D01*
X238600Y289500D01*
X238600Y291800D01*
X249000Y291800D01*
X252600Y295400D01*
Y307591D01*
X256346Y307599D01*
X256700Y307246D01*
D02*
G37*
G36*
X224100Y307046D02*
Y291300D01*
X217000Y284200D01*
Y281200D01*
X213100D01*
Y286700D01*
X210500Y289300D01*
X206000Y289300D01*
X206000Y291600D01*
X216400Y291600D01*
X220000Y295200D01*
Y307391D01*
X223746Y307399D01*
X224100Y307046D01*
D02*
G37*
G36*
X191600D02*
Y291300D01*
X184500Y284200D01*
Y281200D01*
X180600D01*
Y286700D01*
X178000Y289300D01*
X173500Y289300D01*
X173500Y291600D01*
X183900Y291600D01*
X187500Y295200D01*
Y307391D01*
X191246Y307399D01*
X191600Y307046D01*
D02*
G37*
G36*
X258224Y279608D02*
X258224Y269908D01*
X261824Y266308D01*
Y265208D01*
X235877D01*
X235524Y265561D01*
X235524Y266708D01*
X239124Y270308D01*
X239124Y279608D01*
X258224Y279608D01*
D02*
G37*
G36*
X225724D02*
X225724Y269908D01*
X229324Y266308D01*
Y265208D01*
X203377D01*
X203024Y265561D01*
X203024Y266708D01*
X206624Y270308D01*
X206624Y279608D01*
X225724Y279608D01*
D02*
G37*
G36*
X193224D02*
X193224Y269908D01*
X196824Y266308D01*
Y265208D01*
X170877D01*
X170524Y265561D01*
X170524Y266708D01*
X174124Y270308D01*
X174124Y279608D01*
X193224Y279608D01*
D02*
G37*
G36*
X251824Y202108D02*
X239224Y202108D01*
X239224Y212708D01*
X246724Y220208D01*
X251824Y220208D01*
X251824Y202108D01*
D02*
G37*
G36*
X219324D02*
X206724Y202108D01*
X206724Y212708D01*
X214224Y220208D01*
X219324Y220208D01*
X219324Y202108D01*
D02*
G37*
G36*
X186824D02*
X174224Y202108D01*
X174224Y212708D01*
X181724Y220208D01*
X186824Y220208D01*
X186824Y202108D01*
D02*
G37*
D12*
X149500Y272700D02*
X157900Y264300D01*
X149500Y272700D02*
Y277400D01*
X178300Y368800D02*
X184958D01*
X176600Y367100D02*
X178300Y368800D01*
X176600Y341500D02*
Y367100D01*
Y341500D02*
X179300Y338800D01*
X184958D01*
Y328800D02*
Y338800D01*
X199863Y362263D02*
Y369531D01*
X196400Y358800D02*
X199863Y362263D01*
X184958Y358800D02*
X196400D01*
X184958Y348800D02*
Y358800D01*
Y368800D02*
Y371942D01*
X183100Y373800D02*
X184958Y371942D01*
X183100Y373800D02*
Y377550D01*
X157900Y340200D02*
X162500D01*
X156500Y338800D02*
X157900Y340200D01*
X151100Y338800D02*
X156500D01*
X163300Y381800D02*
X180000Y398500D01*
X163300Y364100D02*
Y381800D01*
X180000Y398500D02*
X186700D01*
X175300Y389400D02*
X179500D01*
X167600Y381700D02*
X175300Y389400D01*
X167600Y360100D02*
Y381700D01*
X143600Y374400D02*
X149300D01*
X151100Y372600D01*
Y368800D02*
Y372600D01*
X144400Y322553D02*
Y327300D01*
X145900Y328800D01*
X151100D01*
X176192Y294892D02*
Y304100D01*
X175700Y294400D02*
X176192Y294892D01*
X158000Y358800D02*
X163300Y364100D01*
X151100Y358800D02*
X158000D01*
X156300Y348800D02*
X167600Y360100D01*
X233200Y318600D02*
X233700D01*
X240800Y311500D01*
X203200Y316400D02*
X203300D01*
X208200Y311500D01*
X187000Y318100D02*
X192600Y312500D01*
X178400Y318100D02*
X187000D01*
X189530Y304537D02*
X189693Y304700D01*
X198874D01*
X202348Y308174D01*
X284300Y231200D02*
X284400Y231300D01*
X292140D01*
X199300Y344900D02*
Y353700D01*
X151100Y348800D02*
X156300D01*
X157737Y290450D02*
X157750Y290463D01*
X292140Y214613D02*
Y231300D01*
X221974Y304656D02*
X225492Y308174D01*
X235288D01*
X186463Y290100D02*
X186826Y290463D01*
X197176D01*
X218963Y290100D02*
X219326Y290463D01*
X229776D01*
X302137Y181637D02*
X302200Y181700D01*
X293100Y181637D02*
X302137D01*
X298613Y203787D02*
X299400Y203000D01*
X296337Y206063D02*
X298613Y203787D01*
X296337Y206063D02*
Y221400D01*
X276940Y223100D02*
X286763D01*
X288463Y221400D01*
X288400Y221337D02*
X288463Y221400D01*
X288400Y214613D02*
Y221337D01*
X292140Y203787D02*
X298613D01*
X299400Y203000D02*
X299974Y202426D01*
Y195037D02*
Y202426D01*
X285600Y195037D02*
X287568Y197005D01*
Y208063D01*
X284660Y210972D02*
X287568Y208063D01*
X284660Y210972D02*
Y214613D01*
X284635Y203761D02*
X284660Y203787D01*
X276940Y203761D02*
X284635D01*
X285600Y195037D02*
X292100D01*
X285600Y181637D02*
Y187163D01*
Y181637D02*
X293100D01*
X278100D02*
X285600D01*
X276940Y217130D02*
Y223100D01*
Y203761D02*
Y209256D01*
X276940Y195887D02*
X276940Y195887D01*
X276940Y189600D02*
Y195887D01*
X208200Y294400D02*
Y311500D01*
X240800Y294400D02*
Y311500D01*
X175700Y278031D02*
X177524Y276208D01*
X240800Y277931D02*
X242524Y276208D01*
X208200Y278031D02*
X210024Y276208D01*
X225000Y150000D02*
X225124Y150124D01*
X192624Y181819D02*
X192624Y181819D01*
X257624Y181819D02*
X257624Y181819D01*
D13*
X175700Y286526D02*
X177626D01*
X180500Y295346D02*
X181656Y296502D01*
D14*
X149863Y290450D02*
D03*
X157737D02*
D03*
X254598Y304856D02*
D03*
X246724D02*
D03*
X221974Y304656D02*
D03*
X214100D02*
D03*
X189530Y304537D02*
D03*
X181656D02*
D03*
X254598Y296800D02*
D03*
X246724D02*
D03*
X221974Y296600D02*
D03*
X214100D02*
D03*
X189530Y296502D02*
D03*
X181656D02*
D03*
X190400Y283800D02*
D03*
X182526D02*
D03*
X222900D02*
D03*
X215026D02*
D03*
X255500Y284000D02*
D03*
X247626D02*
D03*
X296337Y221400D02*
D03*
X288463D02*
D03*
X299974Y195037D02*
D03*
X292100D02*
D03*
X207737Y369531D02*
D03*
X199863D02*
D03*
X213800D02*
D03*
X221674D02*
D03*
X213863Y361531D02*
D03*
X221737D02*
D03*
X213863Y353532D02*
D03*
X221737D02*
D03*
D15*
X302200Y181700D02*
D03*
D16*
X175700Y286526D02*
D03*
Y290463D02*
D03*
Y294400D02*
D03*
X164676D02*
D03*
Y290463D02*
D03*
Y286526D02*
D03*
X208200D02*
D03*
Y290463D02*
D03*
Y294400D02*
D03*
X197176D02*
D03*
Y290463D02*
D03*
Y286526D02*
D03*
X240800D02*
D03*
Y290463D02*
D03*
Y294400D02*
D03*
X229776D02*
D03*
Y290463D02*
D03*
Y286526D02*
D03*
D17*
X174671Y227016D02*
D03*
X192624D02*
D03*
X207171D02*
D03*
X225124D02*
D03*
X239671D02*
D03*
X257624D02*
D03*
X201600Y208000D02*
D03*
X183647D02*
D03*
X234100D02*
D03*
X216147D02*
D03*
X266600D02*
D03*
X248647D02*
D03*
D18*
X183647Y253197D02*
D03*
X216147D02*
D03*
X248647D02*
D03*
X192624Y181819D02*
D03*
X225124D02*
D03*
X257624D02*
D03*
D19*
X170188Y300300D02*
D03*
Y308174D02*
D03*
X202348Y300300D02*
D03*
Y308174D02*
D03*
X235288Y300300D02*
D03*
Y308174D02*
D03*
X293100Y173763D02*
D03*
Y181637D02*
D03*
X285600Y173763D02*
D03*
Y181637D02*
D03*
X278100Y173763D02*
D03*
Y181637D02*
D03*
X276940Y195887D02*
D03*
Y203761D02*
D03*
Y209256D02*
D03*
Y217130D02*
D03*
X285600Y187163D02*
D03*
Y195037D02*
D03*
D20*
X292140Y203787D02*
D03*
X284660D02*
D03*
Y214613D02*
D03*
X288400D02*
D03*
X292140D02*
D03*
D21*
Y231300D02*
D03*
D22*
X275796Y361100D02*
D03*
X246269D02*
D03*
D23*
X204894Y377445D02*
D03*
X216705D02*
D03*
D24*
X210800Y377642D02*
D03*
D25*
X160287Y309300D02*
D03*
X146113D02*
D03*
D26*
X151100Y368800D02*
D03*
Y358800D02*
D03*
Y348800D02*
D03*
Y338800D02*
D03*
Y328800D02*
D03*
X184958Y368800D02*
D03*
Y358800D02*
D03*
Y348800D02*
D03*
Y338800D02*
D03*
Y328800D02*
D03*
D46*
X170188Y288788D02*
Y300300D01*
X167926Y286526D02*
X170188Y288788D01*
X164676Y286526D02*
X167926D01*
X200000Y268446D02*
Y273500D01*
X199024Y267469D02*
X200000Y268446D01*
X199024Y267276D02*
Y267469D01*
X233724Y267024D02*
X237600Y270900D01*
X233724Y232963D02*
Y267024D01*
X232700Y268646D02*
Y273500D01*
X231524Y267469D02*
X232700Y268646D01*
X231524Y267276D02*
Y267469D01*
X265400Y268953D02*
Y273500D01*
X264024Y267576D02*
X265400Y268953D01*
X260000Y271600D02*
X264024Y267576D01*
X260000Y271600D02*
Y282100D01*
X264024Y230608D02*
Y267576D01*
X168724Y267124D02*
X172500Y270900D01*
Y282049D01*
X168023Y286526D02*
X172500Y282049D01*
X237600Y270900D02*
Y282049D01*
X233123Y286526D02*
X237600Y282049D01*
X200426Y286526D02*
X200523D01*
X197176D02*
X200426D01*
X200523D02*
X205000Y282049D01*
Y270900D02*
Y282049D01*
X201224Y267124D02*
X205000Y270900D01*
X201224Y232963D02*
Y267124D01*
X202688Y288788D02*
Y300300D01*
X229776Y286526D02*
X233026D01*
X235288Y288788D01*
Y300300D01*
X200426Y286526D02*
X202688Y288788D01*
X231524Y230608D02*
Y267276D01*
Y230608D02*
X234100Y228031D01*
X255500Y284000D02*
X258100D01*
X260000Y282100D01*
X227400Y271400D02*
X231524Y267276D01*
X222900Y283800D02*
X225500D01*
X227400Y281900D01*
Y271400D02*
Y281900D01*
X194900Y271400D02*
Y281900D01*
X193000Y283800D02*
X194900Y281900D01*
X190400Y283800D02*
X193000D01*
X194900Y271400D02*
X199024Y267276D01*
Y230608D02*
Y267276D01*
X168724Y232963D02*
Y267124D01*
X264024Y230608D02*
X266600Y228031D01*
Y208000D02*
Y228031D01*
X168724Y232963D02*
X174671Y227016D01*
X234100Y208000D02*
Y228031D01*
X233724Y232963D02*
X239671Y227016D01*
X201600Y208000D02*
Y228031D01*
X199024Y230608D02*
X201600Y228031D01*
X201224Y232963D02*
X207171Y227016D01*
D47*
X157750Y290463D02*
X164676D01*
D48*
X293100Y171100D02*
Y173763D01*
X258700Y136700D02*
X293100Y171100D01*
X218300Y136700D02*
X258700D01*
X285600Y169300D02*
Y173763D01*
X257900Y141600D02*
X285600Y169300D01*
X233400Y141600D02*
X257900D01*
X278100Y167500D02*
Y173763D01*
X260600Y150000D02*
X278100Y167500D01*
X245000Y150000D02*
X260600D01*
X205000D02*
X218300Y136700D01*
X225000Y150000D02*
X233400Y141600D01*
D49*
X246724Y296800D02*
Y311779D01*
X214100Y296600D02*
Y311579D01*
X181656Y304537D02*
Y311481D01*
Y296502D02*
Y304537D01*
D50*
X175700Y278031D02*
Y286526D01*
X240800Y277931D02*
Y286526D01*
X208200Y278031D02*
Y286526D01*
D51*
X192624Y162376D02*
X205000Y150000D01*
X192624Y162376D02*
Y181819D01*
X245000Y150000D02*
X257624Y162624D01*
Y181819D01*
X225124Y150124D02*
Y181819D01*
D52*
X192624Y181819D02*
Y227016D01*
X225124Y181819D02*
Y227016D01*
X257624Y181819D02*
Y227016D01*
D53*
X205000Y150000D02*
D03*
X225000D02*
D03*
X266532Y398600D02*
D03*
D54*
X245000Y150000D02*
D03*
X246532Y398600D02*
D03*
D55*
X157500Y392500D02*
D03*
X292500D02*
D03*
Y150000D02*
D03*
X157500D02*
D03*
D56*
X302300Y302600D02*
D03*
Y336000D02*
D03*
D57*
Y292600D02*
D03*
Y316000D02*
D03*
Y326000D02*
D03*
D58*
X149500Y277400D02*
D03*
X157900Y264300D02*
D03*
X161846Y347300D02*
D03*
X151100Y317800D02*
D03*
X157200D02*
D03*
X190100Y382300D02*
D03*
X183100Y377550D02*
D03*
X196400Y377900D02*
D03*
X196500Y386000D02*
D03*
X162500Y340200D02*
D03*
X144400Y322553D02*
D03*
X176192Y304100D02*
D03*
X186700Y398500D02*
D03*
X233200Y318600D02*
D03*
X203200Y316400D02*
D03*
X192600Y312500D02*
D03*
X178400Y318100D02*
D03*
X284300Y231200D02*
D03*
X199300Y353700D02*
D03*
Y344900D02*
D03*
X179500Y389400D02*
D03*
X166200Y278800D02*
D03*
X162600Y226000D02*
D03*
X156200Y298700D02*
D03*
X162200Y301400D02*
D03*
X143600Y374400D02*
D03*
X207400Y353700D02*
D03*
X207500Y361500D02*
D03*
X272900Y388000D02*
D03*
Y379400D02*
D03*
X229000Y382500D02*
D03*
X229100Y396500D02*
D03*
X249165Y352400D02*
D03*
X241465D02*
D03*
X249165Y369800D02*
D03*
X241465Y369700D02*
D03*
X233065D02*
D03*
X233276Y361100D02*
D03*
Y352400D02*
D03*
X288788Y369800D02*
D03*
Y361100D02*
D03*
X289000Y352500D02*
D03*
X280600D02*
D03*
X272900Y352400D02*
D03*
X280600Y369800D02*
D03*
X272900D02*
D03*
X299400Y203000D02*
D03*
X276940Y223100D02*
D03*
Y189600D02*
D03*
X165100Y186100D02*
D03*
X171300Y193000D02*
D03*
X165006D02*
D03*
X165000Y179100D02*
D03*
X171294D02*
D03*
X181656Y311481D02*
D03*
X214100Y311600D02*
D03*
X246724Y311800D02*
D03*
X265400Y273500D02*
D03*
X232700D02*
D03*
X200000D02*
D03*
X251563Y290300D02*
D03*
X218963Y290100D02*
D03*
X186463D02*
D03*
X248647Y269908D02*
D03*
X254924D02*
D03*
X242524D02*
D03*
Y276208D02*
D03*
X248647D02*
D03*
X254924D02*
D03*
X216147Y269908D02*
D03*
X222424D02*
D03*
X210024D02*
D03*
Y276208D02*
D03*
X216147D02*
D03*
X222424D02*
D03*
X189924D02*
D03*
X183647D02*
D03*
X177524D02*
D03*
Y269908D02*
D03*
X189924D02*
D03*
X183647D02*
D03*
X248647Y217608D02*
D03*
X241924Y204908D02*
D03*
Y211208D02*
D03*
X216147Y217608D02*
D03*
X209424Y204908D02*
D03*
Y211208D02*
D03*
X176924D02*
D03*
Y204908D02*
D03*
X183647Y217608D02*
D03*
M02*
