G04*
G04 #@! TF.GenerationSoftware,Altium Limited,Altium Designer,18.1.6 (161)*
G04*
G04 Layer_Color=8421504*
%FSLAX25Y25*%
%MOIN*%
G70*
G01*
G75*
%ADD14R,0.03937X0.05315*%
%ADD15R,0.07087X0.03937*%
%ADD16R,0.04331X0.02362*%
%ADD17R,0.06299X0.11811*%
%ADD18R,0.26378X0.26378*%
%ADD19R,0.05315X0.03937*%
%ADD20R,0.02362X0.03937*%
%ADD21R,0.03937X0.07087*%
%ADD22R,0.18110X0.09055*%
%ADD23R,0.02362X0.05512*%
%ADD24R,0.02362X0.05906*%
%ADD25R,0.09843X0.06299*%
%ADD26R,0.09606X0.04449*%
G36*
X214540Y391815D02*
Y383154D01*
X211981Y380594D01*
X209619D01*
X207060Y383154D01*
Y391815D01*
X209619Y394374D01*
X211981D01*
X214540Y391815D01*
D02*
G37*
D14*
X149863Y290450D02*
D03*
X157737D02*
D03*
X254598Y304856D02*
D03*
X246724D02*
D03*
X221974Y304656D02*
D03*
X214100D02*
D03*
X189530Y304537D02*
D03*
X181656D02*
D03*
X254598Y296800D02*
D03*
X246724D02*
D03*
X221974Y296600D02*
D03*
X214100D02*
D03*
X189530Y296502D02*
D03*
X181656D02*
D03*
X190400Y283800D02*
D03*
X182526D02*
D03*
X222900D02*
D03*
X215026D02*
D03*
X255500Y284000D02*
D03*
X247626D02*
D03*
X296337Y221400D02*
D03*
X288463D02*
D03*
X299974Y195037D02*
D03*
X292100D02*
D03*
X207737Y369531D02*
D03*
X199863D02*
D03*
X213800D02*
D03*
X221674D02*
D03*
X213863Y361531D02*
D03*
X221737D02*
D03*
X213863Y353532D02*
D03*
X221737D02*
D03*
D15*
X302200Y181700D02*
D03*
D16*
X175700Y286526D02*
D03*
Y290463D02*
D03*
Y294400D02*
D03*
X164676D02*
D03*
Y290463D02*
D03*
Y286526D02*
D03*
X208200D02*
D03*
Y290463D02*
D03*
Y294400D02*
D03*
X197176D02*
D03*
Y290463D02*
D03*
Y286526D02*
D03*
X240800D02*
D03*
Y290463D02*
D03*
Y294400D02*
D03*
X229776D02*
D03*
Y290463D02*
D03*
Y286526D02*
D03*
D17*
X174671Y227016D02*
D03*
X192624D02*
D03*
X207171D02*
D03*
X225124D02*
D03*
X239671D02*
D03*
X257624D02*
D03*
X201600Y208000D02*
D03*
X183647D02*
D03*
X234100D02*
D03*
X216147D02*
D03*
X266600D02*
D03*
X248647D02*
D03*
D18*
X183647Y253197D02*
D03*
X216147D02*
D03*
X248647D02*
D03*
X192624Y181819D02*
D03*
X225124D02*
D03*
X257624D02*
D03*
D19*
X170188Y300300D02*
D03*
Y308174D02*
D03*
X202348Y300300D02*
D03*
Y308174D02*
D03*
X235288Y300300D02*
D03*
Y308174D02*
D03*
X293100Y173763D02*
D03*
Y181637D02*
D03*
X285600Y173763D02*
D03*
Y181637D02*
D03*
X278100Y173763D02*
D03*
Y181637D02*
D03*
X276940Y195887D02*
D03*
Y203761D02*
D03*
Y209256D02*
D03*
Y217130D02*
D03*
X285600Y187163D02*
D03*
Y195037D02*
D03*
D20*
X292140Y203787D02*
D03*
X284660D02*
D03*
Y214613D02*
D03*
X288400D02*
D03*
X292140D02*
D03*
D21*
Y231300D02*
D03*
D22*
X275796Y361100D02*
D03*
X246269D02*
D03*
D23*
X204894Y377445D02*
D03*
X216705D02*
D03*
D24*
X210800Y377642D02*
D03*
D25*
X160287Y309300D02*
D03*
X146113D02*
D03*
D26*
X151100Y368800D02*
D03*
Y358800D02*
D03*
Y348800D02*
D03*
Y338800D02*
D03*
Y328800D02*
D03*
X184958Y368800D02*
D03*
Y358800D02*
D03*
Y348800D02*
D03*
Y338800D02*
D03*
Y328800D02*
D03*
M02*
