G04*
G04 #@! TF.GenerationSoftware,Altium Limited,Altium Designer,18.1.6 (161)*
G04*
G04 Layer_Color=16711935*
%FSLAX25Y25*%
%MOIN*%
G70*
G01*
G75*
%ADD27R,0.04737X0.06115*%
%ADD28R,0.07887X0.04737*%
%ADD32R,0.06115X0.04737*%
%ADD34R,0.04737X0.07887*%
%ADD40C,0.10800*%
%ADD41R,0.10800X0.10800*%
%ADD42C,0.16548*%
%ADD43R,0.08300X0.08300*%
%ADD44C,0.08300*%
%ADD45C,0.05800*%
%ADD68R,0.02375X0.06312*%
%ADD69R,0.07099X0.07493*%
%ADD70R,0.03950X0.02769*%
%ADD71R,0.02375X0.11036*%
%ADD72R,0.02178X0.04147*%
D27*
X164400Y316721D02*
D03*
X172274D02*
D03*
X175137Y363700D02*
D03*
X167263D02*
D03*
X156537Y208900D02*
D03*
X148663D02*
D03*
X168437Y217900D02*
D03*
X160563D02*
D03*
D28*
X277400Y294500D02*
D03*
D32*
X165500Y370944D02*
D03*
Y378818D02*
D03*
X174000Y370863D02*
D03*
Y378737D02*
D03*
X293300Y302537D02*
D03*
Y294663D02*
D03*
X285800Y302537D02*
D03*
Y294663D02*
D03*
X156500Y202437D02*
D03*
Y194563D02*
D03*
D34*
X148663Y216600D02*
D03*
D40*
X205000Y150000D02*
D03*
X225000D02*
D03*
X266532Y398600D02*
D03*
D41*
X245000Y150000D02*
D03*
X246532Y398600D02*
D03*
D42*
X157500Y392500D02*
D03*
X292500D02*
D03*
Y150000D02*
D03*
X157500D02*
D03*
D43*
X302300Y302600D02*
D03*
Y336000D02*
D03*
D44*
Y292600D02*
D03*
Y316000D02*
D03*
Y326000D02*
D03*
D45*
X176192Y304100D02*
D03*
X233200Y318600D02*
D03*
X203200Y316400D02*
D03*
X265400Y273500D02*
D03*
X232700D02*
D03*
X200000D02*
D03*
D68*
X191275Y325727D02*
D03*
X188716D02*
D03*
X186157D02*
D03*
X183598D02*
D03*
X181039D02*
D03*
X178480D02*
D03*
X175920D02*
D03*
X173361D02*
D03*
X170802D02*
D03*
X168243D02*
D03*
X165684D02*
D03*
X163125D02*
D03*
X191275Y354073D02*
D03*
X188716D02*
D03*
X186157D02*
D03*
X183598D02*
D03*
X181039D02*
D03*
X178480D02*
D03*
X175920D02*
D03*
X173361D02*
D03*
X170802D02*
D03*
X168243D02*
D03*
X165684D02*
D03*
X163125D02*
D03*
D69*
X183205Y186100D02*
D03*
X171395D02*
D03*
D70*
X193306Y370631D02*
D03*
Y361969D02*
D03*
X187400D02*
D03*
X187401Y370631D02*
D03*
X181494Y361969D02*
D03*
Y370631D02*
D03*
D71*
X187400Y366300D02*
D03*
X181494D02*
D03*
X193306D02*
D03*
D72*
X163241Y211131D02*
D03*
X165800D02*
D03*
X168359D02*
D03*
Y202469D02*
D03*
X165800D02*
D03*
X163241D02*
D03*
M02*
