G04*
G04 #@! TF.GenerationSoftware,Altium Limited,Altium Designer,18.1.6 (161)*
G04*
G04 Layer_Color=65535*
%FSLAX25Y25*%
%MOIN*%
G70*
G01*
G75*
%ADD10C,0.00984*%
%ADD11C,0.00787*%
%ADD12C,0.01000*%
%ADD13C,0.01500*%
D10*
X176192Y283179D02*
G03*
X176192Y283179I-492J0D01*
G01*
X208692D02*
G03*
X208692Y283179I-492J0D01*
G01*
X241292D02*
G03*
X241292Y283179I-492J0D01*
G01*
X169848Y227016D02*
G03*
X169848Y227016I-492J0D01*
G01*
X202348D02*
G03*
X202348Y227016I-492J0D01*
G01*
X234848D02*
G03*
X234848Y227016I-492J0D01*
G01*
X207407Y208000D02*
G03*
X207407Y208000I-492J0D01*
G01*
X239907D02*
G03*
X239907Y208000I-492J0D01*
G01*
X272407D02*
G03*
X272407Y208000I-492J0D01*
G01*
X295979Y214613D02*
G03*
X295979Y214613I-492J0D01*
G01*
X202040Y376943D02*
G03*
X202040Y376943I-492J0D01*
G01*
D11*
X152816Y292419D02*
X154784D01*
X152816Y288481D02*
X154784D01*
X249676Y302887D02*
X251645D01*
X249676Y306824D02*
X251645D01*
X217053Y302687D02*
X219021D01*
X217053Y306624D02*
X219021D01*
X184609Y302569D02*
X186577D01*
X184609Y306505D02*
X186577D01*
X249676Y294831D02*
X251645D01*
X249676Y298768D02*
X251645D01*
X217053Y294632D02*
X219021D01*
X217053Y298569D02*
X219021D01*
X184609Y294534D02*
X186577D01*
X184609Y298471D02*
X186577D01*
X168220Y284361D02*
X172157D01*
X168220Y296565D02*
X172157D01*
Y284361D02*
Y296565D01*
X168220Y284361D02*
Y296565D01*
X200720Y284361D02*
X204657D01*
X200720Y296565D02*
X204657D01*
Y284361D02*
Y296565D01*
X200720Y284361D02*
Y296565D01*
X233320Y284361D02*
X237257D01*
X233320Y296565D02*
X237257D01*
Y284361D02*
Y296565D01*
X233320Y284361D02*
Y296565D01*
X170655Y235677D02*
Y238433D01*
Y235677D02*
X196639D01*
Y238433D01*
X203155Y235677D02*
Y238433D01*
Y235677D02*
X229139D01*
Y238433D01*
X235655Y235677D02*
Y238433D01*
Y235677D02*
X261639D01*
Y238433D01*
X168220Y303253D02*
Y305221D01*
X172157Y303253D02*
Y305221D01*
X200379Y303253D02*
Y305221D01*
X204316Y303253D02*
Y305221D01*
X233320Y303253D02*
Y305221D01*
X237257Y303253D02*
Y305221D01*
X291131Y176716D02*
Y178684D01*
X295069Y176716D02*
Y178684D01*
X283631Y176716D02*
Y178684D01*
X287568Y176716D02*
Y178684D01*
X276132Y176716D02*
Y178684D01*
X280068Y176716D02*
Y178684D01*
X205616Y196583D02*
Y199339D01*
X179631D02*
X205616D01*
X179631Y196583D02*
Y199339D01*
X238116Y196583D02*
Y199339D01*
X212132D02*
X238116D01*
X212132Y196583D02*
Y199339D01*
X270616Y196583D02*
Y199339D01*
X244632D02*
X270616D01*
X244632Y196583D02*
Y199339D01*
X185479Y281832D02*
X187447D01*
X185479Y285769D02*
X187447D01*
X217979Y281832D02*
X219947D01*
X217979Y285769D02*
X219947D01*
X250579Y282031D02*
X252547D01*
X250579Y285968D02*
X252547D01*
X274972Y198840D02*
Y200809D01*
X278909Y198840D02*
Y200809D01*
X274972Y212209D02*
Y214177D01*
X278909Y212209D02*
Y214177D01*
X291416Y219431D02*
X293384D01*
X291416Y223369D02*
X293384D01*
X283631Y190116D02*
Y192084D01*
X287568Y190116D02*
Y192084D01*
X282494Y207231D02*
X294305D01*
X282494Y211169D02*
X294305D01*
X282494Y207231D02*
Y211169D01*
X294305Y207231D02*
Y211169D01*
X295053Y193069D02*
X297021D01*
X295053Y197005D02*
X297021D01*
X250402Y344368D02*
X277765D01*
Y355391D01*
Y366809D02*
Y377832D01*
X250402D02*
X277765D01*
X244300Y350470D02*
Y355391D01*
Y350470D02*
X250402Y344368D01*
X244300Y371730D02*
X250402Y377832D01*
X244300Y366809D02*
Y371730D01*
X201745Y379502D02*
Y389738D01*
X205485D01*
X219855Y379502D02*
Y389738D01*
X216115D02*
X219855D01*
X202816Y367563D02*
X204784D01*
X202816Y371500D02*
X204784D01*
X216753D02*
X218721D01*
X216753Y367563D02*
X218721D01*
X216816Y363500D02*
X218784D01*
X216816Y359563D02*
X218784D01*
X216816Y355500D02*
X218784D01*
X216816Y351563D02*
X218784D01*
X147196Y300442D02*
X162058D01*
Y304969D01*
Y313631D02*
Y318158D01*
X147196D02*
X162058D01*
X144342Y303296D02*
Y304969D01*
Y303296D02*
X147196Y300442D01*
X144342Y315304D02*
X147196Y318158D01*
X144342Y313631D02*
Y315304D01*
D12*
X255000Y134000D02*
Y166000D01*
X193000D02*
X255000D01*
X193000Y134000D02*
X255000D01*
X193000D02*
Y166000D01*
X235532Y379600D02*
Y411600D01*
Y379600D02*
X279532D01*
X235532Y411600D02*
X279532D01*
Y379600D02*
Y411600D01*
X196599Y331798D02*
X192600D01*
Y328799D01*
X194599Y329799D01*
X195599D01*
X196599Y328799D01*
Y326800D01*
X195599Y325800D01*
X193600D01*
X192600Y326800D01*
X195599Y335800D02*
Y341798D01*
X192600Y338799D01*
X196599D01*
X192600Y350798D02*
X193600Y351798D01*
X195599D01*
X196599Y350798D01*
Y349799D01*
X195599Y348799D01*
X194599D01*
X195599D01*
X196599Y347799D01*
Y346800D01*
X195599Y345800D01*
X193600D01*
X192600Y346800D01*
X196599Y355800D02*
X192600D01*
X196599Y359799D01*
Y360798D01*
X195599Y361798D01*
X193600D01*
X192600Y360798D01*
Y365800D02*
X194599D01*
X193600D01*
Y371798D01*
X192600Y370798D01*
X283093Y405299D02*
X287092D01*
X224493Y404399D02*
X228492D01*
X226492Y406398D02*
Y402400D01*
X146002Y173800D02*
X150001D01*
X152000Y175799D01*
X150001Y177799D01*
X146002D01*
X148001Y180798D02*
Y182797D01*
X149001Y183797D01*
X152000D01*
Y180798D01*
X151000Y179798D01*
X150001Y180798D01*
Y183797D01*
X148001Y185796D02*
X151000D01*
X152000Y186796D01*
Y189795D01*
X148001D01*
X153999Y193793D02*
Y194793D01*
X153000Y195793D01*
X148001D01*
Y192794D01*
X149001Y191794D01*
X151000D01*
X152000Y192794D01*
Y195793D01*
X146002Y197792D02*
X152000D01*
X149001D01*
X148001Y198792D01*
Y200791D01*
X149001Y201791D01*
X152000D01*
Y203790D02*
X148001D01*
Y206789D01*
X149001Y207789D01*
X152000D01*
X146002Y215786D02*
X152000D01*
X150001D01*
X146002Y219785D01*
X149001Y216786D01*
X152000Y219785D01*
Y222784D02*
Y224783D01*
X151000Y225783D01*
X149001D01*
X148001Y224783D01*
Y222784D01*
X149001Y221784D01*
X151000D01*
X152000Y222784D01*
X147002Y228782D02*
X148001D01*
Y227783D01*
Y229782D01*
Y228782D01*
X151000D01*
X152000Y229782D01*
X147002Y233781D02*
X148001D01*
Y232781D01*
Y234780D01*
Y233781D01*
X151000D01*
X152000Y234780D01*
Y237779D02*
Y239779D01*
Y238779D01*
X146002D01*
Y237779D01*
X152000Y245777D02*
Y243777D01*
X151000Y242778D01*
X149001D01*
X148001Y243777D01*
Y245777D01*
X149001Y246776D01*
X150001D01*
Y242778D01*
X148001Y248776D02*
X152000D01*
X150001D01*
X149001Y249775D01*
X148001Y250775D01*
Y251775D01*
X307800Y154700D02*
X301802D01*
X303801Y156699D01*
X301802Y158699D01*
X307800D01*
X302802Y164697D02*
X301802Y163697D01*
Y161698D01*
X302802Y160698D01*
X306800D01*
X307800Y161698D01*
Y163697D01*
X306800Y164697D01*
X301802Y169695D02*
Y167696D01*
X302802Y166696D01*
X306800D01*
X307800Y167696D01*
Y169695D01*
X306800Y170695D01*
X302802D01*
X301802Y169695D01*
X307800Y172694D02*
X301802D01*
X303801Y174694D01*
X301802Y176693D01*
X307800D01*
X167700Y316399D02*
Y312400D01*
X169033Y313733D01*
X170366Y312400D01*
Y316399D01*
X171699Y312400D02*
Y316399D01*
X173698D01*
X174364Y315732D01*
Y314399D01*
X173698Y313733D01*
X171699D01*
X229400Y327099D02*
Y323766D01*
X230066Y323100D01*
X231399D01*
X232066Y323766D01*
Y327099D01*
X233399Y323100D02*
Y327099D01*
X235398D01*
X236065Y326432D01*
Y325099D01*
X235398Y324433D01*
X233399D01*
X199500Y324899D02*
Y322233D01*
X200833Y320900D01*
X202166Y322233D01*
Y324899D01*
X203499Y320900D02*
Y324899D01*
X205498D01*
X206165Y324232D01*
Y322899D01*
X205498Y322233D01*
X203499D01*
X261600Y281999D02*
Y278666D01*
X262266Y278000D01*
X263599D01*
X264266Y278666D01*
Y281999D01*
X265599Y278000D02*
Y281999D01*
X268265Y278000D01*
Y281999D01*
X228900D02*
Y279333D01*
X230233Y278000D01*
X231566Y279333D01*
Y281999D01*
X232899Y278000D02*
Y281999D01*
X235564Y278000D01*
Y281999D01*
X196200D02*
Y278000D01*
X197533Y279333D01*
X198866Y278000D01*
Y281999D01*
X200199Y278000D02*
Y281999D01*
X202865Y278000D01*
Y281999D01*
X263200Y386899D02*
X267199D01*
X244400Y386799D02*
X248399D01*
X246399Y388798D02*
Y384800D01*
X197699Y398898D02*
X193700D01*
Y395899D01*
X195699Y396899D01*
X196699D01*
X197699Y395899D01*
Y393900D01*
X196699Y392900D01*
X194700D01*
X193700Y393900D01*
X199698Y398898D02*
Y394899D01*
X201697Y392900D01*
X203697Y394899D01*
Y398898D01*
X282099Y293698D02*
X281099Y294698D01*
X279100D01*
X278100Y293698D01*
Y289700D01*
X279100Y288700D01*
X281099D01*
X282099Y289700D01*
Y291699D01*
X280099D01*
X284098Y288700D02*
Y294698D01*
X288097Y288700D01*
Y294698D01*
X290096D02*
Y288700D01*
X293095D01*
X294095Y289700D01*
Y293698D01*
X293095Y294698D01*
X290096D01*
X263100Y299400D02*
Y303399D01*
X265099Y305398D01*
X267099Y303399D01*
Y299400D01*
Y302399D01*
X263100D01*
X269098Y299400D02*
Y305398D01*
X273097Y299400D01*
Y305398D01*
X275096Y299400D02*
Y300400D01*
X276096D01*
Y299400D01*
X275096D01*
X286093Y305398D02*
X288092D01*
X287092D01*
Y299400D01*
X286093D01*
X288092D01*
X291091D02*
Y305398D01*
X295090Y299400D01*
Y305398D01*
X283299Y317598D02*
X282299Y318598D01*
X280300D01*
X279300Y317598D01*
Y313600D01*
X280300Y312600D01*
X282299D01*
X283299Y313600D01*
Y315599D01*
X281299D01*
X285298Y312600D02*
Y318598D01*
X289297Y312600D01*
Y318598D01*
X291296D02*
Y312600D01*
X294295D01*
X295295Y313600D01*
Y317598D01*
X294295Y318598D01*
X291296D01*
X265699Y329398D02*
X261700D01*
Y326399D01*
X263699D01*
X261700D01*
Y323400D01*
X271697Y328398D02*
X270697Y329398D01*
X268698D01*
X267698Y328398D01*
Y324400D01*
X268698Y323400D01*
X270697D01*
X271697Y324400D01*
Y326399D01*
X269697D01*
X273696Y322400D02*
X277695D01*
X282693Y329398D02*
X280694D01*
X279694Y328398D01*
Y324400D01*
X280694Y323400D01*
X282693D01*
X283693Y324400D01*
Y328398D01*
X282693Y329398D01*
X285692D02*
Y324400D01*
X286692Y323400D01*
X288691D01*
X289691Y324400D01*
Y329398D01*
X291690D02*
X295689D01*
X293690D01*
Y323400D01*
X272500Y338898D02*
Y332900D01*
X275499D01*
X276499Y333900D01*
Y337898D01*
X275499Y338898D01*
X272500D01*
X278498D02*
Y333900D01*
X279498Y332900D01*
X281497D01*
X282497Y333900D01*
Y338898D01*
X284496D02*
X288495D01*
X286495D01*
Y332900D01*
X290494Y338898D02*
Y337898D01*
X292494Y335899D01*
X294493Y337898D01*
Y338898D01*
X292494Y335899D02*
Y332900D01*
X281281Y243798D02*
X277282D01*
Y240799D01*
X279281D01*
X277282D01*
Y237800D01*
X283280Y243798D02*
Y237800D01*
X286279D01*
X287279Y238800D01*
Y242798D01*
X286279Y243798D01*
X283280D01*
X289278D02*
Y237800D01*
X292277D01*
X293277Y238800D01*
Y239799D01*
X292277Y240799D01*
X289278D01*
X292277D01*
X293277Y241799D01*
Y242798D01*
X292277Y243798D01*
X289278D01*
X295276D02*
Y237800D01*
Y239799D01*
X299275Y243798D01*
X296276Y240799D01*
X299275Y237800D01*
X271200Y252998D02*
X275199D01*
Y251998D01*
X271200Y248000D01*
Y247000D01*
X275199D01*
X281197Y252998D02*
X277198D01*
Y247000D01*
X281197D01*
X277198Y249999D02*
X279197D01*
X283196Y247000D02*
Y252998D01*
X286195D01*
X287195Y251998D01*
Y249999D01*
X286195Y248999D01*
X283196D01*
X285195D02*
X287195Y247000D01*
X292193Y252998D02*
X290194D01*
X289194Y251998D01*
Y248000D01*
X290194Y247000D01*
X292193D01*
X293193Y248000D01*
Y251998D01*
X292193Y252998D01*
X295192Y249999D02*
X299191D01*
X301190Y252998D02*
X305189Y247000D01*
Y252998D02*
X301190Y247000D01*
X173200Y151998D02*
Y146000D01*
X175199Y147999D01*
X177199Y146000D01*
Y151998D01*
X179198D02*
Y147999D01*
X181197Y146000D01*
X183197Y147999D01*
Y151998D01*
X185196D02*
Y147000D01*
X186196Y146000D01*
X188195D01*
X189195Y147000D01*
Y151998D01*
D13*
X210200Y331600D02*
Y341597D01*
X215198D01*
X216864Y339931D01*
Y336598D01*
X215198Y334932D01*
X210200D01*
X213532D02*
X216864Y331600D01*
X225195D02*
X221863D01*
X220197Y333266D01*
Y336598D01*
X221863Y338264D01*
X225195D01*
X226861Y336598D01*
Y334932D01*
X220197D01*
X230193Y338264D02*
X233526Y331600D01*
X236858Y338264D01*
X250187Y331600D02*
Y338264D01*
X253519Y341597D01*
X256852Y338264D01*
Y331600D01*
Y336598D01*
X250187D01*
M02*
