G04*
G04 #@! TF.GenerationSoftware,Altium Limited,Altium Designer,18.1.6 (161)*
G04*
G04 Layer_Color=128*
%FSLAX25Y25*%
%MOIN*%
G70*
G01*
G75*
%ADD14R,0.03937X0.05315*%
%ADD15R,0.07087X0.03937*%
%ADD19R,0.05315X0.03937*%
%ADD21R,0.03937X0.07087*%
%ADD62R,0.01575X0.05512*%
%ADD63R,0.06299X0.06693*%
%ADD64R,0.03150X0.01968*%
%ADD65R,0.01575X0.10236*%
%ADD66R,0.01378X0.03347*%
D14*
X164400Y316721D02*
D03*
X172274D02*
D03*
X175137Y363700D02*
D03*
X167263D02*
D03*
X156537Y208900D02*
D03*
X148663D02*
D03*
X168437Y217900D02*
D03*
X160563D02*
D03*
D15*
X277400Y294500D02*
D03*
D19*
X165500Y370944D02*
D03*
Y378818D02*
D03*
X174000Y370863D02*
D03*
Y378737D02*
D03*
X293300Y302537D02*
D03*
Y294663D02*
D03*
X285800Y302537D02*
D03*
Y294663D02*
D03*
X156500Y202437D02*
D03*
Y194563D02*
D03*
D21*
X148663Y216600D02*
D03*
D62*
X191275Y325727D02*
D03*
X188716D02*
D03*
X186157D02*
D03*
X183598D02*
D03*
X181039D02*
D03*
X178480D02*
D03*
X175920D02*
D03*
X173361D02*
D03*
X170802D02*
D03*
X168243D02*
D03*
X165684D02*
D03*
X163125D02*
D03*
X191275Y354073D02*
D03*
X188716D02*
D03*
X186157D02*
D03*
X183598D02*
D03*
X181039D02*
D03*
X178480D02*
D03*
X175920D02*
D03*
X173361D02*
D03*
X170802D02*
D03*
X168243D02*
D03*
X165684D02*
D03*
X163125D02*
D03*
D63*
X183205Y186100D02*
D03*
X171395D02*
D03*
D64*
X193306Y370631D02*
D03*
Y361969D02*
D03*
X187400D02*
D03*
X187401Y370631D02*
D03*
X181494Y361969D02*
D03*
Y370631D02*
D03*
D65*
X187400Y366300D02*
D03*
X181494D02*
D03*
X193306D02*
D03*
D66*
X163241Y211131D02*
D03*
X165800D02*
D03*
X168359D02*
D03*
Y202469D02*
D03*
X165800D02*
D03*
X163241D02*
D03*
M02*
