G04*
G04 #@! TF.GenerationSoftware,Altium Limited,Altium Designer,18.1.6 (161)*
G04*
G04 Layer_Color=65535*
%FSLAX25Y25*%
%MOIN*%
G70*
G01*
G75*
%ADD10C,0.00984*%
%ADD11C,0.02362*%
%ADD12C,0.00787*%
%ADD13C,0.01000*%
%ADD14C,0.00100*%
%ADD15C,0.00500*%
%ADD16C,0.01968*%
%ADD17C,0.00591*%
D10*
X168183Y211795D02*
G03*
X168183Y211795I-492J0D01*
G01*
X218187Y229922D02*
G03*
X218187Y229922I-492J0D01*
G01*
X177556Y194178D02*
G03*
X177556Y194178I-492J0D01*
G01*
X114946Y227912D02*
G03*
X114946Y227912I-492J0D01*
G01*
D11*
X118057Y218641D02*
G03*
X118057Y218641I-1181J0D01*
G01*
D12*
X161107Y200702D02*
X169180Y208775D01*
X163891Y197918D02*
X171964Y205991D01*
X169180Y208775D02*
X171964Y205991D01*
X161107Y200702D02*
X163891Y197918D01*
X219156Y226929D02*
X220827Y225259D01*
X213032Y220804D02*
X214702Y219134D01*
X213032Y220804D02*
X219156Y226929D01*
X214702Y219134D02*
X220827Y225259D01*
X153058Y225274D02*
X154450Y226666D01*
X150274Y228058D02*
X151666Y229450D01*
X140551Y130118D02*
X142520D01*
X140551Y126181D02*
X142520D01*
X140354Y138976D02*
X142323D01*
X140354Y135039D02*
X142323D01*
X178734Y190838D02*
X181518Y188054D01*
X179291Y185827D02*
X181518Y188054D01*
X170383Y182486D02*
X173167Y179702D01*
X175394Y181929D01*
X218189Y181616D02*
X221669Y185096D01*
X230299D01*
X206636Y161433D02*
Y170063D01*
X210116Y173543D01*
X230299Y185096D02*
X249647Y165748D01*
X241852Y157953D02*
X249647Y165748D01*
X225984Y142085D02*
X233779Y149880D01*
X206636Y161433D02*
X225984Y142085D01*
X189279Y240629D02*
X190671Y242021D01*
X186495Y243412D02*
X187887Y244804D01*
X179863Y231180D02*
X181255Y232572D01*
X177079Y233964D02*
X178471Y235356D01*
X170381Y221731D02*
X171773Y223123D01*
X167597Y224515D02*
X168989Y225907D01*
X208964Y227833D02*
X210356Y229225D01*
X206180Y230617D02*
X207572Y232009D01*
X98728Y221928D02*
X100119Y223320D01*
X95944Y224712D02*
X97335Y226104D01*
X186523Y167794D02*
X187915Y169186D01*
X183739Y170578D02*
X185131Y171970D01*
X102956Y210290D02*
X116876Y224209D01*
X111865Y201381D02*
X125784Y215301D01*
X116876Y224209D02*
X125784Y215301D01*
X102956Y210290D02*
X111865Y201381D01*
X131180Y181391D02*
X132572Y179999D01*
X133964Y184175D02*
X135356Y182783D01*
X105814Y196914D02*
X107206Y195522D01*
X108598Y199698D02*
X109990Y198306D01*
X164251Y175696D02*
X165643Y177088D01*
X167035Y172912D02*
X168427Y174304D01*
X138266Y188477D02*
X139658Y187085D01*
X141050Y191261D02*
X142442Y189869D01*
X96337Y206391D02*
X97729Y204999D01*
X99121Y209174D02*
X100513Y207783D01*
D13*
X160410Y245565D02*
X165978Y251132D01*
X160410Y256700D02*
X165978Y251132D01*
X134241Y219652D02*
X139809Y225220D01*
X128674D02*
X134241Y219652D01*
X216359Y205906D02*
X222016Y211563D01*
X225197Y197067D02*
X230854Y202724D01*
X152878Y273835D02*
Y305835D01*
Y273835D02*
X196878D01*
X152878Y305835D02*
X196878D01*
Y273835D02*
Y305835D01*
X37984Y148941D02*
X69984D01*
Y192941D01*
X37984Y148941D02*
Y192941D01*
X69984D01*
X277772Y190941D02*
X309772D01*
X277772Y146941D02*
Y190941D01*
X309772Y146941D02*
Y190941D01*
X277772Y146941D02*
X309772D01*
X194878Y34047D02*
Y66047D01*
X150878D02*
X194878D01*
X150878Y34047D02*
X194878D01*
X150878D02*
Y66047D01*
X207936Y258345D02*
X206936Y259345D01*
X204937D01*
X203937Y258345D01*
Y257345D01*
X204937Y256346D01*
X206936D01*
X207936Y255346D01*
Y254346D01*
X206936Y253346D01*
X204937D01*
X203937Y254346D01*
X209935Y259345D02*
X211934D01*
X210935D01*
Y253346D01*
X209935D01*
X211934D01*
X218932Y258345D02*
X217933Y259345D01*
X215933D01*
X214933Y258345D01*
Y254346D01*
X215933Y253346D01*
X217933D01*
X218932Y254346D01*
Y256346D01*
X216933D01*
X227362Y257527D02*
X231361D01*
X230861Y241884D02*
X233688Y239057D01*
X244050Y228499D02*
X246877Y225671D01*
X246877Y228499D02*
X244050Y225671D01*
X109494Y253803D02*
X108080Y252389D01*
Y250975D01*
X110907Y248148D01*
X112321D01*
X113735Y249562D01*
Y250975D01*
X110907Y253803D01*
X109494D01*
X114442Y258751D02*
X111614Y255924D01*
X113735Y253803D01*
X115149Y255217D01*
X113735Y253803D01*
X115855Y251682D01*
X118683Y262992D02*
X115855Y260165D01*
X117976Y258044D01*
X119390Y259458D01*
X117976Y258044D01*
X120097Y255924D01*
X132525Y275850D02*
X131111Y274436D01*
Y273023D01*
X133939Y270195D01*
X135353D01*
X136766Y271609D01*
Y273023D01*
X133939Y275850D01*
X132525D01*
X138887Y273729D02*
X134646Y277971D01*
X141715Y276557D01*
X137473Y280798D01*
X218762Y298502D02*
X217763Y299502D01*
X215763D01*
X214764Y298502D01*
Y297503D01*
X215763Y296503D01*
X217763D01*
X218762Y295503D01*
Y294504D01*
X217763Y293504D01*
X215763D01*
X214764Y294504D01*
X220762Y299502D02*
Y293504D01*
Y296503D01*
X221761Y297503D01*
X223761D01*
X224761Y296503D01*
Y293504D01*
X226760Y297503D02*
Y294504D01*
X227760Y293504D01*
X230759D01*
Y297503D01*
X232758Y293504D02*
Y297503D01*
X235757D01*
X236757Y296503D01*
Y293504D01*
X239756Y298502D02*
Y297503D01*
X238756D01*
X240755D01*
X239756D01*
Y294504D01*
X240755Y293504D01*
X249752D02*
Y299502D01*
X251752Y297503D01*
X253751Y299502D01*
Y293504D01*
X258750D02*
X256750D01*
X255750Y294504D01*
Y296503D01*
X256750Y297503D01*
X258750D01*
X259749Y296503D01*
Y295503D01*
X255750D01*
X262748Y297503D02*
X264748D01*
X265747Y296503D01*
Y293504D01*
X262748D01*
X261749Y294504D01*
X262748Y295503D01*
X265747D01*
X267747Y293504D02*
X270746D01*
X271745Y294504D01*
X270746Y295503D01*
X268746D01*
X267747Y296503D01*
X268746Y297503D01*
X271745D01*
X273745Y293504D02*
Y294504D01*
X274744D01*
Y293504D01*
X273745D01*
X244291Y283526D02*
X248290Y279528D01*
X246291Y281527D01*
X248290Y283526D01*
X244291Y279528D01*
X250289D02*
X252289D01*
X251289D01*
Y285526D01*
X250289Y284526D01*
X255288D02*
X256288Y285526D01*
X258287D01*
X259286Y284526D01*
Y280527D01*
X258287Y279528D01*
X256288D01*
X255288Y280527D01*
Y284526D01*
X261286D02*
X262285Y285526D01*
X264285D01*
X265285Y284526D01*
Y280527D01*
X264285Y279528D01*
X262285D01*
X261286Y280527D01*
Y284526D01*
X170337Y114447D02*
X169338Y115447D01*
X167338D01*
X166339Y114447D01*
Y110449D01*
X167338Y109449D01*
X169338D01*
X170337Y110449D01*
Y112448D01*
X168338D01*
X172337Y109449D02*
Y115447D01*
X176335Y109449D01*
Y115447D01*
X178335D02*
Y109449D01*
X181334D01*
X182333Y110449D01*
Y114447D01*
X181334Y115447D01*
X178335D01*
X211614Y83935D02*
X212614Y84935D01*
X214613D01*
X215613Y83935D01*
Y82936D01*
X214613Y81936D01*
X213614D01*
X214613D01*
X215613Y80936D01*
Y79937D01*
X214613Y78937D01*
X212614D01*
X211614Y79937D01*
X217612Y78937D02*
Y79937D01*
X218612D01*
Y78937D01*
X217612D01*
X222611Y83935D02*
X223610Y84935D01*
X225610D01*
X226609Y83935D01*
Y82936D01*
X225610Y81936D01*
X224610D01*
X225610D01*
X226609Y80936D01*
Y79937D01*
X225610Y78937D01*
X223610D01*
X222611Y79937D01*
X228609Y84935D02*
Y80936D01*
X230608Y78937D01*
X232607Y80936D01*
Y84935D01*
X117507Y85329D02*
X113509D01*
Y82330D01*
X115508Y83329D01*
X116508D01*
X117507Y82330D01*
Y80330D01*
X116508Y79331D01*
X114508D01*
X113509Y80330D01*
X119507Y79331D02*
Y80330D01*
X120506D01*
Y79331D01*
X119507D01*
X124505Y84329D02*
X125505Y85329D01*
X127504D01*
X128504Y84329D01*
Y80330D01*
X127504Y79331D01*
X125505D01*
X124505Y80330D01*
Y84329D01*
X130503Y85329D02*
Y81330D01*
X132502Y79331D01*
X134502Y81330D01*
Y85329D01*
X151378Y142453D02*
X152034Y143109D01*
X153346D01*
X154002Y142453D01*
Y141797D01*
X153346Y141141D01*
X152690D01*
X153346D01*
X154002Y140485D01*
Y139829D01*
X153346Y139173D01*
X152034D01*
X151378Y139829D01*
X155314Y139173D02*
Y139829D01*
X155970D01*
Y139173D01*
X155314D01*
X158593Y142453D02*
X159249Y143109D01*
X160561D01*
X161217Y142453D01*
Y141797D01*
X160561Y141141D01*
X159905D01*
X160561D01*
X161217Y140485D01*
Y139829D01*
X160561Y139173D01*
X159249D01*
X158593Y139829D01*
X162529Y143109D02*
Y140485D01*
X163841Y139173D01*
X165153Y140485D01*
Y143109D01*
X173024D02*
X170401D01*
Y139173D01*
X173024D01*
X170401Y141141D02*
X171713D01*
X174336Y139173D02*
Y143109D01*
X176960Y139173D01*
Y143109D01*
X154395Y133660D02*
X151772D01*
Y131692D01*
X153084Y132348D01*
X153740D01*
X154395Y131692D01*
Y130380D01*
X153740Y129724D01*
X152428D01*
X151772Y130380D01*
X155707Y129724D02*
Y130380D01*
X156363D01*
Y129724D01*
X155707D01*
X158987Y133004D02*
X159643Y133660D01*
X160955D01*
X161611Y133004D01*
Y130380D01*
X160955Y129724D01*
X159643D01*
X158987Y130380D01*
Y133004D01*
X162923Y133660D02*
Y131036D01*
X164235Y129724D01*
X165547Y131036D01*
Y133660D01*
X173418D02*
X170794D01*
Y129724D01*
X173418D01*
X170794Y131692D02*
X172106D01*
X174730Y129724D02*
Y133660D01*
X177354Y129724D01*
Y133660D01*
X121833Y185666D02*
X119005Y188493D01*
X116884Y186373D01*
X119005Y185666D01*
X119712Y184959D01*
Y183545D01*
X118298Y182131D01*
X116884D01*
X115471Y183545D01*
Y184959D01*
X119005Y180011D02*
X119712Y180718D01*
X120419Y180011D01*
X119712Y179304D01*
X119005Y180011D01*
X126074D02*
X127488D01*
X128901Y178597D01*
Y177183D01*
X126074Y174356D01*
X124660D01*
X123246Y175769D01*
Y177183D01*
X126074Y180011D01*
X131022Y176476D02*
X128194Y173649D01*
Y170821D01*
X131022Y170821D01*
X133850Y173649D01*
X136408Y208259D02*
X137822D01*
X139236Y206845D01*
Y205431D01*
X138529Y204724D01*
X137115D01*
X136408Y205431D01*
X137115Y204724D01*
Y203311D01*
X136408Y202604D01*
X134995D01*
X133581Y204017D01*
Y205431D01*
X137115Y200483D02*
X137822Y201190D01*
X138529Y200483D01*
X137822Y199776D01*
X137115Y200483D01*
X144184D02*
X145598D01*
X147012Y199069D01*
Y197656D01*
X146305Y196949D01*
X144891D01*
X144184Y197656D01*
X144891Y196949D01*
Y195535D01*
X144184Y194828D01*
X142770D01*
X141357Y196242D01*
Y197656D01*
X149132Y196949D02*
X146305Y194121D01*
Y191294D01*
X149132Y191294D01*
X151960Y194121D01*
X173464Y169005D02*
X170637Y166177D01*
Y163350D01*
X173464Y163350D01*
X176292Y166177D01*
X177705Y164764D02*
X173464Y160522D01*
X175585Y158402D01*
X176998D01*
X177705Y159109D01*
Y160522D01*
X175585Y162643D01*
X177705Y160522D01*
X179119D01*
X179826Y161229D01*
Y162643D01*
X177705Y164764D01*
Y156281D02*
X180533Y159109D01*
X183360D01*
X183360Y156281D01*
X180533Y153454D01*
X182653Y155574D01*
X179826Y158402D01*
X186188Y156281D02*
X189015Y153454D01*
X187602Y154867D01*
X183360Y150626D01*
X190429Y152040D02*
X193257Y149213D01*
X191843Y150626D01*
X187602Y146385D01*
X201032Y140023D02*
Y141437D01*
X199619Y142850D01*
X198205D01*
X195377Y140023D01*
Y138609D01*
X196791Y137196D01*
X198205D01*
X199619Y138609D01*
X198205Y140023D01*
X205274Y137196D02*
X203860Y138609D01*
X202446D01*
X199619Y135782D01*
Y134368D01*
X201032Y132954D01*
X202446D01*
X205274Y135782D01*
Y137196D01*
X209515Y132954D02*
X208101Y134368D01*
X206687D01*
X203860Y131541D01*
Y130127D01*
X205274Y128713D01*
X206687D01*
X209515Y131541D01*
Y132954D01*
X211635Y130834D02*
X207394Y126592D01*
X209515Y124472D01*
X210929D01*
X213756Y127299D01*
Y128713D01*
X211635Y130834D01*
D14*
X92309Y137125D02*
X105109D01*
X83509D02*
X85409D01*
X76509D02*
X80009D01*
X110309Y137225D02*
X115309D01*
X92309D02*
X105109D01*
X83609D02*
X85509D01*
X76409D02*
X79909D01*
X110709Y137325D02*
X114809D01*
X101709D02*
X103209D01*
X92409D02*
X92509D01*
X83609D02*
X85609D01*
X76309D02*
X79909D01*
X111209Y137425D02*
X114209D01*
X83709D02*
X85609D01*
X76309D02*
X79809D01*
X112309Y137525D02*
X113109D01*
X83809D02*
X85709D01*
X76209D02*
X79709D01*
X83809Y137625D02*
X85809D01*
X76109D02*
X79709D01*
X83909Y137725D02*
X85909D01*
X76109D02*
X79609D01*
X84009Y137825D02*
X85909D01*
X76009D02*
X79609D01*
X84109Y137925D02*
X86009D01*
X75909D02*
X79509D01*
X84109Y138025D02*
X86109D01*
X75909D02*
X79409D01*
X84209Y138125D02*
X86209D01*
X75809D02*
X79409D01*
X84309Y138225D02*
X86209D01*
X75709D02*
X79309D01*
X84309Y138325D02*
X86309D01*
X75709D02*
X79309D01*
X84409Y138425D02*
X86409D01*
X75609D02*
X79209D01*
X84509Y138525D02*
X86509D01*
X75509D02*
X79109D01*
X84509Y138625D02*
X86609D01*
X75509D02*
X79109D01*
X84609Y138725D02*
X86609D01*
X75409D02*
X79009D01*
X84709Y138825D02*
X86709D01*
X75309D02*
X79009D01*
X84709Y138925D02*
X86809D01*
X75309D02*
X78909D01*
X84809Y139025D02*
X86909D01*
X75209D02*
X78909D01*
X84909Y139125D02*
X86909D01*
X75109D02*
X78809D01*
X84909Y139225D02*
X87009D01*
X75009D02*
X78709D01*
X85009Y139325D02*
X87109D01*
X75009D02*
X78709D01*
X85109Y139425D02*
X87209D01*
X74909D02*
X78609D01*
X85209Y139525D02*
X87309D01*
X74809D02*
X78609D01*
X85209Y139625D02*
X87309D01*
X74709D02*
X78509D01*
X85309Y139725D02*
X87409D01*
X74709D02*
X78409D01*
X85409Y139825D02*
X87509D01*
X74609D02*
X78409D01*
X85409Y139925D02*
X87609D01*
X74509D02*
X78309D01*
X85509Y140025D02*
X87709D01*
X74409D02*
X78309D01*
X85609Y140125D02*
X87709D01*
X74309D02*
X78209D01*
X85609Y140225D02*
X87809D01*
X74209D02*
X78109D01*
X85709Y140325D02*
X87909D01*
X74109D02*
X78109D01*
X85809Y140425D02*
X88009D01*
X74009D02*
X78009D01*
X85809Y140525D02*
X88109D01*
X73909D02*
X77909D01*
X85909Y140625D02*
X88209D01*
X73809D02*
X77909D01*
X86009Y140725D02*
X88209D01*
X73709D02*
X77809D01*
X86009Y140825D02*
X88309D01*
X73609D02*
X77809D01*
X86109Y140925D02*
X88409D01*
X73509D02*
X77709D01*
X86209Y141025D02*
X88509D01*
X73309D02*
X77609D01*
X86309Y141125D02*
X88609D01*
X73209D02*
X77509D01*
X86309Y141225D02*
X88709D01*
X72909D02*
X77509D01*
X86409Y141325D02*
X88809D01*
X72609D02*
X77409D01*
X71309D02*
X71909D01*
X86509Y141425D02*
X88909D01*
X71309D02*
X77309D01*
X86509Y141525D02*
X89009D01*
X71309D02*
X77309D01*
X86609Y141625D02*
X89109D01*
X71309D02*
X77209D01*
X86709Y141725D02*
X89409D01*
X71309D02*
X77109D01*
X86709Y141825D02*
X90609D01*
X71309D02*
X77009D01*
X86809Y141925D02*
X90609D01*
X71309D02*
X76909D01*
X86909Y142025D02*
X90609D01*
X71309D02*
X76809D01*
X86909Y142125D02*
X90609D01*
X71309D02*
X76809D01*
X87009Y142225D02*
X90609D01*
X71309D02*
X76709D01*
X87109Y142325D02*
X90609D01*
X71609D02*
X76609D01*
X87109Y142425D02*
X90609D01*
X72309D02*
X76509D01*
X87209Y142525D02*
X90609D01*
X72909D02*
X76409D01*
X87309Y142625D02*
X90609D01*
X73509D02*
X76309D01*
X87309Y142725D02*
X90609D01*
X74209D02*
X76109D01*
X74809Y142825D02*
X76009D01*
X75409Y142925D02*
X75909D01*
X108109Y113625D02*
X108609D01*
X92909D02*
X93509D01*
X98609D02*
X99209D01*
X112009D02*
X112509D01*
X113309D02*
X114009D01*
X102109D02*
X102709D01*
X104709D02*
X106509D01*
X114809D02*
X115609D01*
X100709D02*
X101309D01*
X96309D02*
X98009D01*
X103509D02*
X104109D01*
X109509D02*
X110009D01*
X94209D02*
X95809D01*
X115709D02*
X116809D01*
X110709D02*
X111309D01*
X117509D02*
X118209D01*
X121909D02*
X122409D01*
X120609D02*
X121209D01*
X118509D02*
X118609D01*
X119109D02*
X119809D01*
X123309D02*
X123909D01*
X124709D02*
X125309D01*
X125909D02*
X126309D01*
X126909D02*
X127409D01*
X63409Y113525D02*
X65709D01*
X66109D02*
X66709D01*
X67309D02*
X68109D01*
X68809D02*
X69909D01*
X70309D02*
X71109D01*
X72309D02*
X73809D01*
X74409D02*
X75209D01*
X75809D02*
X76609D01*
X77209D02*
X78009D01*
X78809D02*
X80209D01*
X81809D02*
X84209D01*
X84609D02*
X85409D01*
X86109D02*
X86809D01*
X87409D02*
X89309D01*
X89909D02*
X90709D01*
X91309D02*
X92109D01*
X92809D02*
X93509D01*
X94209D02*
X95709D01*
X96409D02*
X97909D01*
X98509D02*
X99309D01*
X100609D02*
X101409D01*
X102009D02*
X102709D01*
X103409D02*
X104209D01*
X104809D02*
X106709D01*
X108109D02*
X108809D01*
X109409D02*
X109909D01*
X110809D02*
X111409D01*
X111909D02*
X112409D01*
X113209D02*
X114109D01*
X114809D02*
X117009D01*
X117509D02*
X118609D01*
X119109D02*
X119909D01*
X120709D02*
X121409D01*
X121809D02*
X122309D01*
X123209D02*
X124009D01*
X124609D02*
X125409D01*
X125909D02*
X126409D01*
X126909D02*
X127309D01*
X63109Y113425D02*
X65709D01*
X65809D02*
X66909D01*
X67109D02*
X68409D01*
X68809D02*
X69909D01*
X70109D02*
X71509D01*
X72409D02*
X73709D01*
X74109D02*
X75309D01*
X75609D02*
X76809D01*
X77009D02*
X78209D01*
X78909D02*
X80109D01*
X81509D02*
X84209D01*
X84409D02*
X85609D01*
X85909D02*
X87009D01*
X87509D02*
X89409D01*
X89709D02*
X91009D01*
X91109D02*
X92309D01*
X92609D02*
X93809D01*
X94409D02*
X95609D01*
X96509D02*
X97809D01*
X98309D02*
X99609D01*
X100309D02*
X101609D01*
X101709D02*
X102909D01*
X103209D02*
X104409D01*
X104809D02*
X106809D01*
X108109D02*
X109809D01*
X110909D02*
X112309D01*
X113009D02*
X114309D01*
X114909D02*
X115909D01*
X116109D02*
X117009D01*
X117509D02*
X118609D01*
X118809D02*
X120109D01*
X120809D02*
X122209D01*
X122909D02*
X124209D01*
X124409D02*
X125609D01*
X125909D02*
X127209D01*
X63109Y113325D02*
X65709D01*
X65809D02*
X66909D01*
X67109D02*
X68409D01*
X68909D02*
X69709D01*
X70109D02*
X71509D01*
X72609D02*
X73509D01*
X74109D02*
X75309D01*
X75609D02*
X76809D01*
X77009D02*
X78209D01*
X79009D02*
X80009D01*
X81509D02*
X84109D01*
X84409D02*
X85609D01*
X85909D02*
X87009D01*
X87609D02*
X89509D01*
X89709D02*
X91009D01*
X91109D02*
X92309D01*
X92609D02*
X93809D01*
X94509D02*
X95509D01*
X96709D02*
X97609D01*
X98309D02*
X99609D01*
X100309D02*
X101609D01*
X101709D02*
X102909D01*
X103209D02*
X104409D01*
X104909D02*
X106909D01*
X108309D02*
X109609D01*
X111109D02*
X112109D01*
X113009D02*
X114309D01*
X115009D02*
X115809D01*
X116109D02*
X116609D01*
X117609D02*
X118409D01*
X118809D02*
X120109D01*
X121009D02*
X122009D01*
X122909D02*
X124209D01*
X124409D02*
X125609D01*
X126009D02*
X127109D01*
X69109Y113225D02*
X69409D01*
X72909D02*
X73209D01*
X79309D02*
X79709D01*
X87709D02*
X89509D01*
X94809D02*
X95209D01*
X97009D02*
X97309D01*
X105109D02*
X106909D01*
X108709D02*
X109309D01*
X111409D02*
X111809D01*
X115209D02*
X115509D01*
X117909D02*
X118109D01*
X121309D02*
X121709D01*
X126409D02*
X126809D01*
X87609Y113125D02*
X87909D01*
X88909D02*
X89509D01*
X104909D02*
X105309D01*
X106209D02*
X106909D01*
X87409Y113025D02*
X87809D01*
X89009D02*
X89509D01*
X104809D02*
X105209D01*
X106409D02*
X106909D01*
X87309Y112925D02*
X87809D01*
X89009D02*
X89509D01*
X104709D02*
X105209D01*
X106409D02*
X106909D01*
X87309Y112825D02*
X87809D01*
X89009D02*
X89509D01*
X104609D02*
X105109D01*
X106409D02*
X106909D01*
X87209Y112725D02*
X87809D01*
X89009D02*
X89409D01*
X104609D02*
X105109D01*
X106409D02*
X106809D01*
X87209Y112625D02*
X87809D01*
X89009D02*
X89409D01*
X104609D02*
X105209D01*
X106409D02*
X106809D01*
X87309Y112525D02*
X87909D01*
X88909D02*
X89309D01*
X104609D02*
X105309D01*
X106309D02*
X106709D01*
X87309Y112425D02*
X88109D01*
X88709D02*
X89209D01*
X104709D02*
X105509D01*
X106109D02*
X106609D01*
X87409Y112325D02*
X89109D01*
X104709D02*
X106509D01*
X87509Y112225D02*
X88909D01*
X104909D02*
X106309D01*
X87709Y112125D02*
X88709D01*
X105109D02*
X106009D01*
X116109Y133925D02*
X117009D01*
X106709D02*
X108709D01*
X103809D02*
X104709D01*
X94709D02*
X97109D01*
X78409D02*
X83009D01*
X116109Y134025D02*
X117009D01*
X106709D02*
X108709D01*
X103809D02*
X104709D01*
X94609D02*
X97109D01*
X78409D02*
X83109D01*
X116109Y134125D02*
X117009D01*
X106809D02*
X108709D01*
X103809D02*
X104709D01*
X94609D02*
X97109D01*
X78309D02*
X83109D01*
X116109Y134225D02*
X117009D01*
X106809D02*
X108809D01*
X103809D02*
X104709D01*
X94609D02*
X97109D01*
X78309D02*
X83209D01*
X116109Y134325D02*
X117009D01*
X106809D02*
X108809D01*
X103809D02*
X104709D01*
X94609D02*
X97109D01*
X78209D02*
X83309D01*
X116109Y134425D02*
X117109D01*
X106909D02*
X108809D01*
X103809D02*
X104709D01*
X94609D02*
X97109D01*
X78109D02*
X83409D01*
X116109Y134525D02*
X117109D01*
X106909D02*
X108909D01*
X103809D02*
X104709D01*
X94609D02*
X97109D01*
X81709D02*
X83409D01*
X78109D02*
X81509D01*
X116109Y134625D02*
X117109D01*
X107009D02*
X108909D01*
X103809D02*
X104809D01*
X94609D02*
X97109D01*
X81809D02*
X83509D01*
X78009D02*
X81409D01*
X116109Y134725D02*
X117109D01*
X107009D02*
X109009D01*
X103809D02*
X104809D01*
X94609D02*
X97109D01*
X81809D02*
X83609D01*
X78009D02*
X81409D01*
X116109Y134825D02*
X117109D01*
X107109D02*
X109009D01*
X103809D02*
X104809D01*
X94609D02*
X97109D01*
X81909D02*
X83709D01*
X77909D02*
X81309D01*
X116109Y134925D02*
X117109D01*
X107109D02*
X109109D01*
X103709D02*
X104809D01*
X94609D02*
X97109D01*
X82009D02*
X83709D01*
X77809D02*
X81309D01*
X116109Y135025D02*
X117109D01*
X107209D02*
X109209D01*
X103709D02*
X104809D01*
X94609D02*
X97109D01*
X82109D02*
X83809D01*
X77809D02*
X81209D01*
X116009Y135125D02*
X117109D01*
X107209D02*
X109209D01*
X103709D02*
X104809D01*
X94609D02*
X97109D01*
X82109D02*
X83909D01*
X77709D02*
X81109D01*
X116009Y135225D02*
X117109D01*
X107309D02*
X109309D01*
X103709D02*
X104809D01*
X94609D02*
X97109D01*
X82209D02*
X84009D01*
X77609D02*
X81109D01*
X115909Y135325D02*
X117109D01*
X107409D02*
X109409D01*
X103709D02*
X104809D01*
X94509D02*
X97109D01*
X82309D02*
X84009D01*
X77609D02*
X81009D01*
X115909Y135425D02*
X117209D01*
X107409D02*
X109509D01*
X103709D02*
X104809D01*
X94509D02*
X97109D01*
X82309D02*
X84109D01*
X77509D02*
X81009D01*
X115709Y135525D02*
X117209D01*
X107509D02*
X109609D01*
X103709D02*
X104809D01*
X94509D02*
X97109D01*
X82409D02*
X84209D01*
X77509D02*
X80909D01*
X115609Y135625D02*
X117209D01*
X107609D02*
X109709D01*
X103709D02*
X104809D01*
X94509D02*
X97109D01*
X82509D02*
X84309D01*
X77409D02*
X80809D01*
X115509Y135725D02*
X117209D01*
X107709D02*
X109909D01*
X103609D02*
X104909D01*
X94509D02*
X97109D01*
X82509D02*
X84309D01*
X77309D02*
X80809D01*
X115309Y135825D02*
X117209D01*
X107809D02*
X110009D01*
X103309D02*
X104909D01*
X94509D02*
X97109D01*
X82609D02*
X84409D01*
X77309D02*
X80709D01*
X115109Y135925D02*
X117209D01*
X107909D02*
X110209D01*
X102909D02*
X104909D01*
X94509D02*
X97109D01*
X82709D02*
X84509D01*
X77209D02*
X80709D01*
X114909Y136025D02*
X117309D01*
X108009D02*
X110409D01*
X102409D02*
X104909D01*
X94409D02*
X97109D01*
X82709D02*
X84609D01*
X77209D02*
X80609D01*
X114609Y136125D02*
X117309D01*
X108109D02*
X110609D01*
X101609D02*
X104909D01*
X94409D02*
X97909D01*
X82809D02*
X84609D01*
X77109D02*
X80609D01*
X114309Y136225D02*
X117309D01*
X108209D02*
X110909D01*
X94209D02*
X104909D01*
X82909D02*
X84709D01*
X77009D02*
X80509D01*
X113909Y136325D02*
X117309D01*
X108409D02*
X111209D01*
X94009D02*
X104909D01*
X83009D02*
X84809D01*
X77009D02*
X80409D01*
X113309Y136425D02*
X117309D01*
X108509D02*
X111709D01*
X93009D02*
X105009D01*
X83009D02*
X84909D01*
X76909D02*
X80409D01*
X108609Y136525D02*
X117309D01*
X92409D02*
X105009D01*
X83109D02*
X84909D01*
X76809D02*
X80309D01*
X108809Y136625D02*
X117109D01*
X92309D02*
X105009D01*
X83209D02*
X85009D01*
X76809D02*
X80309D01*
X109009Y136725D02*
X116909D01*
X92309D02*
X105009D01*
X83209D02*
X85109D01*
X76709D02*
X80209D01*
X109209Y136825D02*
X116609D01*
X92309D02*
X105009D01*
X83309D02*
X85209D01*
X76709D02*
X80109D01*
X109409Y136925D02*
X116309D01*
X92309D02*
X105109D01*
X83409D02*
X85209D01*
X76609D02*
X80109D01*
X109709Y137025D02*
X116009D01*
X92309D02*
X105109D01*
X83409D02*
X85309D01*
X76509D02*
X80009D01*
X109909Y137125D02*
X115709D01*
X65309Y115925D02*
X65609D01*
X63609D02*
X64209D01*
X119209Y116025D02*
X119709D01*
X117609D02*
X118009D01*
X113409D02*
X114009D01*
X109709D02*
X110009D01*
X108209D02*
X108709D01*
X100709D02*
X101209D01*
X90009D02*
X90509D01*
X83709D02*
X84009D01*
X82009D02*
X82609D01*
X68909D02*
X69309D01*
X65309D02*
X65609D01*
X63609D02*
X64209D01*
X119109Y116125D02*
X119709D01*
X117709D02*
X118009D01*
X113409D02*
X114009D01*
X109709D02*
X110009D01*
X108209D02*
X108709D01*
X100609D02*
X101209D01*
X90009D02*
X90609D01*
X83709D02*
X84009D01*
X82009D02*
X82609D01*
X69009D02*
X69309D01*
X65309D02*
X65609D01*
X63609D02*
X64209D01*
X119109Y116225D02*
X119809D01*
X117809D02*
X118009D01*
X113409D02*
X114009D01*
X109609D02*
X110009D01*
X108309D02*
X108709D01*
X100609D02*
X101309D01*
X89909D02*
X90609D01*
X83609D02*
X84009D01*
X82009D02*
X82609D01*
X69109D02*
X69309D01*
X65209D02*
X65609D01*
X63609D02*
X64209D01*
X119109Y116325D02*
X119809D01*
X113409D02*
X114009D01*
X109509D02*
X110009D01*
X108309D02*
X108809D01*
X100609D02*
X101309D01*
X89909D02*
X90609D01*
X83409D02*
X84009D01*
X81909D02*
X82709D01*
X65009D02*
X65609D01*
X63509D02*
X64209D01*
X119109Y116425D02*
X119709D01*
X113309D02*
X114009D01*
X108409D02*
X110009D01*
X100609D02*
X101209D01*
X90009D02*
X90609D01*
X81609D02*
X84009D01*
X63209D02*
X65609D01*
X119209Y116525D02*
X119709D01*
X113109D02*
X114009D01*
X108609D02*
X109909D01*
X100709D02*
X101209D01*
X90009D02*
X90509D01*
X81609D02*
X84009D01*
X63209D02*
X65609D01*
X113009Y116625D02*
X114009D01*
X108909D02*
X109609D01*
X113309Y116725D02*
X114009D01*
X113809Y116825D02*
X113909D01*
X110209Y120625D02*
X112409D01*
X109409Y120725D02*
X113109D01*
X108909Y120825D02*
X113509D01*
X99309D02*
X104409D01*
X92709D02*
X94009D01*
X108409Y120925D02*
X113909D01*
X92609D02*
X105209D01*
X89209D02*
X91009D01*
X86309D02*
X87709D01*
X70909D02*
X74309D01*
X108009Y121025D02*
X114209D01*
X92609D02*
X105209D01*
X86209D02*
X91009D01*
X70909D02*
X74309D01*
X107709Y121125D02*
X114509D01*
X92609D02*
X105209D01*
X86109D02*
X91009D01*
X70909D02*
X74409D01*
X107409Y121225D02*
X114809D01*
X92609D02*
X105209D01*
X86109D02*
X91009D01*
X70909D02*
X74509D01*
X107109Y121325D02*
X115009D01*
X92609D02*
X105209D01*
X86009D02*
X91009D01*
X70909D02*
X74509D01*
X106809Y121425D02*
X115209D01*
X92609D02*
X105209D01*
X86009D02*
X91009D01*
X70909D02*
X74609D01*
X106609Y121525D02*
X115409D01*
X92609D02*
X105209D01*
X85909D02*
X91009D01*
X70909D02*
X74709D01*
X106709Y121625D02*
X115609D01*
X92709D02*
X105209D01*
X85809D02*
X91009D01*
X70909D02*
X74709D01*
X112809Y121725D02*
X115709D01*
X106709D02*
X110509D01*
X94109D02*
X105209D01*
X85809D02*
X91009D01*
X70909D02*
X74809D01*
X113309Y121825D02*
X115909D01*
X106709D02*
X110009D01*
X94309D02*
X105209D01*
X85709D02*
X91009D01*
X70909D02*
X74809D01*
X113709Y121925D02*
X116009D01*
X106709D02*
X109709D01*
X94409D02*
X105209D01*
X85709D02*
X89709D01*
X72209D02*
X74909D01*
X114009Y122025D02*
X116209D01*
X106709D02*
X109409D01*
X102809D02*
X105209D01*
X94409D02*
X97809D01*
X85609D02*
X89509D01*
X72409D02*
X75009D01*
X114209Y122125D02*
X116309D01*
X106709D02*
X109209D01*
X103409D02*
X105209D01*
X94509D02*
X97109D01*
X85609D02*
X89309D01*
X72509D02*
X75009D01*
X114409Y122225D02*
X116409D01*
X106709D02*
X109009D01*
X103709D02*
X105209D01*
X94509D02*
X97109D01*
X85509D02*
X89209D01*
X72609D02*
X75109D01*
X114609Y122325D02*
X116509D01*
X106709D02*
X108809D01*
X104009D02*
X105209D01*
X94609D02*
X97109D01*
X85409D02*
X89209D01*
X72709D02*
X75209D01*
X114809Y122425D02*
X116609D01*
X106709D02*
X108609D01*
X104109D02*
X105209D01*
X94609D02*
X97109D01*
X85409D02*
X89109D01*
X72809D02*
X75209D01*
X114909Y122525D02*
X116709D01*
X106809D02*
X108409D01*
X104109D02*
X105209D01*
X94609D02*
X97109D01*
X85309D02*
X89009D01*
X72909D02*
X75309D01*
X115009Y122625D02*
X116809D01*
X106809D02*
X108309D01*
X104109D02*
X105209D01*
X94609D02*
X97109D01*
X85309D02*
X88909D01*
X73009D02*
X75309D01*
X115209Y122725D02*
X116909D01*
X106809D02*
X108109D01*
X104109D02*
X105209D01*
X94609D02*
X97109D01*
X85209D02*
X88909D01*
X73109D02*
X75409D01*
X115309Y122825D02*
X117009D01*
X106809D02*
X108009D01*
X104109D02*
X105209D01*
X94609D02*
X97109D01*
X85109D02*
X88809D01*
X73209D02*
X75509D01*
X115409Y122925D02*
X117109D01*
X106809D02*
X107909D01*
X104209D02*
X105209D01*
X94609D02*
X97109D01*
X85109D02*
X88709D01*
X73209D02*
X75509D01*
X115509Y123025D02*
X117209D01*
X106809D02*
X107909D01*
X104209D02*
X105209D01*
X94609D02*
X97109D01*
X85009D02*
X88709D01*
X73309D02*
X75609D01*
X115509Y123125D02*
X117309D01*
X106809D02*
X107809D01*
X104209D02*
X105209D01*
X94609D02*
X97109D01*
X85009D02*
X88609D01*
X73409D02*
X75709D01*
X115609Y123225D02*
X117309D01*
X106809D02*
X107809D01*
X104209D02*
X105209D01*
X94609D02*
X97109D01*
X84909D02*
X88509D01*
X73509D02*
X75709D01*
X115709Y123325D02*
X117409D01*
X106809D02*
X107709D01*
X104209D02*
X105309D01*
X94609D02*
X97109D01*
X84809D02*
X88509D01*
X73509D02*
X75809D01*
X115709Y123425D02*
X117509D01*
X106809D02*
X107709D01*
X104309D02*
X105309D01*
X94709D02*
X97109D01*
X84809D02*
X88409D01*
X73609D02*
X75809D01*
X115809Y123525D02*
X117509D01*
X106809D02*
X107709D01*
X104309D02*
X105309D01*
X94709D02*
X97109D01*
X84709D02*
X88309D01*
X73709D02*
X75909D01*
X115909Y123625D02*
X117609D01*
X106809D02*
X107709D01*
X104309D02*
X105309D01*
X94709D02*
X97109D01*
X84709D02*
X88309D01*
X73809D02*
X76009D01*
X115909Y123725D02*
X117709D01*
X106809D02*
X107709D01*
X104309D02*
X105309D01*
X94709D02*
X97109D01*
X84609D02*
X88209D01*
X73809D02*
X76009D01*
X116009Y123825D02*
X117709D01*
X106809D02*
X107709D01*
X104409D02*
X105309D01*
X94709D02*
X97109D01*
X84509D02*
X88209D01*
X73909D02*
X76109D01*
X116009Y123925D02*
X117809D01*
X106809D02*
X107709D01*
X104409D02*
X105309D01*
X94709D02*
X97109D01*
X84509D02*
X88109D01*
X74009D02*
X76209D01*
X116009Y124025D02*
X117809D01*
X106809D02*
X107709D01*
X104409D02*
X105309D01*
X94709D02*
X97109D01*
X84409D02*
X88009D01*
X74109D02*
X76209D01*
X116109Y124125D02*
X117909D01*
X106809D02*
X107709D01*
X104409D02*
X105309D01*
X94709D02*
X97109D01*
X84409D02*
X88009D01*
X74109D02*
X76309D01*
X116109Y124225D02*
X117909D01*
X106809D02*
X107709D01*
X104409D02*
X105409D01*
X94709D02*
X97109D01*
X84309D02*
X87909D01*
X74209D02*
X76309D01*
X116109Y124325D02*
X118009D01*
X106809D02*
X107709D01*
X104509D02*
X105409D01*
X94709D02*
X97109D01*
X84209D02*
X87809D01*
X74309D02*
X76409D01*
X99309Y115225D02*
X100109D01*
X98409D02*
X99209D01*
X97409D02*
X98009D01*
X96509D02*
X96909D01*
X95309D02*
X95809D01*
X94309D02*
X94709D01*
X91209D02*
X93409D01*
X89809D02*
X90609D01*
X88609D02*
X89409D01*
X87509D02*
X88009D01*
X84509D02*
X86609D01*
X83509D02*
X83809D01*
X82009D02*
X82609D01*
X79809D02*
X80309D01*
X78809D02*
X79309D01*
X74309D02*
X77809D01*
X73309D02*
X73909D01*
X72409D02*
X72809D01*
X71109D02*
X72009D01*
X70209D02*
X71009D01*
X68709D02*
X69309D01*
X67509D02*
X67909D01*
X66309D02*
X66909D01*
X65009D02*
X65409D01*
X63609D02*
X64209D01*
X126909Y115325D02*
X127309D01*
X126009D02*
X126509D01*
X124009D02*
X125209D01*
X123009D02*
X123909D01*
X121709D02*
X122309D01*
X120809D02*
X121309D01*
X118909D02*
X119809D01*
X117109D02*
X118609D01*
X115809D02*
X116709D01*
X114409D02*
X115309D01*
X113409D02*
X114009D01*
X111809D02*
X112409D01*
X110809D02*
X111409D01*
X108209D02*
X109209D01*
X105809D02*
X106909D01*
X104909D02*
X105509D01*
X101809D02*
X103909D01*
X100409D02*
X101309D01*
X99409D02*
X100109D01*
X98309D02*
X99209D01*
X97309D02*
X97909D01*
X96609D02*
X97009D01*
X95109D02*
X95709D01*
X94409D02*
X94909D01*
X91209D02*
X93309D01*
X89709D02*
X90609D01*
X88509D02*
X89509D01*
X87609D02*
X88109D01*
X85409D02*
X86609D01*
X84409D02*
X85309D01*
X83509D02*
X83809D01*
X82009D02*
X82609D01*
X79709D02*
X80309D01*
X78909D02*
X79409D01*
X76609D02*
X77809D01*
X75209D02*
X76409D01*
X74209D02*
X75109D01*
X73209D02*
X73809D01*
X72509D02*
X72909D01*
X71209D02*
X72009D01*
X70109D02*
X71009D01*
X68409D02*
X69909D01*
X67409D02*
X68109D01*
X66109D02*
X67009D01*
X65109D02*
X65409D01*
X63609D02*
X64209D01*
X126109Y115425D02*
X127309D01*
X124109D02*
X125109D01*
X123109D02*
X123909D01*
X120909D02*
X122209D01*
X118909D02*
X119809D01*
X117109D02*
X118609D01*
X115709D02*
X116709D01*
X114409D02*
X115309D01*
X113409D02*
X114009D01*
X111009D02*
X112309D01*
X108109D02*
X109009D01*
X105009D02*
X107009D01*
X102909D02*
X103909D01*
X101809D02*
X102709D01*
X100409D02*
X101309D01*
X99409D02*
X100109D01*
X98409D02*
X99209D01*
X96709D02*
X97809D01*
X94509D02*
X95609D01*
X92309D02*
X93309D01*
X91209D02*
X92109D01*
X89809D02*
X90609D01*
X87709D02*
X89609D01*
X85509D02*
X86509D01*
X84509D02*
X85309D01*
X83509D02*
X83809D01*
X82009D02*
X82609D01*
X79009D02*
X80209D01*
X76709D02*
X77709D01*
X75309D02*
X76309D01*
X74209D02*
X75109D01*
X72609D02*
X73709D01*
X71309D02*
X71909D01*
X70209D02*
X71009D01*
X68409D02*
X69909D01*
X67309D02*
X68309D01*
X65909D02*
X67109D01*
X65109D02*
X65409D01*
X63609D02*
X64209D01*
X126309Y115525D02*
X127209D01*
X124309D02*
X125009D01*
X123509D02*
X123909D01*
X121109D02*
X122009D01*
X119409D02*
X119809D01*
X117209D02*
X118609D01*
X116109D02*
X116709D01*
X114709D02*
X115309D01*
X113409D02*
X114009D01*
X111209D02*
X112109D01*
X108109D02*
X108809D01*
X106709D02*
X107009D01*
X105209D02*
X106109D01*
X103009D02*
X103709D01*
X102309D02*
X102709D01*
X100909D02*
X101309D01*
X99609D02*
X100009D01*
X98909D02*
X99209D01*
X96909D02*
X97709D01*
X94709D02*
X95509D01*
X92409D02*
X93109D01*
X91709D02*
X92109D01*
X90209D02*
X90609D01*
X89309D02*
X89609D01*
X87909D02*
X88809D01*
X85709D02*
X86409D01*
X84909D02*
X85309D01*
X82009D02*
X82609D01*
X79209D02*
X80009D01*
X76909D02*
X77609D01*
X75509D02*
X76209D01*
X74709D02*
X75109D01*
X72809D02*
X73609D01*
X71409D02*
X71909D01*
X70709D02*
X71009D01*
X68509D02*
X69909D01*
X67309D02*
X68309D01*
X65909D02*
X67109D01*
X63609D02*
X64209D01*
X117409Y115625D02*
X118009D01*
X113409D02*
X114009D01*
X108109D02*
X108809D01*
X82009D02*
X82609D01*
X68709D02*
X69309D01*
X63609D02*
X64209D01*
X117409Y115725D02*
X118009D01*
X113409D02*
X114009D01*
X108109D02*
X108709D01*
X82009D02*
X82609D01*
X68709D02*
X69309D01*
X63609D02*
X64209D01*
X117409Y115825D02*
X118009D01*
X113409D02*
X114009D01*
X109809D02*
X110009D01*
X108109D02*
X108709D01*
X83809D02*
X84009D01*
X82009D02*
X82609D01*
X68709D02*
X69309D01*
X65409D02*
X65609D01*
X63609D02*
X64209D01*
X119409Y115925D02*
X119509D01*
X117509D02*
X118009D01*
X113409D02*
X114009D01*
X109809D02*
X110009D01*
X108109D02*
X108709D01*
X100909D02*
X101009D01*
X90209D02*
X90309D01*
X83809D02*
X84109D01*
X82009D02*
X82609D01*
X68809D02*
X69309D01*
X116109Y124425D02*
X118009D01*
X106809D02*
X107709D01*
X104509D02*
X105409D01*
X94709D02*
X97109D01*
X84209D02*
X87809D01*
X74309D02*
X76509D01*
X116209Y124525D02*
X118109D01*
X106809D02*
X107709D01*
X104509D02*
X105409D01*
X94709D02*
X97109D01*
X84109D02*
X87709D01*
X74409D02*
X76509D01*
X116209Y124625D02*
X118109D01*
X106809D02*
X107709D01*
X104509D02*
X105409D01*
X94709D02*
X97109D01*
X84109D02*
X87609D01*
X74509D02*
X76609D01*
X116209Y124725D02*
X118109D01*
X106809D02*
X107709D01*
X104509D02*
X105409D01*
X94709D02*
X97109D01*
X84009D02*
X87609D01*
X74609D02*
X76709D01*
X116209Y124825D02*
X118209D01*
X106809D02*
X107709D01*
X104609D02*
X105409D01*
X94709D02*
X97109D01*
X83909D02*
X87509D01*
X74609D02*
X76709D01*
X116209Y124925D02*
X118209D01*
X106809D02*
X107709D01*
X94709D02*
X97109D01*
X83909D02*
X87509D01*
X74709D02*
X76809D01*
X116209Y125025D02*
X118209D01*
X106809D02*
X107709D01*
X94709D02*
X97109D01*
X83809D02*
X87409D01*
X74809D02*
X76809D01*
X116209Y125125D02*
X118209D01*
X106909D02*
X107709D01*
X94709D02*
X97109D01*
X83809D02*
X87309D01*
X74909D02*
X76909D01*
X116209Y125225D02*
X118309D01*
X94709D02*
X97109D01*
X83709D02*
X87309D01*
X74909D02*
X77009D01*
X116209Y125325D02*
X118309D01*
X94709D02*
X97109D01*
X83609D02*
X87209D01*
X75009D02*
X77009D01*
X116209Y125425D02*
X118309D01*
X94709D02*
X97109D01*
X83609D02*
X87109D01*
X75109D02*
X77109D01*
X116209Y125525D02*
X118309D01*
X94709D02*
X97109D01*
X83509D02*
X87109D01*
X75209D02*
X77209D01*
X116209Y125625D02*
X118309D01*
X94709D02*
X97109D01*
X83509D02*
X87009D01*
X75209D02*
X77209D01*
X116209Y125725D02*
X118309D01*
X94709D02*
X97109D01*
X83409D02*
X87009D01*
X75309D02*
X77309D01*
X116209Y125825D02*
X118309D01*
X94709D02*
X97109D01*
X83309D02*
X86909D01*
X75409D02*
X77409D01*
X116209Y125925D02*
X118309D01*
X94709D02*
X97109D01*
X83309D02*
X86809D01*
X75409D02*
X77409D01*
X116209Y126025D02*
X118309D01*
X94709D02*
X97109D01*
X83209D02*
X86809D01*
X75509D02*
X77509D01*
X116109Y126125D02*
X118409D01*
X94709D02*
X97109D01*
X83209D02*
X86709D01*
X75609D02*
X77509D01*
X116109Y126225D02*
X118409D01*
X94709D02*
X97109D01*
X83109D02*
X86609D01*
X75709D02*
X77609D01*
X116109Y126325D02*
X118409D01*
X94709D02*
X97109D01*
X125909Y115125D02*
X126409D01*
X124609D02*
X125209D01*
X123309D02*
X124009D01*
X121909D02*
X122509D01*
X120609D02*
X121109D01*
X119109D02*
X119809D01*
X117409D02*
X118009D01*
X116109D02*
X116709D01*
X114709D02*
X115309D01*
X113409D02*
X114009D01*
X112009D02*
X112609D01*
X110709D02*
X111209D01*
X108309D02*
X109509D01*
X106009D02*
X106509D01*
X104809D02*
X105409D01*
X103309D02*
X104009D01*
X102009D02*
X102809D01*
X100709D02*
X101309D01*
X98609D02*
X100109D01*
X97509D02*
X98009D01*
X96409D02*
X96809D01*
X95309D02*
X95909D01*
X94209D02*
X94709D01*
X92709D02*
X93409D01*
X91409D02*
X92209D01*
X90009D02*
X90609D01*
X88609D02*
X89209D01*
X87409D02*
X88009D01*
X86009D02*
X86709D01*
X84709D02*
X85509D01*
X82009D02*
X83809D01*
X79809D02*
X80409D01*
X78709D02*
X79209D01*
X77209D02*
X77909D01*
X75809D02*
X76709D01*
X74509D02*
X75309D01*
X73409D02*
X74009D01*
X72309D02*
X72809D01*
X70409D02*
X71909D01*
X68709D02*
X69309D01*
X67409D02*
X67809D01*
X66309D02*
X67009D01*
X63609D02*
X65409D01*
X127009Y115225D02*
X127309D01*
X126009D02*
X126409D01*
X123109D02*
X125209D01*
X121809D02*
X122409D01*
X120609D02*
X121209D01*
X118909D02*
X119809D01*
X117409D02*
X118009D01*
X116009D02*
X116709D01*
X114609D02*
X115309D01*
X113409D02*
X114009D01*
X111909D02*
X112509D01*
X110709D02*
X111309D01*
X108209D02*
X109409D01*
X105909D02*
X106809D01*
X104809D02*
X105409D01*
X101809D02*
X104009D01*
X100409D02*
X101309D01*
X84709Y113825D02*
X85309D01*
X86109D02*
X86709D01*
X87409D02*
X88009D01*
X90009D02*
X90609D01*
X91509D02*
X92109D01*
X92909D02*
X93509D01*
X94109D02*
X94809D01*
X95709D02*
X95909D01*
X96209D02*
X97009D01*
X97909D02*
X98009D01*
X98609D02*
X99209D01*
X100709D02*
X101309D01*
X102109D02*
X102709D01*
X103509D02*
X104109D01*
X104809D02*
X105309D01*
X108109D02*
X108509D01*
X109609D02*
X110109D01*
X110609D02*
X111209D01*
X112109D02*
X112609D01*
X113409D02*
X114009D01*
X114709D02*
X115309D01*
X116109D02*
X116709D01*
X117409D02*
X118009D01*
X119209D02*
X119809D01*
X120509D02*
X121109D01*
X122009D02*
X122609D01*
X123309D02*
X123909D01*
X124709D02*
X125309D01*
X125809D02*
X126109D01*
X126909D02*
X127509D01*
X63609Y113725D02*
X64209D01*
X65409D02*
X65809D01*
X66409D02*
X66709D01*
X67209D02*
X67909D01*
X68709D02*
X69409D01*
X70409D02*
X71009D01*
X72209D02*
X73109D01*
X73609D02*
X74009D01*
X74509D02*
X75109D01*
X75909D02*
X76509D01*
X77309D02*
X77909D01*
X78609D02*
X79509D01*
X80009D02*
X80409D01*
X82009D02*
X82709D01*
X83809D02*
X84209D01*
X84709D02*
X85309D01*
X86109D02*
X86709D01*
X87309D02*
X88109D01*
X90009D02*
X90609D01*
X91509D02*
X92109D01*
X92909D02*
X93509D01*
X94109D02*
X95009D01*
X95509D02*
X95909D01*
X96209D02*
X97109D01*
X97709D02*
X98109D01*
X98609D02*
X99209D01*
X100709D02*
X101309D01*
X102109D02*
X102709D01*
X103509D02*
X104109D01*
X104709D02*
X105409D01*
X108109D02*
X108509D01*
X109509D02*
X110109D01*
X110609D02*
X111309D01*
X112009D02*
X112609D01*
X113409D02*
X114009D01*
X114709D02*
X115409D01*
X116009D02*
X116709D01*
X117409D02*
X118109D01*
X119209D02*
X119809D01*
X120509D02*
X121209D01*
X121909D02*
X122509D01*
X123309D02*
X123909D01*
X124709D02*
X125309D01*
X125809D02*
X126209D01*
X126909D02*
X127409D01*
X63509Y113625D02*
X64309D01*
X65309D02*
X65809D01*
X66309D02*
X66709D01*
X67309D02*
X68009D01*
X68709D02*
X69509D01*
X69709D02*
X69909D01*
X70409D02*
X71109D01*
X72209D02*
X73909D01*
X74509D02*
X75109D01*
X75909D02*
X76509D01*
X77309D02*
X77909D01*
X78709D02*
X80309D01*
X82009D02*
X82709D01*
X83709D02*
X84209D01*
X84709D02*
X85309D01*
X86109D02*
X86709D01*
X87309D02*
X89209D01*
X90009D02*
X90609D01*
X91409D02*
X92109D01*
X80209Y113825D02*
X80409D01*
X82009D02*
X82709D01*
X74509D02*
X75109D01*
X83909D02*
X84309D01*
X75909D02*
X76509D01*
X77309D02*
X77909D01*
X78609D02*
X79309D01*
X73809D02*
X74009D01*
X72109D02*
X72909D01*
X70409D02*
X71009D01*
X68709D02*
X69309D01*
X67209D02*
X67809D01*
X66509D02*
X66809D01*
X65509D02*
X65809D01*
X63609D02*
X64209D01*
X126909Y113925D02*
X127509D01*
X125809D02*
X126109D01*
X124709D02*
X125309D01*
X123309D02*
X123909D01*
X122009D02*
X122609D01*
X120409D02*
X121109D01*
X119209D02*
X119809D01*
X117409D02*
X118009D01*
X116109D02*
X116709D01*
X114709D02*
X115309D01*
X113409D02*
X114009D01*
X112109D02*
X112709D01*
X110509D02*
X111209D01*
X109609D02*
X110109D01*
X108009D02*
X108409D01*
X105009D02*
X105309D01*
X103509D02*
X104109D01*
X102109D02*
X102709D01*
X100709D02*
X101309D01*
X98609D02*
X99209D01*
X96209D02*
X96909D01*
X94009D02*
X94709D01*
X92909D02*
X93509D01*
X91509D02*
X92109D01*
X90009D02*
X90609D01*
X87609D02*
X88009D01*
X86109D02*
X86709D01*
X84709D02*
X85309D01*
X84009D02*
X84309D01*
X82009D02*
X82609D01*
X78509D02*
X79209D01*
X77309D02*
X77909D01*
X75909D02*
X76509D01*
X74509D02*
X75109D01*
X72109D02*
X72809D01*
X70409D02*
X71009D01*
X68709D02*
X69309D01*
X67109D02*
X67809D01*
X66509D02*
X66909D01*
X65509D02*
X65809D01*
X63609D02*
X64209D01*
X126809Y114025D02*
X127509D01*
X125809D02*
X126009D01*
X124709D02*
X125309D01*
X123309D02*
X123909D01*
X122009D02*
X122609D01*
X120409D02*
X121109D01*
X119209D02*
X119809D01*
X117409D02*
X118009D01*
X116109D02*
X116709D01*
X114709D02*
X115309D01*
X113409D02*
X114009D01*
X112109D02*
X112709D01*
X110509D02*
X111209D01*
X109609D02*
X110209D01*
X108009D02*
X108309D01*
X105109D02*
X105909D01*
X103509D02*
X104109D01*
X102109D02*
X102709D01*
X100709D02*
X101309D01*
X98609D02*
X99209D01*
X96109D02*
X96809D01*
X94009D02*
X94709D01*
X92909D02*
X93509D01*
X91509D02*
X92109D01*
X90009D02*
X90609D01*
X87709D02*
X88509D01*
X86109D02*
X86709D01*
X84709D02*
X85309D01*
X84009D02*
X84309D01*
X82009D02*
X82609D01*
X78509D02*
X79209D01*
X77309D02*
X77909D01*
X75909D02*
X76509D01*
X74509D02*
X75109D01*
X72109D02*
X72709D01*
X70409D02*
X71009D01*
X68709D02*
X69309D01*
X67009D02*
X67709D01*
X66609D02*
X66909D01*
X65609D02*
X65909D01*
X63609D02*
X64209D01*
X126609Y114125D02*
X127509D01*
X124709D02*
X125309D01*
X123309D02*
X123909D01*
X122009D02*
X122709D01*
X120409D02*
X121009D01*
X119209D02*
X119809D01*
X117409D02*
X118009D01*
X116109D02*
X116709D01*
X114709D02*
X115309D01*
X113409D02*
X114009D01*
X112109D02*
X112809D01*
X110509D02*
X111109D01*
X109609D02*
X110209D01*
X108009D02*
X108309D01*
X105109D02*
X106209D01*
X103509D02*
X104109D01*
X102109D02*
X102709D01*
X100709D02*
X101309D01*
X98609D02*
X99209D01*
X96109D02*
X96809D01*
X94009D02*
X94609D01*
X92909D02*
X93509D01*
X91509D02*
X92109D01*
X90009D02*
X90609D01*
X87709D02*
X88809D01*
X86109D02*
X86709D01*
X84709D02*
X85309D01*
X84109D02*
X84309D01*
X82009D02*
X82609D01*
X78509D02*
X79109D01*
X77309D02*
X77909D01*
X75909D02*
X76509D01*
X74509D02*
X75109D01*
X72009D02*
X72709D01*
X70409D02*
X71009D01*
X68709D02*
X69309D01*
X66709D02*
X67609D01*
X65609D02*
X65809D01*
X63609D02*
X64209D01*
X126409Y114225D02*
X127409D01*
X124709D02*
X125309D01*
X123309D02*
X123909D01*
X122009D02*
X122709D01*
X120309D02*
X121009D01*
X119209D02*
X119809D01*
X117409D02*
X118009D01*
X116109D02*
X116709D01*
X114709D02*
X115309D01*
X113409D02*
X114009D01*
X112109D02*
X112809D01*
X110409D02*
X111109D01*
X109509D02*
X110209D01*
X108009D02*
X108309D01*
X104909D02*
X106309D01*
X103509D02*
X104109D01*
X102109D02*
X102709D01*
X100709D02*
X101309D01*
X98609D02*
X99209D01*
X96109D02*
X96709D01*
X94009D02*
X94609D01*
X92909D02*
X93509D01*
X91509D02*
X92109D01*
X90009D02*
X90609D01*
X87609D02*
X89009D01*
X86109D02*
X86709D01*
X84709D02*
X85309D01*
X82009D02*
X82609D01*
X78509D02*
X79109D01*
X77309D02*
X77909D01*
X75909D02*
X76509D01*
X74509D02*
X75109D01*
X72009D02*
X72609D01*
X70409D02*
X71009D01*
X68709D02*
X69309D01*
X66809D02*
X67609D01*
X63609D02*
X64209D01*
X126209Y114325D02*
X127409D01*
X124709D02*
X125309D01*
X123309D02*
X123909D01*
X122009D02*
X122709D01*
X120309D02*
X121009D01*
X119209D02*
X119809D01*
X117409D02*
X118009D01*
X116109D02*
X116709D01*
X114709D02*
X115309D01*
X113409D02*
X114009D01*
X112109D02*
X112809D01*
X110409D02*
X111109D01*
X109509D02*
X110209D01*
X105909D02*
X106409D01*
X104809D02*
X105509D01*
X103509D02*
X104109D01*
X102109D02*
X102709D01*
X100709D02*
X101309D01*
X98609D02*
X99209D01*
X96109D02*
X96709D01*
X93909D02*
X94609D01*
X92909D02*
X93509D01*
X91509D02*
X92109D01*
X90009D02*
X90609D01*
X88509D02*
X89109D01*
X87509D02*
X88109D01*
X86109D02*
X86709D01*
X84709D02*
X85309D01*
X82009D02*
X82609D01*
X78509D02*
X79109D01*
X77309D02*
X77909D01*
X75909D02*
X76509D01*
X74509D02*
X75109D01*
X72009D02*
X72609D01*
X70409D02*
X71009D01*
X68709D02*
X69309D01*
X66809D02*
X67509D01*
X63609D02*
X64209D01*
X126109Y114425D02*
X127309D01*
X124709D02*
X125309D01*
X123309D02*
X123909D01*
X122009D02*
X122709D01*
X120309D02*
X121009D01*
X119209D02*
X119809D01*
X117409D02*
X118009D01*
X116109D02*
X116709D01*
X114709D02*
X115309D01*
X113409D02*
X114009D01*
X112109D02*
X112809D01*
X110409D02*
X111109D01*
X109409D02*
X110209D01*
X106009D02*
X106509D01*
X104809D02*
X105409D01*
X103509D02*
X104109D01*
X102109D02*
X102709D01*
X100709D02*
X101309D01*
X98609D02*
X99209D01*
X96109D02*
X96709D01*
X94009D02*
X94509D01*
X92909D02*
X93509D01*
X91509D02*
X92109D01*
X90009D02*
X90609D01*
X88609D02*
X89109D01*
X87409D02*
X88009D01*
X86109D02*
X86709D01*
X84709D02*
X85309D01*
X82009D02*
X82609D01*
X78509D02*
X79109D01*
X77309D02*
X77909D01*
X75909D02*
X76509D01*
X74509D02*
X75109D01*
X72009D02*
X72609D01*
X70409D02*
X71009D01*
X68709D02*
X69309D01*
X66809D02*
X67409D01*
X63609D02*
X64209D01*
X126009Y114525D02*
X127109D01*
X124709D02*
X125309D01*
X123309D02*
X123909D01*
X122009D02*
X122709D01*
X120309D02*
X121009D01*
X119209D02*
X119809D01*
X117409D02*
X118009D01*
X116109D02*
X116709D01*
X114709D02*
X115309D01*
X113409D02*
X114009D01*
X112109D02*
X112809D01*
X110409D02*
X111109D01*
X109209D02*
X110109D01*
X106009D02*
X106609D01*
X104709D02*
X105409D01*
X103509D02*
X104109D01*
X102109D02*
X102709D01*
X100709D02*
X101309D01*
X98609D02*
X99209D01*
X96109D02*
X97309D01*
X94009D02*
X95209D01*
X92909D02*
X93509D01*
X91509D02*
X92109D01*
X90009D02*
X90609D01*
X88609D02*
X89209D01*
X87409D02*
X88009D01*
X86109D02*
X86709D01*
X84709D02*
X85309D01*
X83509D02*
X83809D01*
X82009D02*
X82609D01*
X78509D02*
X79709D01*
X77309D02*
X77909D01*
X75909D02*
X76509D01*
X74509D02*
X75109D01*
X72009D02*
X73209D01*
X70409D02*
X71009D01*
X68709D02*
X69309D01*
X66709D02*
X67409D01*
X65109D02*
X65409D01*
X63609D02*
X64209D01*
X126009Y114625D02*
X127009D01*
X124709D02*
X125309D01*
X123309D02*
X123909D01*
X122009D02*
X122709D01*
X120409D02*
X121009D01*
X119209D02*
X119809D01*
X117409D02*
X118009D01*
X116109D02*
X116709D01*
X114709D02*
X115309D01*
X113409D02*
X114009D01*
X112109D02*
X112809D01*
X110509D02*
X111109D01*
X109109D02*
X110109D01*
X106009D02*
X106609D01*
X104709D02*
X105309D01*
X103509D02*
X104109D01*
X102109D02*
X102709D01*
X100709D02*
X101309D01*
X98609D02*
X99209D01*
X96109D02*
X98009D01*
X94009D02*
X95909D01*
X92909D02*
X93509D01*
X91509D02*
X92109D01*
X90009D02*
X90609D01*
X88709D02*
X89209D01*
X87309D02*
X88009D01*
X86109D02*
X86709D01*
X84709D02*
X85309D01*
X83509D02*
X83809D01*
X82009D02*
X82609D01*
X78509D02*
X80409D01*
X77309D02*
X77909D01*
X75909D02*
X76509D01*
X74509D02*
X75109D01*
X72109D02*
X74009D01*
X70409D02*
X71009D01*
X68709D02*
X69309D01*
X66709D02*
X67409D01*
X65109D02*
X65409D01*
X63609D02*
X64209D01*
X125909Y114725D02*
X126709D01*
X124709D02*
X125309D01*
X123309D02*
X123909D01*
X122009D02*
X122709D01*
X120409D02*
X121009D01*
X119209D02*
X119809D01*
X117409D02*
X118009D01*
X116109D02*
X116709D01*
X114709D02*
X115309D01*
X113409D02*
X114009D01*
X112109D02*
X112809D01*
X110509D02*
X111109D01*
X108909D02*
X110009D01*
X106009D02*
X106609D01*
X104709D02*
X105309D01*
X103509D02*
X104109D01*
X102109D02*
X102709D01*
X100709D02*
X101309D01*
X98609D02*
X99209D01*
X96209D02*
X98109D01*
X94009D02*
X95909D01*
X92909D02*
X93509D01*
X91509D02*
X92109D01*
X90009D02*
X90609D01*
X88709D02*
X89209D01*
X87309D02*
X87909D01*
X86109D02*
X86709D01*
X84709D02*
X85309D01*
X83509D02*
X83809D01*
X82009D02*
X82609D01*
X78509D02*
X80509D01*
X77309D02*
X77909D01*
X75909D02*
X76509D01*
X74509D02*
X75109D01*
X72109D02*
X74009D01*
X70409D02*
X71009D01*
X68709D02*
X69309D01*
X66609D02*
X67409D01*
X65009D02*
X65409D01*
X63609D02*
X64209D01*
X125909Y114825D02*
X126609D01*
X124709D02*
X125309D01*
X123309D02*
X123909D01*
X122009D02*
X122609D01*
X120409D02*
X121009D01*
X119209D02*
X119809D01*
X117409D02*
X118009D01*
X116109D02*
X116709D01*
X114709D02*
X115309D01*
X113409D02*
X114009D01*
X112109D02*
X112709D01*
X110509D02*
X111109D01*
X108709D02*
X109909D01*
X106009D02*
X106609D01*
X104709D02*
X105309D01*
X103509D02*
X104109D01*
X102109D02*
X102709D01*
X100709D02*
X101309D01*
X98609D02*
X99209D01*
X97509D02*
X98109D01*
X96209D02*
X96709D01*
X95309D02*
X95909D01*
X94109D02*
X94609D01*
X92909D02*
X93509D01*
X91509D02*
X92109D01*
X90009D02*
X90609D01*
X88709D02*
X89209D01*
X87309D02*
X87909D01*
X86109D02*
X86709D01*
X84709D02*
X85309D01*
X83309D02*
X83809D01*
X82009D02*
X82609D01*
X79809D02*
X80509D01*
X78609D02*
X79109D01*
X77309D02*
X77909D01*
X75909D02*
X76509D01*
X74509D02*
X75109D01*
X73409D02*
X74009D01*
X72109D02*
X72609D01*
X70409D02*
X71109D01*
X68709D02*
X69309D01*
X66509D02*
X67509D01*
X64909D02*
X65409D01*
X63609D02*
X64209D01*
X127209Y114925D02*
X127309D01*
X125909D02*
X126409D01*
X124709D02*
X125309D01*
X123309D02*
X123909D01*
X122009D02*
X122609D01*
X120509D02*
X121009D01*
X119209D02*
X119809D01*
X117409D02*
X118009D01*
X116109D02*
X116709D01*
X114709D02*
X115309D01*
X113409D02*
X114009D01*
X112009D02*
X112709D01*
X110509D02*
X111109D01*
X108509D02*
X109809D01*
X106009D02*
X106609D01*
X104709D02*
X105309D01*
X103509D02*
X104109D01*
X102109D02*
X102709D01*
X100709D02*
X101309D01*
X98609D02*
X99309D01*
X97509D02*
X98109D01*
X96209D02*
X96709D01*
X95409D02*
X95909D01*
X94109D02*
X94609D01*
X92809D02*
X93509D01*
X91509D02*
X92109D01*
X90009D02*
X90609D01*
X88709D02*
X89209D01*
X87309D02*
X87909D01*
X86109D02*
X86709D01*
X84709D02*
X85309D01*
X82009D02*
X83809D01*
X79909D02*
X80409D01*
X78609D02*
X79109D01*
X77309D02*
X77909D01*
X75909D02*
X76509D01*
X74509D02*
X75109D01*
X73409D02*
X74009D01*
X72209D02*
X72709D01*
X70409D02*
X71109D01*
X68709D02*
X69309D01*
X67309D02*
X67609D01*
X66509D02*
X67109D01*
X63609D02*
X65409D01*
X127109Y115025D02*
X127409D01*
X125909D02*
X126409D01*
X124609D02*
X125309D01*
X123309D02*
X123909D01*
X121909D02*
X122609D01*
X120509D02*
X121109D01*
X119209D02*
X119809D01*
X117409D02*
X118009D01*
X116109D02*
X116709D01*
X114709D02*
X115309D01*
X113409D02*
X114009D01*
X112009D02*
X112709D01*
X110609D02*
X111209D01*
X108409D02*
X109709D01*
X106009D02*
X106609D01*
X104709D02*
X105309D01*
X103409D02*
X104009D01*
X102109D02*
X102709D01*
X100709D02*
X101309D01*
X99709D02*
X100009D01*
X98609D02*
X99409D01*
X97509D02*
X98109D01*
X96309D02*
X96809D01*
X95309D02*
X95909D01*
X94109D02*
X94609D01*
X92809D02*
X93409D01*
X91509D02*
X92109D01*
X90009D02*
X90609D01*
X88709D02*
X89209D01*
X87409D02*
X88009D01*
X86109D02*
X86709D01*
X84709D02*
X85309D01*
X82009D02*
X83809D01*
X79909D02*
X80409D01*
X78709D02*
X79109D01*
X77309D02*
X77909D01*
X75809D02*
X76509D01*
X74509D02*
X75109D01*
X73409D02*
X74009D01*
X72209D02*
X72709D01*
X71509D02*
X71809D01*
X70409D02*
X71209D01*
X68709D02*
X69309D01*
X67309D02*
X67709D01*
X66409D02*
X67009D01*
X63609D02*
X65409D01*
X127009Y115125D02*
X127309D01*
X83009Y126325D02*
X86609D01*
X75709D02*
X77709D01*
X116009Y126425D02*
X118409D01*
X94709D02*
X97109D01*
X83009D02*
X86509D01*
X75809D02*
X77709D01*
X116009Y126525D02*
X118409D01*
X102409D02*
X103409D01*
X94709D02*
X97109D01*
X82909D02*
X86509D01*
X75909D02*
X77809D01*
X115909Y126625D02*
X118409D01*
X102409D02*
X103309D01*
X94709D02*
X97109D01*
X82909D02*
X86409D01*
X76009D02*
X77909D01*
X115909Y126725D02*
X118309D01*
X102409D02*
X103309D01*
X94709D02*
X97109D01*
X82809D02*
X86309D01*
X76009D02*
X77909D01*
X115809Y126825D02*
X118309D01*
X102409D02*
X103309D01*
X94709D02*
X97109D01*
X82709D02*
X86309D01*
X76109D02*
X78009D01*
X115809Y126925D02*
X118309D01*
X102409D02*
X103309D01*
X94709D02*
X97109D01*
X82709D02*
X86209D01*
X76209D02*
X78109D01*
X115709Y127025D02*
X118309D01*
X102409D02*
X103309D01*
X94709D02*
X97109D01*
X82609D02*
X86109D01*
X76209D02*
X78109D01*
X115609Y127125D02*
X118309D01*
X102409D02*
X103309D01*
X94709D02*
X97109D01*
X82609D02*
X86109D01*
X76309D02*
X78209D01*
X115509Y127225D02*
X118309D01*
X102409D02*
X103309D01*
X94709D02*
X97109D01*
X82509D02*
X86009D01*
X76409D02*
X78309D01*
X115309Y127325D02*
X118309D01*
X102409D02*
X103309D01*
X94709D02*
X97109D01*
X82409D02*
X85909D01*
X76509D02*
X78309D01*
X115209Y127425D02*
X118209D01*
X102409D02*
X103309D01*
X94709D02*
X97109D01*
X82409D02*
X85909D01*
X76509D02*
X78409D01*
X115009Y127525D02*
X118209D01*
X102409D02*
X103309D01*
X94709D02*
X97109D01*
X82309D02*
X85809D01*
X76609D02*
X78509D01*
X114809Y127625D02*
X118209D01*
X102409D02*
X103309D01*
X94709D02*
X97109D01*
X82309D02*
X85809D01*
X76709D02*
X78509D01*
X114609Y127725D02*
X118109D01*
X102409D02*
X103309D01*
X94709D02*
X97109D01*
X82209D02*
X85709D01*
X76709D02*
X78609D01*
X114309Y127825D02*
X118109D01*
X102409D02*
X103309D01*
X94709D02*
X97109D01*
X82109D02*
X85609D01*
X76809D02*
X78709D01*
X113909Y127925D02*
X118109D01*
X102409D02*
X103309D01*
X94709D02*
X97109D01*
X82109D02*
X85609D01*
X76909D02*
X78709D01*
X113409Y128025D02*
X118009D01*
X102409D02*
X103309D01*
X94709D02*
X97109D01*
X82009D02*
X85509D01*
X77009D02*
X78809D01*
X112509Y128125D02*
X118009D01*
X102409D02*
X103309D01*
X94709D02*
X97109D01*
X82009D02*
X85509D01*
X77009D02*
X78909D01*
X111509Y128225D02*
X117909D01*
X102309D02*
X103309D01*
X94709D02*
X97109D01*
X81909D02*
X85409D01*
X77109D02*
X78909D01*
X110509Y128325D02*
X117909D01*
X102309D02*
X103309D01*
X94709D02*
X97109D01*
X91409D02*
X92909D01*
X86609D02*
X88309D01*
X81809D02*
X85309D01*
X77209D02*
X79009D01*
X109909Y128425D02*
X117809D01*
X102209D02*
X103309D01*
X94709D02*
X97109D01*
X86509D02*
X92909D01*
X81809D02*
X85309D01*
X77309D02*
X79109D01*
X109409Y128525D02*
X117709D01*
X102109D02*
X103309D01*
X94709D02*
X97109D01*
X86509D02*
X93009D01*
X81709D02*
X85209D01*
X77309D02*
X79109D01*
X109109Y128625D02*
X117709D01*
X101809D02*
X103309D01*
X94709D02*
X97109D01*
X86609D02*
X93009D01*
X81709D02*
X85109D01*
X77409D02*
X79209D01*
X108809Y128725D02*
X117609D01*
X94709D02*
X103309D01*
X86609D02*
X93009D01*
X81609D02*
X85109D01*
X77509D02*
X79309D01*
X108509Y128825D02*
X117509D01*
X94709D02*
X103309D01*
X86609D02*
X93009D01*
X81509D02*
X85009D01*
X77509D02*
X79309D01*
X108309Y128925D02*
X117409D01*
X94709D02*
X103309D01*
X86709D02*
X93109D01*
X81509D02*
X85009D01*
X77609D02*
X79409D01*
X108109Y129025D02*
X117309D01*
X94709D02*
X103309D01*
X86709D02*
X93109D01*
X81409D02*
X84909D01*
X77709D02*
X79509D01*
X107909Y129125D02*
X117209D01*
X94709D02*
X103309D01*
X86709D02*
X93109D01*
X81409D02*
X84809D01*
X77809D02*
X79609D01*
X107809Y129225D02*
X117109D01*
X94709D02*
X103309D01*
X86809D02*
X93209D01*
X81309D02*
X84809D01*
X77809D02*
X79609D01*
X107609Y129325D02*
X116909D01*
X94709D02*
X103309D01*
X86809D02*
X93209D01*
X81209D02*
X84709D01*
X77909D02*
X79709D01*
X107509Y129425D02*
X116709D01*
X94709D02*
X103309D01*
X86809D02*
X93209D01*
X81209D02*
X84609D01*
X78009D02*
X79809D01*
X107409Y129525D02*
X116509D01*
X94709D02*
X103309D01*
X86909D02*
X93309D01*
X81109D02*
X84609D01*
X78009D02*
X79809D01*
X107409Y129625D02*
X116209D01*
X94709D02*
X103309D01*
X86909D02*
X93309D01*
X81109D02*
X84509D01*
X78109D02*
X79909D01*
X107309Y129725D02*
X115909D01*
X94709D02*
X103309D01*
X87009D02*
X93409D01*
X81009D02*
X84509D01*
X78209D02*
X80009D01*
X107209Y129825D02*
X115509D01*
X100609D02*
X103309D01*
X94709D02*
X99309D01*
X87009D02*
X93409D01*
X80909D02*
X84409D01*
X78309D02*
X80109D01*
X107109Y129925D02*
X115009D01*
X102009D02*
X103309D01*
X94709D02*
X97109D01*
X87009D02*
X93409D01*
X80909D02*
X84309D01*
X78309D02*
X80109D01*
X107109Y130025D02*
X114309D01*
X102209D02*
X103309D01*
X94709D02*
X97109D01*
X87109D02*
X93409D01*
X80809D02*
X84309D01*
X78409D02*
X80209D01*
X107009Y130125D02*
X113509D01*
X102309D02*
X103309D01*
X94709D02*
X97109D01*
X91709D02*
X93409D01*
X87109D02*
X88409D01*
X80809D02*
X84209D01*
X78509D02*
X80309D01*
X107009Y130225D02*
X112509D01*
X102309D02*
X103309D01*
X94709D02*
X97109D01*
X80709D02*
X84109D01*
X78609D02*
X80409D01*
X106909Y130325D02*
X111709D01*
X102409D02*
X103309D01*
X94709D02*
X97109D01*
X80709D02*
X84109D01*
X78609D02*
X80409D01*
X106909Y130425D02*
X111009D01*
X102409D02*
X103309D01*
X94709D02*
X97109D01*
X80609D02*
X84009D01*
X78709D02*
X80509D01*
X106809Y130525D02*
X110609D01*
X102409D02*
X103309D01*
X94709D02*
X97109D01*
X78809D02*
X84009D01*
X106809Y130625D02*
X110309D01*
X102409D02*
X103309D01*
X94709D02*
X97109D01*
X78809D02*
X83909D01*
X106809Y130725D02*
X110009D01*
X102409D02*
X103309D01*
X94709D02*
X97109D01*
X78909D02*
X83809D01*
X106709Y130825D02*
X109909D01*
X102409D02*
X103309D01*
X94709D02*
X97109D01*
X79009D02*
X83809D01*
X106709Y130925D02*
X109709D01*
X102409D02*
X103309D01*
X94709D02*
X97109D01*
X79109D02*
X83709D01*
X106709Y131025D02*
X109609D01*
X102409D02*
X103309D01*
X94709D02*
X97109D01*
X79109D02*
X83609D01*
X106609Y131125D02*
X109409D01*
X102409D02*
X103309D01*
X94709D02*
X97109D01*
X79209D02*
X83609D01*
X106609Y131225D02*
X109309D01*
X102409D02*
X103309D01*
X94709D02*
X97109D01*
X79309D02*
X83509D01*
X106609Y131325D02*
X109209D01*
X102409D02*
X103309D01*
X94709D02*
X97109D01*
X79309D02*
X83509D01*
X106609Y131425D02*
X109209D01*
X102409D02*
X103309D01*
X94709D02*
X97109D01*
X79409D02*
X83409D01*
X106609Y131525D02*
X109109D01*
X102409D02*
X103309D01*
X94709D02*
X97109D01*
X79509D02*
X83309D01*
X106509Y131625D02*
X109009D01*
X102409D02*
X103309D01*
X94709D02*
X97109D01*
X79609D02*
X83309D01*
X106509Y131725D02*
X109009D01*
X102409D02*
X103309D01*
X94709D02*
X97109D01*
X79609D02*
X83209D01*
X106509Y131825D02*
X108909D01*
X102409D02*
X103309D01*
X94709D02*
X97109D01*
X79709D02*
X83109D01*
X106509Y131925D02*
X108909D01*
X102509D02*
X103309D01*
X94709D02*
X97109D01*
X79609D02*
X83109D01*
X106509Y132025D02*
X108809D01*
X94709D02*
X97109D01*
X79609D02*
X83009D01*
X106509Y132125D02*
X108809D01*
X94709D02*
X97109D01*
X79509D02*
X83009D01*
X106509Y132225D02*
X108709D01*
X94709D02*
X97109D01*
X79509D02*
X82909D01*
X106509Y132325D02*
X108709D01*
X94709D02*
X97109D01*
X79409D02*
X82809D01*
X106509Y132425D02*
X108709D01*
X94709D02*
X97109D01*
X79309D02*
X82809D01*
X106509Y132525D02*
X108609D01*
X94709D02*
X97109D01*
X79309D02*
X82709D01*
X106509Y132625D02*
X108609D01*
X94709D02*
X97109D01*
X79209D02*
X82709D01*
X106509Y132725D02*
X108609D01*
X94709D02*
X97109D01*
X79209D02*
X82609D01*
X106509Y132825D02*
X108609D01*
X94709D02*
X97109D01*
X79109D02*
X82509D01*
X106509Y132925D02*
X108609D01*
X94709D02*
X97109D01*
X79009D02*
X82509D01*
X106509Y133025D02*
X108609D01*
X94709D02*
X97109D01*
X79009D02*
X82409D01*
X106509Y133125D02*
X108609D01*
X94709D02*
X97109D01*
X78909D02*
X82409D01*
X106509Y133225D02*
X108609D01*
X94709D02*
X97109D01*
X78909D02*
X82509D01*
X116109Y133325D02*
X117009D01*
X106509D02*
X108609D01*
X94709D02*
X97109D01*
X78809D02*
X82609D01*
X116109Y133425D02*
X117009D01*
X106609D02*
X108609D01*
X94709D02*
X97109D01*
X78709D02*
X82609D01*
X116109Y133525D02*
X117009D01*
X106609D02*
X108609D01*
X94709D02*
X97109D01*
X78709D02*
X82709D01*
X116109Y133625D02*
X117009D01*
X106609D02*
X108609D01*
X103809D02*
X104709D01*
X94709D02*
X97109D01*
X78609D02*
X82809D01*
X116109Y133725D02*
X117009D01*
X106609D02*
X108609D01*
X103809D02*
X104709D01*
X94709D02*
X97109D01*
X78609D02*
X82809D01*
X116109Y133825D02*
X117009D01*
X106709D02*
X108709D01*
X103809D02*
X104709D01*
X94709D02*
X97109D01*
X78509D02*
X82909D01*
D15*
X216378Y287204D02*
X219921D01*
X226378Y287205D02*
X229921D01*
X208268Y262008D02*
X237795D01*
Y286024D01*
X208268D02*
X237795D01*
X208268Y262008D02*
Y286024D01*
X138858Y70276D02*
Y94291D01*
X208543D01*
Y70276D02*
Y94291D01*
X138858Y70276D02*
X208543D01*
X177441Y95472D02*
X180984D01*
X167441Y95472D02*
X170984D01*
D16*
X202285Y289370D02*
Y295930D01*
X146576Y289370D02*
Y295930D01*
X143297Y292650D02*
X149856D01*
X54449Y198348D02*
X47889D01*
X54449Y142639D02*
X47889D01*
X51169Y139360D02*
Y145919D01*
X145471Y50512D02*
Y43952D01*
X201180Y50512D02*
Y43952D01*
X204459Y47232D02*
X197900D01*
X293307Y141534D02*
X299867D01*
X293307Y197242D02*
X299867D01*
X296587Y200522D02*
Y193963D01*
X252953Y213583D02*
Y223579D01*
X257951D01*
X259617Y221913D01*
Y218581D01*
X257951Y216915D01*
X252953D01*
X256285D02*
X259617Y213583D01*
X267948D02*
X264616D01*
X262949Y215249D01*
Y218581D01*
X264616Y220247D01*
X267948D01*
X269614Y218581D01*
Y216915D01*
X262949D01*
X272946Y220247D02*
X276279Y213583D01*
X279611Y220247D01*
X292940Y213583D02*
Y220247D01*
X296272Y223579D01*
X299604Y220247D01*
Y213583D01*
Y218581D01*
X292940D01*
D17*
X120614Y199644D02*
X122469Y197789D01*
Y199644D02*
X120614Y197789D01*
X172488Y171881D02*
X174344Y173736D01*
X172488D02*
X174344Y171881D01*
X127701Y206731D02*
X129556Y204876D01*
Y206731D02*
X127701Y204876D01*
M02*
