G04*
G04 #@! TF.GenerationSoftware,Altium Limited,Altium Designer,18.1.6 (161)*
G04*
G04 Layer_Physical_Order=1*
G04 Layer_Color=255*
%FSLAX25Y25*%
%MOIN*%
G70*
G01*
G75*
%ADD13C,0.01000*%
G04:AMPARAMS|DCode=27|XSize=45.28mil|YSize=32.28mil|CornerRadius=0mil|HoleSize=0mil|Usage=FLASHONLY|Rotation=225.000|XOffset=0mil|YOffset=0mil|HoleType=Round|Shape=Rectangle|*
%AMROTATEDRECTD27*
4,1,4,0.00459,0.02742,0.02742,0.00459,-0.00459,-0.02742,-0.02742,-0.00459,0.00459,0.02742,0.0*
%
%ADD27ROTATEDRECTD27*%

G04:AMPARAMS|DCode=40|XSize=12.8mil|YSize=48.03mil|CornerRadius=0mil|HoleSize=0mil|Usage=FLASHONLY|Rotation=45.000|XOffset=0mil|YOffset=0mil|HoleType=Round|Shape=Rectangle|*
%AMROTATEDRECTD40*
4,1,4,0.01246,-0.02151,-0.02151,0.01246,-0.01246,0.02151,0.02151,-0.01246,0.01246,-0.02151,0.0*
%
%ADD40ROTATEDRECTD40*%

G04:AMPARAMS|DCode=41|XSize=11.81mil|YSize=33.47mil|CornerRadius=0mil|HoleSize=0mil|Usage=FLASHONLY|Rotation=45.000|XOffset=0mil|YOffset=0mil|HoleType=Round|Shape=Rectangle|*
%AMROTATEDRECTD41*
4,1,4,0.00766,-0.01601,-0.01601,0.00766,-0.00766,0.01601,0.01601,-0.00766,0.00766,-0.01601,0.0*
%
%ADD41ROTATEDRECTD41*%

G04:AMPARAMS|DCode=42|XSize=53.15mil|YSize=39.37mil|CornerRadius=0mil|HoleSize=0mil|Usage=FLASHONLY|Rotation=315.000|XOffset=0mil|YOffset=0mil|HoleType=Round|Shape=Rectangle|*
%AMROTATEDRECTD42*
4,1,4,-0.03271,0.00487,-0.00487,0.03271,0.03271,-0.00487,0.00487,-0.03271,-0.03271,0.00487,0.0*
%
%ADD42ROTATEDRECTD42*%

G04:AMPARAMS|DCode=43|XSize=100.39mil|YSize=39.37mil|CornerRadius=0mil|HoleSize=0mil|Usage=FLASHONLY|Rotation=315.000|XOffset=0mil|YOffset=0mil|HoleType=Round|Shape=Rectangle|*
%AMROTATEDRECTD43*
4,1,4,-0.04941,0.02158,-0.02158,0.04941,0.04941,-0.02158,0.02158,-0.04941,-0.04941,0.02158,0.0*
%
%ADD43ROTATEDRECTD43*%

%ADD44P,0.09465X4X360.0*%
%ADD45R,0.03937X0.05315*%
G04:AMPARAMS|DCode=46|XSize=23.62mil|YSize=39.37mil|CornerRadius=0mil|HoleSize=0mil|Usage=FLASHONLY|Rotation=45.000|XOffset=0mil|YOffset=0mil|HoleType=Round|Shape=Rectangle|*
%AMROTATEDRECTD46*
4,1,4,0.00557,-0.02227,-0.02227,0.00557,-0.00557,0.02227,0.02227,-0.00557,0.00557,-0.02227,0.0*
%
%ADD46ROTATEDRECTD46*%

G04:AMPARAMS|DCode=47|XSize=90.55mil|YSize=181.1mil|CornerRadius=0mil|HoleSize=0mil|Usage=FLASHONLY|Rotation=45.000|XOffset=0mil|YOffset=0mil|HoleType=Round|Shape=Rectangle|*
%AMROTATEDRECTD47*
4,1,4,0.03202,-0.09604,-0.09604,0.03202,-0.03202,0.09604,0.09604,-0.03202,0.03202,-0.09604,0.0*
%
%ADD47ROTATEDRECTD47*%

G04:AMPARAMS|DCode=48|XSize=91mil|YSize=126mil|CornerRadius=0mil|HoleSize=0mil|Usage=FLASHONLY|Rotation=225.000|XOffset=0mil|YOffset=0mil|HoleType=Round|Shape=Rectangle|*
%AMROTATEDRECTD48*
4,1,4,-0.01237,0.07672,0.07672,-0.01237,0.01237,-0.07672,-0.07672,0.01237,-0.01237,0.07672,0.0*
%
%ADD48ROTATEDRECTD48*%

G04:AMPARAMS|DCode=49|XSize=21.65mil|YSize=59.06mil|CornerRadius=0mil|HoleSize=0mil|Usage=FLASHONLY|Rotation=45.000|XOffset=0mil|YOffset=0mil|HoleType=Round|Shape=Rectangle|*
%AMROTATEDRECTD49*
4,1,4,0.01322,-0.02854,-0.02854,0.01322,-0.01322,0.02854,0.02854,-0.01322,0.01322,-0.02854,0.0*
%
%ADD49ROTATEDRECTD49*%

G04:AMPARAMS|DCode=50|XSize=47.24mil|YSize=39.37mil|CornerRadius=0mil|HoleSize=0mil|Usage=FLASHONLY|Rotation=45.000|XOffset=0mil|YOffset=0mil|HoleType=Round|Shape=Rectangle|*
%AMROTATEDRECTD50*
4,1,4,-0.00278,-0.03062,-0.03062,-0.00278,0.00278,0.03062,0.03062,0.00278,-0.00278,-0.03062,0.0*
%
%ADD50ROTATEDRECTD50*%

G04:AMPARAMS|DCode=51|XSize=53.15mil|YSize=39.37mil|CornerRadius=0mil|HoleSize=0mil|Usage=FLASHONLY|Rotation=45.000|XOffset=0mil|YOffset=0mil|HoleType=Round|Shape=Rectangle|*
%AMROTATEDRECTD51*
4,1,4,-0.00487,-0.03271,-0.03271,-0.00487,0.00487,0.03271,0.03271,0.00487,-0.00487,-0.03271,0.0*
%
%ADD51ROTATEDRECTD51*%

G04:AMPARAMS|DCode=52|XSize=47.24mil|YSize=39.37mil|CornerRadius=0mil|HoleSize=0mil|Usage=FLASHONLY|Rotation=135.000|XOffset=0mil|YOffset=0mil|HoleType=Round|Shape=Rectangle|*
%AMROTATEDRECTD52*
4,1,4,0.03062,-0.00278,0.00278,-0.03062,-0.03062,0.00278,-0.00278,0.03062,0.03062,-0.00278,0.0*
%
%ADD52ROTATEDRECTD52*%

%ADD53C,0.01500*%
%ADD54C,0.02000*%
%ADD55C,0.03000*%
%ADD56C,0.02500*%
%ADD57C,0.03500*%
%ADD58C,0.09000*%
%ADD59C,0.04000*%
%ADD60C,0.27559*%
%ADD61C,0.07500*%
%ADD62R,0.07500X0.07500*%
%ADD63C,0.10000*%
%ADD64P,0.14142X4X90.0*%
%ADD65R,0.10000X0.10000*%
%ADD66R,0.10000X0.10000*%
%ADD67C,0.03150*%
%ADD68C,0.05000*%
G36*
X312402Y257480D02*
X312402Y177362D01*
X312402Y177362D01*
X312598Y177281D01*
X312598Y77559D01*
X265748Y30709D01*
X86024D01*
X34646Y82087D01*
Y256693D01*
X34449Y256890D01*
X84646Y307087D01*
Y307283D01*
X262598D01*
X312402Y257480D01*
D02*
G37*
%LPC*%
G36*
X183878Y300270D02*
X182427Y300128D01*
X181032Y299704D01*
X179747Y299017D01*
X178620Y298093D01*
X177695Y296966D01*
X177008Y295680D01*
X176585Y294285D01*
X176442Y292835D01*
X176585Y291384D01*
X177008Y289989D01*
X177695Y288703D01*
X178620Y287577D01*
X179747Y286652D01*
X181032Y285965D01*
X182427Y285542D01*
X183878Y285399D01*
X185329Y285542D01*
X186723Y285965D01*
X188009Y286652D01*
X189136Y287577D01*
X190061Y288703D01*
X190748Y289989D01*
X191171Y291384D01*
X191314Y292835D01*
X191171Y294285D01*
X190748Y295680D01*
X190061Y296966D01*
X189136Y298093D01*
X188009Y299017D01*
X186723Y299704D01*
X185329Y300128D01*
X183878Y300270D01*
D02*
G37*
G36*
X90354Y269679D02*
X88238Y269540D01*
X86158Y269126D01*
X84149Y268445D01*
X82247Y267507D01*
X80484Y266328D01*
X78889Y264930D01*
X77491Y263335D01*
X76312Y261572D01*
X75374Y259669D01*
X74693Y257661D01*
X74279Y255581D01*
X74140Y253465D01*
X74279Y251348D01*
X74693Y249268D01*
X75374Y247260D01*
X76312Y245357D01*
X77491Y243594D01*
X78889Y241999D01*
X80484Y240601D01*
X82247Y239423D01*
X84149Y238485D01*
X86158Y237803D01*
X88238Y237389D01*
X90354Y237250D01*
X92471Y237389D01*
X94551Y237803D01*
X96559Y238485D01*
X98462Y239423D01*
X100225Y240601D01*
X101820Y241999D01*
X103218Y243594D01*
X104396Y245357D01*
X105334Y247260D01*
X106016Y249268D01*
X106430Y251348D01*
X106569Y253465D01*
X106430Y255581D01*
X106016Y257661D01*
X105334Y259669D01*
X104396Y261572D01*
X103218Y263335D01*
X101820Y264930D01*
X100225Y266328D01*
X98462Y267507D01*
X96559Y268445D01*
X94551Y269126D01*
X92471Y269540D01*
X90354Y269679D01*
D02*
G37*
G36*
X257402Y269679D02*
X255285Y269540D01*
X253205Y269126D01*
X251197Y268445D01*
X249294Y267507D01*
X247531Y266328D01*
X245936Y264930D01*
X244538Y263335D01*
X243360Y261572D01*
X242422Y259669D01*
X241740Y257661D01*
X241326Y255581D01*
X241187Y253465D01*
X241326Y251348D01*
X241740Y249268D01*
X242422Y247260D01*
X243360Y245357D01*
X244538Y243594D01*
X245936Y241999D01*
X247531Y240601D01*
X249294Y239423D01*
X251197Y238485D01*
X253205Y237803D01*
X255285Y237389D01*
X257402Y237250D01*
X259518Y237389D01*
X261598Y237803D01*
X263607Y238485D01*
X265509Y239423D01*
X267272Y240601D01*
X268867Y241999D01*
X270265Y243594D01*
X271444Y245357D01*
X272382Y247260D01*
X273063Y249268D01*
X273477Y251348D01*
X273616Y253465D01*
X273477Y255581D01*
X273063Y257661D01*
X272382Y259669D01*
X271444Y261572D01*
X270265Y263335D01*
X268867Y264930D01*
X267272Y266328D01*
X265509Y267507D01*
X263607Y268445D01*
X261598Y269126D01*
X259518Y269540D01*
X257402Y269679D01*
D02*
G37*
G36*
X231693Y283661D02*
X214764D01*
X213040Y281937D01*
X211960D01*
Y280858D01*
X200984Y269882D01*
X145051Y269882D01*
X111254Y236085D01*
X93959Y236085D01*
X84646Y226771D01*
X84645Y211811D01*
X128937Y167520D01*
X128937Y92913D01*
X142551Y79300D01*
Y77905D01*
X143945D01*
X153543Y68307D01*
Y38780D01*
X169291D01*
X176181Y45669D01*
X176181Y51181D01*
X274213Y149213D01*
X303543Y149213D01*
X303543Y156912D01*
X303641Y157095D01*
X304065Y158490D01*
X304207Y159941D01*
X304065Y161392D01*
X303641Y162786D01*
X303543Y162970D01*
X303543Y168504D01*
X303608Y168568D01*
X231258Y168568D01*
X231257Y168320D01*
X215914Y153381D01*
X215914Y128709D01*
X182480Y95276D01*
X161496Y95276D01*
X148701Y108071D01*
Y113465D01*
X154134Y118898D01*
X158858D01*
X160630Y120669D01*
X160433Y120866D01*
Y172835D01*
X162992Y175394D01*
X166535Y171850D01*
X178543Y159843D01*
X186614D01*
X192520Y165748D01*
X185236Y173031D01*
X187992Y175787D01*
X188189D01*
Y183778D01*
X191969Y187558D01*
X180862Y198666D01*
X180796Y198600D01*
X178429Y200966D01*
X180796Y203332D01*
Y203945D01*
X185584D01*
X190859Y209220D01*
X190887Y209248D01*
X203665Y196470D01*
X203638Y196442D01*
X218052Y182028D01*
X250787Y214764D01*
Y232480D01*
X234646Y248622D01*
X234646Y280709D01*
X231693Y283661D01*
D02*
G37*
G36*
X50984Y187377D02*
X49534Y187234D01*
X48139Y186811D01*
X46853Y186124D01*
X45726Y185199D01*
X44802Y184072D01*
X44115Y182787D01*
X43691Y181392D01*
X43549Y179941D01*
X43691Y178490D01*
X44115Y177095D01*
X44802Y175810D01*
X45726Y174683D01*
X46853Y173758D01*
X48139Y173071D01*
X49534Y172648D01*
X50984Y172505D01*
X52435Y172648D01*
X53830Y173071D01*
X55115Y173758D01*
X56242Y174683D01*
X57167Y175810D01*
X57854Y177095D01*
X58277Y178490D01*
X58420Y179941D01*
X58277Y181392D01*
X57854Y182787D01*
X57167Y184072D01*
X56242Y185199D01*
X55115Y186124D01*
X53830Y186811D01*
X52435Y187234D01*
X50984Y187377D01*
D02*
G37*
G36*
X176575Y125043D02*
X175850Y124948D01*
X175175Y124668D01*
X174596Y124223D01*
X174223D01*
X173644Y124668D01*
X172968Y124948D01*
X172244Y125043D01*
X171520Y124948D01*
X170845Y124668D01*
X170265Y124223D01*
X169820Y123644D01*
X169541Y122968D01*
X169445Y122244D01*
X169541Y121520D01*
X169820Y120845D01*
X170265Y120265D01*
Y119892D01*
X169820Y119313D01*
X169541Y118638D01*
X169445Y117913D01*
X169541Y117189D01*
X169820Y116514D01*
X170265Y115934D01*
X170845Y115490D01*
X171520Y115210D01*
X172244Y115115D01*
X172968Y115210D01*
X173644Y115490D01*
X174061Y115810D01*
X174409Y115891D01*
X174758Y115810D01*
X175175Y115490D01*
X175850Y115210D01*
X176575Y115115D01*
X177299Y115210D01*
X177974Y115490D01*
X178554Y115934D01*
X178999Y116514D01*
X179278Y117189D01*
X179374Y117913D01*
X179278Y118638D01*
X178999Y119313D01*
X178554Y119892D01*
Y120265D01*
X178999Y120845D01*
X179278Y121520D01*
X179374Y122244D01*
X179278Y122968D01*
X178999Y123644D01*
X178554Y124223D01*
X177974Y124668D01*
X177299Y124948D01*
X176575Y125043D01*
D02*
G37*
G36*
X257402Y102632D02*
X255285Y102493D01*
X253205Y102079D01*
X251197Y101397D01*
X249294Y100459D01*
X247531Y99281D01*
X245936Y97882D01*
X244538Y96288D01*
X243360Y94524D01*
X242422Y92622D01*
X241740Y90614D01*
X241326Y88534D01*
X241187Y86417D01*
X241326Y84301D01*
X241740Y82221D01*
X242422Y80212D01*
X243360Y78310D01*
X244538Y76547D01*
X245936Y74952D01*
X247531Y73554D01*
X249294Y72375D01*
X251197Y71437D01*
X253205Y70756D01*
X255285Y70342D01*
X257402Y70203D01*
X259518Y70342D01*
X261598Y70756D01*
X263607Y71437D01*
X265509Y72375D01*
X267272Y73554D01*
X268867Y74952D01*
X270265Y76547D01*
X271444Y78310D01*
X272382Y80212D01*
X273063Y82221D01*
X273477Y84301D01*
X273616Y86417D01*
X273477Y88534D01*
X273063Y90614D01*
X272382Y92622D01*
X271444Y94524D01*
X270265Y96288D01*
X268867Y97882D01*
X267272Y99281D01*
X265509Y100459D01*
X263607Y101397D01*
X261598Y102079D01*
X259518Y102493D01*
X257402Y102632D01*
D02*
G37*
G36*
X90354D02*
X88238Y102493D01*
X86158Y102079D01*
X84149Y101397D01*
X82247Y100459D01*
X80484Y99281D01*
X78889Y97882D01*
X77491Y96288D01*
X76312Y94524D01*
X75374Y92622D01*
X74693Y90614D01*
X74279Y88534D01*
X74140Y86417D01*
X74279Y84301D01*
X74693Y82221D01*
X75374Y80212D01*
X76312Y78310D01*
X77491Y76547D01*
X78889Y74952D01*
X80484Y73554D01*
X82247Y72375D01*
X84149Y71437D01*
X86158Y70756D01*
X88238Y70342D01*
X90354Y70203D01*
X92471Y70342D01*
X94551Y70756D01*
X96559Y71437D01*
X98462Y72375D01*
X100225Y73554D01*
X101820Y74952D01*
X103218Y76547D01*
X104396Y78310D01*
X105334Y80212D01*
X106016Y82221D01*
X106430Y84301D01*
X106569Y86417D01*
X106430Y88534D01*
X106016Y90614D01*
X105334Y92622D01*
X104396Y94524D01*
X103218Y96288D01*
X101820Y97882D01*
X100225Y99281D01*
X98462Y100459D01*
X96559Y101397D01*
X94551Y102079D01*
X92471Y102493D01*
X90354Y102632D01*
D02*
G37*
%LPD*%
G36*
X203763Y221567D02*
X201883Y219688D01*
X212991Y208580D01*
X214522Y210111D01*
X215914Y208719D01*
X205892Y198697D01*
X193114Y211475D01*
X200491Y218852D01*
X198417Y220954D01*
X201396Y223933D01*
X203763Y221567D01*
D02*
G37*
G36*
X139173Y238209D02*
X146457Y230925D01*
X144685Y229154D01*
Y223819D01*
X151772Y216732D01*
Y197638D01*
X156299Y193110D01*
X164862D01*
X170973Y187000D01*
Y186901D01*
X171822Y186052D01*
X170123Y184252D01*
X168110D01*
X139567Y155709D01*
X139567Y123228D01*
X146850Y115945D01*
X146850Y106693D01*
X160827Y92716D01*
X182677D01*
X227165Y137205D01*
Y158661D01*
X233071Y164961D01*
X301772Y164961D01*
Y151969D01*
X265945Y151969D01*
X210433Y96457D01*
X204527Y90551D01*
X186614D01*
X185213Y89150D01*
X184331Y88426D01*
X183607Y87545D01*
X183268Y87205D01*
Y86938D01*
X182992Y86421D01*
X182640Y85262D01*
X182521Y84056D01*
X182640Y82851D01*
X182992Y81691D01*
X183268Y81175D01*
X183268Y61417D01*
X170669Y48819D01*
Y43307D01*
X168504Y41142D01*
X157087D01*
Y50787D01*
X164173Y57874D01*
Y81247D01*
X164410Y81690D01*
X164762Y82850D01*
X164881Y84055D01*
X164762Y85261D01*
X164410Y86420D01*
X164173Y86863D01*
Y87402D01*
X161614Y89961D01*
X160419D01*
X159906Y90116D01*
X158701Y90235D01*
X157495Y90116D01*
X156983Y89961D01*
X154851D01*
Y90205D01*
X142551D01*
Y90205D01*
X142116Y90364D01*
X132677Y99803D01*
Y142323D01*
Y178740D01*
X142323Y188386D01*
X142323Y226772D01*
X129974Y239120D01*
X129974Y239620D01*
X132874Y242520D01*
X139173Y242520D01*
X139173Y238209D01*
D02*
G37*
D13*
X187273Y192717D02*
X192738Y198182D01*
X178975Y192717D02*
X187273D01*
X171087Y200604D02*
X178975Y192717D01*
X157677Y201575D02*
Y201782D01*
X169971Y229134D02*
X172502Y226603D01*
X167520Y229134D02*
X169971D01*
X158661Y220276D02*
X167520Y229134D01*
X158661Y209411D02*
Y220276D01*
Y209411D02*
X161984Y206089D01*
X181951Y236085D02*
X185236Y232799D01*
Y231102D02*
Y232799D01*
X168701Y214567D02*
X185236Y231102D01*
X163583Y214567D02*
X168701D01*
X161417Y212402D02*
X163583Y214567D01*
X161417Y210274D02*
Y212402D01*
Y210274D02*
X163793Y207898D01*
X170079Y211811D02*
X191339Y233071D01*
X167706Y211811D02*
X170079D01*
X165603Y209708D02*
X167706Y211811D01*
X196653Y216427D02*
Y231102D01*
X194685Y233071D02*
X196653Y231102D01*
X191339Y233071D02*
X194685D01*
X196653Y216427D02*
X203651Y209429D01*
X204351D01*
X95051Y221232D02*
X95248D01*
X100759Y226800D02*
X100815D01*
X95641Y209871D02*
Y210067D01*
X169123Y177784D02*
X172638Y181299D01*
Y183268D01*
X176969Y187598D01*
Y189541D01*
X174698Y191812D02*
X176969Y189541D01*
X170473Y206093D02*
X174894Y210515D01*
X170473Y204838D02*
Y206093D01*
Y204838D02*
X172897Y202414D01*
X191848Y227468D02*
X193643Y225673D01*
Y223160D02*
Y225673D01*
X172897Y202414D02*
X193643Y223160D01*
X155146Y230146D02*
Y230484D01*
X172502Y226603D02*
X176383Y230484D01*
X181951Y236085D02*
X185799Y239933D01*
X172047Y194463D02*
X174698Y191812D01*
X172047Y194463D02*
Y196025D01*
X169278Y198795D02*
X172047Y196025D01*
X178734Y182238D02*
Y182486D01*
Y182238D02*
X183242Y177730D01*
X177953Y172441D02*
X183043Y167351D01*
Y167098D02*
Y167351D01*
X105118Y200394D02*
X105118D01*
X217913Y222047D02*
X219991Y219969D01*
X216339Y222047D02*
X217913D01*
X214522Y220231D02*
X216339Y222047D01*
X214522Y217126D02*
Y220231D01*
Y217126D02*
X218504Y213144D01*
Y210236D02*
Y213144D01*
Y210236D02*
X222638Y206102D01*
Y203346D02*
Y206102D01*
X216535Y197244D02*
X222638Y203346D01*
X218182Y218160D02*
X220669Y215672D01*
Y211614D02*
Y215672D01*
Y211614D02*
X224606Y207677D01*
X226969D01*
X230678Y211386D01*
X209449Y230925D02*
X211052Y232528D01*
X209449Y230512D02*
Y230925D01*
Y230512D02*
X213867Y226094D01*
X211052Y232528D02*
X215676Y227903D01*
X238945Y219654D02*
Y220110D01*
D27*
X180545Y216166D02*
D03*
X186196Y221817D02*
D03*
X174894Y210515D02*
D03*
X191848Y227468D02*
D03*
X203651Y209429D02*
D03*
X192738Y198182D02*
D03*
D40*
X165603Y209708D02*
D03*
X163793Y207898D02*
D03*
X161984Y206089D02*
D03*
X160174Y204279D02*
D03*
X172897Y202414D02*
D03*
X171087Y200604D02*
D03*
X169278Y198795D02*
D03*
X167468Y196985D02*
D03*
D41*
X215676Y227903D02*
D03*
X213867Y226094D02*
D03*
X212057Y224284D02*
D03*
X218182Y218160D02*
D03*
X219991Y219969D02*
D03*
X221801Y221779D02*
D03*
D42*
X155146Y230146D02*
D03*
X149578Y224578D02*
D03*
X191367Y245500D02*
D03*
X185799Y239933D02*
D03*
X181951Y236052D02*
D03*
X176383Y230484D02*
D03*
X172469Y226603D02*
D03*
X166901Y221035D02*
D03*
X211052Y232705D02*
D03*
X205484Y227137D02*
D03*
X100815Y226800D02*
D03*
X95248Y221232D02*
D03*
X188611Y172666D02*
D03*
X183043Y167098D02*
D03*
X163555Y172216D02*
D03*
X169123Y177784D02*
D03*
D43*
X141480Y233015D02*
D03*
X152615Y244150D02*
D03*
X147047Y238583D02*
D03*
D44*
X123732Y234616D02*
D03*
X151014Y261898D02*
D03*
D45*
X137598Y128150D02*
D03*
X145473D02*
D03*
X137402Y137008D02*
D03*
X145276D02*
D03*
D46*
X174698Y191812D02*
D03*
X169408Y186523D02*
D03*
X178734Y182486D02*
D03*
D47*
X215545Y176188D02*
D03*
X236424Y155308D02*
D03*
D48*
X216535Y197244D02*
D03*
X230678Y211386D02*
D03*
D49*
X112157Y225615D02*
D03*
X108621Y222079D02*
D03*
X105086Y218544D02*
D03*
X101550Y215008D02*
D03*
X127190Y210582D02*
D03*
X123654Y207047D02*
D03*
X120119Y203511D02*
D03*
X116583Y199976D02*
D03*
D50*
X121174Y194180D02*
D03*
X126464Y188891D02*
D03*
X128261Y201267D02*
D03*
X133550Y195977D02*
D03*
D51*
X136052Y179303D02*
D03*
X130484Y184871D02*
D03*
X110686Y194826D02*
D03*
X105118Y200394D02*
D03*
X143138Y186389D02*
D03*
X137571Y191957D02*
D03*
X101209Y204303D02*
D03*
X95641Y209871D02*
D03*
D52*
X177953Y172441D02*
D03*
X183242Y177730D02*
D03*
D53*
X205343Y227137D02*
X209449Y223031D01*
X149578Y224578D02*
X154134Y220023D01*
Y198425D02*
Y220023D01*
Y198425D02*
X157480Y195079D01*
X165561D01*
X167468Y196985D01*
X187851Y249213D02*
X199213Y237851D01*
X176181Y249213D02*
X187851D01*
X164567Y237598D02*
X176181Y249213D01*
X199213Y223200D02*
X201181Y221232D01*
X199213Y223200D02*
Y237851D01*
X209449Y223031D02*
X210805D01*
X212057Y224284D01*
X159167Y237598D02*
X164567D01*
X152615Y244150D02*
X159167Y237598D01*
X147047Y238583D02*
X155146Y230484D01*
X101209Y204303D02*
X105512Y208606D01*
Y211047D01*
X101550Y215008D02*
X105512Y211047D01*
X101209Y204303D02*
X105118Y200394D01*
X126464Y188891D02*
X130484Y184871D01*
X133550Y195977D02*
X137571Y191957D01*
X126575Y202953D02*
X128261Y201267D01*
X126575Y202953D02*
Y204126D01*
X123654Y207047D02*
X126575Y204126D01*
X119095Y196260D02*
X121174Y194180D01*
X119095Y196260D02*
Y197464D01*
X116583Y199976D02*
X119095Y197464D01*
X218110Y256212D02*
Y275787D01*
Y256212D02*
X235827Y238495D01*
Y231102D02*
Y238495D01*
X228915Y224190D02*
X235827Y231102D01*
X224213Y224190D02*
X228915D01*
X221801Y221779D02*
X224213Y224190D01*
D54*
X118874Y218898D02*
X138583D01*
X112157Y225615D02*
X118874Y218898D01*
X157677Y201782D02*
X160174Y204279D01*
X95248Y221232D02*
X102398D01*
X105086Y218544D01*
X106095Y224606D02*
X108621Y222079D01*
X103009Y224606D02*
X106095D01*
X100815Y226800D02*
X103009Y224606D01*
D55*
X164961Y219094D02*
X166901Y221035D01*
X163779Y219094D02*
X164961D01*
X162205Y217520D02*
X163779Y219094D01*
X110686Y195023D02*
X115748Y189961D01*
X110686Y194826D02*
Y195023D01*
X202823Y232744D02*
X206890Y236811D01*
X202823Y229798D02*
Y232744D01*
Y229798D02*
X205484Y227137D01*
X96850Y230709D02*
X100759Y226800D01*
X180545Y216166D02*
X186196Y221817D01*
D56*
X154527Y122638D02*
X156693D01*
X149016Y128150D02*
X154527Y122638D01*
X145473Y128150D02*
X149016D01*
X145276Y137008D02*
X150984D01*
X156693Y131299D01*
Y127953D02*
Y131299D01*
D57*
X134843Y239567D02*
X141395Y233015D01*
X141480D01*
D58*
X230678Y211386D02*
X238945Y219654D01*
X204351Y209429D02*
X216535Y197244D01*
D59*
X89764Y215945D02*
X95051Y221232D01*
X89764Y215945D02*
X95641Y210067D01*
X212599Y234252D02*
X224803D01*
X211052Y232705D02*
X212599Y234252D01*
D60*
X257402Y253465D02*
D03*
X90354Y253465D02*
D03*
X257402Y86417D02*
D03*
X90354D02*
D03*
D61*
X228110Y275787D02*
D03*
X188701Y84056D02*
D03*
X178701Y84056D02*
D03*
X158701Y84055D02*
D03*
X168701D02*
D03*
X198701Y84057D02*
D03*
D62*
X218110Y275787D02*
D03*
X148701Y84055D02*
D03*
D63*
X224803Y234252D02*
D03*
X183878Y292835D02*
D03*
X50984Y179941D02*
D03*
X296772Y159941D02*
D03*
X163878Y47047D02*
D03*
D64*
X238945Y220110D02*
D03*
D65*
X163878Y292835D02*
D03*
X183878Y47047D02*
D03*
D66*
X50984Y159941D02*
D03*
X296772Y179941D02*
D03*
D67*
X172244Y117913D02*
D03*
X176575D02*
D03*
X172244Y122244D02*
D03*
X176575D02*
D03*
X138583Y218898D02*
D03*
X162205Y217520D02*
D03*
X115748Y189961D02*
D03*
X157677Y201575D02*
D03*
X96850Y230709D02*
D03*
X206890Y236811D02*
D03*
X144095Y102362D02*
D03*
Y106102D02*
D03*
X140157Y102362D02*
D03*
Y106102D02*
D03*
X208465Y102165D02*
D03*
Y105905D02*
D03*
X204528Y102165D02*
D03*
Y105905D02*
D03*
X156693Y127953D02*
D03*
Y122638D02*
D03*
D68*
X167520Y98425D02*
D03*
Y105315D02*
D03*
X174213Y98425D02*
D03*
Y105315D02*
D03*
X181102Y98425D02*
D03*
Y105315D02*
D03*
X134843Y239567D02*
D03*
X89764Y215945D02*
D03*
M02*
