G04*
G04 #@! TF.GenerationSoftware,Altium Limited,Altium Designer,18.1.6 (161)*
G04*
G04 Layer_Physical_Order=2*
G04 Layer_Color=16711680*
%FSLAX25Y25*%
%MOIN*%
G70*
G01*
G75*
%ADD13C,0.01000*%
%ADD45R,0.03937X0.05315*%
%ADD53C,0.01500*%
%ADD54C,0.02000*%
%ADD55C,0.03000*%
%ADD60C,0.27559*%
%ADD61C,0.07500*%
%ADD62R,0.07500X0.07500*%
%ADD63C,0.10000*%
%ADD64P,0.14142X4X90.0*%
%ADD65R,0.10000X0.10000*%
%ADD66R,0.10000X0.10000*%
%ADD67C,0.03150*%
%ADD68C,0.05000*%
%ADD69R,0.06299X0.01181*%
%ADD70R,0.09685X0.09095*%
%ADD71R,0.02756X0.03543*%
%ADD72R,0.15000X0.11024*%
%ADD73R,0.18110X0.09055*%
%ADD74R,0.20866X0.11024*%
%ADD75R,0.03386X0.03110*%
%ADD76R,0.03543X0.03150*%
%ADD77R,0.03150X0.03543*%
%ADD78R,0.03740X0.07087*%
%ADD79R,0.03110X0.03386*%
G36*
X262835Y307087D02*
X312402Y257520D01*
Y77362D01*
X265551Y30512D01*
X87205Y30512D01*
X34646Y83071D01*
X34646Y136024D01*
X34646D01*
Y256890D01*
X84843Y307087D01*
X262835Y307087D01*
D02*
G37*
%LPC*%
G36*
X171278Y300235D02*
X156478D01*
Y285435D01*
X171278D01*
Y300235D01*
D02*
G37*
G36*
X224260Y281937D02*
X211960D01*
Y269637D01*
X224260D01*
Y281937D01*
D02*
G37*
G36*
X90354Y269679D02*
X88238Y269540D01*
X86158Y269126D01*
X84149Y268445D01*
X82247Y267507D01*
X80484Y266328D01*
X78889Y264930D01*
X77491Y263335D01*
X76312Y261572D01*
X75374Y259669D01*
X74693Y257661D01*
X74279Y255581D01*
X74140Y253465D01*
X74279Y251348D01*
X74693Y249268D01*
X75374Y247260D01*
X76312Y245357D01*
X77491Y243594D01*
X78889Y241999D01*
X80484Y240601D01*
X82247Y239423D01*
X84149Y238485D01*
X86158Y237803D01*
X88238Y237389D01*
X90354Y237250D01*
X92471Y237389D01*
X94551Y237803D01*
X96559Y238485D01*
X98462Y239423D01*
X100225Y240601D01*
X101820Y241999D01*
X103218Y243594D01*
X104396Y245357D01*
X105334Y247260D01*
X106016Y249268D01*
X106430Y251348D01*
X106569Y253465D01*
X106430Y255581D01*
X106016Y257661D01*
X105334Y259669D01*
X104396Y261572D01*
X103218Y263335D01*
X101820Y264930D01*
X100225Y266328D01*
X98462Y267507D01*
X96559Y268445D01*
X94551Y269126D01*
X92471Y269540D01*
X90354Y269679D01*
D02*
G37*
G36*
X257402Y269679D02*
X255285Y269540D01*
X253205Y269126D01*
X251197Y268445D01*
X249294Y267507D01*
X247531Y266328D01*
X245936Y264930D01*
X244538Y263335D01*
X243360Y261572D01*
X242422Y259669D01*
X241740Y257661D01*
X241326Y255581D01*
X241187Y253465D01*
X241326Y251348D01*
X241740Y249268D01*
X242422Y247260D01*
X243360Y245357D01*
X244538Y243594D01*
X245936Y241999D01*
X247531Y240601D01*
X249294Y239423D01*
X251197Y238485D01*
X253205Y237803D01*
X255285Y237389D01*
X257402Y237250D01*
X259518Y237389D01*
X261598Y237803D01*
X263607Y238485D01*
X265509Y239423D01*
X267272Y240601D01*
X268867Y241999D01*
X270265Y243594D01*
X271444Y245357D01*
X272382Y247260D01*
X273063Y249268D01*
X273477Y251348D01*
X273616Y253465D01*
X273477Y255581D01*
X273063Y257661D01*
X272382Y259669D01*
X271444Y261572D01*
X270265Y263335D01*
X268867Y264930D01*
X267272Y266328D01*
X265509Y267507D01*
X263607Y268445D01*
X261598Y269126D01*
X259518Y269540D01*
X257402Y269679D01*
D02*
G37*
G36*
X211221Y240551D02*
X203642D01*
X196752Y233661D01*
X146653D01*
X135482Y222490D01*
Y215502D01*
X137008Y213976D01*
X142126D01*
X151378Y223228D01*
X187402D01*
X195079Y215551D01*
Y193701D01*
Y190354D01*
X215748Y169685D01*
X215748Y156693D01*
X226378Y146063D01*
X226378Y141929D01*
X200000Y141929D01*
X198031Y143898D01*
X195079Y146850D01*
X189764Y146850D01*
Y150394D01*
X192520Y153150D01*
X192717D01*
Y156693D01*
X191929Y157480D01*
X181890D01*
X177165Y152756D01*
Y140551D01*
X179724Y137992D01*
X183465D01*
Y132874D01*
X179331Y128740D01*
Y115551D01*
X169488D01*
Y116929D01*
X166929Y119488D01*
X160236D01*
Y120669D01*
X167323D01*
X169095Y122441D01*
Y137402D01*
X172047Y140354D01*
Y153347D01*
X167520Y157874D01*
X156890D01*
X156102Y157087D01*
Y153150D01*
X159055Y150197D01*
Y146850D01*
X153445Y146850D01*
X150295Y143701D01*
X148524Y141929D01*
X122441Y141929D01*
Y146457D01*
X132677Y156693D01*
Y172047D01*
X150738Y190108D01*
X107185Y233661D01*
X95079D01*
X92323Y230906D01*
Y224409D01*
X109843Y206890D01*
X109843Y197047D01*
X48819Y136024D01*
X49016D01*
Y86811D01*
X79527Y56299D01*
X164173D01*
X164173Y81247D01*
X164410Y81690D01*
X164762Y82850D01*
X164881Y84055D01*
X164762Y85261D01*
X164410Y86420D01*
X164173Y86863D01*
Y87303D01*
X163158Y88319D01*
X163071Y88425D01*
X162964Y88512D01*
X159744Y91732D01*
X143504Y91732D01*
X137205Y98032D01*
Y106890D01*
X138386Y108071D01*
X144882D01*
X145276Y107677D01*
X150984D01*
X164173Y93701D01*
X184646D01*
X197638Y106693D01*
Y107677D01*
X210433D01*
X210433Y96457D01*
X205709Y91732D01*
X187901D01*
X185474Y89305D01*
X185267Y89195D01*
X184331Y88426D01*
X183563Y87490D01*
X183452Y87283D01*
X183268Y87099D01*
Y86938D01*
X182992Y86421D01*
X182640Y85262D01*
X182521Y84056D01*
X182640Y82851D01*
X182992Y81691D01*
X183268Y81175D01*
Y56299D01*
X272441D01*
X296850Y80709D01*
X296850Y135433D01*
X211221Y221063D01*
Y240551D01*
D02*
G37*
G36*
X238945Y230575D02*
X228480Y220110D01*
X238945Y209645D01*
X249410Y220110D01*
X238945Y230575D01*
D02*
G37*
G36*
X304172Y187341D02*
X289372D01*
Y172541D01*
X304172D01*
Y187341D01*
D02*
G37*
G36*
X58384Y167341D02*
X43584D01*
Y152541D01*
X58384D01*
Y167341D01*
D02*
G37*
G36*
X191278Y54447D02*
X176478D01*
Y53543D01*
Y39647D01*
X191278D01*
Y54447D01*
D02*
G37*
%LPD*%
G36*
X295079Y134411D02*
X295079Y82495D01*
X271097Y58465D01*
X185236D01*
X185236Y85630D01*
X188978Y89371D01*
X209409D01*
X228306Y108268D01*
X265551D01*
Y132048D01*
X243269Y154331D01*
X243110D01*
X240945Y156496D01*
X219685D01*
Y169488D01*
X203150Y186024D01*
X203150Y193701D01*
X204552D01*
X204552Y193701D01*
X235789D01*
X295079Y134411D01*
D02*
G37*
G36*
X263976Y110039D02*
X215748D01*
Y114173D01*
X213976Y115945D01*
X193504Y115945D01*
X192520Y116929D01*
X182283Y116929D01*
Y118110D01*
X191339Y118110D01*
X200591Y127362D01*
X263976D01*
Y110039D01*
D02*
G37*
G36*
X147835Y127165D02*
X157087Y117913D01*
X166535Y117913D01*
Y116732D01*
X156299Y116732D01*
X155118Y115551D01*
X135039D01*
X133071Y113583D01*
X133071Y109843D01*
X84646D01*
Y127165D01*
X132677D01*
X147835Y127165D01*
D02*
G37*
G36*
X188976Y100591D02*
X183661Y95276D01*
X164961D01*
X159646Y100591D01*
X159646Y112992D01*
X188976Y112992D01*
X188976Y100591D01*
D02*
G37*
G36*
X142913Y184843D02*
X128740Y170669D01*
Y157087D01*
X106890D01*
X105512Y155709D01*
X81890Y132087D01*
Y107283D01*
X120079D01*
X137992Y89370D01*
X158661Y89370D01*
X162008Y86024D01*
X162008Y58465D01*
X80118D01*
X50984Y87598D01*
Y133071D01*
X111417Y193504D01*
X125000D01*
X125000Y193504D01*
X142913D01*
Y184843D01*
D02*
G37*
%LPC*%
G36*
X257402Y102632D02*
X255285Y102493D01*
X253205Y102079D01*
X251197Y101397D01*
X249294Y100459D01*
X247531Y99281D01*
X245936Y97882D01*
X244538Y96288D01*
X243360Y94524D01*
X242422Y92622D01*
X241740Y90614D01*
X241326Y88534D01*
X241187Y86417D01*
X241326Y84301D01*
X241740Y82221D01*
X242422Y80212D01*
X243360Y78310D01*
X244538Y76547D01*
X245936Y74952D01*
X247531Y73554D01*
X249294Y72375D01*
X251197Y71437D01*
X253205Y70756D01*
X255285Y70342D01*
X257402Y70203D01*
X259518Y70342D01*
X261598Y70756D01*
X263607Y71437D01*
X265509Y72375D01*
X267272Y73554D01*
X268867Y74952D01*
X270265Y76547D01*
X271444Y78310D01*
X272382Y80212D01*
X273063Y82221D01*
X273477Y84301D01*
X273616Y86417D01*
X273477Y88534D01*
X273063Y90614D01*
X272382Y92622D01*
X271444Y94524D01*
X270265Y96288D01*
X268867Y97882D01*
X267272Y99281D01*
X265509Y100459D01*
X263607Y101397D01*
X261598Y102079D01*
X259518Y102493D01*
X257402Y102632D01*
D02*
G37*
G36*
X90354D02*
X88238Y102493D01*
X86158Y102079D01*
X84149Y101397D01*
X82247Y100459D01*
X80484Y99281D01*
X78889Y97882D01*
X77491Y96288D01*
X76312Y94524D01*
X75374Y92622D01*
X74693Y90614D01*
X74279Y88534D01*
X74140Y86417D01*
X74279Y84301D01*
X74693Y82221D01*
X75374Y80212D01*
X76312Y78310D01*
X77491Y76547D01*
X78889Y74952D01*
X80484Y73554D01*
X82247Y72375D01*
X84149Y71437D01*
X86158Y70756D01*
X88238Y70342D01*
X90354Y70203D01*
X92471Y70342D01*
X94551Y70756D01*
X96559Y71437D01*
X98462Y72375D01*
X100225Y73554D01*
X101820Y74952D01*
X103218Y76547D01*
X104396Y78310D01*
X105334Y80212D01*
X106016Y82221D01*
X106430Y84301D01*
X106569Y86417D01*
X106430Y88534D01*
X106016Y90614D01*
X105334Y92622D01*
X104396Y94524D01*
X103218Y96288D01*
X101820Y97882D01*
X100225Y99281D01*
X98462Y100459D01*
X96559Y101397D01*
X94551Y102079D01*
X92471Y102493D01*
X90354Y102632D01*
D02*
G37*
%LPD*%
D13*
X153150Y142717D02*
X157480D01*
X150984Y140551D02*
X153150Y142717D01*
X119488Y140551D02*
X150984D01*
X115157Y144882D02*
X119488Y140551D01*
X115157Y144882D02*
Y160827D01*
X233661Y144882D02*
Y160827D01*
X229331Y140551D02*
X233661Y144882D01*
X197835Y140551D02*
X229331D01*
X195669Y142717D02*
X197835Y140551D01*
X191339Y142717D02*
X195669D01*
X224578Y131890D02*
Y137598D01*
X124213Y131693D02*
Y137598D01*
X159449Y125197D02*
X163386D01*
X156693Y127953D02*
X159449Y125197D01*
X156693Y122638D02*
X163386D01*
X193898Y111811D02*
X199606D01*
X190748Y114961D02*
X193898Y111811D01*
X185433Y114961D02*
X190748D01*
X149114Y111811D02*
X154527D01*
X157677Y114961D01*
X163386D01*
X205315Y111811D02*
X211221D01*
X137500Y111811D02*
X143405D01*
X189370Y135433D02*
X192323D01*
X193110Y134646D01*
Y123228D02*
Y134646D01*
X189961Y120079D02*
X193110Y123228D01*
X185433Y120079D02*
X189961D01*
X189370Y131102D02*
Y135433D01*
Y131102D02*
X190748Y129724D01*
Y125787D02*
Y129724D01*
X190157Y125197D02*
X190748Y125787D01*
X185433Y125197D02*
X190157D01*
D45*
X213779Y167126D02*
D03*
X221654D02*
D03*
X134646Y167717D02*
D03*
X126772D02*
D03*
X213779Y159252D02*
D03*
X221654D02*
D03*
X134646Y159843D02*
D03*
X126772D02*
D03*
X181496Y135433D02*
D03*
X189370D02*
D03*
D53*
X179724Y142626D02*
X179815Y142717D01*
X185433D01*
Y148630D02*
X185433Y148630D01*
X185433Y142717D02*
Y148630D01*
X163386Y142717D02*
Y148622D01*
X168996Y142717D02*
X169095Y142618D01*
X163386Y142717D02*
X168996D01*
X185433Y142717D02*
X185433Y142717D01*
X185433Y127756D02*
Y142717D01*
X163386Y127756D02*
Y142717D01*
D54*
X169095Y148721D02*
Y153543D01*
X167717Y154921D02*
X169095Y153543D01*
X160433Y154921D02*
X167717D01*
X179724Y148728D02*
Y152468D01*
X182087Y154831D01*
X188386D01*
D55*
X205413Y188091D02*
Y214469D01*
X191339Y228543D02*
X205413Y214469D01*
X148228Y228543D02*
X191339D01*
X138583Y218898D02*
X148228Y228543D01*
X185433Y189173D02*
Y194291D01*
X162205Y217520D02*
X185433Y194291D01*
X163465Y189173D02*
Y195787D01*
X157677Y201575D02*
X163465Y195787D01*
X133937Y189173D02*
Y193622D01*
X96850Y230709D02*
X133937Y193622D01*
X214961Y189173D02*
Y212205D01*
X206890Y220276D02*
X214961Y212205D01*
X206890Y220276D02*
Y236811D01*
D60*
X257402Y253465D02*
D03*
X90354Y253465D02*
D03*
X257402Y86417D02*
D03*
X90354D02*
D03*
D61*
X228110Y275787D02*
D03*
X188701Y84056D02*
D03*
X178701Y84056D02*
D03*
X158701Y84055D02*
D03*
X168701D02*
D03*
X198701Y84057D02*
D03*
D62*
X218110Y275787D02*
D03*
X148701Y84055D02*
D03*
D63*
X224803Y234252D02*
D03*
X183878Y292835D02*
D03*
X50984Y179941D02*
D03*
X296772Y159941D02*
D03*
X163878Y47047D02*
D03*
D64*
X238945Y220110D02*
D03*
D65*
X163878Y292835D02*
D03*
X183878Y47047D02*
D03*
D66*
X50984Y159941D02*
D03*
X296772Y179941D02*
D03*
D67*
X172244Y117913D02*
D03*
X176575D02*
D03*
X172244Y122244D02*
D03*
X176575D02*
D03*
X138583Y218898D02*
D03*
X162205Y217520D02*
D03*
X115748Y189961D02*
D03*
X157677Y201575D02*
D03*
X96850Y230709D02*
D03*
X206890Y236811D02*
D03*
X144095Y102362D02*
D03*
Y106102D02*
D03*
X140157Y102362D02*
D03*
Y106102D02*
D03*
X208465Y102165D02*
D03*
Y105905D02*
D03*
X204528Y102165D02*
D03*
Y105905D02*
D03*
X156693Y127953D02*
D03*
Y122638D02*
D03*
D68*
X167520Y98425D02*
D03*
Y105315D02*
D03*
X174213Y98425D02*
D03*
Y105315D02*
D03*
X181102Y98425D02*
D03*
Y105315D02*
D03*
X134843Y239567D02*
D03*
X89764Y215945D02*
D03*
D69*
X163386Y112402D02*
D03*
Y114961D02*
D03*
Y117520D02*
D03*
Y120079D02*
D03*
Y122638D02*
D03*
Y125197D02*
D03*
Y127756D02*
D03*
X185433Y112402D02*
D03*
Y114961D02*
D03*
Y117520D02*
D03*
Y120079D02*
D03*
Y122638D02*
D03*
Y125197D02*
D03*
Y127756D02*
D03*
D70*
X174409Y120079D02*
D03*
D71*
X205315Y111811D02*
D03*
X199606D02*
D03*
X149114Y111811D02*
D03*
X143405D02*
D03*
D72*
X208268Y149488D02*
D03*
Y121378D02*
D03*
X140551Y149291D02*
D03*
Y121181D02*
D03*
D73*
X133937Y189173D02*
D03*
X163465D02*
D03*
X214961D02*
D03*
X185433D02*
D03*
D74*
X253543Y120079D02*
D03*
Y159843D02*
D03*
X95079Y161221D02*
D03*
Y121457D02*
D03*
D75*
X224578Y125787D02*
D03*
Y131890D02*
D03*
X179724Y142626D02*
D03*
Y148728D02*
D03*
X124213Y125591D02*
D03*
Y131693D02*
D03*
X169095Y142618D02*
D03*
Y148721D02*
D03*
D76*
X224578Y143504D02*
D03*
Y137598D02*
D03*
X124213D02*
D03*
Y143504D02*
D03*
D77*
X185433Y142717D02*
D03*
X191339D02*
D03*
X157480Y142717D02*
D03*
X163386D02*
D03*
X191339Y148630D02*
D03*
X185433D02*
D03*
X157480Y148622D02*
D03*
X163386D02*
D03*
X194291Y154831D02*
D03*
X188386D02*
D03*
X154528Y154921D02*
D03*
X160433D02*
D03*
D78*
X199508Y104134D02*
D03*
X187106D02*
D03*
X161516D02*
D03*
X149114D02*
D03*
D79*
X217323Y111811D02*
D03*
X211221D02*
D03*
X137500Y111811D02*
D03*
X131398D02*
D03*
M02*
