M48
;Layer_Color=9474304
;FILE_FORMAT=2:5
INCH,LZ
;TYPE=PLATED
T1F00S00C0.01575
T3F00S00C0.02362
T4F00S00C0.03500
;TYPE=NON_PLATED
T5F00S00C0.15748
%
T01
X0187508Y0150697
X0200315Y0155874
X0209898Y0150937
X0222878Y0156114
X0231724Y0150937
X0244535Y0156114
X03195Y017
X0339811Y0234
X03385Y0268
X0353264Y0258614
X034Y0306878
X0329Y02965
X0323Y02975
X0304425Y0299
X030435Y02915
X0306Y0285
X0279831Y0285906
X0261209
X0256772Y0278
X0251Y02705
Y02655
X02635Y0265398
X0275205Y0263185
X02915Y0264
X0288579Y0249937
X02855Y02405
Y02345
X02605Y02325
Y0228063
Y02235
Y0237
X02555Y0244
X02505
X0237
X02285Y0247602
X0225Y02605
X022Y02565
X02165Y0236327
X0205626Y0234063
Y0226189
X0230856Y0224079
X0233Y02295
X0229268Y02005
X0237142
X0267583Y0192433
X0265476Y0186547
X0280661
X0282728Y01925
X0298083Y0192433
X0295976Y0186547
X0272Y0206268
Y0214142
X02585Y01775
X01695Y0202
X01735Y02825
X01755Y0291016
Y0307
X0168937
X01835Y0279181
X0199705Y0275185
X0207705
X02185Y02825
Y0287
X0226098Y02745
X0254575Y0306953
X0263Y0306878
X0154Y03145
X01555Y03205
Y0328
X0154Y0334
X0164Y0344937
X0193441Y03355
X0194327Y0326185
X0189996
Y0321854
X0194327
X0203642Y0325299
X0199705Y03315
X0222779Y0327437
X02456Y0317
X0267823Y03155
X0299626Y0330138
Y0338012
X0297Y0346874
X02895Y0346823
X03105Y03285
X0261087Y0358374
X0253213
X0243465Y0349874
X0235591
X0181Y0316
X034Y03145
Y0330437
X0350626Y0330689
X0358626Y0349311
X0342626
X0327Y0349874
X0320063Y0351
X0313075Y0349874
X0327Y04
Y0412
X0338425Y0425063
X0351126Y0438075
X0366063Y0438311
X0353437Y0382126
X0345563
X0395Y0388
X0390626Y03415
T03
X0140433Y0221563
Y0226484
Y0231405
Y0236327
X0242016Y0440185
X0246937
X0251858
X025678
T04
X02845Y0134315
X02945
X03045
X03265Y0149206
X03365Y0149205
X03465Y0149204
X03565Y0149204
X03665
X03765
X0317041Y0184
Y0194
Y0204
Y0214
Y0224
Y0234
Y0244
X0440291Y02425
Y02325
Y02225
X0443185Y0281
Y0291
Y0301
X0137315Y0279315
Y0269315
Y0259315
X0281Y0441685
X0291
X0301
X0428607Y0383
Y0373
X0428607Y03515
Y03415
Y03315
X0428607Y03215
T05
X0375512Y0204528
X0208465
Y0371575
X0375512
M30
