G04*
G04 #@! TF.GenerationSoftware,Altium Limited,Altium Designer,18.1.6 (161)*
G04*
G04 Layer_Physical_Order=3*
G04 Layer_Color=128*
%FSLAX25Y25*%
%MOIN*%
G70*
G01*
G75*
%ADD12C,0.01000*%
%ADD83C,0.04000*%
%ADD84C,0.18748*%
%ADD85O,0.07724X0.04969*%
%ADD86C,0.06500*%
%ADD87C,0.05362*%
%ADD88C,0.04575*%
D12*
X186500Y318500D02*
X198000D01*
X186500D02*
Y329510D01*
X198000D01*
Y318500D02*
Y329510D01*
X262500Y432000D02*
Y450394D01*
X232000Y432000D02*
X262500D01*
X149000Y349000D02*
X232000Y432000D01*
X149000Y200000D02*
Y349000D01*
Y200000D02*
X208000Y141000D01*
X351490D01*
Y158500D02*
X439500D01*
X351490Y141000D02*
Y158500D01*
D83*
X208465Y450315D02*
G03*
X129724Y371575I0J-78740D01*
G01*
X454252D02*
G03*
X375512Y450315I-78740J0D01*
G01*
Y125787D02*
G03*
X454252Y204528I0J78740D01*
G01*
X129724D02*
G03*
X208465Y125787I78740J0D01*
G01*
X375512D01*
X454252Y204528D02*
X454331D01*
Y371575D01*
X454252D02*
X454331D01*
X375512Y450315D02*
Y450394D01*
X208465D02*
X375512D01*
X208465Y450315D02*
Y450394D01*
X129724Y204528D02*
Y371575D01*
D84*
X208465D02*
D03*
X375512D02*
D03*
X208465Y204528D02*
D03*
X375512D02*
D03*
D85*
X136969Y312307D02*
D03*
Y338291D02*
D03*
D86*
X440291Y222500D02*
D03*
Y232500D02*
D03*
Y242500D02*
D03*
X317041Y184000D02*
D03*
Y204000D02*
D03*
Y214000D02*
D03*
Y224000D02*
D03*
Y234000D02*
D03*
Y244000D02*
D03*
X428607Y383000D02*
D03*
Y373000D02*
D03*
X428607Y331500D02*
D03*
Y341500D02*
D03*
Y351500D02*
D03*
X428607Y321500D02*
D03*
X356500Y149204D02*
D03*
X346500Y149204D02*
D03*
X443185Y301000D02*
D03*
Y291000D02*
D03*
Y281000D02*
D03*
X304500Y134315D02*
D03*
X294500D02*
D03*
X284500D02*
D03*
X281000Y441685D02*
D03*
X291000D02*
D03*
X301000D02*
D03*
X137315Y259315D02*
D03*
Y269315D02*
D03*
Y279315D02*
D03*
D87*
X140433Y221563D02*
D03*
Y226484D02*
D03*
Y236327D02*
D03*
X242016Y440185D02*
D03*
X246937D02*
D03*
X256780D02*
D03*
D88*
X230856Y224079D02*
D03*
X233000Y229500D02*
D03*
X395000Y388000D02*
D03*
X297000Y346874D02*
D03*
X291500Y264000D02*
D03*
X329000Y296500D02*
D03*
X323000Y297500D02*
D03*
X306000Y285000D02*
D03*
X289500Y346823D02*
D03*
X299626Y338012D02*
D03*
X237000Y244000D02*
D03*
X250500D02*
D03*
X255500D02*
D03*
X173500Y282500D02*
D03*
X183500Y279181D02*
D03*
X218500Y287000D02*
D03*
Y282500D02*
D03*
X319500Y170000D02*
D03*
X260500Y237000D02*
D03*
Y232500D02*
D03*
Y228063D02*
D03*
Y223500D02*
D03*
X320063Y351000D02*
D03*
X304425Y299000D02*
D03*
X313075Y349874D02*
D03*
X327000D02*
D03*
X228500Y247602D02*
D03*
X327000Y412000D02*
D03*
Y400000D02*
D03*
X338425Y425063D02*
D03*
X338500Y268000D02*
D03*
X263500Y265398D02*
D03*
X245600Y317000D02*
D03*
X279831Y285906D02*
D03*
X358626Y349311D02*
D03*
X342626D02*
D03*
X235591Y349874D02*
D03*
X261087Y358374D02*
D03*
X267823Y315500D02*
D03*
X254575Y306953D02*
D03*
X263000Y306878D02*
D03*
X285500Y240500D02*
D03*
Y234500D02*
D03*
X187508Y150697D02*
D03*
X209898Y150937D02*
D03*
X231724D02*
D03*
X200315Y155874D02*
D03*
X222878Y156114D02*
D03*
X244535D02*
D03*
X216500Y236327D02*
D03*
X258500Y177500D02*
D03*
X298083Y192433D02*
D03*
X282728Y192500D02*
D03*
X267583Y192433D02*
D03*
X251000Y270500D02*
D03*
Y265500D02*
D03*
X203642Y325299D02*
D03*
X288579Y249937D02*
D03*
X226098Y274500D02*
D03*
X199705Y275185D02*
D03*
X207705D02*
D03*
X351126Y438075D02*
D03*
X353437Y382126D02*
D03*
X390626Y341500D02*
D03*
X353264Y258614D02*
D03*
X339811Y234000D02*
D03*
X169500Y202000D02*
D03*
X205626Y234063D02*
D03*
X272000Y206268D02*
D03*
X229268Y200500D02*
D03*
X193441Y335500D02*
D03*
X340000Y314500D02*
D03*
X310500Y328500D02*
D03*
X189996Y321854D02*
D03*
Y326185D02*
D03*
X194327Y321854D02*
D03*
Y326185D02*
D03*
X181000Y316000D02*
D03*
X168937Y307000D02*
D03*
X154000Y314500D02*
D03*
Y334000D02*
D03*
X155500Y320500D02*
D03*
Y328000D02*
D03*
M02*
