G04*
G04 #@! TF.GenerationSoftware,Altium Limited,Altium Designer,18.1.6 (161)*
G04*
G04 Layer_Color=16711935*
%FSLAX25Y25*%
%MOIN*%
G70*
G01*
G75*
%ADD23R,0.07887X0.04737*%
%ADD24R,0.04737X0.07887*%
%ADD25R,0.04737X0.06115*%
%ADD31R,0.05524X0.04737*%
%ADD41C,0.28359*%
%ADD42O,0.07099X0.04343*%
%ADD43C,0.08300*%
%ADD44R,0.08300X0.08300*%
%ADD45R,0.08300X0.08300*%
%ADD46R,0.04540X0.04540*%
%ADD47C,0.04540*%
%ADD48R,0.04540X0.04540*%
%ADD92R,0.06312X0.06312*%
%ADD93R,0.08280X0.08280*%
%ADD94R,0.05709X0.01968*%
D23*
X150000Y220500D02*
D03*
Y227500D02*
D03*
D24*
X297000Y271500D02*
D03*
X313500Y289750D02*
D03*
X323000Y290000D02*
D03*
X185000Y310000D02*
D03*
X203642D02*
D03*
D25*
X168937Y300000D02*
D03*
X161063D02*
D03*
D31*
X162000Y316047D02*
D03*
Y308567D02*
D03*
D41*
X208465Y371575D02*
D03*
X375512D02*
D03*
X208465Y204528D02*
D03*
X375512D02*
D03*
D42*
X136969Y312307D02*
D03*
Y338291D02*
D03*
D43*
X440291Y222500D02*
D03*
Y232500D02*
D03*
Y242500D02*
D03*
X317041Y184000D02*
D03*
Y194000D02*
D03*
Y204000D02*
D03*
Y214000D02*
D03*
Y224000D02*
D03*
Y234000D02*
D03*
X428607Y373000D02*
D03*
X428607Y331500D02*
D03*
Y341500D02*
D03*
X428607Y321500D02*
D03*
X326500Y149206D02*
D03*
X356500Y149204D02*
D03*
X366500D02*
D03*
X346500Y149204D02*
D03*
X336500Y149205D02*
D03*
X443185Y291000D02*
D03*
Y281000D02*
D03*
X294500Y134315D02*
D03*
X284500D02*
D03*
X291000Y441685D02*
D03*
X301000D02*
D03*
X137315Y269315D02*
D03*
Y279315D02*
D03*
D44*
X317041Y244000D02*
D03*
X428607Y383000D02*
D03*
X428607Y351500D02*
D03*
X443185Y301000D02*
D03*
X137315Y259315D02*
D03*
D45*
X376500Y149204D02*
D03*
X304500Y134315D02*
D03*
X281000Y441685D02*
D03*
D46*
X140433Y221563D02*
D03*
D47*
Y226484D02*
D03*
Y231405D02*
D03*
Y236327D02*
D03*
X246937Y440185D02*
D03*
X251858D02*
D03*
X256780D02*
D03*
D48*
X242016D02*
D03*
D92*
X146516Y312307D02*
D03*
Y338291D02*
D03*
D93*
X136969Y330024D02*
D03*
Y320575D02*
D03*
D94*
X147500Y320181D02*
D03*
Y322740D02*
D03*
Y325299D02*
D03*
Y327858D02*
D03*
Y330417D02*
D03*
M02*
