G04*
G04 #@! TF.GenerationSoftware,Altium Limited,Altium Designer,18.1.6 (161)*
G04*
G04 Layer_Physical_Order=2*
G04 Layer_Color=32768*
%FSLAX25Y25*%
%MOIN*%
G70*
G01*
G75*
%ADD83C,0.04000*%
%ADD84C,0.18748*%
%ADD85O,0.07724X0.04969*%
%ADD86C,0.06500*%
%ADD87C,0.05362*%
%ADD88C,0.04575*%
D83*
X208465Y450315D02*
G03*
X129724Y371575I0J-78740D01*
G01*
X454252D02*
G03*
X375512Y450315I-78740J0D01*
G01*
Y125787D02*
G03*
X454252Y204528I0J78740D01*
G01*
X129724D02*
G03*
X208465Y125787I78740J0D01*
G01*
X375512D01*
X454252Y204528D02*
X454331D01*
Y371575D01*
X454252D02*
X454331D01*
X375512Y450315D02*
Y450394D01*
X208465D02*
X375512D01*
X208465Y450315D02*
Y450394D01*
X129724Y204528D02*
Y371575D01*
D84*
X208465D02*
D03*
X375512D02*
D03*
X208465Y204528D02*
D03*
X375512D02*
D03*
D85*
X136969Y312307D02*
D03*
Y338291D02*
D03*
D86*
X440291Y222500D02*
D03*
Y232500D02*
D03*
Y242500D02*
D03*
X317041Y194000D02*
D03*
Y204000D02*
D03*
Y214000D02*
D03*
Y224000D02*
D03*
Y234000D02*
D03*
Y244000D02*
D03*
X428607Y383000D02*
D03*
X428607Y331500D02*
D03*
Y341500D02*
D03*
Y351500D02*
D03*
X326500Y149206D02*
D03*
X366500Y149204D02*
D03*
X376500D02*
D03*
X336500Y149205D02*
D03*
X443185Y301000D02*
D03*
Y291000D02*
D03*
X304500Y134315D02*
D03*
X294500D02*
D03*
X281000Y441685D02*
D03*
X291000D02*
D03*
X137315Y259315D02*
D03*
Y269315D02*
D03*
D87*
X140433Y221563D02*
D03*
Y226484D02*
D03*
Y231405D02*
D03*
X242016Y440185D02*
D03*
X246937D02*
D03*
X251858D02*
D03*
D88*
X230856Y224079D02*
D03*
X233000Y229500D02*
D03*
X395000Y388000D02*
D03*
X297000Y346874D02*
D03*
X291500Y264000D02*
D03*
X329000Y296500D02*
D03*
X323000Y297500D02*
D03*
X306000Y285000D02*
D03*
X289500Y346823D02*
D03*
X299626Y338012D02*
D03*
X237000Y244000D02*
D03*
X250500D02*
D03*
X255500D02*
D03*
X345563Y382126D02*
D03*
X173500Y282500D02*
D03*
X183500Y279181D02*
D03*
X218500Y287000D02*
D03*
Y282500D02*
D03*
X319500Y170000D02*
D03*
X260500Y237000D02*
D03*
Y232500D02*
D03*
Y228063D02*
D03*
Y223500D02*
D03*
X304350Y291500D02*
D03*
X228500Y247602D02*
D03*
X327000Y412000D02*
D03*
Y400000D02*
D03*
X338425Y425063D02*
D03*
X338500Y268000D02*
D03*
X263500Y265398D02*
D03*
X245600Y317000D02*
D03*
X279831Y285906D02*
D03*
X340000Y330437D02*
D03*
X350626Y330689D02*
D03*
X299626Y330138D02*
D03*
X243465Y349874D02*
D03*
X222779Y327437D02*
D03*
X253213Y358374D02*
D03*
X254575Y306953D02*
D03*
X263000Y306878D02*
D03*
X285500Y240500D02*
D03*
Y234500D02*
D03*
X200315Y155874D02*
D03*
X222878Y156114D02*
D03*
X244535D02*
D03*
X216500Y236327D02*
D03*
X258500Y177500D02*
D03*
X295976Y186547D02*
D03*
X280661D02*
D03*
X265476D02*
D03*
X261209Y285906D02*
D03*
X256772Y278000D02*
D03*
X251000Y270500D02*
D03*
Y265500D02*
D03*
X203642Y325299D02*
D03*
X275205Y263185D02*
D03*
X220000Y256500D02*
D03*
X225000Y260500D02*
D03*
X366063Y438311D02*
D03*
X205626Y226189D02*
D03*
X272000Y214142D02*
D03*
X237142Y200500D02*
D03*
X164000Y344937D02*
D03*
X175500Y291016D02*
D03*
X193441Y335500D02*
D03*
X199705Y331500D02*
D03*
X340000Y306878D02*
D03*
X181000Y316000D02*
D03*
X175500Y307000D02*
D03*
X154000Y314500D02*
D03*
X155500Y320500D02*
D03*
Y328000D02*
D03*
M02*
