G04*
G04 #@! TF.GenerationSoftware,Altium Limited,Altium Designer,18.1.6 (161)*
G04*
G04 Layer_Color=65535*
%FSLAX25Y25*%
%MOIN*%
G70*
G01*
G75*
%ADD10C,0.00394*%
%ADD11C,0.00984*%
%ADD12C,0.01000*%
%ADD13C,0.02362*%
%ADD14C,0.00787*%
%ADD15C,0.00100*%
%ADD16C,0.00800*%
%ADD17C,0.02000*%
%ADD18C,0.01500*%
%ADD19C,0.00591*%
G36*
X434684Y280709D02*
X436033Y279000D01*
X435478D01*
X434251Y280598D01*
Y279000D01*
X433807D01*
Y282263D01*
X434251D01*
Y280743D01*
X435450Y282263D01*
X435972D01*
X434684Y280709D01*
D02*
G37*
G36*
X431637Y279377D02*
X433069D01*
Y279000D01*
X431188D01*
Y282263D01*
X431637D01*
Y279377D01*
D02*
G37*
G36*
X429206Y282258D02*
X429273Y282252D01*
X429356Y282241D01*
X429445Y282219D01*
X429545Y282197D01*
X429645Y282164D01*
X429745Y282125D01*
X429845Y282069D01*
X429933Y282008D01*
X430017Y281930D01*
X430083Y281836D01*
X430139Y281731D01*
X430172Y281609D01*
X430177Y281542D01*
X430183Y281470D01*
Y281464D01*
Y281459D01*
Y281425D01*
X430177Y281375D01*
X430166Y281314D01*
X430150Y281242D01*
X430127Y281165D01*
X430100Y281087D01*
X430055Y281015D01*
X430050Y281009D01*
X430033Y280981D01*
X430000Y280948D01*
X429961Y280909D01*
X429906Y280865D01*
X429833Y280815D01*
X429750Y280770D01*
X429650Y280732D01*
X429656D01*
X429672Y280726D01*
X429700Y280720D01*
X429734Y280715D01*
X429811Y280687D01*
X429900Y280648D01*
X429906D01*
X429922Y280637D01*
X429944Y280626D01*
X429972Y280604D01*
X430039Y280559D01*
X430105Y280493D01*
X430111Y280487D01*
X430122Y280476D01*
X430139Y280454D01*
X430155Y280432D01*
X430177Y280399D01*
X430200Y280360D01*
X430244Y280265D01*
Y280260D01*
X430255Y280243D01*
X430261Y280216D01*
X430272Y280182D01*
X430283Y280138D01*
X430289Y280088D01*
X430300Y279977D01*
Y279966D01*
Y279938D01*
X430294Y279894D01*
X430289Y279833D01*
X430277Y279771D01*
X430261Y279699D01*
X430238Y279627D01*
X430205Y279555D01*
X430200Y279549D01*
X430189Y279527D01*
X430166Y279494D01*
X430139Y279450D01*
X430105Y279405D01*
X430061Y279350D01*
X430011Y279300D01*
X429950Y279250D01*
X429944Y279244D01*
X429922Y279228D01*
X429883Y279205D01*
X429839Y279183D01*
X429778Y279150D01*
X429711Y279117D01*
X429634Y279089D01*
X429545Y279061D01*
X429534D01*
X429506Y279050D01*
X429456Y279044D01*
X429395Y279033D01*
X429317Y279022D01*
X429228Y279011D01*
X429129Y279006D01*
X429023Y279000D01*
X428185D01*
Y282263D01*
X429151D01*
X429206Y282258D01*
D02*
G37*
G36*
X434623Y292258D02*
X434684Y292252D01*
X434756Y292241D01*
X434839Y292230D01*
X434928Y292214D01*
X435017Y292191D01*
X435111Y292169D01*
X435206Y292136D01*
X435300Y292097D01*
X435394Y292053D01*
X435483Y291997D01*
X435567Y291941D01*
X435639Y291869D01*
X435644Y291864D01*
X435655Y291853D01*
X435672Y291830D01*
X435700Y291797D01*
X435728Y291753D01*
X435761Y291703D01*
X435794Y291642D01*
X435827Y291570D01*
X435861Y291492D01*
X435899Y291403D01*
X435927Y291303D01*
X435955Y291198D01*
X435983Y291076D01*
X435999Y290948D01*
X436011Y290815D01*
X436016Y290665D01*
Y290654D01*
Y290626D01*
Y290582D01*
X436011Y290521D01*
X436005Y290454D01*
X435999Y290376D01*
X435977Y290215D01*
Y290204D01*
X435972Y290177D01*
X435961Y290138D01*
X435950Y290082D01*
X435933Y290021D01*
X435911Y289955D01*
X435861Y289816D01*
X435855Y289810D01*
X435844Y289783D01*
X435827Y289749D01*
X435805Y289705D01*
X435777Y289655D01*
X435744Y289594D01*
X435655Y289477D01*
X435650Y289472D01*
X435633Y289455D01*
X435605Y289422D01*
X435567Y289388D01*
X435522Y289350D01*
X435467Y289305D01*
X435406Y289261D01*
X435339Y289222D01*
X435333Y289216D01*
X435306Y289205D01*
X435267Y289183D01*
X435217Y289161D01*
X435156Y289133D01*
X435084Y289106D01*
X435000Y289078D01*
X434912Y289055D01*
X434901D01*
X434867Y289044D01*
X434817Y289039D01*
X434751Y289028D01*
X434667Y289017D01*
X434573Y289011D01*
X434468Y289000D01*
X433657D01*
Y292263D01*
X434567D01*
X434623Y292258D01*
D02*
G37*
G36*
X432930Y291886D02*
X431515D01*
Y290881D01*
X432875D01*
Y290504D01*
X431515D01*
Y289377D01*
X432930D01*
Y289000D01*
X431071D01*
Y292263D01*
X432930D01*
Y291886D01*
D02*
G37*
G36*
X429156Y292258D02*
X429223D01*
X429301Y292247D01*
X429384Y292236D01*
X429467Y292219D01*
X429545Y292197D01*
X429556D01*
X429578Y292186D01*
X429617Y292169D01*
X429661Y292152D01*
X429717Y292130D01*
X429772Y292097D01*
X429828Y292064D01*
X429878Y292025D01*
X429883Y292019D01*
X429900Y292003D01*
X429922Y291980D01*
X429950Y291947D01*
X429983Y291908D01*
X430017Y291864D01*
X430044Y291808D01*
X430072Y291753D01*
X430078Y291747D01*
X430083Y291725D01*
X430094Y291692D01*
X430105Y291647D01*
X430116Y291597D01*
X430127Y291536D01*
X430139Y291475D01*
Y291403D01*
Y291398D01*
Y291375D01*
Y291348D01*
X430133Y291309D01*
X430127Y291264D01*
X430116Y291214D01*
X430089Y291109D01*
Y291104D01*
X430083Y291087D01*
X430072Y291059D01*
X430055Y291031D01*
X430017Y290948D01*
X429955Y290865D01*
X429950Y290859D01*
X429939Y290848D01*
X429922Y290826D01*
X429894Y290798D01*
X429861Y290770D01*
X429822Y290737D01*
X429734Y290671D01*
X429728Y290665D01*
X429711Y290659D01*
X429683Y290643D01*
X429650Y290626D01*
X429606Y290610D01*
X429556Y290587D01*
X429495Y290571D01*
X429434Y290554D01*
X429439D01*
X429456Y290543D01*
X429484Y290532D01*
X429517Y290515D01*
X429550Y290493D01*
X429589Y290460D01*
X429628Y290426D01*
X429667Y290382D01*
X429672Y290376D01*
X429683Y290360D01*
X429706Y290338D01*
X429728Y290299D01*
X429761Y290254D01*
X429795Y290204D01*
X429828Y290138D01*
X429867Y290071D01*
X430388Y289000D01*
X429883D01*
X429395Y290043D01*
Y290049D01*
X429384Y290066D01*
X429373Y290082D01*
X429362Y290110D01*
X429323Y290177D01*
X429278Y290238D01*
Y290243D01*
X429267Y290254D01*
X429245Y290288D01*
X429206Y290326D01*
X429156Y290365D01*
X429151D01*
X429145Y290371D01*
X429112Y290393D01*
X429068Y290410D01*
X429012Y290432D01*
X429006D01*
X429001Y290437D01*
X428984D01*
X428962Y290443D01*
X428906Y290448D01*
X428834Y290454D01*
X428629D01*
Y289000D01*
X428185D01*
Y292263D01*
X429106D01*
X429156Y292258D01*
D02*
G37*
G36*
X433424Y299000D02*
X432980D01*
Y300499D01*
X431609D01*
Y299000D01*
X431165D01*
Y302263D01*
X431609D01*
Y300881D01*
X432980D01*
Y302263D01*
X433424D01*
Y299000D01*
D02*
G37*
G36*
X430555D02*
X429978D01*
X429572Y300160D01*
X429461Y300537D01*
X429339Y300132D01*
X428968Y299000D01*
X428413D01*
X428185Y302263D01*
X428607D01*
X428729Y300038D01*
X428768Y299433D01*
X428923Y299949D01*
X429323Y301165D01*
X429628D01*
X430083Y299860D01*
X430233Y299433D01*
X430244Y299877D01*
X430377Y302263D01*
X430777D01*
X430555Y299000D01*
D02*
G37*
G36*
X436299Y301886D02*
X435333D01*
Y299000D01*
X434884D01*
Y301886D01*
X433918D01*
Y302263D01*
X436299D01*
Y301886D01*
D02*
G37*
G36*
X285763Y148349D02*
X285758Y148294D01*
X285752Y148227D01*
X285741Y148144D01*
X285719Y148055D01*
X285697Y147955D01*
X285664Y147855D01*
X285625Y147755D01*
X285569Y147655D01*
X285508Y147567D01*
X285430Y147484D01*
X285336Y147417D01*
X285231Y147361D01*
X285108Y147328D01*
X285042Y147322D01*
X284970Y147317D01*
X284964D01*
X284959D01*
X284925D01*
X284875Y147322D01*
X284814Y147334D01*
X284742Y147350D01*
X284665Y147372D01*
X284587Y147400D01*
X284515Y147445D01*
X284509Y147450D01*
X284481Y147467D01*
X284448Y147500D01*
X284409Y147539D01*
X284365Y147594D01*
X284315Y147667D01*
X284270Y147750D01*
X284232Y147850D01*
Y147844D01*
X284226Y147828D01*
X284221Y147800D01*
X284215Y147766D01*
X284187Y147689D01*
X284148Y147600D01*
Y147594D01*
X284137Y147578D01*
X284126Y147556D01*
X284104Y147528D01*
X284060Y147461D01*
X283993Y147395D01*
X283987Y147389D01*
X283976Y147378D01*
X283954Y147361D01*
X283932Y147345D01*
X283899Y147322D01*
X283860Y147300D01*
X283765Y147256D01*
X283760D01*
X283743Y147245D01*
X283716Y147239D01*
X283682Y147228D01*
X283638Y147217D01*
X283588Y147212D01*
X283477Y147200D01*
X283466D01*
X283438D01*
X283394Y147206D01*
X283332Y147212D01*
X283272Y147223D01*
X283199Y147239D01*
X283127Y147262D01*
X283055Y147295D01*
X283049Y147300D01*
X283027Y147311D01*
X282994Y147334D01*
X282949Y147361D01*
X282905Y147395D01*
X282850Y147439D01*
X282800Y147489D01*
X282750Y147550D01*
X282744Y147556D01*
X282728Y147578D01*
X282705Y147617D01*
X282683Y147661D01*
X282650Y147722D01*
X282617Y147789D01*
X282589Y147866D01*
X282561Y147955D01*
Y147966D01*
X282550Y147994D01*
X282544Y148044D01*
X282533Y148105D01*
X282522Y148183D01*
X282511Y148272D01*
X282505Y148372D01*
X282500Y148477D01*
Y149315D01*
X285763D01*
Y148349D01*
D02*
G37*
G36*
Y145863D02*
X282877D01*
Y144431D01*
X282500D01*
Y146312D01*
X285763D01*
Y145863D01*
D02*
G37*
G36*
Y143249D02*
X284243D01*
X285763Y142050D01*
Y141528D01*
X284209Y142816D01*
X282500Y141467D01*
Y142022D01*
X284098Y143249D01*
X282500D01*
Y143693D01*
X285763D01*
Y143249D01*
D02*
G37*
G36*
X295763Y148394D02*
X295758Y148344D01*
Y148277D01*
X295747Y148199D01*
X295736Y148116D01*
X295719Y148033D01*
X295697Y147955D01*
Y147944D01*
X295686Y147922D01*
X295669Y147883D01*
X295652Y147839D01*
X295630Y147783D01*
X295597Y147728D01*
X295564Y147672D01*
X295525Y147622D01*
X295519Y147617D01*
X295503Y147600D01*
X295480Y147578D01*
X295447Y147550D01*
X295408Y147517D01*
X295364Y147484D01*
X295308Y147456D01*
X295253Y147428D01*
X295247Y147422D01*
X295225Y147417D01*
X295192Y147406D01*
X295147Y147395D01*
X295097Y147384D01*
X295036Y147372D01*
X294975Y147361D01*
X294903D01*
X294898D01*
X294875D01*
X294848D01*
X294809Y147367D01*
X294764Y147372D01*
X294714Y147384D01*
X294609Y147411D01*
X294603D01*
X294587Y147417D01*
X294559Y147428D01*
X294531Y147445D01*
X294448Y147484D01*
X294365Y147545D01*
X294359Y147550D01*
X294348Y147561D01*
X294326Y147578D01*
X294298Y147606D01*
X294270Y147639D01*
X294237Y147678D01*
X294171Y147766D01*
X294165Y147772D01*
X294160Y147789D01*
X294143Y147817D01*
X294126Y147850D01*
X294110Y147894D01*
X294087Y147944D01*
X294071Y148005D01*
X294054Y148066D01*
Y148061D01*
X294043Y148044D01*
X294032Y148016D01*
X294015Y147983D01*
X293993Y147950D01*
X293960Y147911D01*
X293926Y147872D01*
X293882Y147833D01*
X293876Y147828D01*
X293860Y147817D01*
X293838Y147794D01*
X293799Y147772D01*
X293754Y147739D01*
X293704Y147705D01*
X293638Y147672D01*
X293571Y147633D01*
X292500Y147112D01*
Y147617D01*
X293543Y148105D01*
X293549D01*
X293566Y148116D01*
X293582Y148127D01*
X293610Y148138D01*
X293677Y148177D01*
X293738Y148222D01*
X293743D01*
X293754Y148233D01*
X293788Y148255D01*
X293827Y148294D01*
X293865Y148344D01*
Y148349D01*
X293871Y148355D01*
X293893Y148388D01*
X293910Y148433D01*
X293932Y148488D01*
Y148494D01*
X293937Y148499D01*
Y148516D01*
X293943Y148538D01*
X293949Y148593D01*
X293954Y148666D01*
Y148871D01*
X292500D01*
Y149315D01*
X295763D01*
Y148394D01*
D02*
G37*
G36*
Y144570D02*
X295386D01*
Y145985D01*
X294381D01*
Y144625D01*
X294004D01*
Y145985D01*
X292877D01*
Y144570D01*
X292500D01*
Y146429D01*
X295763D01*
Y144570D01*
D02*
G37*
G36*
Y142932D02*
X295758Y142877D01*
X295752Y142816D01*
X295741Y142744D01*
X295730Y142660D01*
X295713Y142572D01*
X295691Y142483D01*
X295669Y142389D01*
X295636Y142294D01*
X295597Y142200D01*
X295552Y142105D01*
X295497Y142017D01*
X295442Y141934D01*
X295369Y141861D01*
X295364Y141856D01*
X295353Y141845D01*
X295331Y141828D01*
X295297Y141800D01*
X295253Y141772D01*
X295203Y141739D01*
X295142Y141706D01*
X295070Y141673D01*
X294992Y141639D01*
X294903Y141601D01*
X294803Y141573D01*
X294698Y141545D01*
X294576Y141517D01*
X294448Y141501D01*
X294315Y141490D01*
X294165Y141484D01*
X294154D01*
X294126D01*
X294082D01*
X294021Y141490D01*
X293954Y141495D01*
X293876Y141501D01*
X293716Y141523D01*
X293704D01*
X293677Y141528D01*
X293638Y141539D01*
X293582Y141551D01*
X293521Y141567D01*
X293455Y141589D01*
X293316Y141639D01*
X293310Y141645D01*
X293283Y141656D01*
X293249Y141673D01*
X293205Y141695D01*
X293155Y141723D01*
X293094Y141756D01*
X292977Y141845D01*
X292972Y141850D01*
X292955Y141867D01*
X292922Y141895D01*
X292888Y141934D01*
X292850Y141978D01*
X292805Y142033D01*
X292761Y142094D01*
X292722Y142161D01*
X292716Y142167D01*
X292705Y142194D01*
X292683Y142233D01*
X292661Y142283D01*
X292633Y142344D01*
X292605Y142416D01*
X292578Y142500D01*
X292555Y142588D01*
Y142599D01*
X292544Y142633D01*
X292539Y142683D01*
X292528Y142749D01*
X292517Y142833D01*
X292511Y142927D01*
X292500Y143032D01*
Y143843D01*
X295763D01*
Y142932D01*
D02*
G37*
G36*
X305763Y148893D02*
X303538Y148771D01*
X302933Y148732D01*
X303449Y148577D01*
X304664Y148177D01*
Y147872D01*
X303360Y147417D01*
X302933Y147267D01*
X303377Y147256D01*
X305763Y147123D01*
Y146723D01*
X302500Y146945D01*
Y147522D01*
X303660Y147927D01*
X304037Y148038D01*
X303632Y148161D01*
X302500Y148532D01*
Y149087D01*
X305763Y149315D01*
Y148893D01*
D02*
G37*
G36*
Y145891D02*
X304381D01*
Y144520D01*
X305763D01*
Y144076D01*
X302500D01*
Y144520D01*
X303998D01*
Y145891D01*
X302500D01*
Y146335D01*
X305763D01*
Y145891D01*
D02*
G37*
G36*
Y141201D02*
X305386D01*
Y142167D01*
X302500D01*
Y142616D01*
X305386D01*
Y143582D01*
X305763D01*
Y141201D01*
D02*
G37*
G36*
X303000Y433978D02*
X301402Y432751D01*
X303000D01*
Y432307D01*
X299737D01*
Y432751D01*
X301257D01*
X299737Y433950D01*
Y434472D01*
X301291Y433184D01*
X303000Y434533D01*
Y433978D01*
D02*
G37*
G36*
Y429688D02*
X299737D01*
Y430137D01*
X302623D01*
Y431569D01*
X303000D01*
Y429688D01*
D02*
G37*
G36*
X302106Y428794D02*
X302168Y428789D01*
X302228Y428777D01*
X302301Y428761D01*
X302373Y428738D01*
X302445Y428705D01*
X302451Y428700D01*
X302473Y428689D01*
X302506Y428666D01*
X302551Y428639D01*
X302595Y428605D01*
X302650Y428561D01*
X302700Y428511D01*
X302750Y428450D01*
X302756Y428444D01*
X302772Y428422D01*
X302795Y428383D01*
X302817Y428339D01*
X302850Y428278D01*
X302883Y428211D01*
X302911Y428134D01*
X302939Y428045D01*
Y428034D01*
X302950Y428006D01*
X302956Y427956D01*
X302967Y427895D01*
X302978Y427817D01*
X302989Y427728D01*
X302994Y427629D01*
X303000Y427523D01*
Y426685D01*
X299737D01*
Y427651D01*
X299742Y427706D01*
X299748Y427773D01*
X299759Y427856D01*
X299781Y427945D01*
X299803Y428045D01*
X299836Y428145D01*
X299875Y428245D01*
X299931Y428344D01*
X299992Y428433D01*
X300070Y428516D01*
X300164Y428583D01*
X300269Y428639D01*
X300392Y428672D01*
X300458Y428678D01*
X300530Y428683D01*
X300536D01*
X300541D01*
X300575D01*
X300625Y428678D01*
X300686Y428666D01*
X300758Y428650D01*
X300835Y428627D01*
X300913Y428600D01*
X300985Y428555D01*
X300991Y428550D01*
X301019Y428533D01*
X301052Y428500D01*
X301091Y428461D01*
X301135Y428406D01*
X301185Y428333D01*
X301230Y428250D01*
X301268Y428150D01*
Y428156D01*
X301274Y428172D01*
X301279Y428200D01*
X301285Y428233D01*
X301313Y428311D01*
X301352Y428400D01*
Y428406D01*
X301363Y428422D01*
X301374Y428444D01*
X301396Y428472D01*
X301441Y428539D01*
X301507Y428605D01*
X301513Y428611D01*
X301524Y428622D01*
X301546Y428639D01*
X301568Y428655D01*
X301601Y428678D01*
X301640Y428700D01*
X301735Y428744D01*
X301740D01*
X301757Y428755D01*
X301784Y428761D01*
X301818Y428772D01*
X301862Y428783D01*
X301912Y428789D01*
X302023Y428800D01*
X302034D01*
X302062D01*
X302106Y428794D01*
D02*
G37*
G36*
X291479Y434511D02*
X291546Y434505D01*
X291624Y434499D01*
X291785Y434477D01*
X291796D01*
X291823Y434472D01*
X291862Y434461D01*
X291918Y434449D01*
X291979Y434433D01*
X292045Y434411D01*
X292184Y434361D01*
X292190Y434355D01*
X292217Y434344D01*
X292251Y434327D01*
X292295Y434305D01*
X292345Y434277D01*
X292406Y434244D01*
X292523Y434155D01*
X292528Y434150D01*
X292545Y434133D01*
X292578Y434105D01*
X292612Y434066D01*
X292650Y434022D01*
X292695Y433967D01*
X292739Y433906D01*
X292778Y433839D01*
X292784Y433833D01*
X292795Y433806D01*
X292817Y433767D01*
X292839Y433717D01*
X292867Y433656D01*
X292895Y433584D01*
X292922Y433500D01*
X292945Y433412D01*
Y433400D01*
X292956Y433367D01*
X292961Y433317D01*
X292972Y433251D01*
X292983Y433167D01*
X292989Y433073D01*
X293000Y432968D01*
Y432157D01*
X289737D01*
Y433068D01*
X289742Y433123D01*
X289748Y433184D01*
X289759Y433256D01*
X289770Y433340D01*
X289787Y433428D01*
X289809Y433517D01*
X289831Y433611D01*
X289864Y433706D01*
X289903Y433800D01*
X289948Y433894D01*
X290003Y433983D01*
X290058Y434066D01*
X290131Y434139D01*
X290136Y434144D01*
X290147Y434155D01*
X290170Y434172D01*
X290203Y434200D01*
X290247Y434228D01*
X290297Y434261D01*
X290358Y434294D01*
X290430Y434327D01*
X290508Y434361D01*
X290597Y434400D01*
X290697Y434427D01*
X290802Y434455D01*
X290924Y434483D01*
X291052Y434499D01*
X291185Y434511D01*
X291335Y434516D01*
X291346D01*
X291374D01*
X291418D01*
X291479Y434511D01*
D02*
G37*
G36*
X293000Y429571D02*
X289737D01*
Y431430D01*
X290114D01*
Y430015D01*
X291119D01*
Y431375D01*
X291496D01*
Y430015D01*
X292623D01*
Y431430D01*
X293000D01*
Y429571D01*
D02*
G37*
G36*
Y428383D02*
X291957Y427895D01*
X291951D01*
X291934Y427884D01*
X291918Y427873D01*
X291890Y427862D01*
X291823Y427823D01*
X291762Y427778D01*
X291757D01*
X291746Y427767D01*
X291712Y427745D01*
X291673Y427706D01*
X291635Y427656D01*
Y427651D01*
X291629Y427645D01*
X291607Y427612D01*
X291590Y427567D01*
X291568Y427512D01*
Y427506D01*
X291563Y427501D01*
Y427484D01*
X291557Y427462D01*
X291551Y427407D01*
X291546Y427334D01*
Y427129D01*
X293000D01*
Y426685D01*
X289737D01*
Y427606D01*
X289742Y427656D01*
Y427723D01*
X289753Y427801D01*
X289764Y427884D01*
X289781Y427967D01*
X289803Y428045D01*
Y428056D01*
X289814Y428078D01*
X289831Y428117D01*
X289848Y428161D01*
X289870Y428217D01*
X289903Y428272D01*
X289936Y428328D01*
X289975Y428378D01*
X289981Y428383D01*
X289997Y428400D01*
X290020Y428422D01*
X290053Y428450D01*
X290092Y428483D01*
X290136Y428516D01*
X290192Y428544D01*
X290247Y428572D01*
X290253Y428578D01*
X290275Y428583D01*
X290308Y428594D01*
X290353Y428605D01*
X290403Y428616D01*
X290464Y428627D01*
X290525Y428639D01*
X290597D01*
X290602D01*
X290625D01*
X290652D01*
X290691Y428633D01*
X290736Y428627D01*
X290786Y428616D01*
X290891Y428589D01*
X290897D01*
X290913Y428583D01*
X290941Y428572D01*
X290969Y428555D01*
X291052Y428516D01*
X291135Y428455D01*
X291141Y428450D01*
X291152Y428439D01*
X291174Y428422D01*
X291202Y428394D01*
X291230Y428361D01*
X291263Y428322D01*
X291329Y428233D01*
X291335Y428228D01*
X291340Y428211D01*
X291357Y428184D01*
X291374Y428150D01*
X291390Y428106D01*
X291413Y428056D01*
X291429Y427995D01*
X291446Y427934D01*
Y427939D01*
X291457Y427956D01*
X291468Y427984D01*
X291485Y428017D01*
X291507Y428050D01*
X291540Y428089D01*
X291574Y428128D01*
X291618Y428167D01*
X291624Y428172D01*
X291640Y428184D01*
X291662Y428206D01*
X291701Y428228D01*
X291746Y428261D01*
X291796Y428295D01*
X291862Y428328D01*
X291929Y428367D01*
X293000Y428888D01*
Y428383D01*
D02*
G37*
G36*
X280114Y433833D02*
X283000D01*
Y433384D01*
X280114D01*
Y432418D01*
X279737D01*
Y434799D01*
X280114D01*
Y433833D01*
D02*
G37*
G36*
X283000Y431480D02*
X281502D01*
Y430109D01*
X283000D01*
Y429665D01*
X279737D01*
Y430109D01*
X281119D01*
Y431480D01*
X279737D01*
Y431924D01*
X283000D01*
Y431480D01*
D02*
G37*
G36*
Y429055D02*
Y428478D01*
X281840Y428073D01*
X281463Y427961D01*
X281868Y427839D01*
X283000Y427468D01*
Y426913D01*
X279737Y426685D01*
Y427107D01*
X281962Y427229D01*
X282567Y427268D01*
X282051Y427423D01*
X280836Y427823D01*
Y428128D01*
X282140Y428583D01*
X282567Y428733D01*
X282123Y428744D01*
X279737Y428877D01*
Y429277D01*
X283000Y429055D01*
D02*
G37*
G36*
X146693Y278052D02*
X146249D01*
Y279572D01*
X145050Y278052D01*
X144528D01*
X145816Y279606D01*
X144467Y281315D01*
X145022D01*
X146249Y279717D01*
Y281315D01*
X146693D01*
Y278052D01*
D02*
G37*
G36*
X152315D02*
X151349D01*
X151294Y278057D01*
X151227Y278063D01*
X151144Y278074D01*
X151055Y278096D01*
X150955Y278118D01*
X150855Y278151D01*
X150755Y278190D01*
X150655Y278246D01*
X150567Y278307D01*
X150484Y278385D01*
X150417Y278479D01*
X150361Y278584D01*
X150328Y278707D01*
X150322Y278773D01*
X150317Y278845D01*
Y278851D01*
Y278856D01*
Y278890D01*
X150322Y278940D01*
X150334Y279001D01*
X150350Y279073D01*
X150373Y279151D01*
X150400Y279228D01*
X150445Y279300D01*
X150450Y279306D01*
X150467Y279334D01*
X150500Y279367D01*
X150539Y279406D01*
X150594Y279450D01*
X150667Y279500D01*
X150750Y279544D01*
X150850Y279583D01*
X150844D01*
X150828Y279589D01*
X150800Y279594D01*
X150767Y279600D01*
X150689Y279628D01*
X150600Y279667D01*
X150594D01*
X150578Y279678D01*
X150556Y279689D01*
X150528Y279711D01*
X150461Y279755D01*
X150395Y279822D01*
X150389Y279828D01*
X150378Y279839D01*
X150361Y279861D01*
X150345Y279883D01*
X150322Y279916D01*
X150300Y279955D01*
X150256Y280050D01*
Y280055D01*
X150245Y280072D01*
X150239Y280100D01*
X150228Y280133D01*
X150217Y280177D01*
X150212Y280227D01*
X150200Y280338D01*
Y280349D01*
Y280377D01*
X150206Y280421D01*
X150212Y280483D01*
X150223Y280543D01*
X150239Y280616D01*
X150261Y280688D01*
X150295Y280760D01*
X150300Y280766D01*
X150311Y280788D01*
X150334Y280821D01*
X150361Y280865D01*
X150395Y280910D01*
X150439Y280965D01*
X150489Y281015D01*
X150550Y281065D01*
X150556Y281071D01*
X150578Y281087D01*
X150617Y281110D01*
X150661Y281132D01*
X150722Y281165D01*
X150789Y281198D01*
X150866Y281226D01*
X150955Y281254D01*
X150966D01*
X150994Y281265D01*
X151044Y281271D01*
X151105Y281282D01*
X151183Y281293D01*
X151272Y281304D01*
X151372Y281309D01*
X151477Y281315D01*
X152315D01*
Y278052D01*
D02*
G37*
G36*
X149312D02*
X148863D01*
Y280938D01*
X147431D01*
Y281315D01*
X149312D01*
Y278052D01*
D02*
G37*
G36*
X152315Y268052D02*
X151394D01*
X151344Y268057D01*
X151277D01*
X151199Y268068D01*
X151116Y268079D01*
X151033Y268096D01*
X150955Y268118D01*
X150944D01*
X150922Y268129D01*
X150883Y268146D01*
X150839Y268163D01*
X150783Y268185D01*
X150728Y268218D01*
X150672Y268251D01*
X150622Y268290D01*
X150617Y268296D01*
X150600Y268312D01*
X150578Y268335D01*
X150550Y268368D01*
X150517Y268407D01*
X150484Y268451D01*
X150456Y268507D01*
X150428Y268562D01*
X150422Y268568D01*
X150417Y268590D01*
X150406Y268623D01*
X150395Y268668D01*
X150384Y268718D01*
X150373Y268779D01*
X150361Y268840D01*
Y268912D01*
Y268917D01*
Y268940D01*
Y268967D01*
X150367Y269006D01*
X150373Y269051D01*
X150384Y269100D01*
X150411Y269206D01*
Y269212D01*
X150417Y269228D01*
X150428Y269256D01*
X150445Y269284D01*
X150484Y269367D01*
X150545Y269450D01*
X150550Y269456D01*
X150561Y269467D01*
X150578Y269489D01*
X150606Y269517D01*
X150639Y269545D01*
X150678Y269578D01*
X150767Y269644D01*
X150772Y269650D01*
X150789Y269655D01*
X150817Y269672D01*
X150850Y269689D01*
X150894Y269706D01*
X150944Y269728D01*
X151005Y269744D01*
X151066Y269761D01*
X151061D01*
X151044Y269772D01*
X151016Y269783D01*
X150983Y269800D01*
X150950Y269822D01*
X150911Y269855D01*
X150872Y269889D01*
X150833Y269933D01*
X150828Y269939D01*
X150817Y269955D01*
X150794Y269977D01*
X150772Y270016D01*
X150739Y270061D01*
X150706Y270111D01*
X150672Y270177D01*
X150633Y270244D01*
X150112Y271315D01*
X150617D01*
X151105Y270272D01*
Y270266D01*
X151116Y270249D01*
X151127Y270233D01*
X151138Y270205D01*
X151177Y270138D01*
X151222Y270077D01*
Y270072D01*
X151233Y270061D01*
X151255Y270027D01*
X151294Y269988D01*
X151344Y269950D01*
X151349D01*
X151355Y269944D01*
X151388Y269922D01*
X151433Y269905D01*
X151488Y269883D01*
X151494D01*
X151499Y269878D01*
X151516D01*
X151538Y269872D01*
X151593Y269866D01*
X151666Y269861D01*
X151871D01*
Y271315D01*
X152315D01*
Y268052D01*
D02*
G37*
G36*
X149429D02*
X147570D01*
Y268429D01*
X148985D01*
Y269433D01*
X147625D01*
Y269811D01*
X148985D01*
Y270938D01*
X147570D01*
Y271315D01*
X149429D01*
Y268052D01*
D02*
G37*
G36*
X146843D02*
X145932D01*
X145877Y268057D01*
X145816Y268063D01*
X145744Y268074D01*
X145660Y268085D01*
X145572Y268102D01*
X145483Y268124D01*
X145389Y268146D01*
X145294Y268179D01*
X145200Y268218D01*
X145106Y268263D01*
X145017Y268318D01*
X144933Y268373D01*
X144861Y268446D01*
X144856Y268451D01*
X144845Y268462D01*
X144828Y268484D01*
X144800Y268518D01*
X144773Y268562D01*
X144739Y268612D01*
X144706Y268673D01*
X144673Y268745D01*
X144639Y268823D01*
X144600Y268912D01*
X144573Y269012D01*
X144545Y269117D01*
X144517Y269239D01*
X144501Y269367D01*
X144490Y269500D01*
X144484Y269650D01*
Y269661D01*
Y269689D01*
Y269733D01*
X144490Y269794D01*
X144495Y269861D01*
X144501Y269939D01*
X144523Y270099D01*
Y270111D01*
X144528Y270138D01*
X144539Y270177D01*
X144551Y270233D01*
X144567Y270294D01*
X144589Y270360D01*
X144639Y270499D01*
X144645Y270505D01*
X144656Y270532D01*
X144673Y270566D01*
X144695Y270610D01*
X144723Y270660D01*
X144756Y270721D01*
X144845Y270838D01*
X144850Y270843D01*
X144867Y270860D01*
X144895Y270893D01*
X144933Y270926D01*
X144978Y270965D01*
X145033Y271010D01*
X145094Y271054D01*
X145161Y271093D01*
X145167Y271098D01*
X145194Y271110D01*
X145233Y271132D01*
X145283Y271154D01*
X145344Y271182D01*
X145416Y271210D01*
X145500Y271237D01*
X145588Y271259D01*
X145599D01*
X145633Y271271D01*
X145683Y271276D01*
X145749Y271287D01*
X145833Y271298D01*
X145927Y271304D01*
X146032Y271315D01*
X146843D01*
Y268052D01*
D02*
G37*
G36*
X149335Y258052D02*
X148891D01*
Y259434D01*
X147520D01*
Y258052D01*
X147076D01*
Y261315D01*
X147520D01*
Y259817D01*
X148891D01*
Y261315D01*
X149335D01*
Y258052D01*
D02*
G37*
G36*
X152315D02*
X151893D01*
X151771Y260277D01*
X151732Y260882D01*
X151577Y260366D01*
X151177Y259151D01*
X150872D01*
X150417Y260455D01*
X150267Y260882D01*
X150256Y260438D01*
X150123Y258052D01*
X149723D01*
X149945Y261315D01*
X150522D01*
X150927Y260155D01*
X151039Y259778D01*
X151161Y260183D01*
X151532Y261315D01*
X152087D01*
X152315Y258052D01*
D02*
G37*
G36*
X145616Y258429D02*
X146582D01*
Y258052D01*
X144201D01*
Y258429D01*
X145167D01*
Y261315D01*
X145616D01*
Y258429D01*
D02*
G37*
%LPC*%
G36*
X429151Y281886D02*
X428629D01*
Y280870D01*
X429123D01*
X429156Y280876D01*
X429201D01*
X429245Y280881D01*
X429339Y280898D01*
X429345D01*
X429362Y280904D01*
X429384Y280915D01*
X429412Y280926D01*
X429478Y280954D01*
X429550Y280998D01*
X429556Y281003D01*
X429567Y281009D01*
X429600Y281042D01*
X429645Y281098D01*
X429689Y281165D01*
Y281170D01*
X429695Y281181D01*
X429706Y281203D01*
X429717Y281237D01*
X429722Y281270D01*
X429734Y281314D01*
X429739Y281409D01*
Y281414D01*
Y281425D01*
Y281442D01*
X429734Y281470D01*
X429728Y281525D01*
X429706Y281592D01*
Y281597D01*
X429700Y281609D01*
X429695Y281625D01*
X429683Y281642D01*
X429650Y281692D01*
X429600Y281742D01*
X429595Y281747D01*
X429589Y281753D01*
X429572Y281764D01*
X429550Y281781D01*
X429523Y281797D01*
X429484Y281814D01*
X429445Y281831D01*
X429400Y281847D01*
X429395D01*
X429378Y281853D01*
X429351Y281858D01*
X429312Y281869D01*
X429267Y281875D01*
X429212Y281880D01*
X429151Y281886D01*
D02*
G37*
G36*
X429145Y280499D02*
X428629D01*
Y279377D01*
X429156D01*
X429190Y279383D01*
X429228D01*
X429312Y279394D01*
X429406Y279411D01*
X429500Y279438D01*
X429589Y279472D01*
X429667Y279516D01*
X429672Y279522D01*
X429695Y279544D01*
X429728Y279577D01*
X429761Y279627D01*
X429795Y279688D01*
X429828Y279766D01*
X429850Y279855D01*
X429856Y279960D01*
Y279966D01*
Y279982D01*
Y280005D01*
X429850Y280032D01*
X429833Y280104D01*
X429800Y280182D01*
Y280188D01*
X429789Y280199D01*
X429778Y280216D01*
X429761Y280243D01*
X429717Y280293D01*
X429650Y280349D01*
X429645Y280354D01*
X429634Y280360D01*
X429611Y280376D01*
X429584Y280387D01*
X429545Y280410D01*
X429506Y280426D01*
X429406Y280460D01*
X429400D01*
X429378Y280465D01*
X429351Y280471D01*
X429312Y280482D01*
X429262Y280487D01*
X429206Y280493D01*
X429145Y280499D01*
D02*
G37*
G36*
X434579Y291886D02*
X434101D01*
Y289383D01*
X434479D01*
X434534Y289394D01*
X434606Y289405D01*
X434690Y289422D01*
X434784Y289450D01*
X434884Y289488D01*
X434989Y289538D01*
X435095Y289605D01*
X435195Y289688D01*
X435289Y289788D01*
X435372Y289910D01*
X435411Y289977D01*
X435444Y290054D01*
X435478Y290132D01*
X435500Y290221D01*
X435522Y290310D01*
X435539Y290410D01*
X435544Y290521D01*
X435550Y290632D01*
Y290637D01*
Y290648D01*
Y290665D01*
Y290687D01*
X435544Y290754D01*
Y290831D01*
X435533Y290926D01*
X435522Y291020D01*
X435505Y291120D01*
X435483Y291214D01*
Y291220D01*
X435478Y291226D01*
X435472Y291253D01*
X435456Y291298D01*
X435433Y291353D01*
X435406Y291414D01*
X435372Y291481D01*
X435328Y291547D01*
X435284Y291603D01*
X435278Y291609D01*
X435261Y291625D01*
X435233Y291653D01*
X435195Y291686D01*
X435145Y291720D01*
X435089Y291758D01*
X435023Y291792D01*
X434950Y291819D01*
X434939Y291825D01*
X434917Y291830D01*
X434873Y291842D01*
X434817Y291853D01*
X434745Y291864D01*
X434667Y291875D01*
X434579Y291886D01*
D02*
G37*
G36*
X429045D02*
X428629D01*
Y290809D01*
X429040D01*
X429079Y290815D01*
X429123D01*
X429173Y290826D01*
X429267Y290843D01*
X429273D01*
X429289Y290848D01*
X429312Y290859D01*
X429345Y290870D01*
X429412Y290904D01*
X429484Y290948D01*
X429489Y290954D01*
X429500Y290959D01*
X429517Y290976D01*
X429534Y290998D01*
X429578Y291054D01*
X429623Y291120D01*
Y291126D01*
X429628Y291137D01*
X429639Y291159D01*
X429650Y291192D01*
X429656Y291226D01*
X429667Y291270D01*
X429672Y291364D01*
Y291370D01*
Y291375D01*
Y291409D01*
X429661Y291453D01*
X429650Y291509D01*
X429634Y291575D01*
X429600Y291636D01*
X429561Y291697D01*
X429506Y291753D01*
X429500Y291758D01*
X429478Y291775D01*
X429439Y291797D01*
X429389Y291819D01*
X429323Y291842D01*
X429245Y291864D01*
X429151Y291880D01*
X429045Y291886D01*
D02*
G37*
G36*
X285386Y148871D02*
X284370D01*
Y148377D01*
X284376Y148344D01*
Y148299D01*
X284381Y148255D01*
X284398Y148161D01*
Y148155D01*
X284404Y148138D01*
X284415Y148116D01*
X284426Y148088D01*
X284454Y148022D01*
X284498Y147950D01*
X284504Y147944D01*
X284509Y147933D01*
X284542Y147900D01*
X284598Y147855D01*
X284665Y147811D01*
X284670D01*
X284681Y147805D01*
X284703Y147794D01*
X284737Y147783D01*
X284770Y147778D01*
X284814Y147766D01*
X284909Y147761D01*
X284914D01*
X284925D01*
X284942D01*
X284970Y147766D01*
X285025Y147772D01*
X285092Y147794D01*
X285097D01*
X285108Y147800D01*
X285125Y147805D01*
X285142Y147817D01*
X285192Y147850D01*
X285242Y147900D01*
X285247Y147905D01*
X285253Y147911D01*
X285264Y147927D01*
X285280Y147950D01*
X285297Y147977D01*
X285314Y148016D01*
X285331Y148055D01*
X285347Y148100D01*
Y148105D01*
X285353Y148122D01*
X285358Y148150D01*
X285369Y148188D01*
X285375Y148233D01*
X285381Y148288D01*
X285386Y148349D01*
Y148871D01*
D02*
G37*
G36*
X283998D02*
X282877D01*
Y148344D01*
X282883Y148310D01*
Y148272D01*
X282894Y148188D01*
X282911Y148094D01*
X282939Y148000D01*
X282972Y147911D01*
X283016Y147833D01*
X283022Y147828D01*
X283044Y147805D01*
X283077Y147772D01*
X283127Y147739D01*
X283188Y147705D01*
X283266Y147672D01*
X283355Y147650D01*
X283460Y147644D01*
X283466D01*
X283482D01*
X283505D01*
X283532Y147650D01*
X283604Y147667D01*
X283682Y147700D01*
X283688D01*
X283699Y147711D01*
X283716Y147722D01*
X283743Y147739D01*
X283793Y147783D01*
X283849Y147850D01*
X283854Y147855D01*
X283860Y147866D01*
X283876Y147889D01*
X283888Y147916D01*
X283910Y147955D01*
X283926Y147994D01*
X283960Y148094D01*
Y148100D01*
X283965Y148122D01*
X283971Y148150D01*
X283982Y148188D01*
X283987Y148238D01*
X283993Y148294D01*
X283998Y148355D01*
Y148871D01*
D02*
G37*
G36*
X295386D02*
X294309D01*
Y148460D01*
X294315Y148421D01*
Y148377D01*
X294326Y148327D01*
X294343Y148233D01*
Y148227D01*
X294348Y148211D01*
X294359Y148188D01*
X294370Y148155D01*
X294404Y148088D01*
X294448Y148016D01*
X294454Y148011D01*
X294459Y148000D01*
X294476Y147983D01*
X294498Y147966D01*
X294553Y147922D01*
X294620Y147878D01*
X294626D01*
X294637Y147872D01*
X294659Y147861D01*
X294692Y147850D01*
X294726Y147844D01*
X294770Y147833D01*
X294864Y147828D01*
X294870D01*
X294875D01*
X294909D01*
X294953Y147839D01*
X295009Y147850D01*
X295075Y147866D01*
X295136Y147900D01*
X295197Y147939D01*
X295253Y147994D01*
X295258Y148000D01*
X295275Y148022D01*
X295297Y148061D01*
X295319Y148111D01*
X295342Y148177D01*
X295364Y148255D01*
X295380Y148349D01*
X295386Y148455D01*
Y148871D01*
D02*
G37*
G36*
Y143399D02*
X292883D01*
Y143021D01*
X292894Y142966D01*
X292905Y142894D01*
X292922Y142810D01*
X292950Y142716D01*
X292988Y142616D01*
X293038Y142511D01*
X293105Y142405D01*
X293188Y142305D01*
X293288Y142211D01*
X293410Y142128D01*
X293477Y142089D01*
X293554Y142056D01*
X293632Y142022D01*
X293721Y142000D01*
X293810Y141978D01*
X293910Y141961D01*
X294021Y141956D01*
X294132Y141950D01*
X294137D01*
X294148D01*
X294165D01*
X294187D01*
X294254Y141956D01*
X294332D01*
X294426Y141967D01*
X294520Y141978D01*
X294620Y141995D01*
X294714Y142017D01*
X294720D01*
X294726Y142022D01*
X294753Y142028D01*
X294798Y142044D01*
X294853Y142067D01*
X294914Y142094D01*
X294981Y142128D01*
X295047Y142172D01*
X295103Y142217D01*
X295109Y142222D01*
X295125Y142239D01*
X295153Y142266D01*
X295186Y142305D01*
X295219Y142355D01*
X295258Y142411D01*
X295292Y142477D01*
X295319Y142550D01*
X295325Y142561D01*
X295331Y142583D01*
X295342Y142627D01*
X295353Y142683D01*
X295364Y142755D01*
X295375Y142833D01*
X295386Y142921D01*
Y143399D01*
D02*
G37*
G36*
X302040Y428356D02*
X302034D01*
X302018D01*
X301995D01*
X301968Y428350D01*
X301896Y428333D01*
X301818Y428300D01*
X301812D01*
X301801Y428289D01*
X301784Y428278D01*
X301757Y428261D01*
X301707Y428217D01*
X301651Y428150D01*
X301646Y428145D01*
X301640Y428134D01*
X301624Y428111D01*
X301612Y428084D01*
X301590Y428045D01*
X301574Y428006D01*
X301540Y427906D01*
Y427901D01*
X301535Y427878D01*
X301529Y427850D01*
X301518Y427812D01*
X301513Y427762D01*
X301507Y427706D01*
X301501Y427645D01*
Y427129D01*
X302623D01*
Y427656D01*
X302617Y427690D01*
Y427728D01*
X302606Y427812D01*
X302589Y427906D01*
X302561Y428000D01*
X302528Y428089D01*
X302484Y428167D01*
X302478Y428172D01*
X302456Y428195D01*
X302423Y428228D01*
X302373Y428261D01*
X302312Y428295D01*
X302234Y428328D01*
X302145Y428350D01*
X302040Y428356D01*
D02*
G37*
G36*
X300591Y428239D02*
X300586D01*
X300575D01*
X300558D01*
X300530Y428233D01*
X300475Y428228D01*
X300408Y428206D01*
X300403D01*
X300392Y428200D01*
X300375Y428195D01*
X300358Y428184D01*
X300308Y428150D01*
X300258Y428100D01*
X300253Y428095D01*
X300247Y428089D01*
X300236Y428073D01*
X300219Y428050D01*
X300203Y428023D01*
X300186Y427984D01*
X300169Y427945D01*
X300153Y427901D01*
Y427895D01*
X300147Y427878D01*
X300142Y427850D01*
X300131Y427812D01*
X300125Y427767D01*
X300119Y427712D01*
X300114Y427651D01*
Y427129D01*
X301130D01*
Y427623D01*
X301124Y427656D01*
Y427701D01*
X301119Y427745D01*
X301102Y427839D01*
Y427845D01*
X301096Y427862D01*
X301085Y427884D01*
X301074Y427912D01*
X301046Y427978D01*
X301002Y428050D01*
X300996Y428056D01*
X300991Y428067D01*
X300958Y428100D01*
X300902Y428145D01*
X300835Y428189D01*
X300830D01*
X300819Y428195D01*
X300797Y428206D01*
X300763Y428217D01*
X300730Y428222D01*
X300686Y428233D01*
X300591Y428239D01*
D02*
G37*
G36*
X291368Y434050D02*
X291363D01*
X291352D01*
X291335D01*
X291313D01*
X291246Y434044D01*
X291168D01*
X291074Y434033D01*
X290980Y434022D01*
X290880Y434005D01*
X290786Y433983D01*
X290780D01*
X290774Y433978D01*
X290747Y433972D01*
X290702Y433955D01*
X290647Y433933D01*
X290586Y433906D01*
X290519Y433872D01*
X290453Y433828D01*
X290397Y433783D01*
X290391Y433778D01*
X290375Y433761D01*
X290347Y433734D01*
X290314Y433695D01*
X290281Y433645D01*
X290242Y433589D01*
X290208Y433523D01*
X290181Y433451D01*
X290175Y433439D01*
X290170Y433417D01*
X290158Y433373D01*
X290147Y433317D01*
X290136Y433245D01*
X290125Y433167D01*
X290114Y433079D01*
Y432601D01*
X292617D01*
Y432979D01*
X292606Y433034D01*
X292595Y433106D01*
X292578Y433190D01*
X292550Y433284D01*
X292512Y433384D01*
X292462Y433489D01*
X292395Y433595D01*
X292312Y433695D01*
X292212Y433789D01*
X292090Y433872D01*
X292023Y433911D01*
X291946Y433944D01*
X291868Y433978D01*
X291779Y434000D01*
X291690Y434022D01*
X291590Y434039D01*
X291479Y434044D01*
X291368Y434050D01*
D02*
G37*
G36*
X290636Y428172D02*
X290630D01*
X290625D01*
X290591D01*
X290547Y428161D01*
X290491Y428150D01*
X290425Y428134D01*
X290364Y428100D01*
X290303Y428061D01*
X290247Y428006D01*
X290242Y428000D01*
X290225Y427978D01*
X290203Y427939D01*
X290181Y427889D01*
X290158Y427823D01*
X290136Y427745D01*
X290120Y427651D01*
X290114Y427545D01*
Y427129D01*
X291191D01*
Y427540D01*
X291185Y427579D01*
Y427623D01*
X291174Y427673D01*
X291157Y427767D01*
Y427773D01*
X291152Y427789D01*
X291141Y427812D01*
X291130Y427845D01*
X291096Y427912D01*
X291052Y427984D01*
X291046Y427989D01*
X291041Y428000D01*
X291024Y428017D01*
X291002Y428034D01*
X290947Y428078D01*
X290880Y428123D01*
X290874D01*
X290863Y428128D01*
X290841Y428139D01*
X290808Y428150D01*
X290774Y428156D01*
X290730Y428167D01*
X290636Y428172D01*
D02*
G37*
G36*
X151871Y280938D02*
X151344D01*
X151310Y280932D01*
X151272D01*
X151188Y280921D01*
X151094Y280904D01*
X151000Y280876D01*
X150911Y280843D01*
X150833Y280799D01*
X150828Y280793D01*
X150805Y280771D01*
X150772Y280738D01*
X150739Y280688D01*
X150706Y280627D01*
X150672Y280549D01*
X150650Y280460D01*
X150644Y280355D01*
Y280349D01*
Y280333D01*
Y280310D01*
X150650Y280283D01*
X150667Y280210D01*
X150700Y280133D01*
Y280127D01*
X150711Y280116D01*
X150722Y280100D01*
X150739Y280072D01*
X150783Y280022D01*
X150850Y279966D01*
X150855Y279961D01*
X150866Y279955D01*
X150889Y279939D01*
X150916Y279927D01*
X150955Y279905D01*
X150994Y279889D01*
X151094Y279855D01*
X151100D01*
X151122Y279850D01*
X151149Y279844D01*
X151188Y279833D01*
X151238Y279828D01*
X151294Y279822D01*
X151355Y279817D01*
X151871D01*
Y280938D01*
D02*
G37*
G36*
Y279445D02*
X151377D01*
X151344Y279439D01*
X151299D01*
X151255Y279433D01*
X151161Y279417D01*
X151155D01*
X151138Y279411D01*
X151116Y279400D01*
X151088Y279389D01*
X151022Y279361D01*
X150950Y279317D01*
X150944Y279311D01*
X150933Y279306D01*
X150900Y279273D01*
X150855Y279217D01*
X150811Y279151D01*
Y279145D01*
X150805Y279134D01*
X150794Y279112D01*
X150783Y279078D01*
X150778Y279045D01*
X150767Y279001D01*
X150761Y278906D01*
Y278901D01*
Y278890D01*
Y278873D01*
X150767Y278845D01*
X150772Y278790D01*
X150794Y278723D01*
Y278718D01*
X150800Y278707D01*
X150805Y278690D01*
X150817Y278673D01*
X150850Y278623D01*
X150900Y278573D01*
X150905Y278568D01*
X150911Y278562D01*
X150927Y278551D01*
X150950Y278534D01*
X150977Y278518D01*
X151016Y278501D01*
X151055Y278485D01*
X151100Y278468D01*
X151105D01*
X151122Y278462D01*
X151149Y278457D01*
X151188Y278446D01*
X151233Y278440D01*
X151288Y278434D01*
X151349Y278429D01*
X151871D01*
Y279445D01*
D02*
G37*
G36*
Y269506D02*
X151460D01*
X151421Y269500D01*
X151377D01*
X151327Y269489D01*
X151233Y269472D01*
X151227D01*
X151210Y269467D01*
X151188Y269456D01*
X151155Y269445D01*
X151088Y269411D01*
X151016Y269367D01*
X151011Y269361D01*
X151000Y269356D01*
X150983Y269339D01*
X150966Y269317D01*
X150922Y269262D01*
X150877Y269195D01*
Y269189D01*
X150872Y269178D01*
X150861Y269156D01*
X150850Y269123D01*
X150844Y269089D01*
X150833Y269045D01*
X150828Y268951D01*
Y268945D01*
Y268940D01*
Y268906D01*
X150839Y268862D01*
X150850Y268806D01*
X150866Y268740D01*
X150900Y268679D01*
X150939Y268618D01*
X150994Y268562D01*
X151000Y268557D01*
X151022Y268540D01*
X151061Y268518D01*
X151111Y268496D01*
X151177Y268473D01*
X151255Y268451D01*
X151349Y268435D01*
X151455Y268429D01*
X151871D01*
Y269506D01*
D02*
G37*
G36*
X146399Y270932D02*
X146021D01*
X145966Y270921D01*
X145894Y270910D01*
X145810Y270893D01*
X145716Y270865D01*
X145616Y270827D01*
X145511Y270777D01*
X145405Y270710D01*
X145305Y270627D01*
X145211Y270527D01*
X145128Y270405D01*
X145089Y270338D01*
X145056Y270261D01*
X145022Y270183D01*
X145000Y270094D01*
X144978Y270005D01*
X144961Y269905D01*
X144956Y269794D01*
X144950Y269683D01*
Y269678D01*
Y269667D01*
Y269650D01*
Y269628D01*
X144956Y269561D01*
Y269483D01*
X144967Y269389D01*
X144978Y269295D01*
X144994Y269195D01*
X145017Y269100D01*
Y269095D01*
X145022Y269089D01*
X145028Y269062D01*
X145045Y269017D01*
X145067Y268962D01*
X145094Y268901D01*
X145128Y268834D01*
X145172Y268767D01*
X145217Y268712D01*
X145222Y268706D01*
X145239Y268690D01*
X145266Y268662D01*
X145305Y268629D01*
X145355Y268596D01*
X145411Y268557D01*
X145477Y268523D01*
X145549Y268496D01*
X145561Y268490D01*
X145583Y268484D01*
X145627Y268473D01*
X145683Y268462D01*
X145755Y268451D01*
X145833Y268440D01*
X145921Y268429D01*
X146399D01*
Y270932D01*
D02*
G37*
%LPD*%
D10*
X248769Y320397D02*
G03*
X248769Y320397I-197J0D01*
G01*
D11*
X309531Y345886D02*
G03*
X309531Y345886I-492J0D01*
G01*
X200823Y335339D02*
G03*
X200823Y335339I-492J0D01*
G01*
X278539Y192433D02*
G03*
X278539Y192433I-492J0D01*
G01*
X293685Y192500D02*
G03*
X293685Y192500I-492J0D01*
G01*
X309039Y192433D02*
G03*
X309039Y192433I-492J0D01*
G01*
X223193Y254394D02*
G03*
X223193Y254394I-492J0D01*
G01*
D12*
X242400Y366000D02*
G03*
X242400Y366000I-2400J0D01*
G01*
X240300D02*
G03*
X240300Y366000I-300J0D01*
G01*
X325800Y361374D02*
G03*
X325800Y361374I-300J0D01*
G01*
X327900D02*
G03*
X327900Y361374I-2400J0D01*
G01*
X244593Y320000D02*
G03*
X244593Y320000I-506J0D01*
G01*
X344126Y393500D02*
G03*
X344126Y393500I-500J0D01*
G01*
X373413Y272649D02*
G03*
X373413Y272649I-4402J0D01*
G01*
X244626Y366000D02*
X253626D01*
X251626Y364000D02*
X253626Y366000D01*
X251626Y368000D02*
X253626Y366000D01*
X240000Y351874D02*
X242000Y353874D01*
X238000D02*
X240000Y351874D01*
Y360874D01*
X330126Y361374D02*
X339126D01*
X337126Y359374D02*
X339126Y361374D01*
X337126Y363374D02*
X339126Y361374D01*
X323500Y373000D02*
X325500Y375000D01*
X327500Y373000D01*
X325500Y366000D02*
Y375000D01*
X429041Y199500D02*
X453541D01*
X429041Y179000D02*
Y199500D01*
Y179000D02*
X453541D01*
X312041Y170000D02*
Y254000D01*
Y170000D02*
X453541D01*
Y254000D01*
X312041D02*
X453541D01*
X353626Y393500D02*
X360626D01*
X357988Y263988D02*
X380035D01*
Y281705D01*
X357988Y263988D02*
Y281705D01*
X380035D01*
X170331Y207630D02*
X174268D01*
X170331D02*
Y264717D01*
X174268D01*
X190016D02*
X193953D01*
Y207630D02*
Y264717D01*
X190016Y207630D02*
X193953D01*
X218000Y355500D02*
Y359499D01*
X219999Y361498D01*
X221999Y359499D01*
Y355500D01*
Y358499D01*
X218000D01*
X227997Y360498D02*
X226997Y361498D01*
X224998D01*
X223998Y360498D01*
Y356500D01*
X224998Y355500D01*
X226997D01*
X227997Y356500D01*
X233995Y360498D02*
X232995Y361498D01*
X230996D01*
X229996Y360498D01*
Y356500D01*
X230996Y355500D01*
X232995D01*
X233995Y356500D01*
X339999Y372998D02*
X338999Y373998D01*
X337000D01*
X336000Y372998D01*
Y369000D01*
X337000Y368000D01*
X338999D01*
X339999Y369000D01*
Y370999D01*
X337999D01*
X341998Y373998D02*
Y372998D01*
X343997Y370999D01*
X345997Y372998D01*
Y373998D01*
X343997Y370999D02*
Y368000D01*
X347996D02*
Y373998D01*
X350995D01*
X351995Y372998D01*
Y370999D01*
X350995Y369999D01*
X347996D01*
X349995D02*
X351995Y368000D01*
X356993Y373998D02*
X354994D01*
X353994Y372998D01*
Y369000D01*
X354994Y368000D01*
X356993D01*
X357993Y369000D01*
Y372998D01*
X356993Y373998D01*
X187999Y187498D02*
X186999Y188498D01*
X185000D01*
X184000Y187498D01*
Y186499D01*
X185000Y185499D01*
X186999D01*
X187999Y184499D01*
Y183500D01*
X186999Y182500D01*
X185000D01*
X184000Y183500D01*
X189998Y188498D02*
X193997D01*
X191997D01*
Y182500D01*
X195996D02*
Y188498D01*
X197995Y186499D01*
X199995Y188498D01*
Y182500D01*
X201994Y187498D02*
X202994Y188498D01*
X204993D01*
X205993Y187498D01*
Y186499D01*
X204993Y185499D01*
X203994D01*
X204993D01*
X205993Y184499D01*
Y183500D01*
X204993Y182500D01*
X202994D01*
X201994Y183500D01*
X211991Y182500D02*
X207992D01*
X211991Y186499D01*
Y187498D01*
X210991Y188498D01*
X208992D01*
X207992Y187498D01*
X217989Y188498D02*
X213990D01*
Y185499D01*
X215990D01*
X213990D01*
Y182500D01*
X219988Y187498D02*
X220988Y188498D01*
X222987D01*
X223987Y187498D01*
Y186499D01*
X222987Y185499D01*
X221988D01*
X222987D01*
X223987Y184499D01*
Y183500D01*
X222987Y182500D01*
X220988D01*
X219988Y183500D01*
X225986Y187498D02*
X226986Y188498D01*
X228985D01*
X229985Y187498D01*
Y183500D01*
X228985Y182500D01*
X226986D01*
X225986Y183500D01*
Y187498D01*
X231984D02*
X232984Y188498D01*
X234983D01*
X235983Y187498D01*
Y186499D01*
X234983Y185499D01*
X233984D01*
X234983D01*
X235983Y184499D01*
Y183500D01*
X234983Y182500D01*
X232984D01*
X231984Y183500D01*
X237983Y182500D02*
Y188498D01*
X240982D01*
X241981Y187498D01*
Y185499D01*
X240982Y184499D01*
X237983D01*
X239982D02*
X241981Y182500D01*
X247979Y188498D02*
X243981D01*
Y182500D01*
X247979D01*
X243981Y185499D02*
X245980D01*
X188033Y348014D02*
X192032D01*
X190032D01*
Y342016D01*
X194031Y348014D02*
X198030Y342016D01*
Y348014D02*
X194031Y342016D01*
X200029Y348014D02*
Y342016D01*
X204028D01*
X154933Y291016D02*
Y297014D01*
X157932D01*
X158932Y296014D01*
Y294015D01*
X157932Y293015D01*
X154933D01*
X156932D02*
X158932Y291016D01*
X160931Y297014D02*
X164930Y291016D01*
Y297014D02*
X160931Y291016D01*
X166929Y297014D02*
Y291016D01*
X170928D01*
X346999Y139998D02*
X345999Y140998D01*
X344000D01*
X343000Y139998D01*
Y136000D01*
X344000Y135000D01*
X345999D01*
X346999Y136000D01*
Y137999D01*
X344999D01*
X348998Y135000D02*
Y140998D01*
X352997Y135000D01*
Y140998D01*
X354996D02*
Y135000D01*
X357995D01*
X358995Y136000D01*
Y139998D01*
X357995Y140998D01*
X354996D01*
X256000Y134500D02*
Y140498D01*
X259999Y134500D01*
Y140498D01*
X265997D02*
X261998D01*
Y134500D01*
X265997D01*
X261998Y137499D02*
X263997D01*
X271995Y139498D02*
X270995Y140498D01*
X268996D01*
X267996Y139498D01*
Y135500D01*
X268996Y134500D01*
X270995D01*
X271995Y135500D01*
Y137499D01*
X269995D01*
X273994Y140498D02*
Y139498D01*
X275993Y137499D01*
X277993Y139498D01*
Y140498D01*
X275993Y137499D02*
Y134500D01*
X290500Y216498D02*
X294499D01*
X292499D01*
Y210500D01*
X296498Y216498D02*
X300497Y210500D01*
Y216498D02*
X296498Y210500D01*
X290634Y222500D02*
Y228498D01*
X293633D01*
X294633Y227498D01*
Y225499D01*
X293633Y224499D01*
X290634D01*
X292633D02*
X294633Y222500D01*
X296632Y228498D02*
X300631Y222500D01*
Y228498D02*
X296632Y222500D01*
X171499Y161998D02*
X167500D01*
Y158999D01*
X169499D01*
X167500D01*
Y156000D01*
X173498D02*
Y159999D01*
X175497Y161998D01*
X177497Y159999D01*
Y156000D01*
Y158999D01*
X173498D01*
X179496Y161998D02*
Y157000D01*
X180496Y156000D01*
X182495D01*
X183495Y157000D01*
Y161998D01*
X185494D02*
Y156000D01*
X189493D01*
X191492Y161998D02*
X195491D01*
X193492D01*
Y156000D01*
X208000Y160500D02*
Y164499D01*
X209999Y166498D01*
X211999Y164499D01*
Y160500D01*
Y163499D01*
X208000D01*
X217997Y165498D02*
X216997Y166498D01*
X214998D01*
X213998Y165498D01*
Y161500D01*
X214998Y160500D01*
X216997D01*
X217997Y161500D01*
X219996Y166498D02*
X223995D01*
X221995D01*
Y160500D01*
X241999Y165498D02*
X240999Y166498D01*
X239000D01*
X238000Y165498D01*
Y164499D01*
X239000Y163499D01*
X240999D01*
X241999Y162499D01*
Y161500D01*
X240999Y160500D01*
X239000D01*
X238000Y161500D01*
X243998Y166498D02*
X247997D01*
X245997D01*
Y160500D01*
X249996D02*
Y164499D01*
X251995Y166498D01*
X253995Y164499D01*
Y160500D01*
Y163499D01*
X249996D01*
X255994Y166498D02*
X259993D01*
X257994D01*
Y160500D01*
X296500Y196500D02*
Y202498D01*
X298499Y200499D01*
X300499Y202498D01*
Y196500D01*
X302498Y201498D02*
X303498Y202498D01*
X305497D01*
X306497Y201498D01*
Y197500D01*
X305497Y196500D01*
X303498D01*
X302498Y197500D01*
Y201498D01*
X282500Y196500D02*
Y202498D01*
X284499Y200499D01*
X286499Y202498D01*
Y196500D01*
X288498D02*
X290497D01*
X289498D01*
Y202498D01*
X288498Y201498D01*
X260000Y196000D02*
Y199999D01*
X261999Y201998D01*
X263999Y199999D01*
Y196000D01*
Y198999D01*
X260000D01*
X265998Y201998D02*
Y197000D01*
X266998Y196000D01*
X268997D01*
X269997Y197000D01*
Y201998D01*
X271996D02*
X275995Y196000D01*
Y201998D02*
X271996Y196000D01*
X392499Y375498D02*
X391499Y376498D01*
X389500D01*
X388500Y375498D01*
Y374499D01*
X389500Y373499D01*
X391499D01*
X392499Y372499D01*
Y371500D01*
X391499Y370500D01*
X389500D01*
X388500Y371500D01*
X394498Y376498D02*
Y370500D01*
Y373499D01*
X398497D01*
Y376498D01*
Y370500D01*
X400496D02*
Y376498D01*
X404495Y370500D01*
Y376498D01*
X406494D02*
X410493D01*
X408494D01*
Y370500D01*
X391500Y381000D02*
Y386998D01*
X394499D01*
X395499Y385998D01*
Y383999D01*
X394499Y382999D01*
X391500D01*
X397498Y386998D02*
Y381000D01*
X399497Y382999D01*
X401497Y381000D01*
Y386998D01*
X403496Y381000D02*
Y386998D01*
X406495D01*
X407495Y385998D01*
Y383999D01*
X406495Y382999D01*
X403496D01*
X405496D02*
X407495Y381000D01*
X394625Y409498D02*
X393625Y410498D01*
X391626D01*
X390626Y409498D01*
Y408499D01*
X391626Y407499D01*
X393625D01*
X394625Y406499D01*
Y405500D01*
X393625Y404500D01*
X391626D01*
X390626Y405500D01*
X396624Y410498D02*
Y404500D01*
X398623Y406499D01*
X400623Y404500D01*
Y410498D01*
X402622D02*
Y404500D01*
X405621D01*
X406621Y405500D01*
Y409498D01*
X405621Y410498D01*
X402622D01*
X392499Y420998D02*
X390499D01*
X391499D01*
Y416000D01*
X390499Y415000D01*
X389500D01*
X388500Y416000D01*
X394498Y420998D02*
X398497D01*
X396497D01*
Y415000D01*
X400496D02*
Y418999D01*
X402495Y420998D01*
X404495Y418999D01*
Y415000D01*
Y417999D01*
X400496D01*
X410493Y419998D02*
X409493Y420998D01*
X407494D01*
X406494Y419998D01*
Y416000D01*
X407494Y415000D01*
X409493D01*
X410493Y416000D01*
Y417999D01*
X408494D01*
X311500Y162329D02*
X312500Y163329D01*
X314499D01*
X315499Y162329D01*
Y161329D01*
X314499Y160330D01*
X313499D01*
X314499D01*
X315499Y159330D01*
Y158330D01*
X314499Y157331D01*
X312500D01*
X311500Y158330D01*
X317498Y157331D02*
Y158330D01*
X318498D01*
Y157331D01*
X317498D01*
X322496Y162329D02*
X323496Y163329D01*
X325496D01*
X326495Y162329D01*
Y161329D01*
X325496Y160330D01*
X324496D01*
X325496D01*
X326495Y159330D01*
Y158330D01*
X325496Y157331D01*
X323496D01*
X322496Y158330D01*
X328495Y163329D02*
Y159330D01*
X330494Y157331D01*
X332493Y159330D01*
Y163329D01*
X373999Y162498D02*
X370000D01*
Y159499D01*
X371999Y160499D01*
X372999D01*
X373999Y159499D01*
Y157500D01*
X372999Y156500D01*
X371000D01*
X370000Y157500D01*
X375998Y156500D02*
Y157500D01*
X376998D01*
Y156500D01*
X375998D01*
X380996Y161498D02*
X381996Y162498D01*
X383996D01*
X384995Y161498D01*
Y157500D01*
X383996Y156500D01*
X381996D01*
X380996Y157500D01*
Y161498D01*
X386995Y162498D02*
Y158499D01*
X388994Y156500D01*
X390993Y158499D01*
Y162498D01*
X354500Y290500D02*
Y296498D01*
X357499D01*
X358499Y295498D01*
Y293499D01*
X357499Y292499D01*
X354500D01*
X356499D02*
X358499Y290500D01*
X364497Y296498D02*
X360498D01*
Y290500D01*
X364497D01*
X360498Y293499D02*
X362497D01*
X370495Y295498D02*
X369495Y296498D01*
X367496D01*
X366496Y295498D01*
Y294499D01*
X367496Y293499D01*
X369495D01*
X370495Y292499D01*
Y291500D01*
X369495Y290500D01*
X367496D01*
X366496Y291500D01*
X376493Y296498D02*
X372494D01*
Y290500D01*
X376493D01*
X372494Y293499D02*
X374494D01*
X378492Y296498D02*
X382491D01*
X380492D01*
Y290500D01*
X339041Y192831D02*
X340707Y194497D01*
X344040D01*
X345706Y192831D01*
Y191165D01*
X344040Y189498D01*
X345706Y187832D01*
Y186166D01*
X344040Y184500D01*
X340707D01*
X339041Y186166D01*
Y187832D01*
X340707Y189498D01*
X339041Y191165D01*
Y192831D01*
X340707Y189498D02*
X344040D01*
X355703Y194497D02*
X352370Y192831D01*
X349038Y189498D01*
Y186166D01*
X350704Y184500D01*
X354036D01*
X355703Y186166D01*
Y187832D01*
X354036Y189498D01*
X349038D01*
X359035Y192831D02*
X360701Y194497D01*
X364033D01*
X365699Y192831D01*
Y191165D01*
X364033Y189498D01*
X365699Y187832D01*
Y186166D01*
X364033Y184500D01*
X360701D01*
X359035Y186166D01*
Y187832D01*
X360701Y189498D01*
X359035Y191165D01*
Y192831D01*
X360701Y189498D02*
X364033D01*
X379029Y184500D02*
Y194497D01*
X382361Y191165D01*
X385693Y194497D01*
Y184500D01*
X389025Y194497D02*
Y184500D01*
Y189498D01*
X395690D01*
Y194497D01*
Y184500D01*
X399022Y191165D02*
X405687D01*
X399022Y184500D01*
X405687D01*
X337541Y233997D02*
Y224000D01*
X344206D01*
X349204D02*
X352537D01*
X354203Y225666D01*
Y228998D01*
X352537Y230664D01*
X349204D01*
X347538Y228998D01*
Y225666D01*
X349204Y224000D01*
X357535D02*
Y233997D01*
X362533D01*
X364199Y232331D01*
Y228998D01*
X362533Y227332D01*
X357535D01*
X360867D02*
X364199Y224000D01*
X369198Y230664D02*
X372530D01*
X374196Y228998D01*
Y224000D01*
X369198D01*
X367532Y225666D01*
X369198Y227332D01*
X374196D01*
X387525Y233997D02*
Y225666D01*
X389191Y224000D01*
X392524D01*
X394190Y225666D01*
Y233997D01*
X397522Y224000D02*
Y230664D01*
X400854Y233997D01*
X404186Y230664D01*
Y224000D01*
Y228998D01*
X397522D01*
X407519Y224000D02*
Y233997D01*
X412517D01*
X414183Y232331D01*
Y228998D01*
X412517Y227332D01*
X407519D01*
X410851D02*
X414183Y224000D01*
X417516Y233997D02*
X424180D01*
X420848D01*
Y224000D01*
X433041Y184500D02*
Y194497D01*
X438040D01*
X439706Y192831D01*
Y189498D01*
X438040Y187832D01*
X433041D01*
X436374D02*
X439706Y184500D01*
X449703Y194497D02*
X443038D01*
Y189498D01*
X446370D01*
X443038D01*
Y184500D01*
X149498Y347000D02*
X144500D01*
X143500Y346000D01*
Y344001D01*
X144500Y343001D01*
X149498D01*
X148498Y337003D02*
X149498Y338003D01*
Y340002D01*
X148498Y341002D01*
X147499D01*
X146499Y340002D01*
Y338003D01*
X145499Y337003D01*
X144500D01*
X143500Y338003D01*
Y340002D01*
X144500Y341002D01*
X149498Y335004D02*
X143500D01*
Y332005D01*
X144500Y331005D01*
X145499D01*
X146499Y332005D01*
Y335004D01*
Y332005D01*
X147499Y331005D01*
X148498D01*
X149498Y332005D01*
Y335004D01*
Y323008D02*
X144500D01*
X143500Y322008D01*
Y320009D01*
X144500Y319009D01*
X149498D01*
X143500Y317010D02*
X147499D01*
X149498Y315010D01*
X147499Y313011D01*
X143500D01*
X146499D01*
Y317010D01*
X143500Y311012D02*
X149498D01*
Y308013D01*
X148498Y307013D01*
X146499D01*
X145499Y308013D01*
Y311012D01*
Y309012D02*
X143500Y307013D01*
X149498Y305014D02*
Y301015D01*
Y303014D01*
X143500D01*
X199700Y443498D02*
Y437500D01*
X203699D01*
X205698Y443498D02*
X207697D01*
X206698D01*
Y437500D01*
X205698D01*
X207697D01*
X210696Y443498D02*
Y437500D01*
X213696D01*
X214695Y438500D01*
Y442498D01*
X213696Y443498D01*
X210696D01*
X216694Y437500D02*
Y441499D01*
X218694Y443498D01*
X220693Y441499D01*
Y437500D01*
Y440499D01*
X216694D01*
X222693Y437500D02*
Y443498D01*
X225692D01*
X226691Y442498D01*
Y440499D01*
X225692Y439499D01*
X222693D01*
X224692D02*
X226691Y437500D01*
X232689D02*
X228691D01*
X232689Y441499D01*
Y442498D01*
X231690Y443498D01*
X229690D01*
X228691Y442498D01*
X157498Y201500D02*
X151500D01*
Y197501D01*
X157498Y195502D02*
Y193503D01*
Y194502D01*
X151500D01*
Y195502D01*
Y193503D01*
X157498Y190504D02*
X151500D01*
Y187504D01*
X152500Y186505D01*
X156498D01*
X157498Y187504D01*
Y190504D01*
X151500Y184505D02*
X155499D01*
X157498Y182506D01*
X155499Y180507D01*
X151500D01*
X154499D01*
Y184505D01*
X151500Y178507D02*
X157498D01*
Y175508D01*
X156498Y174509D01*
X154499D01*
X153499Y175508D01*
Y178507D01*
Y176508D02*
X151500Y174509D01*
Y172509D02*
Y170510D01*
Y171510D01*
X157498D01*
X156498Y172509D01*
X144500Y249500D02*
Y255498D01*
X148499Y249500D01*
Y255498D01*
X154497D02*
X150498D01*
Y249500D01*
X154497D01*
X150498Y252499D02*
X152497D01*
X160495Y254498D02*
X159495Y255498D01*
X157496D01*
X156496Y254498D01*
Y250500D01*
X157496Y249500D01*
X159495D01*
X160495Y250500D01*
Y252499D01*
X158495D01*
X162494Y255498D02*
X166493Y249500D01*
Y255498D02*
X162494Y249500D01*
X415000Y268000D02*
Y273998D01*
X417999D01*
X418999Y272998D01*
Y270999D01*
X417999Y269999D01*
X415000D01*
X423997Y273998D02*
X421998D01*
X420998Y272998D01*
Y269000D01*
X421998Y268000D01*
X423997D01*
X424997Y269000D01*
Y272998D01*
X423997Y273998D01*
X430995Y272998D02*
X429995Y273998D01*
X427996D01*
X426996Y272998D01*
Y271999D01*
X427996Y270999D01*
X429995D01*
X430995Y269999D01*
Y269000D01*
X429995Y268000D01*
X427996D01*
X426996Y269000D01*
X432994Y273998D02*
X436993Y268000D01*
Y273998D02*
X432994Y268000D01*
X312000Y436685D02*
Y442683D01*
X314999D01*
X315999Y441683D01*
Y439684D01*
X314999Y438684D01*
X312000D01*
X320997Y442683D02*
X318998D01*
X317998Y441683D01*
Y437685D01*
X318998Y436685D01*
X320997D01*
X321997Y437685D01*
Y441683D01*
X320997Y442683D01*
X327995Y441683D02*
X326995Y442683D01*
X324996D01*
X323996Y441683D01*
Y440684D01*
X324996Y439684D01*
X326995D01*
X327995Y438684D01*
Y437685D01*
X326995Y436685D01*
X324996D01*
X323996Y437685D01*
X329994Y442683D02*
Y441683D01*
X331994Y439684D01*
X333993Y441683D01*
Y442683D01*
X331994Y439684D02*
Y436685D01*
D13*
X232150Y251047D02*
G03*
X232150Y251047I-1181J0D01*
G01*
D14*
X311598Y346083D02*
Y346476D01*
X313961D01*
X326165D02*
X328528D01*
Y346083D02*
Y346476D01*
Y329547D02*
Y329941D01*
X326165Y329547D02*
X328528D01*
X311598D02*
Y329941D01*
Y329547D02*
X313961D01*
X412453Y329532D02*
X414421D01*
X412453Y333469D02*
X414421D01*
X398953Y329532D02*
X400921D01*
X398953Y333469D02*
X400921D01*
X398953Y339531D02*
X400921D01*
X398953Y343468D02*
X400921D01*
X412453Y339531D02*
X414421D01*
X412453Y343468D02*
X414421D01*
X412453Y349532D02*
X414421D01*
X412453Y353468D02*
X414421D01*
X398953Y349532D02*
X400921D01*
X398953Y353468D02*
X400921D01*
X414032Y377016D02*
Y378984D01*
X417969Y377016D02*
Y378984D01*
X360516Y164024D02*
X362484D01*
X360516Y160087D02*
X362484D01*
X340516D02*
X342484D01*
X340516Y164024D02*
X342484D01*
X183402Y329984D02*
Y332780D01*
X186197D01*
X183402Y315260D02*
Y318055D01*
Y315260D02*
X186197D01*
X198126D02*
X200921D01*
Y318055D01*
Y329984D02*
Y332780D01*
X198126D02*
X200921D01*
X327532Y188016D02*
Y189984D01*
X331469Y188016D02*
Y189984D01*
X329516Y202031D02*
X331484D01*
X329516Y205968D02*
X331484D01*
X329516Y242032D02*
X331484D01*
X329516Y245969D02*
X331484D01*
X329516Y232031D02*
X331484D01*
X329516Y235968D02*
X331484D01*
X164016Y314469D02*
X165984D01*
X164016Y310531D02*
X165984D01*
X194016Y308469D02*
X195984D01*
X194016Y304532D02*
X195984D01*
X173531Y331079D02*
Y333047D01*
X177469Y331079D02*
Y333047D01*
X164016Y326031D02*
X165984D01*
X164016Y329969D02*
X165984D01*
X164016Y318531D02*
X165984D01*
X164016Y322468D02*
X165984D01*
X193283Y293969D02*
Y295937D01*
X197221Y293969D02*
Y295937D01*
X184968Y340016D02*
Y341984D01*
X181032Y340016D02*
Y341984D01*
X173531Y315516D02*
Y317484D01*
X177469Y315516D02*
Y317484D01*
X181532Y305516D02*
Y307484D01*
X185468Y305516D02*
Y307484D01*
X265098Y279969D02*
X267067D01*
X265098Y276031D02*
X267067D01*
X269535Y287874D02*
X271504D01*
X269535Y283937D02*
X271504D01*
X239067Y146016D02*
Y147984D01*
X235130Y146016D02*
Y147984D01*
X217240Y146016D02*
Y147984D01*
X213303Y146016D02*
Y147984D01*
X194850Y145775D02*
Y147744D01*
X190913Y145775D02*
Y147744D01*
X316516Y308846D02*
X318484D01*
X316516Y304909D02*
X318484D01*
X330016D02*
X331984D01*
X330016Y308846D02*
X331984D01*
X312441Y293468D02*
X314409D01*
X312441Y289531D02*
X314409D01*
X316516Y312531D02*
X318484D01*
X316516Y316469D02*
X318484D01*
X329941D02*
X331909D01*
X329941Y312531D02*
X331909D01*
X312516Y297031D02*
X314484D01*
X312516Y300969D02*
X314484D01*
X140433Y215063D02*
X144933D01*
Y242563D01*
X140433D02*
X144933D01*
X226185Y330390D02*
Y332358D01*
X230122Y330390D02*
Y332358D01*
X238543Y338469D02*
X240512D01*
X238543Y334531D02*
X240512D01*
X238543Y346468D02*
X240512D01*
X238543Y342531D02*
X240512D01*
X152784Y233079D02*
Y235047D01*
X148846Y233079D02*
Y235047D01*
X253953Y428217D02*
X255921D01*
X253953Y432154D02*
X255921D01*
X226185Y343890D02*
Y345858D01*
X230122Y343890D02*
Y345858D01*
X235516Y435685D02*
Y440185D01*
Y435685D02*
X263016D01*
Y440185D01*
X271024Y176449D02*
Y178417D01*
X274961Y176449D02*
Y178417D01*
X286193Y176449D02*
Y178417D01*
X290130Y176449D02*
Y178417D01*
X301539Y176449D02*
Y178417D01*
X305476Y176449D02*
Y178417D01*
X276354Y188476D02*
Y190839D01*
X275488Y188476D02*
X276354D01*
X269661D02*
Y190839D01*
Y188476D02*
X270528D01*
X291500Y188543D02*
Y190905D01*
X290634Y188543D02*
X291500D01*
X284807D02*
Y190905D01*
Y188543D02*
X285673D01*
X306854Y188476D02*
Y190839D01*
X305988Y188476D02*
X306854D01*
X300161D02*
Y190839D01*
Y188476D02*
X301028D01*
X348516Y389469D02*
X350484D01*
X348516Y385531D02*
X350484D01*
X331626Y396399D02*
Y419399D01*
Y396399D02*
X343626D01*
X331626Y419399D02*
X343626D01*
X370626Y396500D02*
X382626D01*
X370626Y419500D02*
X382626D01*
Y396500D02*
Y419500D01*
X360531Y428016D02*
Y429984D01*
X356594Y428016D02*
Y429984D01*
X368032Y428016D02*
Y429984D01*
X364094Y428016D02*
Y429984D01*
X345532Y428016D02*
Y429984D01*
X341595Y428016D02*
Y429984D01*
X349158Y428016D02*
Y429984D01*
X353095Y428016D02*
Y429984D01*
X302969Y417201D02*
Y419169D01*
X299031Y417201D02*
Y419169D01*
X160268Y281283D02*
X162236D01*
X160268Y277346D02*
X162236D01*
X417701Y279031D02*
X419669D01*
X417701Y282968D02*
X419669D01*
X282531Y157331D02*
Y159299D01*
X286469Y157331D02*
Y159299D01*
X227031Y218764D02*
X263252D01*
X227031Y254984D02*
X263252D01*
Y218764D02*
Y254984D01*
X227031Y218764D02*
Y254984D01*
X217673Y264890D02*
Y266858D01*
X213736Y264890D02*
Y266858D01*
X212968Y229142D02*
Y231110D01*
X209032Y229142D02*
Y231110D01*
X264657Y209221D02*
Y211189D01*
X268595Y209221D02*
Y211189D01*
X232221Y207842D02*
X234189D01*
X232221Y203906D02*
X234189D01*
X225721Y264906D02*
X227689D01*
X225721Y268843D02*
X227689D01*
X273236Y252890D02*
Y254858D01*
X277173Y252890D02*
Y254858D01*
X281236Y252890D02*
Y254858D01*
X285173Y252890D02*
Y254858D01*
X209673Y264890D02*
Y266858D01*
X205736Y264890D02*
Y266858D01*
X209201Y256736D02*
Y258311D01*
X198177D02*
X209201D01*
X198177Y256736D02*
Y258311D01*
Y250437D02*
Y251914D01*
Y250437D02*
X209201D01*
Y251914D01*
X201673Y264890D02*
Y266858D01*
X197736Y264890D02*
Y266858D01*
X204016Y243764D02*
X205984D01*
X204016Y247701D02*
X205984D01*
X343595Y272220D02*
Y274189D01*
X347532Y272220D02*
Y274189D01*
X185221Y268905D02*
X187189D01*
X185221Y272843D02*
X187189D01*
X177016Y203969D02*
X178984D01*
X177016Y200031D02*
X178984D01*
X199969Y231016D02*
Y232984D01*
X196031Y231016D02*
Y232984D01*
X234425Y283968D02*
X236394D01*
X234425Y280031D02*
X236394D01*
X234425Y272532D02*
X236394D01*
X234425Y276468D02*
X236394D01*
X303031Y333090D02*
Y335059D01*
X306968Y333090D02*
Y335059D01*
X344595Y339016D02*
Y340984D01*
X340657Y339016D02*
Y340984D01*
X352594Y339016D02*
Y340984D01*
X348657Y339016D02*
Y340984D01*
X336595Y339016D02*
Y340984D01*
X332658Y339016D02*
Y340984D01*
X360595Y339016D02*
Y340984D01*
X356658Y339016D02*
Y340984D01*
X332658Y325516D02*
Y327484D01*
X336595Y325516D02*
Y327484D01*
X256165Y343032D02*
X258134D01*
X256165Y346969D02*
X258134D01*
X256165Y351031D02*
X258134D01*
X256165Y354969D02*
X258134D01*
X256165Y335032D02*
X258134D01*
X256165Y338968D02*
X258134D01*
X257528Y313531D02*
X259496D01*
X257528Y317469D02*
X259496D01*
X335626Y393500D02*
Y394549D01*
Y394025D01*
X332477D01*
X333002Y393500D01*
X335626Y423599D02*
Y421500D01*
X333527Y423599D01*
X333002D01*
X332477Y423074D01*
Y422025D01*
X333002Y421500D01*
X381503Y392500D02*
X382027Y393025D01*
Y394074D01*
X381503Y394599D01*
X379404D01*
X378879Y394074D01*
Y393025D01*
X379404Y392500D01*
X379928D01*
X380453Y393025D01*
Y394599D01*
X382027Y421500D02*
Y422549D01*
Y422025D01*
X378879D01*
X379404Y421500D01*
Y424124D02*
X378879Y424649D01*
Y425698D01*
X379404Y426223D01*
X381503D01*
X382027Y425698D01*
Y424649D01*
X381503Y424124D01*
X379404D01*
D15*
X182800Y409900D02*
X195600D01*
X174000D02*
X175900D01*
X167000D02*
X170500D01*
X200800Y410000D02*
X205800D01*
X182800D02*
X195600D01*
X174100D02*
X176000D01*
X166900D02*
X170400D01*
X201200Y410100D02*
X205300D01*
X192200D02*
X193700D01*
X182900D02*
X183000D01*
X174100D02*
X176100D01*
X166800D02*
X170400D01*
X201700Y410200D02*
X204700D01*
X174200D02*
X176100D01*
X166800D02*
X170300D01*
X202800Y410300D02*
X203600D01*
X174300D02*
X176200D01*
X166700D02*
X170200D01*
X174300Y410400D02*
X176300D01*
X166600D02*
X170200D01*
X174400Y410500D02*
X176400D01*
X166600D02*
X170100D01*
X174500Y410600D02*
X176400D01*
X166500D02*
X170100D01*
X174600Y410700D02*
X176500D01*
X166400D02*
X170000D01*
X174600Y410800D02*
X176600D01*
X166400D02*
X169900D01*
X174700Y410900D02*
X176700D01*
X166300D02*
X169900D01*
X174800Y411000D02*
X176700D01*
X166200D02*
X169800D01*
X174800Y411100D02*
X176800D01*
X166200D02*
X169800D01*
X174900Y411200D02*
X176900D01*
X166100D02*
X169700D01*
X175000Y411300D02*
X177000D01*
X166000D02*
X169600D01*
X175000Y411400D02*
X177100D01*
X166000D02*
X169600D01*
X175100Y411500D02*
X177100D01*
X165900D02*
X169500D01*
X175200Y411600D02*
X177200D01*
X165800D02*
X169500D01*
X175200Y411700D02*
X177300D01*
X165800D02*
X169400D01*
X175300Y411800D02*
X177400D01*
X165700D02*
X169400D01*
X175400Y411900D02*
X177400D01*
X165600D02*
X169300D01*
X175400Y412000D02*
X177500D01*
X165500D02*
X169200D01*
X175500Y412100D02*
X177600D01*
X165500D02*
X169200D01*
X175600Y412200D02*
X177700D01*
X165400D02*
X169100D01*
X175700Y412300D02*
X177800D01*
X165300D02*
X169100D01*
X175700Y412400D02*
X177800D01*
X165200D02*
X169000D01*
X175800Y412500D02*
X177900D01*
X165200D02*
X168900D01*
X175900Y412600D02*
X178000D01*
X165100D02*
X168900D01*
X175900Y412700D02*
X178100D01*
X165000D02*
X168800D01*
X176000Y412800D02*
X178200D01*
X164900D02*
X168800D01*
X176100Y412900D02*
X178200D01*
X164800D02*
X168700D01*
X176100Y413000D02*
X178300D01*
X164700D02*
X168600D01*
X176200Y413100D02*
X178400D01*
X164600D02*
X168600D01*
X176300Y413200D02*
X178500D01*
X164500D02*
X168500D01*
X176300Y413300D02*
X178600D01*
X164400D02*
X168400D01*
X176400Y413400D02*
X178700D01*
X164300D02*
X168400D01*
X176500Y413500D02*
X178700D01*
X164200D02*
X168300D01*
X176500Y413600D02*
X178800D01*
X164100D02*
X168300D01*
X176600Y413700D02*
X178900D01*
X164000D02*
X168200D01*
X176700Y413800D02*
X179000D01*
X163800D02*
X168100D01*
X176800Y413900D02*
X179100D01*
X163700D02*
X168000D01*
X176800Y414000D02*
X179200D01*
X163400D02*
X168000D01*
X176900Y414100D02*
X179300D01*
X163100D02*
X167900D01*
X161800D02*
X162400D01*
X177000Y414200D02*
X179400D01*
X161800D02*
X167800D01*
X177000Y414300D02*
X179500D01*
X161800D02*
X167800D01*
X177100Y414400D02*
X179600D01*
X161800D02*
X167700D01*
X177200Y414500D02*
X179900D01*
X161800D02*
X167600D01*
X177200Y414600D02*
X181100D01*
X161800D02*
X167500D01*
X177300Y414700D02*
X181100D01*
X161800D02*
X167400D01*
X177400Y414800D02*
X181100D01*
X161800D02*
X167300D01*
X177400Y414900D02*
X181100D01*
X161800D02*
X167300D01*
X177500Y415000D02*
X181100D01*
X161800D02*
X167200D01*
X177600Y415100D02*
X181100D01*
X162100D02*
X167100D01*
X177600Y415200D02*
X181100D01*
X162800D02*
X167000D01*
X177700Y415300D02*
X181100D01*
X163400D02*
X166900D01*
X177800Y415400D02*
X181100D01*
X164000D02*
X166800D01*
X177800Y415500D02*
X181100D01*
X164700D02*
X166600D01*
X165300Y415600D02*
X166500D01*
X165900Y415700D02*
X166400D01*
X198600Y386400D02*
X199100D01*
X183400D02*
X184000D01*
X189100D02*
X189700D01*
X202500D02*
X203000D01*
X203800D02*
X204500D01*
X192600D02*
X193200D01*
X195200D02*
X197000D01*
X205300D02*
X206100D01*
X191200D02*
X191800D01*
X186800D02*
X188500D01*
X194000D02*
X194600D01*
X200000D02*
X200500D01*
X184700D02*
X186300D01*
X206200D02*
X207300D01*
X201200D02*
X201800D01*
X208000D02*
X208700D01*
X212400D02*
X212900D01*
X211100D02*
X211700D01*
X209000D02*
X209100D01*
X209600D02*
X210300D01*
X213800D02*
X214400D01*
X215200D02*
X215800D01*
X216400D02*
X216800D01*
X217400D02*
X217900D01*
X153900Y386300D02*
X156200D01*
X156600D02*
X157200D01*
X157800D02*
X158600D01*
X159300D02*
X160400D01*
X160800D02*
X161600D01*
X162800D02*
X164300D01*
X164900D02*
X165700D01*
X166300D02*
X167100D01*
X167700D02*
X168500D01*
X169300D02*
X170700D01*
X172300D02*
X174700D01*
X175100D02*
X175900D01*
X176600D02*
X177300D01*
X177900D02*
X179800D01*
X180400D02*
X181200D01*
X181800D02*
X182600D01*
X183300D02*
X184000D01*
X184700D02*
X186200D01*
X186900D02*
X188400D01*
X189000D02*
X189800D01*
X191100D02*
X191900D01*
X192500D02*
X193200D01*
X193900D02*
X194700D01*
X195300D02*
X197200D01*
X198600D02*
X199300D01*
X199900D02*
X200400D01*
X201300D02*
X201900D01*
X202400D02*
X202900D01*
X203700D02*
X204600D01*
X205300D02*
X207500D01*
X208000D02*
X209100D01*
X209600D02*
X210400D01*
X211200D02*
X211900D01*
X212300D02*
X212800D01*
X213700D02*
X214500D01*
X215100D02*
X215900D01*
X216400D02*
X216900D01*
X217400D02*
X217800D01*
X153600Y386200D02*
X156200D01*
X156300D02*
X157400D01*
X157600D02*
X158900D01*
X159300D02*
X160400D01*
X160600D02*
X162000D01*
X162900D02*
X164200D01*
X164600D02*
X165800D01*
X166100D02*
X167300D01*
X167500D02*
X168700D01*
X169400D02*
X170600D01*
X172000D02*
X174700D01*
X174900D02*
X176100D01*
X176400D02*
X177500D01*
X178000D02*
X179900D01*
X180200D02*
X181500D01*
X181600D02*
X182800D01*
X183100D02*
X184300D01*
X184900D02*
X186100D01*
X187000D02*
X188300D01*
X188800D02*
X190100D01*
X190800D02*
X192100D01*
X192200D02*
X193400D01*
X193700D02*
X194900D01*
X195300D02*
X197300D01*
X198600D02*
X200300D01*
X201400D02*
X202800D01*
X203500D02*
X204800D01*
X205400D02*
X206400D01*
X206600D02*
X207500D01*
X208000D02*
X209100D01*
X209300D02*
X210600D01*
X211300D02*
X212700D01*
X213400D02*
X214700D01*
X214900D02*
X216100D01*
X216400D02*
X217700D01*
X153600Y386100D02*
X156200D01*
X156300D02*
X157400D01*
X157600D02*
X158900D01*
X159400D02*
X160200D01*
X160600D02*
X162000D01*
X163100D02*
X164000D01*
X164600D02*
X165800D01*
X166100D02*
X167300D01*
X167500D02*
X168700D01*
X169500D02*
X170500D01*
X172000D02*
X174600D01*
X174900D02*
X176100D01*
X176400D02*
X177500D01*
X178100D02*
X180000D01*
X180200D02*
X181500D01*
X181600D02*
X182800D01*
X183100D02*
X184300D01*
X185000D02*
X186000D01*
X187200D02*
X188100D01*
X188800D02*
X190100D01*
X190800D02*
X192100D01*
X192200D02*
X193400D01*
X193700D02*
X194900D01*
X195400D02*
X197400D01*
X198800D02*
X200100D01*
X201600D02*
X202600D01*
X203500D02*
X204800D01*
X205500D02*
X206300D01*
X206600D02*
X207100D01*
X208100D02*
X208900D01*
X209300D02*
X210600D01*
X211500D02*
X212500D01*
X213400D02*
X214700D01*
X214900D02*
X216100D01*
X216500D02*
X217600D01*
X159600Y386000D02*
X159900D01*
X163400D02*
X163700D01*
X169800D02*
X170200D01*
X178200D02*
X180000D01*
X185300D02*
X185700D01*
X187500D02*
X187800D01*
X195600D02*
X197400D01*
X199200D02*
X199800D01*
X201900D02*
X202300D01*
X205700D02*
X206000D01*
X208400D02*
X208600D01*
X211800D02*
X212200D01*
X216900D02*
X217300D01*
X178100Y385900D02*
X178400D01*
X179400D02*
X180000D01*
X195400D02*
X195800D01*
X196700D02*
X197400D01*
X177900Y385800D02*
X178300D01*
X179500D02*
X180000D01*
X195300D02*
X195700D01*
X196900D02*
X197400D01*
X177800Y385700D02*
X178300D01*
X179500D02*
X180000D01*
X195200D02*
X195700D01*
X196900D02*
X197400D01*
X177800Y385600D02*
X178300D01*
X179500D02*
X180000D01*
X195100D02*
X195600D01*
X196900D02*
X197400D01*
X177700Y385500D02*
X178300D01*
X179500D02*
X179900D01*
X195100D02*
X195600D01*
X196900D02*
X197300D01*
X177700Y385400D02*
X178300D01*
X179500D02*
X179900D01*
X195100D02*
X195700D01*
X196900D02*
X197300D01*
X177800Y385300D02*
X178400D01*
X179400D02*
X179800D01*
X195100D02*
X195800D01*
X196800D02*
X197200D01*
X177800Y385200D02*
X178600D01*
X179200D02*
X179700D01*
X195200D02*
X196000D01*
X196600D02*
X197100D01*
X177900Y385100D02*
X179600D01*
X195200D02*
X197000D01*
X178000Y385000D02*
X179400D01*
X195400D02*
X196800D01*
X178200Y384900D02*
X179200D01*
X195600D02*
X196500D01*
X206600Y406700D02*
X207500D01*
X197200D02*
X199200D01*
X194300D02*
X195200D01*
X185200D02*
X187600D01*
X168900D02*
X173500D01*
X206600Y406800D02*
X207500D01*
X197200D02*
X199200D01*
X194300D02*
X195200D01*
X185100D02*
X187600D01*
X168900D02*
X173600D01*
X206600Y406900D02*
X207500D01*
X197300D02*
X199200D01*
X194300D02*
X195200D01*
X185100D02*
X187600D01*
X168800D02*
X173600D01*
X206600Y407000D02*
X207500D01*
X197300D02*
X199300D01*
X194300D02*
X195200D01*
X185100D02*
X187600D01*
X168800D02*
X173700D01*
X206600Y407100D02*
X207500D01*
X197300D02*
X199300D01*
X194300D02*
X195200D01*
X185100D02*
X187600D01*
X168700D02*
X173800D01*
X206600Y407200D02*
X207600D01*
X197400D02*
X199300D01*
X194300D02*
X195200D01*
X185100D02*
X187600D01*
X168600D02*
X173900D01*
X206600Y407300D02*
X207600D01*
X197400D02*
X199400D01*
X194300D02*
X195200D01*
X185100D02*
X187600D01*
X172200D02*
X173900D01*
X168600D02*
X172000D01*
X206600Y407400D02*
X207600D01*
X197500D02*
X199400D01*
X194300D02*
X195300D01*
X185100D02*
X187600D01*
X172300D02*
X174000D01*
X168500D02*
X171900D01*
X206600Y407500D02*
X207600D01*
X197500D02*
X199500D01*
X194300D02*
X195300D01*
X185100D02*
X187600D01*
X172300D02*
X174100D01*
X168500D02*
X171900D01*
X206600Y407600D02*
X207600D01*
X197600D02*
X199500D01*
X194300D02*
X195300D01*
X185100D02*
X187600D01*
X172400D02*
X174200D01*
X168400D02*
X171800D01*
X206600Y407700D02*
X207600D01*
X197600D02*
X199600D01*
X194200D02*
X195300D01*
X185100D02*
X187600D01*
X172500D02*
X174200D01*
X168300D02*
X171800D01*
X206600Y407800D02*
X207600D01*
X197700D02*
X199700D01*
X194200D02*
X195300D01*
X185100D02*
X187600D01*
X172600D02*
X174300D01*
X168300D02*
X171700D01*
X206500Y407900D02*
X207600D01*
X197700D02*
X199700D01*
X194200D02*
X195300D01*
X185100D02*
X187600D01*
X172600D02*
X174400D01*
X168200D02*
X171600D01*
X206500Y408000D02*
X207600D01*
X197800D02*
X199800D01*
X194200D02*
X195300D01*
X185100D02*
X187600D01*
X172700D02*
X174500D01*
X168100D02*
X171600D01*
X206400Y408100D02*
X207600D01*
X197900D02*
X199900D01*
X194200D02*
X195300D01*
X185000D02*
X187600D01*
X172800D02*
X174500D01*
X168100D02*
X171500D01*
X206400Y408200D02*
X207700D01*
X197900D02*
X200000D01*
X194200D02*
X195300D01*
X185000D02*
X187600D01*
X172800D02*
X174600D01*
X168000D02*
X171500D01*
X206200Y408300D02*
X207700D01*
X198000D02*
X200100D01*
X194200D02*
X195300D01*
X185000D02*
X187600D01*
X172900D02*
X174700D01*
X168000D02*
X171400D01*
X206100Y408400D02*
X207700D01*
X198100D02*
X200200D01*
X194200D02*
X195300D01*
X185000D02*
X187600D01*
X173000D02*
X174800D01*
X167900D02*
X171300D01*
X206000Y408500D02*
X207700D01*
X198200D02*
X200400D01*
X194100D02*
X195400D01*
X185000D02*
X187600D01*
X173000D02*
X174800D01*
X167800D02*
X171300D01*
X205800Y408600D02*
X207700D01*
X198300D02*
X200500D01*
X193800D02*
X195400D01*
X185000D02*
X187600D01*
X173100D02*
X174900D01*
X167800D02*
X171200D01*
X205600Y408700D02*
X207700D01*
X198400D02*
X200700D01*
X193400D02*
X195400D01*
X185000D02*
X187600D01*
X173200D02*
X175000D01*
X167700D02*
X171200D01*
X205400Y408800D02*
X207800D01*
X198500D02*
X200900D01*
X192900D02*
X195400D01*
X184900D02*
X187600D01*
X173200D02*
X175100D01*
X167700D02*
X171100D01*
X205100Y408900D02*
X207800D01*
X198600D02*
X201100D01*
X192100D02*
X195400D01*
X184900D02*
X188400D01*
X173300D02*
X175100D01*
X167600D02*
X171100D01*
X204800Y409000D02*
X207800D01*
X198700D02*
X201400D01*
X184700D02*
X195400D01*
X173400D02*
X175200D01*
X167500D02*
X171000D01*
X204400Y409100D02*
X207800D01*
X198900D02*
X201700D01*
X184500D02*
X195400D01*
X173500D02*
X175300D01*
X167500D02*
X170900D01*
X203800Y409200D02*
X207800D01*
X199000D02*
X202200D01*
X183500D02*
X195500D01*
X173500D02*
X175400D01*
X167400D02*
X170900D01*
X199100Y409300D02*
X207800D01*
X182900D02*
X195500D01*
X173600D02*
X175400D01*
X167300D02*
X170800D01*
X199300Y409400D02*
X207600D01*
X182800D02*
X195500D01*
X173700D02*
X175500D01*
X167300D02*
X170800D01*
X199500Y409500D02*
X207400D01*
X182800D02*
X195500D01*
X173700D02*
X175600D01*
X167200D02*
X170700D01*
X199700Y409600D02*
X207100D01*
X182800D02*
X195500D01*
X173800D02*
X175700D01*
X167200D02*
X170600D01*
X199900Y409700D02*
X206800D01*
X182800D02*
X195600D01*
X173900D02*
X175700D01*
X167100D02*
X170600D01*
X200200Y409800D02*
X206500D01*
X182800D02*
X195600D01*
X173900D02*
X175800D01*
X167000D02*
X170500D01*
X200400Y409900D02*
X206200D01*
X155800Y388700D02*
X156100D01*
X154100D02*
X154700D01*
X209700Y388800D02*
X210200D01*
X208100D02*
X208500D01*
X203900D02*
X204500D01*
X200200D02*
X200500D01*
X198700D02*
X199200D01*
X191200D02*
X191700D01*
X180500D02*
X181000D01*
X174200D02*
X174500D01*
X172500D02*
X173100D01*
X159400D02*
X159800D01*
X155800D02*
X156100D01*
X154100D02*
X154700D01*
X209600Y388900D02*
X210200D01*
X208200D02*
X208500D01*
X203900D02*
X204500D01*
X200200D02*
X200500D01*
X198700D02*
X199200D01*
X191100D02*
X191700D01*
X180500D02*
X181100D01*
X174200D02*
X174500D01*
X172500D02*
X173100D01*
X159500D02*
X159800D01*
X155800D02*
X156100D01*
X154100D02*
X154700D01*
X209600Y389000D02*
X210300D01*
X208300D02*
X208500D01*
X203900D02*
X204500D01*
X200100D02*
X200500D01*
X198800D02*
X199200D01*
X191100D02*
X191800D01*
X180400D02*
X181100D01*
X174100D02*
X174500D01*
X172500D02*
X173100D01*
X159600D02*
X159800D01*
X155700D02*
X156100D01*
X154100D02*
X154700D01*
X209600Y389100D02*
X210300D01*
X203900D02*
X204500D01*
X200000D02*
X200500D01*
X198800D02*
X199300D01*
X191100D02*
X191800D01*
X180400D02*
X181100D01*
X173900D02*
X174500D01*
X172400D02*
X173200D01*
X155500D02*
X156100D01*
X154000D02*
X154700D01*
X209600Y389200D02*
X210200D01*
X203800D02*
X204500D01*
X198900D02*
X200500D01*
X191100D02*
X191700D01*
X180500D02*
X181100D01*
X172100D02*
X174500D01*
X153700D02*
X156100D01*
X209700Y389300D02*
X210200D01*
X203600D02*
X204500D01*
X199100D02*
X200400D01*
X191200D02*
X191700D01*
X180500D02*
X181000D01*
X172100D02*
X174500D01*
X153700D02*
X156100D01*
X203500Y389400D02*
X204500D01*
X199400D02*
X200100D01*
X203800Y389500D02*
X204500D01*
X204300Y389600D02*
X204400D01*
X200700Y393400D02*
X202900D01*
X199900Y393500D02*
X203600D01*
X199400Y393600D02*
X204000D01*
X189800D02*
X194900D01*
X183200D02*
X184500D01*
X198900Y393700D02*
X204400D01*
X183100D02*
X195700D01*
X179700D02*
X181500D01*
X176800D02*
X178200D01*
X161400D02*
X164800D01*
X198500Y393800D02*
X204700D01*
X183100D02*
X195700D01*
X176700D02*
X181500D01*
X161400D02*
X164800D01*
X198200Y393900D02*
X205000D01*
X183100D02*
X195700D01*
X176600D02*
X181500D01*
X161400D02*
X164900D01*
X197900Y394000D02*
X205300D01*
X183100D02*
X195700D01*
X176600D02*
X181500D01*
X161400D02*
X165000D01*
X197600Y394100D02*
X205500D01*
X183100D02*
X195700D01*
X176500D02*
X181500D01*
X161400D02*
X165000D01*
X197300Y394200D02*
X205700D01*
X183100D02*
X195700D01*
X176500D02*
X181500D01*
X161400D02*
X165100D01*
X197100Y394300D02*
X205900D01*
X183100D02*
X195700D01*
X176400D02*
X181500D01*
X161400D02*
X165200D01*
X197200Y394400D02*
X206100D01*
X183200D02*
X195700D01*
X176300D02*
X181500D01*
X161400D02*
X165200D01*
X203300Y394500D02*
X206200D01*
X197200D02*
X201000D01*
X184600D02*
X195700D01*
X176300D02*
X181500D01*
X161400D02*
X165300D01*
X203800Y394600D02*
X206400D01*
X197200D02*
X200500D01*
X184800D02*
X195700D01*
X176200D02*
X181500D01*
X161400D02*
X165300D01*
X204200Y394700D02*
X206500D01*
X197200D02*
X200200D01*
X184900D02*
X195700D01*
X176200D02*
X180200D01*
X162700D02*
X165400D01*
X204500Y394800D02*
X206700D01*
X197200D02*
X199900D01*
X193300D02*
X195700D01*
X184900D02*
X188300D01*
X176100D02*
X180000D01*
X162900D02*
X165500D01*
X204700Y394900D02*
X206800D01*
X197200D02*
X199700D01*
X193900D02*
X195700D01*
X185000D02*
X187600D01*
X176100D02*
X179800D01*
X163000D02*
X165500D01*
X204900Y395000D02*
X206900D01*
X197200D02*
X199500D01*
X194200D02*
X195700D01*
X185000D02*
X187600D01*
X176000D02*
X179700D01*
X163100D02*
X165600D01*
X205100Y395100D02*
X207000D01*
X197200D02*
X199300D01*
X194500D02*
X195700D01*
X185100D02*
X187600D01*
X175900D02*
X179700D01*
X163200D02*
X165700D01*
X205300Y395200D02*
X207100D01*
X197200D02*
X199100D01*
X194600D02*
X195700D01*
X185100D02*
X187600D01*
X175900D02*
X179600D01*
X163300D02*
X165700D01*
X205400Y395300D02*
X207200D01*
X197300D02*
X198900D01*
X194600D02*
X195700D01*
X185100D02*
X187600D01*
X175800D02*
X179500D01*
X163400D02*
X165800D01*
X205500Y395400D02*
X207300D01*
X197300D02*
X198800D01*
X194600D02*
X195700D01*
X185100D02*
X187600D01*
X175800D02*
X179400D01*
X163500D02*
X165800D01*
X205700Y395500D02*
X207400D01*
X197300D02*
X198600D01*
X194600D02*
X195700D01*
X185100D02*
X187600D01*
X175700D02*
X179400D01*
X163600D02*
X165900D01*
X205800Y395600D02*
X207500D01*
X197300D02*
X198500D01*
X194600D02*
X195700D01*
X185100D02*
X187600D01*
X175600D02*
X179300D01*
X163700D02*
X166000D01*
X205900Y395700D02*
X207600D01*
X197300D02*
X198400D01*
X194700D02*
X195700D01*
X185100D02*
X187600D01*
X175600D02*
X179200D01*
X163700D02*
X166000D01*
X206000Y395800D02*
X207700D01*
X197300D02*
X198400D01*
X194700D02*
X195700D01*
X185100D02*
X187600D01*
X175500D02*
X179200D01*
X163800D02*
X166100D01*
X206000Y395900D02*
X207800D01*
X197300D02*
X198300D01*
X194700D02*
X195700D01*
X185100D02*
X187600D01*
X175500D02*
X179100D01*
X163900D02*
X166200D01*
X206100Y396000D02*
X207800D01*
X197300D02*
X198300D01*
X194700D02*
X195700D01*
X185100D02*
X187600D01*
X175400D02*
X179000D01*
X164000D02*
X166200D01*
X206200Y396100D02*
X207900D01*
X197300D02*
X198200D01*
X194700D02*
X195800D01*
X185100D02*
X187600D01*
X175300D02*
X179000D01*
X164000D02*
X166300D01*
X206200Y396200D02*
X208000D01*
X197300D02*
X198200D01*
X194800D02*
X195800D01*
X185200D02*
X187600D01*
X175300D02*
X178900D01*
X164100D02*
X166300D01*
X206300Y396300D02*
X208000D01*
X197300D02*
X198200D01*
X194800D02*
X195800D01*
X185200D02*
X187600D01*
X175200D02*
X178800D01*
X164200D02*
X166400D01*
X206400Y396400D02*
X208100D01*
X197300D02*
X198200D01*
X194800D02*
X195800D01*
X185200D02*
X187600D01*
X175200D02*
X178800D01*
X164300D02*
X166500D01*
X206400Y396500D02*
X208200D01*
X197300D02*
X198200D01*
X194800D02*
X195800D01*
X185200D02*
X187600D01*
X175100D02*
X178700D01*
X164300D02*
X166500D01*
X206500Y396600D02*
X208200D01*
X197300D02*
X198200D01*
X194900D02*
X195800D01*
X185200D02*
X187600D01*
X175000D02*
X178700D01*
X164400D02*
X166600D01*
X206500Y396700D02*
X208300D01*
X197300D02*
X198200D01*
X194900D02*
X195800D01*
X185200D02*
X187600D01*
X175000D02*
X178600D01*
X164500D02*
X166700D01*
X206500Y396800D02*
X208300D01*
X197300D02*
X198200D01*
X194900D02*
X195800D01*
X185200D02*
X187600D01*
X174900D02*
X178500D01*
X164600D02*
X166700D01*
X206600Y396900D02*
X208400D01*
X197300D02*
X198200D01*
X194900D02*
X195800D01*
X185200D02*
X187600D01*
X174900D02*
X178500D01*
X164600D02*
X166800D01*
X206600Y397000D02*
X208400D01*
X197300D02*
X198200D01*
X194900D02*
X195900D01*
X185200D02*
X187600D01*
X174800D02*
X178400D01*
X164700D02*
X166800D01*
X206600Y397100D02*
X208500D01*
X197300D02*
X198200D01*
X195000D02*
X195900D01*
X185200D02*
X187600D01*
X174700D02*
X178300D01*
X164800D02*
X166900D01*
X189800Y388000D02*
X190600D01*
X188900D02*
X189700D01*
X187900D02*
X188500D01*
X187000D02*
X187400D01*
X185800D02*
X186300D01*
X184800D02*
X185200D01*
X181700D02*
X183900D01*
X180300D02*
X181100D01*
X179100D02*
X179900D01*
X178000D02*
X178500D01*
X175000D02*
X177100D01*
X174000D02*
X174300D01*
X172500D02*
X173100D01*
X170300D02*
X170800D01*
X169300D02*
X169800D01*
X164800D02*
X168300D01*
X163800D02*
X164400D01*
X162900D02*
X163300D01*
X161600D02*
X162500D01*
X160700D02*
X161500D01*
X159200D02*
X159800D01*
X158000D02*
X158400D01*
X156800D02*
X157400D01*
X155500D02*
X155900D01*
X154100D02*
X154700D01*
X217400Y388100D02*
X217800D01*
X216500D02*
X217000D01*
X214500D02*
X215700D01*
X213500D02*
X214400D01*
X212200D02*
X212800D01*
X211300D02*
X211800D01*
X209400D02*
X210300D01*
X207600D02*
X209100D01*
X206300D02*
X207200D01*
X204900D02*
X205800D01*
X203900D02*
X204500D01*
X202300D02*
X202900D01*
X201300D02*
X201900D01*
X198700D02*
X199700D01*
X196300D02*
X197400D01*
X195400D02*
X196000D01*
X192300D02*
X194400D01*
X190900D02*
X191800D01*
X189900D02*
X190600D01*
X188800D02*
X189700D01*
X187800D02*
X188400D01*
X187100D02*
X187500D01*
X185600D02*
X186200D01*
X184900D02*
X185400D01*
X181700D02*
X183800D01*
X180200D02*
X181100D01*
X179000D02*
X180000D01*
X178100D02*
X178600D01*
X175900D02*
X177100D01*
X174900D02*
X175800D01*
X174000D02*
X174300D01*
X172500D02*
X173100D01*
X170200D02*
X170800D01*
X169400D02*
X169900D01*
X167100D02*
X168300D01*
X165700D02*
X166900D01*
X164700D02*
X165600D01*
X163700D02*
X164300D01*
X163000D02*
X163400D01*
X161700D02*
X162500D01*
X160600D02*
X161500D01*
X158900D02*
X160400D01*
X157900D02*
X158600D01*
X156600D02*
X157500D01*
X155600D02*
X155900D01*
X154100D02*
X154700D01*
X216600Y388200D02*
X217800D01*
X214600D02*
X215600D01*
X213600D02*
X214400D01*
X211400D02*
X212700D01*
X209400D02*
X210300D01*
X207600D02*
X209100D01*
X206200D02*
X207200D01*
X204900D02*
X205800D01*
X203900D02*
X204500D01*
X201500D02*
X202800D01*
X198600D02*
X199500D01*
X195500D02*
X197500D01*
X193400D02*
X194400D01*
X192300D02*
X193200D01*
X190900D02*
X191800D01*
X189900D02*
X190600D01*
X188900D02*
X189700D01*
X187200D02*
X188300D01*
X185000D02*
X186100D01*
X182800D02*
X183800D01*
X181700D02*
X182600D01*
X180300D02*
X181100D01*
X178200D02*
X180100D01*
X176000D02*
X177000D01*
X175000D02*
X175800D01*
X174000D02*
X174300D01*
X172500D02*
X173100D01*
X169500D02*
X170700D01*
X167200D02*
X168200D01*
X165800D02*
X166800D01*
X164700D02*
X165600D01*
X163100D02*
X164200D01*
X161800D02*
X162400D01*
X160700D02*
X161500D01*
X158900D02*
X160400D01*
X157800D02*
X158800D01*
X156400D02*
X157600D01*
X155600D02*
X155900D01*
X154100D02*
X154700D01*
X216800Y388300D02*
X217700D01*
X214800D02*
X215500D01*
X214000D02*
X214400D01*
X211600D02*
X212500D01*
X209900D02*
X210300D01*
X207700D02*
X209100D01*
X206600D02*
X207200D01*
X205200D02*
X205800D01*
X203900D02*
X204500D01*
X201700D02*
X202600D01*
X198600D02*
X199300D01*
X197200D02*
X197500D01*
X195700D02*
X196600D01*
X193500D02*
X194200D01*
X192800D02*
X193200D01*
X191400D02*
X191800D01*
X190100D02*
X190500D01*
X189400D02*
X189700D01*
X187400D02*
X188200D01*
X185200D02*
X186000D01*
X182900D02*
X183600D01*
X182200D02*
X182600D01*
X180700D02*
X181100D01*
X179800D02*
X180100D01*
X178400D02*
X179300D01*
X176200D02*
X176900D01*
X175400D02*
X175800D01*
X172500D02*
X173100D01*
X169700D02*
X170500D01*
X167400D02*
X168100D01*
X166000D02*
X166700D01*
X165200D02*
X165600D01*
X163300D02*
X164100D01*
X161900D02*
X162400D01*
X161200D02*
X161500D01*
X159000D02*
X160400D01*
X157800D02*
X158800D01*
X156400D02*
X157600D01*
X154100D02*
X154700D01*
X207900Y388400D02*
X208500D01*
X203900D02*
X204500D01*
X198600D02*
X199300D01*
X172500D02*
X173100D01*
X159200D02*
X159800D01*
X154100D02*
X154700D01*
X207900Y388500D02*
X208500D01*
X203900D02*
X204500D01*
X198600D02*
X199200D01*
X172500D02*
X173100D01*
X159200D02*
X159800D01*
X154100D02*
X154700D01*
X207900Y388600D02*
X208500D01*
X203900D02*
X204500D01*
X200300D02*
X200500D01*
X198600D02*
X199200D01*
X174300D02*
X174500D01*
X172500D02*
X173100D01*
X159200D02*
X159800D01*
X155900D02*
X156100D01*
X154100D02*
X154700D01*
X209900Y388700D02*
X210000D01*
X208000D02*
X208500D01*
X203900D02*
X204500D01*
X200300D02*
X200500D01*
X198600D02*
X199200D01*
X191400D02*
X191500D01*
X180700D02*
X180800D01*
X174300D02*
X174600D01*
X172500D02*
X173100D01*
X159300D02*
X159800D01*
X206600Y397200D02*
X208500D01*
X197300D02*
X198200D01*
X195000D02*
X195900D01*
X185200D02*
X187600D01*
X174700D02*
X178300D01*
X164800D02*
X167000D01*
X206700Y397300D02*
X208600D01*
X197300D02*
X198200D01*
X195000D02*
X195900D01*
X185200D02*
X187600D01*
X174600D02*
X178200D01*
X164900D02*
X167000D01*
X206700Y397400D02*
X208600D01*
X197300D02*
X198200D01*
X195000D02*
X195900D01*
X185200D02*
X187600D01*
X174600D02*
X178100D01*
X165000D02*
X167100D01*
X206700Y397500D02*
X208600D01*
X197300D02*
X198200D01*
X195000D02*
X195900D01*
X185200D02*
X187600D01*
X174500D02*
X178100D01*
X165100D02*
X167200D01*
X206700Y397600D02*
X208700D01*
X197300D02*
X198200D01*
X195100D02*
X195900D01*
X185200D02*
X187600D01*
X174400D02*
X178000D01*
X165100D02*
X167200D01*
X206700Y397700D02*
X208700D01*
X197300D02*
X198200D01*
X185200D02*
X187600D01*
X174400D02*
X178000D01*
X165200D02*
X167300D01*
X206700Y397800D02*
X208700D01*
X197300D02*
X198200D01*
X185200D02*
X187600D01*
X174300D02*
X177900D01*
X165300D02*
X167300D01*
X206700Y397900D02*
X208700D01*
X197400D02*
X198200D01*
X185200D02*
X187600D01*
X174300D02*
X177800D01*
X165400D02*
X167400D01*
X206700Y398000D02*
X208800D01*
X185200D02*
X187600D01*
X174200D02*
X177800D01*
X165400D02*
X167500D01*
X206700Y398100D02*
X208800D01*
X185200D02*
X187600D01*
X174100D02*
X177700D01*
X165500D02*
X167500D01*
X206700Y398200D02*
X208800D01*
X185200D02*
X187600D01*
X174100D02*
X177600D01*
X165600D02*
X167600D01*
X206700Y398300D02*
X208800D01*
X185200D02*
X187600D01*
X174000D02*
X177600D01*
X165700D02*
X167700D01*
X206700Y398400D02*
X208800D01*
X185200D02*
X187600D01*
X174000D02*
X177500D01*
X165700D02*
X167700D01*
X206700Y398500D02*
X208800D01*
X185200D02*
X187600D01*
X173900D02*
X177500D01*
X165800D02*
X167800D01*
X206700Y398600D02*
X208800D01*
X185200D02*
X187600D01*
X173800D02*
X177400D01*
X165900D02*
X167900D01*
X206700Y398700D02*
X208800D01*
X185200D02*
X187600D01*
X173800D02*
X177300D01*
X165900D02*
X167900D01*
X206700Y398800D02*
X208800D01*
X185200D02*
X187600D01*
X173700D02*
X177300D01*
X166000D02*
X168000D01*
X206600Y398900D02*
X208900D01*
X185200D02*
X187600D01*
X173700D02*
X177200D01*
X166100D02*
X168000D01*
X206600Y399000D02*
X208900D01*
X185200D02*
X187600D01*
X173600D02*
X177100D01*
X166200D02*
X168100D01*
X206600Y399100D02*
X208900D01*
X185200D02*
X187600D01*
X216400Y387900D02*
X216900D01*
X215100D02*
X215700D01*
X213800D02*
X214500D01*
X212400D02*
X213000D01*
X211100D02*
X211600D01*
X209600D02*
X210300D01*
X207900D02*
X208500D01*
X206600D02*
X207200D01*
X205200D02*
X205800D01*
X203900D02*
X204500D01*
X202500D02*
X203100D01*
X201200D02*
X201700D01*
X198800D02*
X200000D01*
X196500D02*
X197000D01*
X195300D02*
X195900D01*
X193800D02*
X194500D01*
X192500D02*
X193300D01*
X191200D02*
X191800D01*
X189100D02*
X190600D01*
X188000D02*
X188500D01*
X186900D02*
X187300D01*
X185800D02*
X186400D01*
X184700D02*
X185200D01*
X183200D02*
X183900D01*
X181900D02*
X182700D01*
X180500D02*
X181100D01*
X179100D02*
X179700D01*
X177900D02*
X178500D01*
X176500D02*
X177200D01*
X175200D02*
X176000D01*
X172500D02*
X174300D01*
X170300D02*
X170900D01*
X169200D02*
X169700D01*
X167700D02*
X168400D01*
X166300D02*
X167200D01*
X165000D02*
X165800D01*
X163900D02*
X164500D01*
X162800D02*
X163300D01*
X160900D02*
X162400D01*
X159200D02*
X159800D01*
X157900D02*
X158300D01*
X156800D02*
X157500D01*
X154100D02*
X155900D01*
X217500Y388000D02*
X217800D01*
X216500D02*
X216900D01*
X213600D02*
X215700D01*
X212300D02*
X212900D01*
X211100D02*
X211700D01*
X209400D02*
X210300D01*
X207900D02*
X208500D01*
X206500D02*
X207200D01*
X205100D02*
X205800D01*
X203900D02*
X204500D01*
X202400D02*
X203000D01*
X201200D02*
X201800D01*
X198700D02*
X199900D01*
X196400D02*
X197300D01*
X195300D02*
X195900D01*
X192300D02*
X194500D01*
X190900D02*
X191800D01*
X175200Y386600D02*
X175800D01*
X176600D02*
X177200D01*
X177900D02*
X178500D01*
X180500D02*
X181100D01*
X182000D02*
X182600D01*
X183400D02*
X184000D01*
X184600D02*
X185300D01*
X186200D02*
X186400D01*
X186700D02*
X187500D01*
X188400D02*
X188500D01*
X189100D02*
X189700D01*
X191200D02*
X191800D01*
X192600D02*
X193200D01*
X194000D02*
X194600D01*
X195300D02*
X195800D01*
X198600D02*
X199000D01*
X200100D02*
X200600D01*
X201100D02*
X201700D01*
X202600D02*
X203100D01*
X203900D02*
X204500D01*
X205200D02*
X205800D01*
X206600D02*
X207200D01*
X207900D02*
X208500D01*
X209700D02*
X210300D01*
X211000D02*
X211600D01*
X212500D02*
X213100D01*
X213800D02*
X214400D01*
X215200D02*
X215800D01*
X216300D02*
X216600D01*
X217400D02*
X218000D01*
X154100Y386500D02*
X154700D01*
X155900D02*
X156300D01*
X156900D02*
X157200D01*
X157700D02*
X158400D01*
X159200D02*
X159900D01*
X160900D02*
X161500D01*
X162700D02*
X163600D01*
X164100D02*
X164500D01*
X165000D02*
X165600D01*
X166400D02*
X167000D01*
X167800D02*
X168400D01*
X169100D02*
X170000D01*
X170500D02*
X170900D01*
X172500D02*
X173200D01*
X174300D02*
X174700D01*
X175200D02*
X175800D01*
X176600D02*
X177200D01*
X177800D02*
X178600D01*
X180500D02*
X181100D01*
X182000D02*
X182600D01*
X183400D02*
X184000D01*
X184600D02*
X185500D01*
X186000D02*
X186400D01*
X186700D02*
X187600D01*
X188200D02*
X188600D01*
X189100D02*
X189700D01*
X191200D02*
X191800D01*
X192600D02*
X193200D01*
X194000D02*
X194600D01*
X195200D02*
X195900D01*
X198600D02*
X199000D01*
X200000D02*
X200600D01*
X201100D02*
X201800D01*
X202500D02*
X203100D01*
X203900D02*
X204500D01*
X205200D02*
X205900D01*
X206500D02*
X207200D01*
X207900D02*
X208600D01*
X209700D02*
X210300D01*
X211000D02*
X211700D01*
X212400D02*
X213000D01*
X213800D02*
X214400D01*
X215200D02*
X215800D01*
X216300D02*
X216700D01*
X217400D02*
X217900D01*
X154000Y386400D02*
X154800D01*
X155800D02*
X156300D01*
X156800D02*
X157200D01*
X157800D02*
X158500D01*
X159200D02*
X160000D01*
X160200D02*
X160400D01*
X160900D02*
X161600D01*
X162700D02*
X164400D01*
X165000D02*
X165600D01*
X166400D02*
X167000D01*
X167800D02*
X168400D01*
X169200D02*
X170800D01*
X172500D02*
X173200D01*
X174200D02*
X174700D01*
X175200D02*
X175800D01*
X176600D02*
X177200D01*
X177800D02*
X179700D01*
X180500D02*
X181100D01*
X181900D02*
X182600D01*
X170700Y386600D02*
X170900D01*
X172500D02*
X173200D01*
X165000D02*
X165600D01*
X174400D02*
X174800D01*
X166400D02*
X167000D01*
X167800D02*
X168400D01*
X169100D02*
X169800D01*
X164300D02*
X164500D01*
X162600D02*
X163400D01*
X160900D02*
X161500D01*
X159200D02*
X159800D01*
X157700D02*
X158300D01*
X157000D02*
X157300D01*
X156000D02*
X156300D01*
X154100D02*
X154700D01*
X217400Y386700D02*
X218000D01*
X216300D02*
X216600D01*
X215200D02*
X215800D01*
X213800D02*
X214400D01*
X212500D02*
X213100D01*
X210900D02*
X211600D01*
X209700D02*
X210300D01*
X207900D02*
X208500D01*
X206600D02*
X207200D01*
X205200D02*
X205800D01*
X203900D02*
X204500D01*
X202600D02*
X203200D01*
X201000D02*
X201700D01*
X200100D02*
X200600D01*
X198500D02*
X198900D01*
X195500D02*
X195800D01*
X194000D02*
X194600D01*
X192600D02*
X193200D01*
X191200D02*
X191800D01*
X189100D02*
X189700D01*
X186700D02*
X187400D01*
X184500D02*
X185200D01*
X183400D02*
X184000D01*
X182000D02*
X182600D01*
X180500D02*
X181100D01*
X178100D02*
X178500D01*
X176600D02*
X177200D01*
X175200D02*
X175800D01*
X174500D02*
X174800D01*
X172500D02*
X173100D01*
X169000D02*
X169700D01*
X167800D02*
X168400D01*
X166400D02*
X167000D01*
X165000D02*
X165600D01*
X162600D02*
X163300D01*
X160900D02*
X161500D01*
X159200D02*
X159800D01*
X157600D02*
X158300D01*
X157000D02*
X157400D01*
X156000D02*
X156300D01*
X154100D02*
X154700D01*
X217300Y386800D02*
X218000D01*
X216300D02*
X216500D01*
X215200D02*
X215800D01*
X213800D02*
X214400D01*
X212500D02*
X213100D01*
X210900D02*
X211600D01*
X209700D02*
X210300D01*
X207900D02*
X208500D01*
X206600D02*
X207200D01*
X205200D02*
X205800D01*
X203900D02*
X204500D01*
X202600D02*
X203200D01*
X201000D02*
X201700D01*
X200100D02*
X200700D01*
X198500D02*
X198800D01*
X195600D02*
X196400D01*
X194000D02*
X194600D01*
X192600D02*
X193200D01*
X191200D02*
X191800D01*
X189100D02*
X189700D01*
X186600D02*
X187300D01*
X184500D02*
X185200D01*
X183400D02*
X184000D01*
X182000D02*
X182600D01*
X180500D02*
X181100D01*
X178200D02*
X179000D01*
X176600D02*
X177200D01*
X175200D02*
X175800D01*
X174500D02*
X174800D01*
X172500D02*
X173100D01*
X169000D02*
X169700D01*
X167800D02*
X168400D01*
X166400D02*
X167000D01*
X165000D02*
X165600D01*
X162600D02*
X163200D01*
X160900D02*
X161500D01*
X159200D02*
X159800D01*
X157500D02*
X158200D01*
X157100D02*
X157400D01*
X156100D02*
X156400D01*
X154100D02*
X154700D01*
X217100Y386900D02*
X218000D01*
X215200D02*
X215800D01*
X213800D02*
X214400D01*
X212500D02*
X213200D01*
X210900D02*
X211500D01*
X209700D02*
X210300D01*
X207900D02*
X208500D01*
X206600D02*
X207200D01*
X205200D02*
X205800D01*
X203900D02*
X204500D01*
X202600D02*
X203300D01*
X201000D02*
X201600D01*
X200100D02*
X200700D01*
X198500D02*
X198800D01*
X195600D02*
X196700D01*
X194000D02*
X194600D01*
X192600D02*
X193200D01*
X191200D02*
X191800D01*
X189100D02*
X189700D01*
X186600D02*
X187300D01*
X184500D02*
X185100D01*
X183400D02*
X184000D01*
X182000D02*
X182600D01*
X180500D02*
X181100D01*
X178200D02*
X179300D01*
X176600D02*
X177200D01*
X175200D02*
X175800D01*
X174600D02*
X174800D01*
X172500D02*
X173100D01*
X169000D02*
X169600D01*
X167800D02*
X168400D01*
X166400D02*
X167000D01*
X165000D02*
X165600D01*
X162500D02*
X163200D01*
X160900D02*
X161500D01*
X159200D02*
X159800D01*
X157200D02*
X158100D01*
X156100D02*
X156300D01*
X154100D02*
X154700D01*
X216900Y387000D02*
X217900D01*
X215200D02*
X215800D01*
X213800D02*
X214400D01*
X212500D02*
X213200D01*
X210800D02*
X211500D01*
X209700D02*
X210300D01*
X207900D02*
X208500D01*
X206600D02*
X207200D01*
X205200D02*
X205800D01*
X203900D02*
X204500D01*
X202600D02*
X203300D01*
X200900D02*
X201600D01*
X200000D02*
X200700D01*
X198500D02*
X198800D01*
X195400D02*
X196800D01*
X194000D02*
X194600D01*
X192600D02*
X193200D01*
X191200D02*
X191800D01*
X189100D02*
X189700D01*
X186600D02*
X187200D01*
X184500D02*
X185100D01*
X183400D02*
X184000D01*
X182000D02*
X182600D01*
X180500D02*
X181100D01*
X178100D02*
X179500D01*
X176600D02*
X177200D01*
X175200D02*
X175800D01*
X172500D02*
X173100D01*
X169000D02*
X169600D01*
X167800D02*
X168400D01*
X166400D02*
X167000D01*
X165000D02*
X165600D01*
X162500D02*
X163100D01*
X160900D02*
X161500D01*
X159200D02*
X159800D01*
X157300D02*
X158100D01*
X154100D02*
X154700D01*
X216700Y387100D02*
X217900D01*
X215200D02*
X215800D01*
X213800D02*
X214400D01*
X212500D02*
X213200D01*
X210800D02*
X211500D01*
X209700D02*
X210300D01*
X207900D02*
X208500D01*
X206600D02*
X207200D01*
X205200D02*
X205800D01*
X203900D02*
X204500D01*
X202600D02*
X203300D01*
X200900D02*
X201600D01*
X200000D02*
X200700D01*
X196400D02*
X196900D01*
X195300D02*
X196000D01*
X194000D02*
X194600D01*
X192600D02*
X193200D01*
X191200D02*
X191800D01*
X189100D02*
X189700D01*
X186600D02*
X187200D01*
X184400D02*
X185100D01*
X183400D02*
X184000D01*
X182000D02*
X182600D01*
X180500D02*
X181100D01*
X179000D02*
X179600D01*
X178000D02*
X178600D01*
X176600D02*
X177200D01*
X175200D02*
X175800D01*
X172500D02*
X173100D01*
X169000D02*
X169600D01*
X167800D02*
X168400D01*
X166400D02*
X167000D01*
X165000D02*
X165600D01*
X162500D02*
X163100D01*
X160900D02*
X161500D01*
X159200D02*
X159800D01*
X157300D02*
X158000D01*
X154100D02*
X154700D01*
X216600Y387200D02*
X217800D01*
X215200D02*
X215800D01*
X213800D02*
X214400D01*
X212500D02*
X213200D01*
X210800D02*
X211500D01*
X209700D02*
X210300D01*
X207900D02*
X208500D01*
X206600D02*
X207200D01*
X205200D02*
X205800D01*
X203900D02*
X204500D01*
X202600D02*
X203300D01*
X200900D02*
X201600D01*
X199900D02*
X200700D01*
X196500D02*
X197000D01*
X195300D02*
X195900D01*
X194000D02*
X194600D01*
X192600D02*
X193200D01*
X191200D02*
X191800D01*
X189100D02*
X189700D01*
X186600D02*
X187200D01*
X184500D02*
X185000D01*
X183400D02*
X184000D01*
X182000D02*
X182600D01*
X180500D02*
X181100D01*
X179100D02*
X179600D01*
X177900D02*
X178500D01*
X176600D02*
X177200D01*
X175200D02*
X175800D01*
X172500D02*
X173100D01*
X169000D02*
X169600D01*
X167800D02*
X168400D01*
X166400D02*
X167000D01*
X165000D02*
X165600D01*
X162500D02*
X163100D01*
X160900D02*
X161500D01*
X159200D02*
X159800D01*
X157300D02*
X157900D01*
X154100D02*
X154700D01*
X216500Y387300D02*
X217600D01*
X215200D02*
X215800D01*
X213800D02*
X214400D01*
X212500D02*
X213200D01*
X210800D02*
X211500D01*
X209700D02*
X210300D01*
X207900D02*
X208500D01*
X206600D02*
X207200D01*
X205200D02*
X205800D01*
X203900D02*
X204500D01*
X202600D02*
X203300D01*
X200900D02*
X201600D01*
X199700D02*
X200600D01*
X196500D02*
X197100D01*
X195200D02*
X195900D01*
X194000D02*
X194600D01*
X192600D02*
X193200D01*
X191200D02*
X191800D01*
X189100D02*
X189700D01*
X186600D02*
X187800D01*
X184500D02*
X185700D01*
X183400D02*
X184000D01*
X182000D02*
X182600D01*
X180500D02*
X181100D01*
X179100D02*
X179700D01*
X177900D02*
X178500D01*
X176600D02*
X177200D01*
X175200D02*
X175800D01*
X174000D02*
X174300D01*
X172500D02*
X173100D01*
X169000D02*
X170200D01*
X167800D02*
X168400D01*
X166400D02*
X167000D01*
X165000D02*
X165600D01*
X162500D02*
X163700D01*
X160900D02*
X161500D01*
X159200D02*
X159800D01*
X157200D02*
X157900D01*
X155600D02*
X155900D01*
X154100D02*
X154700D01*
X216500Y387400D02*
X217500D01*
X215200D02*
X215800D01*
X213800D02*
X214400D01*
X212500D02*
X213200D01*
X210900D02*
X211500D01*
X209700D02*
X210300D01*
X207900D02*
X208500D01*
X206600D02*
X207200D01*
X205200D02*
X205800D01*
X203900D02*
X204500D01*
X202600D02*
X203300D01*
X201000D02*
X201600D01*
X199600D02*
X200600D01*
X196500D02*
X197100D01*
X195200D02*
X195800D01*
X194000D02*
X194600D01*
X192600D02*
X193200D01*
X191200D02*
X191800D01*
X189100D02*
X189700D01*
X186600D02*
X188500D01*
X184500D02*
X186400D01*
X183400D02*
X184000D01*
X182000D02*
X182600D01*
X180500D02*
X181100D01*
X179200D02*
X179700D01*
X177800D02*
X178500D01*
X176600D02*
X177200D01*
X175200D02*
X175800D01*
X174000D02*
X174300D01*
X172500D02*
X173100D01*
X169000D02*
X170900D01*
X167800D02*
X168400D01*
X166400D02*
X167000D01*
X165000D02*
X165600D01*
X162600D02*
X164500D01*
X160900D02*
X161500D01*
X159200D02*
X159800D01*
X157200D02*
X157900D01*
X155600D02*
X155900D01*
X154100D02*
X154700D01*
X216400Y387500D02*
X217200D01*
X215200D02*
X215800D01*
X213800D02*
X214400D01*
X212500D02*
X213200D01*
X210900D02*
X211500D01*
X209700D02*
X210300D01*
X207900D02*
X208500D01*
X206600D02*
X207200D01*
X205200D02*
X205800D01*
X203900D02*
X204500D01*
X202600D02*
X203300D01*
X201000D02*
X201600D01*
X199400D02*
X200500D01*
X196500D02*
X197100D01*
X195200D02*
X195800D01*
X194000D02*
X194600D01*
X192600D02*
X193200D01*
X191200D02*
X191800D01*
X189100D02*
X189700D01*
X186700D02*
X188600D01*
X184500D02*
X186400D01*
X183400D02*
X184000D01*
X182000D02*
X182600D01*
X180500D02*
X181100D01*
X179200D02*
X179700D01*
X177800D02*
X178400D01*
X176600D02*
X177200D01*
X175200D02*
X175800D01*
X174000D02*
X174300D01*
X172500D02*
X173100D01*
X169000D02*
X171000D01*
X167800D02*
X168400D01*
X166400D02*
X167000D01*
X165000D02*
X165600D01*
X162600D02*
X164500D01*
X160900D02*
X161500D01*
X159200D02*
X159800D01*
X157100D02*
X157900D01*
X155500D02*
X155900D01*
X154100D02*
X154700D01*
X216400Y387600D02*
X217100D01*
X215200D02*
X215800D01*
X213800D02*
X214400D01*
X212500D02*
X213100D01*
X210900D02*
X211500D01*
X209700D02*
X210300D01*
X207900D02*
X208500D01*
X206600D02*
X207200D01*
X205200D02*
X205800D01*
X203900D02*
X204500D01*
X202600D02*
X203200D01*
X201000D02*
X201600D01*
X199200D02*
X200400D01*
X196500D02*
X197100D01*
X195200D02*
X195800D01*
X194000D02*
X194600D01*
X192600D02*
X193200D01*
X191200D02*
X191800D01*
X189100D02*
X189700D01*
X188000D02*
X188600D01*
X186700D02*
X187200D01*
X185800D02*
X186400D01*
X184600D02*
X185100D01*
X183400D02*
X184000D01*
X182000D02*
X182600D01*
X180500D02*
X181100D01*
X179200D02*
X179700D01*
X177800D02*
X178400D01*
X176600D02*
X177200D01*
X175200D02*
X175800D01*
X173800D02*
X174300D01*
X172500D02*
X173100D01*
X170300D02*
X171000D01*
X169100D02*
X169600D01*
X167800D02*
X168400D01*
X166400D02*
X167000D01*
X165000D02*
X165600D01*
X163900D02*
X164500D01*
X162600D02*
X163100D01*
X160900D02*
X161600D01*
X159200D02*
X159800D01*
X157000D02*
X158000D01*
X155400D02*
X155900D01*
X154100D02*
X154700D01*
X217700Y387700D02*
X217800D01*
X216400D02*
X216900D01*
X215200D02*
X215800D01*
X213800D02*
X214400D01*
X212500D02*
X213100D01*
X211000D02*
X211500D01*
X209700D02*
X210300D01*
X207900D02*
X208500D01*
X206600D02*
X207200D01*
X205200D02*
X205800D01*
X203900D02*
X204500D01*
X202500D02*
X203200D01*
X201000D02*
X201600D01*
X199000D02*
X200300D01*
X196500D02*
X197100D01*
X195200D02*
X195800D01*
X194000D02*
X194600D01*
X192600D02*
X193200D01*
X191200D02*
X191800D01*
X189100D02*
X189800D01*
X188000D02*
X188600D01*
X186700D02*
X187200D01*
X185900D02*
X186400D01*
X184600D02*
X185100D01*
X183300D02*
X184000D01*
X182000D02*
X182600D01*
X180500D02*
X181100D01*
X179200D02*
X179700D01*
X177800D02*
X178400D01*
X176600D02*
X177200D01*
X175200D02*
X175800D01*
X172500D02*
X174300D01*
X170400D02*
X170900D01*
X169100D02*
X169600D01*
X167800D02*
X168400D01*
X166400D02*
X167000D01*
X165000D02*
X165600D01*
X163900D02*
X164500D01*
X162700D02*
X163200D01*
X160900D02*
X161600D01*
X159200D02*
X159800D01*
X157800D02*
X158100D01*
X157000D02*
X157600D01*
X154100D02*
X155900D01*
X217600Y387800D02*
X217900D01*
X216400D02*
X216900D01*
X215100D02*
X215800D01*
X213800D02*
X214400D01*
X212400D02*
X213100D01*
X211000D02*
X211600D01*
X209700D02*
X210300D01*
X207900D02*
X208500D01*
X206600D02*
X207200D01*
X205200D02*
X205800D01*
X203900D02*
X204500D01*
X202500D02*
X203200D01*
X201100D02*
X201700D01*
X198900D02*
X200200D01*
X196500D02*
X197100D01*
X195200D02*
X195800D01*
X193900D02*
X194500D01*
X192600D02*
X193200D01*
X191200D02*
X191800D01*
X190200D02*
X190500D01*
X189100D02*
X189900D01*
X188000D02*
X188600D01*
X186800D02*
X187300D01*
X185800D02*
X186400D01*
X184600D02*
X185100D01*
X183300D02*
X183900D01*
X182000D02*
X182600D01*
X180500D02*
X181100D01*
X179200D02*
X179700D01*
X177900D02*
X178500D01*
X176600D02*
X177200D01*
X175200D02*
X175800D01*
X172500D02*
X174300D01*
X170400D02*
X170900D01*
X169200D02*
X169600D01*
X167800D02*
X168400D01*
X166300D02*
X167000D01*
X165000D02*
X165600D01*
X163900D02*
X164500D01*
X162700D02*
X163200D01*
X162000D02*
X162300D01*
X160900D02*
X161700D01*
X159200D02*
X159800D01*
X157800D02*
X158200D01*
X156900D02*
X157500D01*
X154100D02*
X155900D01*
X217500Y387900D02*
X217800D01*
X173500Y399100D02*
X177100D01*
X166200D02*
X168200D01*
X206500Y399200D02*
X208900D01*
X185200D02*
X187600D01*
X173500D02*
X177000D01*
X166300D02*
X168200D01*
X206500Y399300D02*
X208900D01*
X192900D02*
X193900D01*
X185200D02*
X187600D01*
X173400D02*
X177000D01*
X166400D02*
X168300D01*
X206400Y399400D02*
X208900D01*
X192900D02*
X193800D01*
X185200D02*
X187600D01*
X173400D02*
X176900D01*
X166500D02*
X168400D01*
X206400Y399500D02*
X208800D01*
X192900D02*
X193800D01*
X185200D02*
X187600D01*
X173300D02*
X176800D01*
X166500D02*
X168400D01*
X206300Y399600D02*
X208800D01*
X192900D02*
X193800D01*
X185200D02*
X187600D01*
X173200D02*
X176800D01*
X166600D02*
X168500D01*
X206300Y399700D02*
X208800D01*
X192900D02*
X193800D01*
X185200D02*
X187600D01*
X173200D02*
X176700D01*
X166700D02*
X168600D01*
X206200Y399800D02*
X208800D01*
X192900D02*
X193800D01*
X185200D02*
X187600D01*
X173100D02*
X176600D01*
X166700D02*
X168600D01*
X206100Y399900D02*
X208800D01*
X192900D02*
X193800D01*
X185200D02*
X187600D01*
X173100D02*
X176600D01*
X166800D02*
X168700D01*
X206000Y400000D02*
X208800D01*
X192900D02*
X193800D01*
X185200D02*
X187600D01*
X173000D02*
X176500D01*
X166900D02*
X168800D01*
X205800Y400100D02*
X208800D01*
X192900D02*
X193800D01*
X185200D02*
X187600D01*
X172900D02*
X176400D01*
X167000D02*
X168800D01*
X205700Y400200D02*
X208700D01*
X192900D02*
X193800D01*
X185200D02*
X187600D01*
X172900D02*
X176400D01*
X167000D02*
X168900D01*
X205500Y400300D02*
X208700D01*
X192900D02*
X193800D01*
X185200D02*
X187600D01*
X172800D02*
X176300D01*
X167100D02*
X169000D01*
X205300Y400400D02*
X208700D01*
X192900D02*
X193800D01*
X185200D02*
X187600D01*
X172800D02*
X176300D01*
X167200D02*
X169000D01*
X205100Y400500D02*
X208600D01*
X192900D02*
X193800D01*
X185200D02*
X187600D01*
X172700D02*
X176200D01*
X167200D02*
X169100D01*
X204800Y400600D02*
X208600D01*
X192900D02*
X193800D01*
X185200D02*
X187600D01*
X172600D02*
X176100D01*
X167300D02*
X169200D01*
X204400Y400700D02*
X208600D01*
X192900D02*
X193800D01*
X185200D02*
X187600D01*
X172600D02*
X176100D01*
X167400D02*
X169200D01*
X203900Y400800D02*
X208500D01*
X192900D02*
X193800D01*
X185200D02*
X187600D01*
X172500D02*
X176000D01*
X167500D02*
X169300D01*
X203000Y400900D02*
X208500D01*
X192900D02*
X193800D01*
X185200D02*
X187600D01*
X172500D02*
X176000D01*
X167500D02*
X169400D01*
X202000Y401000D02*
X208400D01*
X192800D02*
X193800D01*
X185200D02*
X187600D01*
X172400D02*
X175900D01*
X167600D02*
X169400D01*
X201000Y401100D02*
X208400D01*
X192800D02*
X193800D01*
X185200D02*
X187600D01*
X181900D02*
X183400D01*
X177100D02*
X178800D01*
X172300D02*
X175800D01*
X167700D02*
X169500D01*
X200400Y401200D02*
X208300D01*
X192700D02*
X193800D01*
X185200D02*
X187600D01*
X177000D02*
X183400D01*
X172300D02*
X175800D01*
X167800D02*
X169600D01*
X199900Y401300D02*
X208200D01*
X192600D02*
X193800D01*
X185200D02*
X187600D01*
X177000D02*
X183500D01*
X172200D02*
X175700D01*
X167800D02*
X169600D01*
X199600Y401400D02*
X208200D01*
X192300D02*
X193800D01*
X185200D02*
X187600D01*
X177100D02*
X183500D01*
X172200D02*
X175600D01*
X167900D02*
X169700D01*
X199300Y401500D02*
X208100D01*
X185200D02*
X193800D01*
X177100D02*
X183500D01*
X172100D02*
X175600D01*
X168000D02*
X169800D01*
X199000Y401600D02*
X208000D01*
X185200D02*
X193800D01*
X177100D02*
X183500D01*
X172000D02*
X175500D01*
X168000D02*
X169800D01*
X198800Y401700D02*
X207900D01*
X185200D02*
X193800D01*
X177200D02*
X183600D01*
X172000D02*
X175500D01*
X168100D02*
X169900D01*
X198600Y401800D02*
X207800D01*
X185200D02*
X193800D01*
X177200D02*
X183600D01*
X171900D02*
X175400D01*
X168200D02*
X170000D01*
X198400Y401900D02*
X207700D01*
X185200D02*
X193800D01*
X177200D02*
X183600D01*
X171900D02*
X175300D01*
X168300D02*
X170100D01*
X198300Y402000D02*
X207600D01*
X185200D02*
X193800D01*
X177300D02*
X183700D01*
X171800D02*
X175300D01*
X168300D02*
X170100D01*
X198100Y402100D02*
X207400D01*
X185200D02*
X193800D01*
X177300D02*
X183700D01*
X171700D02*
X175200D01*
X168400D02*
X170200D01*
X198000Y402200D02*
X207200D01*
X185200D02*
X193800D01*
X177300D02*
X183700D01*
X171700D02*
X175100D01*
X168500D02*
X170300D01*
X197900Y402300D02*
X207000D01*
X185200D02*
X193800D01*
X177400D02*
X183800D01*
X171600D02*
X175100D01*
X168500D02*
X170300D01*
X197900Y402400D02*
X206700D01*
X185200D02*
X193800D01*
X177400D02*
X183800D01*
X171600D02*
X175000D01*
X168600D02*
X170400D01*
X197800Y402500D02*
X206400D01*
X185200D02*
X193800D01*
X177500D02*
X183900D01*
X171500D02*
X175000D01*
X168700D02*
X170500D01*
X197700Y402600D02*
X206000D01*
X191100D02*
X193800D01*
X185200D02*
X189800D01*
X177500D02*
X183900D01*
X171400D02*
X174900D01*
X168800D02*
X170600D01*
X197600Y402700D02*
X205500D01*
X192500D02*
X193800D01*
X185200D02*
X187600D01*
X177500D02*
X183900D01*
X171400D02*
X174800D01*
X168800D02*
X170600D01*
X197600Y402800D02*
X204800D01*
X192700D02*
X193800D01*
X185200D02*
X187600D01*
X177600D02*
X183900D01*
X171300D02*
X174800D01*
X168900D02*
X170700D01*
X197500Y402900D02*
X204000D01*
X192800D02*
X193800D01*
X185200D02*
X187600D01*
X182200D02*
X183900D01*
X177600D02*
X178900D01*
X171300D02*
X174700D01*
X169000D02*
X170800D01*
X197500Y403000D02*
X203000D01*
X192800D02*
X193800D01*
X185200D02*
X187600D01*
X171200D02*
X174600D01*
X169100D02*
X170900D01*
X197400Y403100D02*
X202200D01*
X192900D02*
X193800D01*
X185200D02*
X187600D01*
X171200D02*
X174600D01*
X169100D02*
X170900D01*
X197400Y403200D02*
X201500D01*
X192900D02*
X193800D01*
X185200D02*
X187600D01*
X171100D02*
X174500D01*
X169200D02*
X171000D01*
X197300Y403300D02*
X201100D01*
X192900D02*
X193800D01*
X185200D02*
X187600D01*
X169300D02*
X174500D01*
X197300Y403400D02*
X200800D01*
X192900D02*
X193800D01*
X185200D02*
X187600D01*
X169300D02*
X174400D01*
X197300Y403500D02*
X200500D01*
X192900D02*
X193800D01*
X185200D02*
X187600D01*
X169400D02*
X174300D01*
X197200Y403600D02*
X200400D01*
X192900D02*
X193800D01*
X185200D02*
X187600D01*
X169500D02*
X174300D01*
X197200Y403700D02*
X200200D01*
X192900D02*
X193800D01*
X185200D02*
X187600D01*
X169600D02*
X174200D01*
X197200Y403800D02*
X200100D01*
X192900D02*
X193800D01*
X185200D02*
X187600D01*
X169600D02*
X174100D01*
X197100Y403900D02*
X199900D01*
X192900D02*
X193800D01*
X185200D02*
X187600D01*
X169700D02*
X174100D01*
X197100Y404000D02*
X199800D01*
X192900D02*
X193800D01*
X185200D02*
X187600D01*
X169800D02*
X174000D01*
X197100Y404100D02*
X199700D01*
X192900D02*
X193800D01*
X185200D02*
X187600D01*
X169800D02*
X174000D01*
X197100Y404200D02*
X199700D01*
X192900D02*
X193800D01*
X185200D02*
X187600D01*
X169900D02*
X173900D01*
X197100Y404300D02*
X199600D01*
X192900D02*
X193800D01*
X185200D02*
X187600D01*
X170000D02*
X173800D01*
X197000Y404400D02*
X199500D01*
X192900D02*
X193800D01*
X185200D02*
X187600D01*
X170100D02*
X173800D01*
X197000Y404500D02*
X199500D01*
X192900D02*
X193800D01*
X185200D02*
X187600D01*
X170100D02*
X173700D01*
X197000Y404600D02*
X199400D01*
X192900D02*
X193800D01*
X185200D02*
X187600D01*
X170200D02*
X173600D01*
X197000Y404700D02*
X199400D01*
X193000D02*
X193800D01*
X185200D02*
X187600D01*
X170100D02*
X173600D01*
X197000Y404800D02*
X199300D01*
X185200D02*
X187600D01*
X170100D02*
X173500D01*
X197000Y404900D02*
X199300D01*
X185200D02*
X187600D01*
X170000D02*
X173500D01*
X197000Y405000D02*
X199200D01*
X185200D02*
X187600D01*
X170000D02*
X173400D01*
X197000Y405100D02*
X199200D01*
X185200D02*
X187600D01*
X169900D02*
X173300D01*
X197000Y405200D02*
X199200D01*
X185200D02*
X187600D01*
X169800D02*
X173300D01*
X197000Y405300D02*
X199100D01*
X185200D02*
X187600D01*
X169800D02*
X173200D01*
X197000Y405400D02*
X199100D01*
X185200D02*
X187600D01*
X169700D02*
X173200D01*
X197000Y405500D02*
X199100D01*
X185200D02*
X187600D01*
X169700D02*
X173100D01*
X197000Y405600D02*
X199100D01*
X185200D02*
X187600D01*
X169600D02*
X173000D01*
X197000Y405700D02*
X199100D01*
X185200D02*
X187600D01*
X169500D02*
X173000D01*
X197000Y405800D02*
X199100D01*
X185200D02*
X187600D01*
X169500D02*
X172900D01*
X197000Y405900D02*
X199100D01*
X185200D02*
X187600D01*
X169400D02*
X172900D01*
X197000Y406000D02*
X199100D01*
X185200D02*
X187600D01*
X169400D02*
X173000D01*
X206600Y406100D02*
X207500D01*
X197000D02*
X199100D01*
X185200D02*
X187600D01*
X169300D02*
X173100D01*
X206600Y406200D02*
X207500D01*
X197100D02*
X199100D01*
X185200D02*
X187600D01*
X169200D02*
X173100D01*
X206600Y406300D02*
X207500D01*
X197100D02*
X199100D01*
X185200D02*
X187600D01*
X169200D02*
X173200D01*
X206600Y406400D02*
X207500D01*
X197100D02*
X199100D01*
X194300D02*
X195200D01*
X185200D02*
X187600D01*
X169100D02*
X173300D01*
X206600Y406500D02*
X207500D01*
X197100D02*
X199100D01*
X194300D02*
X195200D01*
X185200D02*
X187600D01*
X169100D02*
X173300D01*
X206600Y406600D02*
X207500D01*
X197200D02*
X199200D01*
X194300D02*
X195200D01*
X185200D02*
X187600D01*
X169000D02*
X173400D01*
D16*
X270500Y321500D02*
X266501D01*
X267834Y322833D01*
X266501Y324166D01*
X270500D01*
Y325499D02*
X266501D01*
X267834Y326832D01*
X266501Y328165D01*
X270500D01*
Y329497D02*
X267834D01*
X266501Y330830D01*
X267834Y332163D01*
X270500D01*
X268501D01*
Y329497D01*
X267168Y333496D02*
X266501Y334163D01*
Y335495D01*
X267168Y336162D01*
X267834D01*
X268501Y335495D01*
X269167Y336162D01*
X269834D01*
X270500Y335495D01*
Y334163D01*
X269834Y333496D01*
X269167D01*
X268501Y334163D01*
X267834Y333496D01*
X267168D01*
X268501Y334163D02*
Y335495D01*
X266501Y340161D02*
X267168Y338828D01*
X268501Y337495D01*
X269834D01*
X270500Y338161D01*
Y339494D01*
X269834Y340161D01*
X269167D01*
X268501Y339494D01*
Y337495D01*
X266501Y344159D02*
Y341494D01*
X268501D01*
X267834Y342827D01*
Y343493D01*
X268501Y344159D01*
X269834D01*
X270500Y343493D01*
Y342160D01*
X269834Y341494D01*
X270500Y348158D02*
Y345492D01*
X267834Y348158D01*
X267168D01*
X266501Y347492D01*
Y346159D01*
X267168Y345492D01*
X266501Y352157D02*
Y349491D01*
X268501D01*
Y350824D01*
Y349491D01*
X270500D01*
X267168Y356155D02*
X266501Y355489D01*
Y354156D01*
X267168Y353490D01*
X269834D01*
X270500Y354156D01*
Y355489D01*
X269834Y356155D01*
X253500Y372499D02*
Y371832D01*
X254833Y370499D01*
X256166Y371832D01*
Y372499D01*
X254833Y370499D02*
Y368500D01*
X242500Y360999D02*
X245166Y357000D01*
Y360999D02*
X242500Y357000D01*
X234500Y373499D02*
X237166D01*
Y372832D01*
X234500Y370166D01*
Y369500D01*
X237166D01*
X343666Y324999D02*
X341000D01*
Y322999D01*
X342333D01*
X341000D01*
Y321000D01*
X344999Y324999D02*
X347664Y321000D01*
Y324999D02*
X344999Y321000D01*
X348997D02*
Y323666D01*
X350330Y324999D01*
X351663Y323666D01*
Y321000D01*
Y322999D01*
X348997D01*
X355662Y324332D02*
X354995Y324999D01*
X353663D01*
X352996Y324332D01*
Y323666D01*
X353663Y322999D01*
X354995D01*
X355662Y322333D01*
Y321666D01*
X354995Y321000D01*
X353663D01*
X352996Y321666D01*
X359661Y321000D02*
X356995D01*
X359661Y323666D01*
Y324332D01*
X358994Y324999D01*
X357661D01*
X356995Y324332D01*
X360994Y321000D02*
X362327D01*
X361660D01*
Y324999D01*
X360994Y324332D01*
X364326D02*
X364992Y324999D01*
X366325D01*
X366992Y324332D01*
Y321666D01*
X366325Y321000D01*
X364992D01*
X364326Y321666D01*
Y324332D01*
X368324D02*
X368991Y324999D01*
X370324D01*
X370990Y324332D01*
Y321666D01*
X370324Y321000D01*
X368991D01*
X368324Y321666D01*
Y324332D01*
X374989Y321000D02*
X372323D01*
X374989Y323666D01*
Y324332D01*
X374323Y324999D01*
X372990D01*
X372323Y324332D01*
X378988D02*
X378321Y324999D01*
X376988D01*
X376322Y324332D01*
Y321666D01*
X376988Y321000D01*
X378321D01*
X378988Y321666D01*
X318484Y359999D02*
X321150D01*
Y359332D01*
X318484Y356666D01*
Y356000D01*
X321150D01*
X340657Y363499D02*
X343323Y359500D01*
Y363499D02*
X340657Y359500D01*
X328528Y376499D02*
Y375832D01*
X329860Y374499D01*
X331193Y375832D01*
Y376499D01*
X329860Y374499D02*
Y372500D01*
X298166Y272832D02*
X297499Y273499D01*
X296166D01*
X295500Y272832D01*
Y270166D01*
X296166Y269500D01*
X297499D01*
X298166Y270166D01*
Y271499D01*
X296833D01*
X299499Y268834D02*
X302165D01*
X306163Y272832D02*
X305497Y273499D01*
X304164D01*
X303497Y272832D01*
Y270166D01*
X304164Y269500D01*
X305497D01*
X306163Y270166D01*
X310162Y272832D02*
X309495Y273499D01*
X308163D01*
X307496Y272832D01*
Y272166D01*
X308163Y271499D01*
X309495D01*
X310162Y270833D01*
Y270166D01*
X309495Y269500D01*
X308163D01*
X307496Y270166D01*
X277870Y332332D02*
X277204Y332999D01*
X275871D01*
X275205Y332332D01*
Y329666D01*
X275871Y329000D01*
X277204D01*
X277870Y329666D01*
Y330999D01*
X276538D01*
X279203Y328334D02*
X281869D01*
X283202Y329000D02*
Y332999D01*
X285202D01*
X285868Y332332D01*
Y330999D01*
X285202Y330333D01*
X283202D01*
X284535D02*
X285868Y329000D01*
X289867Y332332D02*
X289200Y332999D01*
X287867D01*
X287201Y332332D01*
Y331666D01*
X287867Y330999D01*
X289200D01*
X289867Y330333D01*
Y329666D01*
X289200Y329000D01*
X287867D01*
X287201Y329666D01*
X291200Y332999D02*
X293865D01*
X292532D01*
Y329000D01*
X288168Y362666D02*
X287501Y361999D01*
Y360666D01*
X288168Y360000D01*
X290834D01*
X291500Y360666D01*
Y361999D01*
X290834Y362666D01*
X289501D01*
Y361333D01*
X292166Y363999D02*
Y366665D01*
X287501Y367997D02*
Y369330D01*
Y368664D01*
X291500D01*
Y367997D01*
Y369330D01*
Y371330D02*
Y372663D01*
Y371996D01*
X287501D01*
X288168Y371330D01*
X295668Y362166D02*
X295001Y361499D01*
Y360166D01*
X295668Y359500D01*
X298334D01*
X299000Y360166D01*
Y361499D01*
X298334Y362166D01*
X297001D01*
Y360833D01*
X299666Y363499D02*
Y366164D01*
X295001Y367497D02*
Y368830D01*
Y368164D01*
X299000D01*
Y367497D01*
Y368830D01*
Y373496D02*
Y370830D01*
X296334Y373496D01*
X295668D01*
X295001Y372829D01*
Y371496D01*
X295668Y370830D01*
X218500Y318999D02*
Y315000D01*
X220499D01*
X221166Y315666D01*
Y316333D01*
X220499Y316999D01*
X218500D01*
X220499D01*
X221166Y317666D01*
Y318332D01*
X220499Y318999D01*
X218500D01*
X222499Y315000D02*
Y318999D01*
X223832Y317666D01*
X225165Y318999D01*
Y315000D01*
X226497D02*
Y318999D01*
X228497D01*
X229163Y318332D01*
Y316999D01*
X228497Y316333D01*
X226497D01*
X233162Y315000D02*
X230496D01*
X233162Y317666D01*
Y318332D01*
X232495Y318999D01*
X231163D01*
X230496Y318332D01*
X234495D02*
X235161Y318999D01*
X236494D01*
X237161Y318332D01*
Y317666D01*
X236494Y316999D01*
X237161Y316333D01*
Y315666D01*
X236494Y315000D01*
X235161D01*
X234495Y315666D01*
Y316333D01*
X235161Y316999D01*
X234495Y317666D01*
Y318332D01*
X235161Y316999D02*
X236494D01*
X238494Y318332D02*
X239160Y318999D01*
X240493D01*
X241159Y318332D01*
Y315666D01*
X240493Y315000D01*
X239160D01*
X238494Y315666D01*
Y318332D01*
X206601Y320666D02*
Y318000D01*
X208601D01*
Y319333D01*
Y318000D01*
X210600D01*
X206601Y321999D02*
Y324664D01*
Y323332D01*
X210600D01*
X206601Y325997D02*
X210600D01*
Y327997D01*
X209934Y328663D01*
X207268D01*
X206601Y327997D01*
Y325997D01*
Y329996D02*
Y331329D01*
Y330663D01*
X210600D01*
Y329996D01*
Y331329D01*
X140832Y296498D02*
X137500D01*
Y293999D01*
X139166Y294832D01*
X139999D01*
X140832Y293999D01*
Y292333D01*
X139999Y291500D01*
X138333D01*
X137500Y292333D01*
X142498Y296498D02*
Y293166D01*
X144165Y291500D01*
X145831Y293166D01*
Y296498D01*
X171600Y364000D02*
Y367999D01*
X173599D01*
X174266Y367332D01*
Y365999D01*
X173599Y365333D01*
X171600D01*
X172933D02*
X174266Y364000D01*
X175599Y367999D02*
X178264Y364000D01*
Y367999D02*
X175599Y364000D01*
X181900Y367999D02*
X184566D01*
X183233D01*
Y364000D01*
X185899Y367999D02*
X188565Y364000D01*
Y367999D02*
X185899Y364000D01*
X277666Y280332D02*
X276999Y280999D01*
X275666D01*
X275000Y280332D01*
Y279666D01*
X275666Y278999D01*
X276999D01*
X277666Y278333D01*
Y277666D01*
X276999Y277000D01*
X275666D01*
X275000Y277666D01*
X278999Y280999D02*
Y277000D01*
X280998D01*
X281664Y277666D01*
Y280332D01*
X280998Y280999D01*
X278999D01*
X282997Y277000D02*
Y279666D01*
X284330Y280999D01*
X285663Y279666D01*
Y277000D01*
Y278999D01*
X282997D01*
X273168Y301666D02*
X272501Y300999D01*
Y299666D01*
X273168Y299000D01*
X273834D01*
X274501Y299666D01*
Y300999D01*
X275167Y301666D01*
X275834D01*
X276500Y300999D01*
Y299666D01*
X275834Y299000D01*
X272501Y302999D02*
X276500D01*
Y304998D01*
X275834Y305664D01*
X273168D01*
X272501Y304998D01*
Y302999D01*
X276500Y306997D02*
X273834D01*
X272501Y308330D01*
X273834Y309663D01*
X276500D01*
X274501D01*
Y306997D01*
X261766Y294166D02*
X261100Y293499D01*
Y292166D01*
X261766Y291500D01*
X262433D01*
X263099Y292166D01*
Y293499D01*
X263766Y294166D01*
X264432D01*
X265098Y293499D01*
Y292166D01*
X264432Y291500D01*
X261766Y298165D02*
X261100Y297498D01*
Y296165D01*
X261766Y295499D01*
X264432D01*
X265098Y296165D01*
Y297498D01*
X264432Y298165D01*
X261100Y299497D02*
X265098D01*
Y302163D01*
X264166Y272832D02*
X263499Y273499D01*
X262166D01*
X261500Y272832D01*
Y272166D01*
X262166Y271499D01*
X263499D01*
X264166Y270833D01*
Y270166D01*
X263499Y269500D01*
X262166D01*
X261500Y270166D01*
X268164Y272832D02*
X267498Y273499D01*
X266165D01*
X265499Y272832D01*
Y270166D01*
X266165Y269500D01*
X267498D01*
X268164Y270166D01*
X269497Y273499D02*
Y269500D01*
X272163D01*
X146933Y219499D02*
X149599D01*
X148266D01*
Y215500D01*
X150932Y219499D02*
X153598Y215500D01*
Y219499D02*
X150932Y215500D01*
X147433Y222500D02*
Y226499D01*
X149432D01*
X150099Y225832D01*
Y224499D01*
X149432Y223833D01*
X147433D01*
X148766D02*
X150099Y222500D01*
X151432Y226499D02*
X154098Y222500D01*
Y226499D02*
X151432Y222500D01*
X158599Y232999D02*
X155933D01*
Y230999D01*
X157266Y231666D01*
X157932D01*
X158599Y230999D01*
Y229666D01*
X157932Y229000D01*
X156599D01*
X155933Y229666D01*
X159932Y232999D02*
Y230333D01*
X161265Y229000D01*
X162598Y230333D01*
Y232999D01*
X157599Y240966D02*
X156932Y241633D01*
X155599D01*
X154933Y240966D01*
Y238300D01*
X155599Y237634D01*
X156932D01*
X157599Y238300D01*
Y239633D01*
X156266D01*
X158932Y237634D02*
Y241633D01*
X161598Y237634D01*
Y241633D01*
X162931D02*
Y237634D01*
X164930D01*
X165596Y238300D01*
Y240966D01*
X164930Y241633D01*
X162931D01*
X261466Y422834D02*
X262133Y423501D01*
Y424834D01*
X261466Y425500D01*
X258800D01*
X258134Y424834D01*
Y423501D01*
X258800Y422834D01*
X260133D01*
Y424167D01*
X258134Y421501D02*
X262133D01*
X258134Y418835D01*
X262133D01*
Y417503D02*
X258134D01*
Y415503D01*
X258800Y414837D01*
X261466D01*
X262133Y415503D01*
Y417503D01*
X253499Y421834D02*
Y424500D01*
X251499D01*
X252166Y423167D01*
Y422501D01*
X251499Y421834D01*
X250166D01*
X249500Y422501D01*
Y423834D01*
X250166Y424500D01*
X253499Y420501D02*
X250833D01*
X249500Y419168D01*
X250833Y417836D01*
X253499D01*
X243000Y433000D02*
X246999D01*
Y431001D01*
X246332Y430334D01*
X244999D01*
X244333Y431001D01*
Y433000D01*
Y431667D02*
X243000Y430334D01*
X246999Y429001D02*
X243000Y426335D01*
X246999D02*
X243000Y429001D01*
X239999Y433500D02*
Y430834D01*
Y432167D01*
X236000D01*
X239999Y429501D02*
X236000Y426835D01*
X239999D02*
X236000Y429501D01*
X417087Y366332D02*
X416421Y366999D01*
X415088D01*
X414421Y366332D01*
Y363666D01*
X415088Y363000D01*
X416421D01*
X417087Y363666D01*
Y364999D01*
X415754D01*
X418420Y363000D02*
Y366999D01*
X421086Y363000D01*
Y366999D01*
X422419D02*
Y363000D01*
X424418D01*
X425084Y363666D01*
Y366332D01*
X424418Y366999D01*
X422419D01*
X423666Y393832D02*
X422999Y394499D01*
X421666D01*
X421000Y393832D01*
Y393166D01*
X421666Y392499D01*
X422999D01*
X423666Y391833D01*
Y391166D01*
X422999Y390500D01*
X421666D01*
X421000Y391166D01*
X424999Y394499D02*
X426332D01*
X425665D01*
Y390500D01*
X424999D01*
X426332D01*
X430997Y393832D02*
X430330Y394499D01*
X428997D01*
X428331Y393832D01*
Y391166D01*
X428997Y390500D01*
X430330D01*
X430997Y391166D01*
Y392499D01*
X429664D01*
X437165Y322832D02*
X436499Y323499D01*
X435166D01*
X434499Y322832D01*
Y320166D01*
X435166Y319500D01*
X436499D01*
X437165Y320166D01*
Y321499D01*
X435832D01*
X438498Y319500D02*
Y323499D01*
X441164Y319500D01*
Y323499D01*
X442497D02*
Y319500D01*
X444496D01*
X445163Y320166D01*
Y322832D01*
X444496Y323499D01*
X442497D01*
X434500Y329500D02*
X435833D01*
X435166D01*
Y333499D01*
X434500Y332832D01*
X440498D02*
X439832Y333499D01*
X438499D01*
X437832Y332832D01*
Y332166D01*
X438499Y331499D01*
X439832D01*
X440498Y330833D01*
Y330166D01*
X439832Y329500D01*
X438499D01*
X437832Y330166D01*
X437166Y339500D02*
X434500D01*
X437166Y342166D01*
Y342832D01*
X436499Y343499D01*
X435166D01*
X434500Y342832D01*
X441164D02*
X440498Y343499D01*
X439165D01*
X438499Y342832D01*
Y342166D01*
X439165Y341499D01*
X440498D01*
X441164Y340833D01*
Y340166D01*
X440498Y339500D01*
X439165D01*
X438499Y340166D01*
X434500Y352832D02*
X435166Y353499D01*
X436499D01*
X437166Y352832D01*
Y352166D01*
X436499Y351499D01*
X435833D01*
X436499D01*
X437166Y350833D01*
Y350166D01*
X436499Y349500D01*
X435166D01*
X434500Y350166D01*
X441164Y352832D02*
X440498Y353499D01*
X439165D01*
X438499Y352832D01*
Y352166D01*
X439165Y351499D01*
X440498D01*
X441164Y350833D01*
Y350166D01*
X440498Y349500D01*
X439165D01*
X438499Y350166D01*
X414000Y321146D02*
X415333D01*
X414666D01*
Y325144D01*
X414000Y324478D01*
X419998D02*
X419332Y325144D01*
X417999D01*
X417332Y324478D01*
Y323812D01*
X417999Y323145D01*
X419332D01*
X419998Y322479D01*
Y321812D01*
X419332Y321146D01*
X417999D01*
X417332Y321812D01*
X392166Y321500D02*
X389500D01*
X392166Y324166D01*
Y324832D01*
X391499Y325499D01*
X390166D01*
X389500Y324832D01*
X396164D02*
X395498Y325499D01*
X394165D01*
X393499Y324832D01*
Y324166D01*
X394165Y323499D01*
X395498D01*
X396164Y322833D01*
Y322166D01*
X395498Y321500D01*
X394165D01*
X393499Y322166D01*
X398000Y361706D02*
X398666Y362373D01*
X399999D01*
X400666Y361706D01*
Y361040D01*
X399999Y360373D01*
X399333D01*
X399999D01*
X400666Y359707D01*
Y359040D01*
X399999Y358374D01*
X398666D01*
X398000Y359040D01*
X404665Y361706D02*
X403998Y362373D01*
X402665D01*
X401999Y361706D01*
Y361040D01*
X402665Y360373D01*
X403998D01*
X404665Y359707D01*
Y359040D01*
X403998Y358374D01*
X402665D01*
X401999Y359040D01*
X222500Y291499D02*
Y287500D01*
X224499D01*
X225166Y288166D01*
Y288833D01*
X224499Y289499D01*
X222500D01*
X224499D01*
X225166Y290166D01*
Y290832D01*
X224499Y291499D01*
X222500D01*
X228498D02*
X227165D01*
X226499Y290832D01*
Y288166D01*
X227165Y287500D01*
X228498D01*
X229165Y288166D01*
Y290832D01*
X228498Y291499D01*
X232497D02*
X231164D01*
X230497Y290832D01*
Y288166D01*
X231164Y287500D01*
X232497D01*
X233163Y288166D01*
Y290832D01*
X232497Y291499D01*
X234496D02*
X237162D01*
X235829D01*
Y287500D01*
X238495Y290832D02*
X239161Y291499D01*
X240494D01*
X241161Y290832D01*
Y288166D01*
X240494Y287500D01*
X239161D01*
X238495Y288166D01*
Y290832D01*
X220500Y276841D02*
Y272843D01*
X223166D01*
X223193Y284499D02*
Y280500D01*
Y282499D01*
X225859D01*
Y284499D01*
Y280500D01*
X290500Y234000D02*
Y236666D01*
X291833Y237999D01*
X293166Y236666D01*
Y234000D01*
Y235999D01*
X290500D01*
X294499Y233334D02*
X297165D01*
X298497Y237999D02*
X299830D01*
X299164D01*
Y234000D01*
X298497D01*
X299830D01*
X304496D02*
X301830D01*
X304496Y236666D01*
Y237332D01*
X303829Y237999D01*
X302496D01*
X301830Y237332D01*
X290500Y240000D02*
Y242666D01*
X291833Y243999D01*
X293166Y242666D01*
Y240000D01*
Y241999D01*
X290500D01*
X294499Y239334D02*
X297165D01*
X298497Y243999D02*
X299830D01*
X299164D01*
Y240000D01*
X298497D01*
X299830D01*
X301830D02*
X303163D01*
X302496D01*
Y243999D01*
X301830Y243332D01*
X314166Y285832D02*
X313499Y286499D01*
X312166D01*
X311500Y285832D01*
Y283166D01*
X312166Y282500D01*
X313499D01*
X314166Y283166D01*
X315499Y286499D02*
Y282500D01*
X318164D01*
X319497Y286499D02*
Y282500D01*
Y283833D01*
X322163Y286499D01*
X320164Y284499D01*
X322163Y282500D01*
X291000Y308500D02*
Y312499D01*
X292333Y311166D01*
X293666Y312499D01*
Y308500D01*
X296998Y312499D02*
X295665D01*
X294999Y311832D01*
Y309166D01*
X295665Y308500D01*
X296998D01*
X297664Y309166D01*
Y311832D01*
X296998Y312499D01*
X301663Y311832D02*
X300997Y312499D01*
X299664D01*
X298997Y311832D01*
Y311166D01*
X299664Y310499D01*
X300997D01*
X301663Y309833D01*
Y309166D01*
X300997Y308500D01*
X299664D01*
X298997Y309166D01*
X302996Y312499D02*
X304329D01*
X303663D01*
Y308500D01*
X302996D01*
X304329D01*
X348657D02*
Y312499D01*
X349990Y311166D01*
X351323Y312499D01*
Y308500D01*
X352656Y312499D02*
X353989D01*
X353323D01*
Y308500D01*
X352656D01*
X353989D01*
X358654Y311832D02*
X357988Y312499D01*
X356655D01*
X355989Y311832D01*
Y311166D01*
X356655Y310499D01*
X357988D01*
X358654Y309833D01*
Y309166D01*
X357988Y308500D01*
X356655D01*
X355989Y309166D01*
X361986Y312499D02*
X360654D01*
X359987Y311832D01*
Y309166D01*
X360654Y308500D01*
X361986D01*
X362653Y309166D01*
Y311832D01*
X361986Y312499D01*
X343484Y316499D02*
Y312500D01*
X346150D01*
X343531Y308621D02*
Y304622D01*
Y306621D01*
X346197D01*
Y308621D01*
Y304622D01*
X298031Y301121D02*
Y297122D01*
X300697D01*
X298031Y293621D02*
Y289622D01*
Y291621D01*
X300697D01*
Y293621D01*
Y289622D01*
X306500Y308999D02*
Y305000D01*
Y306999D01*
X309166D01*
Y308999D01*
Y305000D01*
X306500Y316499D02*
Y312500D01*
X309166D01*
D17*
X226500Y380000D02*
Y389997D01*
X231498D01*
X233165Y388331D01*
Y384998D01*
X231498Y383332D01*
X226500D01*
X229832D02*
X233165Y380000D01*
X241495D02*
X238163D01*
X236497Y381666D01*
Y384998D01*
X238163Y386665D01*
X241495D01*
X243161Y384998D01*
Y383332D01*
X236497D01*
X246494Y386665D02*
X249826Y380000D01*
X253158Y386665D01*
X266487Y380000D02*
Y386665D01*
X269819Y389997D01*
X273152Y386665D01*
Y380000D01*
Y384998D01*
X266487D01*
D18*
X222198Y405298D02*
X217200D01*
Y401549D01*
X219699D01*
X217200D01*
Y397800D01*
X224698D02*
X227197D01*
X225947D01*
Y405298D01*
X224698D01*
X230946Y397800D02*
X233445D01*
X232195D01*
Y402798D01*
X230946D01*
X239693Y395301D02*
X240942D01*
X242192Y396550D01*
Y402798D01*
X238443D01*
X237193Y401549D01*
Y399050D01*
X238443Y397800D01*
X242192D01*
X244691Y405298D02*
Y397800D01*
Y401549D01*
X245941Y402798D01*
X248440D01*
X249690Y401549D01*
Y397800D01*
X253438Y404048D02*
Y402798D01*
X252189D01*
X254688D01*
X253438D01*
Y399050D01*
X254688Y397800D01*
X270933Y404048D02*
X269683Y405298D01*
X267184D01*
X265934Y404048D01*
Y399050D01*
X267184Y397800D01*
X269683D01*
X270933Y399050D01*
X274681Y397800D02*
X277181D01*
X278430Y399050D01*
Y401549D01*
X277181Y402798D01*
X274681D01*
X273432Y401549D01*
Y399050D01*
X274681Y397800D01*
X280929D02*
Y402798D01*
X282179D01*
X283429Y401549D01*
Y397800D01*
Y401549D01*
X284678Y402798D01*
X285928Y401549D01*
Y397800D01*
X288427Y395301D02*
Y402798D01*
X292176D01*
X293425Y401549D01*
Y399050D01*
X292176Y397800D01*
X288427D01*
X295925Y402798D02*
Y399050D01*
X297174Y397800D01*
X300923D01*
Y402798D01*
X304672Y404048D02*
Y402798D01*
X303422D01*
X305921D01*
X304672D01*
Y399050D01*
X305921Y397800D01*
X313419D02*
X310920D01*
X309670Y399050D01*
Y401549D01*
X310920Y402798D01*
X313419D01*
X314668Y401549D01*
Y400299D01*
X309670D01*
X317168Y402798D02*
Y397800D01*
Y400299D01*
X318417Y401549D01*
X319667Y402798D01*
X320917D01*
D19*
X176500Y294468D02*
X179124D01*
X177812Y295780D02*
Y293156D01*
X164500Y348468D02*
X167124D01*
X165812Y349780D02*
Y347156D01*
X248003Y155000D02*
Y152376D01*
X249315Y153688D02*
X246691D01*
X226346Y155000D02*
Y152376D01*
X227658Y153688D02*
X225034D01*
X203783Y154760D02*
Y152136D01*
X205095Y153448D02*
X202471D01*
X268944Y185433D02*
Y182809D01*
X270256Y184121D02*
X267632D01*
X284129Y185433D02*
Y182809D01*
X285441Y184121D02*
X282817D01*
X299444Y185433D02*
Y182809D01*
X300756Y184121D02*
X298132D01*
X294468Y426185D02*
Y423561D01*
X295780Y424873D02*
X293156D01*
X153315Y272783D02*
X155939D01*
X154627Y274095D02*
Y271471D01*
X426685Y287532D02*
X424061D01*
X425373Y286220D02*
Y288844D01*
X291032Y150315D02*
Y152939D01*
X289720Y151627D02*
X292344D01*
M02*
