G04*
G04 #@! TF.GenerationSoftware,Altium Limited,Altium Designer,18.1.6 (161)*
G04*
G04 Layer_Physical_Order=1*
G04 Layer_Color=255*
%FSLAX25Y25*%
%MOIN*%
G70*
G01*
G75*
%ADD12C,0.01000*%
%ADD16C,0.00800*%
%ADD17C,0.02000*%
%ADD18C,0.01500*%
%ADD50R,0.00886X0.02362*%
%ADD51R,0.03150X0.01181*%
%ADD52R,0.01181X0.03150*%
%ADD53R,0.07087X0.03937*%
%ADD54R,0.03937X0.07087*%
%ADD55R,0.03937X0.05315*%
%ADD56R,0.05315X0.03937*%
%ADD57R,0.08189X0.08189*%
%ADD58R,0.03150X0.01102*%
%ADD59R,0.01102X0.03150*%
%ADD60R,0.03937X0.04724*%
%ADD61R,0.04724X0.03937*%
%ADD62R,0.01378X0.01968*%
%ADD63R,0.01811X0.02559*%
%ADD64O,0.02992X0.05906*%
%ADD65R,0.02992X0.05906*%
%ADD66R,0.01181X0.04724*%
%ADD67R,0.04724X0.01181*%
%ADD68R,0.02953X0.05512*%
%ADD69R,0.06102X0.05118*%
%ADD70R,0.08268X0.22047*%
%ADD71C,0.02500*%
%ADD72C,0.03000*%
%ADD73C,0.01200*%
%ADD74C,0.27559*%
%ADD75O,0.06299X0.03543*%
%ADD76C,0.07500*%
%ADD77R,0.07500X0.07500*%
%ADD78R,0.07500X0.07500*%
%ADD79R,0.03740X0.03740*%
%ADD80C,0.03740*%
%ADD81R,0.03740X0.03740*%
%ADD82C,0.03150*%
G36*
X230000Y261500D02*
X231000D01*
Y257000D01*
X230000D01*
X224000Y251000D01*
X220500Y251000D01*
X213000Y258500D01*
Y263921D01*
X218047D01*
X221000Y266874D01*
X224626D01*
X230000Y261500D01*
D02*
G37*
D12*
X406000Y196000D02*
Y294000D01*
X380000Y170000D02*
X406000Y196000D01*
X319500Y170000D02*
X380000D01*
X183500Y194000D02*
X189500Y200000D01*
X169000Y194000D02*
X183500D01*
X164000Y199000D02*
X169000Y194000D01*
X164000Y199000D02*
Y205268D01*
X142783Y226484D02*
X164000Y205268D01*
X169500Y187000D02*
X217681D01*
X140433Y216067D02*
X169500Y187000D01*
X140433Y216067D02*
Y221563D01*
X181937Y217268D02*
X182142Y217472D01*
X189500Y200000D02*
Y212158D01*
X140433Y226484D02*
X142783D01*
X217681Y187000D02*
X225642Y194961D01*
Y211642D01*
X228433Y214433D02*
X230378D01*
X225642Y211642D02*
X228433Y214433D01*
X189500Y212158D02*
X199453Y222110D01*
X222701D01*
X198000Y225059D02*
Y228063D01*
X190413Y217472D02*
X198000Y225059D01*
X182142Y217472D02*
X190413D01*
X222701Y224079D02*
X230856D01*
X229095Y229500D02*
X233000D01*
X225642Y226047D02*
X229095Y229500D01*
X222701Y226047D02*
X225642D01*
X256874Y393874D02*
X299874D01*
X213500Y350500D02*
X256874Y393874D01*
X213500Y300000D02*
Y350500D01*
X250024Y383000D02*
X298500D01*
X216000Y348976D02*
X250024Y383000D01*
X216000Y301720D02*
Y348976D01*
X245598Y374000D02*
X301000D01*
X219000Y347402D02*
X245598Y374000D01*
X219000Y305524D02*
Y347402D01*
X271500Y441000D02*
X272185Y441685D01*
X262000Y418500D02*
X271500Y428000D01*
X227500Y418500D02*
X262000D01*
X188500Y379500D02*
X227500Y418500D01*
X271500Y428000D02*
Y441000D01*
X211000Y298272D02*
Y342500D01*
X188500Y365000D02*
X211000Y342500D01*
X188500Y365000D02*
Y379500D01*
X209000Y296500D02*
Y338941D01*
X182500Y365441D02*
X209000Y338941D01*
X182500Y365441D02*
Y374000D01*
X242016Y439516D02*
Y440185D01*
X182500Y380000D02*
X242016Y439516D01*
X182500Y374000D02*
Y380000D01*
X175500Y381031D02*
X238968Y444500D01*
X175500Y367000D02*
Y381031D01*
Y367000D02*
X207000Y335500D01*
X380500Y351000D02*
X395000Y365500D01*
Y388000D01*
X380500Y308000D02*
Y351000D01*
X414937Y381937D02*
X416000D01*
X384000Y351000D02*
X414937Y381937D01*
X384000Y305000D02*
Y351000D01*
X400500Y359000D02*
X403874Y355626D01*
X395500Y359000D02*
X400500D01*
X387000Y350500D02*
X395500Y359000D01*
X387000Y304500D02*
Y350500D01*
X289500Y346823D02*
Y354000D01*
X297000Y346874D02*
Y354000D01*
Y346874D02*
X298874Y345000D01*
X293000Y338000D02*
X293012Y338012D01*
X299626D01*
X291500Y264000D02*
X303500D01*
X333000Y293500D01*
Y298890D01*
X330695Y301195D02*
X333000Y298890D01*
X330695Y301195D02*
Y318460D01*
X329575Y319580D02*
X330695Y318460D01*
X329575Y319580D02*
Y321500D01*
X330638Y322563D01*
X334626D01*
X327063Y298437D02*
X329000Y296500D01*
X327063Y298437D02*
Y306878D01*
X323000Y297500D02*
Y300500D01*
X321437Y302063D02*
X323000Y300500D01*
X321437Y302063D02*
Y306878D01*
X306000Y285000D02*
X314500D01*
X317362Y287862D01*
Y291500D01*
X289500Y346823D02*
X293497Y342826D01*
X307500D01*
X230858Y237858D02*
X237000Y244000D01*
X222701Y237858D02*
X230858D01*
X237390Y235890D02*
X245500Y244000D01*
X250500D01*
Y239000D02*
X255500Y244000D01*
X222701Y235890D02*
X237390D01*
X244642Y239000D02*
X250500D01*
X239563Y233921D02*
X244642Y239000D01*
X222701Y233921D02*
X239563D01*
X173500Y282500D02*
X214000D01*
X218500Y287000D01*
X183500Y279181D02*
X215181D01*
X218500Y282500D01*
X248016Y237000D02*
X260500D01*
X236561Y225546D02*
X248016Y237000D01*
X236561Y214711D02*
Y225546D01*
X236283Y214433D02*
X236561Y214711D01*
X247516Y232500D02*
X260500D01*
X238252Y223236D02*
X247516Y232500D01*
X238252Y214433D02*
Y223236D01*
X247150Y228063D02*
X260500D01*
X240220Y221134D02*
X247150Y228063D01*
X240220Y214433D02*
Y221134D01*
X245839Y223500D02*
X260500D01*
X242189Y219850D02*
X245839Y223500D01*
X242189Y214433D02*
Y219850D01*
X320063Y345000D02*
Y351000D01*
Y331024D02*
Y345000D01*
X313075Y334075D02*
X316904D01*
X318094Y332884D01*
Y331024D02*
Y332884D01*
X324063Y349874D02*
X327000D01*
X322031Y347843D02*
X324063Y349874D01*
X322031Y345000D02*
Y347843D01*
X313075Y349874D02*
X316126D01*
X318094Y347905D01*
Y345000D02*
Y347905D01*
X316126Y345000D02*
Y346823D01*
X313075Y349874D02*
X316126Y346823D01*
X324000Y345000D02*
Y346874D01*
X327000Y349874D01*
X327051Y349823D01*
Y343917D02*
Y349823D01*
X313075Y343917D02*
Y349874D01*
X228500Y247602D02*
X234399Y253500D01*
X244250D01*
X246126Y255376D01*
Y259315D01*
X327000Y412000D02*
X350500D01*
X301000Y374000D02*
X327000Y400000D01*
X320500Y405000D02*
X357494D01*
X298500Y383000D02*
X320500Y405000D01*
X314500Y408500D02*
X353500D01*
X299874Y393874D02*
X314500Y408500D01*
X357494Y405000D02*
X362126Y409631D01*
Y417398D01*
X353500Y408500D02*
X357126Y412126D01*
Y417398D01*
X350500Y412000D02*
X352126Y413626D01*
Y417398D01*
X190882Y325299D02*
Y331500D01*
X192161Y324020D02*
X196000Y320181D01*
X338500Y268000D02*
Y273500D01*
X342142Y277142D01*
X345563D01*
X257500Y255000D02*
X260500D01*
X253000Y250500D02*
X257500Y255000D01*
X237268Y250500D02*
X253000D01*
X226594Y239827D02*
X237268Y250500D01*
X263500Y258000D02*
Y265398D01*
X260500Y255000D02*
X263500Y258000D01*
X261209Y253209D02*
X268000Y260000D01*
X261209Y241291D02*
Y253209D01*
Y241291D02*
X262673Y239827D01*
X263000Y252059D02*
X270799Y259858D01*
X263000Y242764D02*
Y252059D01*
Y242764D02*
X263968Y241795D01*
X268000Y260000D02*
Y267500D01*
X270799Y259858D02*
Y266067D01*
X222701Y239827D02*
X226594D01*
X219000Y305524D02*
X222024Y302500D01*
X237657D01*
X406000Y294000D02*
X413000Y301000D01*
X443185D01*
X372000Y299500D02*
X380500Y308000D01*
X344500Y299500D02*
X372000D01*
X290374Y245374D02*
X344500Y299500D01*
X273126Y245374D02*
X290374D01*
X348250Y287500D02*
X379500D01*
X307500Y246750D02*
X348250Y287500D01*
X307500Y234000D02*
Y246750D01*
X347701Y290500D02*
X378461D01*
X305500Y248299D02*
X347701Y290500D01*
X305500Y235024D02*
Y248299D01*
X347079Y293500D02*
X376000D01*
X303000Y249421D02*
X347079Y293500D01*
X303000Y235500D02*
Y249421D01*
X346085Y296500D02*
X375500D01*
X300000Y250415D02*
X346085Y296500D01*
X300000Y235890D02*
Y250415D01*
X246937Y440185D02*
Y442689D01*
X245126Y444500D02*
X246937Y442689D01*
X238968Y444500D02*
X245126D01*
X235409Y315591D02*
X254500Y296500D01*
X269000D01*
X235409Y315591D02*
Y322898D01*
X241000Y317000D02*
X245600D01*
X237968Y320031D02*
X241000Y317000D01*
X237968Y320031D02*
Y322898D01*
X279000Y240500D02*
X285500D01*
X279000Y234500D02*
X285500D01*
X274000Y240500D02*
X279000D01*
X271358Y237858D02*
X274000Y240500D01*
X267583Y237858D02*
X271358D01*
X273000Y234500D02*
X279000D01*
X271610Y235890D02*
X273000Y234500D01*
X267583Y235890D02*
X271610D01*
X375500Y296500D02*
X384000Y305000D01*
X378461Y290500D02*
X383230Y295270D01*
X376000Y293500D02*
X387000Y304500D01*
X383230Y295270D02*
X399961Y312000D01*
X409500Y317500D02*
Y323354D01*
X379500Y287500D02*
X409500Y317500D01*
X292126Y228016D02*
X300000Y235890D01*
X267583Y228016D02*
X292126D01*
X293547Y226047D02*
X303000Y235500D01*
X267583Y226047D02*
X293547D01*
X294555Y224079D02*
X305500Y235024D01*
X267583Y224079D02*
X294555D01*
X295610Y222110D02*
X307500Y234000D01*
X267583Y222110D02*
X295610D01*
X399961Y312000D02*
X400000Y318039D01*
Y323354D01*
X403874Y351500D02*
Y355626D01*
X409500Y351500D02*
Y360000D01*
X400000Y323354D02*
Y340000D01*
X401500Y341500D01*
X403874D01*
X409500Y323354D02*
Y331500D01*
X326500Y149206D02*
X326563Y149143D01*
X244339Y143063D02*
X244535Y143260D01*
X222681Y143063D02*
X222878Y143260D01*
X192882Y142823D02*
X193079Y143020D01*
X216500Y236327D02*
X219000Y233827D01*
Y233000D02*
Y233827D01*
Y233000D02*
X220047Y231953D01*
X222701D01*
X258500Y177500D02*
X276000D01*
X277000Y178500D01*
Y188000D01*
X275013Y189987D02*
X277000Y188000D01*
X275013Y189987D02*
Y192396D01*
X274976Y192433D02*
X275013Y192396D01*
X307000Y214000D02*
X317041D01*
X307000Y224000D02*
X317041D01*
X326563Y220437D02*
Y234000D01*
Y220437D02*
X339000Y208000D01*
Y185000D02*
Y208000D01*
X331500Y177500D02*
X339000Y185000D01*
X293000Y177500D02*
X331500D01*
X292000Y178500D02*
X293000Y177500D01*
X292000Y178500D02*
Y187500D01*
X290159Y189341D02*
X292000Y187500D01*
X290159Y189341D02*
Y192463D01*
X290122Y192500D02*
X290159Y192463D01*
X313000Y209000D02*
X320532D01*
X310000Y206000D02*
X313000Y209000D01*
X310000Y194000D02*
Y206000D01*
X309488Y240988D02*
X312500Y244000D01*
X309488Y231512D02*
Y240988D01*
Y231512D02*
X312000Y229000D01*
X320500D01*
X312500Y244000D02*
X317041D01*
X320500Y229000D02*
X323500Y226000D01*
Y211968D02*
Y226000D01*
X320532Y209000D02*
X323500Y211968D01*
X308433Y192433D02*
X310000Y194000D01*
X305476Y192433D02*
X308433D01*
X265476Y173693D02*
X265673Y173496D01*
X280661Y173693D02*
X280858Y173496D01*
X295976Y173693D02*
X296173Y173496D01*
X288154Y181378D02*
X288161Y181370D01*
X272992D02*
X273008Y181386D01*
X305476Y192433D02*
Y195524D01*
X300000Y201000D02*
X305476Y195524D01*
X263000Y201000D02*
X300000D01*
X290122Y192500D02*
Y194878D01*
X286500Y198500D02*
X290122Y194878D01*
X274976Y192433D02*
Y194480D01*
X273457Y196000D02*
X274976Y194480D01*
X259500Y196000D02*
X273457D01*
X260500Y168500D02*
X298500D01*
X250063Y178937D02*
X260500Y168500D01*
X250063Y178937D02*
Y214433D01*
X313141Y220100D02*
X317041Y224000D01*
X245600Y220100D02*
X313141D01*
X312541Y218500D02*
X317041Y214000D01*
X247000Y218500D02*
X312541D01*
X244158Y218657D02*
X245600Y220100D01*
X244158Y214433D02*
Y218657D01*
X246126Y217626D02*
X247000Y218500D01*
X246126Y214433D02*
Y217626D01*
X298500Y168500D02*
X304500Y162500D01*
Y134315D02*
Y162500D01*
X252031Y203468D02*
X259500Y196000D01*
X252031Y203468D02*
Y214433D01*
X261500Y198500D02*
X286500D01*
X254000Y206000D02*
X261500Y198500D01*
X254000Y206000D02*
Y214433D01*
X255968Y208032D02*
X263000Y201000D01*
X255968Y208032D02*
Y214433D01*
X257937Y210968D02*
Y214433D01*
Y210968D02*
X262638Y206268D01*
X266626D01*
X266335Y214433D02*
X266626Y214142D01*
X259906Y214433D02*
X266335D01*
X137315Y244315D02*
Y250500D01*
X135000Y242000D02*
X137315Y244315D01*
X135000Y215315D02*
Y242000D01*
Y215315D02*
X166315Y184000D01*
X237689D01*
X248095Y194405D01*
Y214433D01*
X138000Y302563D02*
X142063D01*
X154000Y314500D01*
X270020Y278000D02*
Y289980D01*
X269000Y291000D02*
X270020Y289980D01*
X269000Y291000D02*
Y296500D01*
X274457Y285906D02*
Y293500D01*
Y269724D02*
Y285906D01*
X270799Y266067D02*
X274457Y269724D01*
X270020Y269520D02*
Y278000D01*
X268000Y267500D02*
X270020Y269520D01*
X216000Y301720D02*
X217721Y300000D01*
X236500D01*
X251000Y285500D01*
X213500Y300000D02*
X216000Y297500D01*
X235500D01*
X214272Y295000D02*
X234315D01*
X211000Y298272D02*
X214272Y295000D01*
X213000Y292500D02*
X231500D01*
X209000Y296500D02*
X213000Y292500D01*
X207000Y295000D02*
Y335500D01*
X212000Y290000D02*
X230856D01*
X207000Y295000D02*
X212000Y290000D01*
X237657Y302500D02*
X253500Y286658D01*
Y276000D02*
Y286658D01*
Y276000D02*
X259906Y269595D01*
Y259315D02*
Y269595D01*
X251000Y275500D02*
Y285500D01*
Y275500D02*
X257937Y268563D01*
Y259315D02*
Y268563D01*
X255968Y259315D02*
Y265531D01*
X251000Y270500D02*
X255968Y265531D01*
X254000Y259315D02*
Y262399D01*
X251000Y265399D02*
X254000Y262399D01*
X251000Y265399D02*
Y265500D01*
X235500Y297500D02*
X248095Y284906D01*
Y259315D02*
Y284906D01*
X244158Y259315D02*
Y285157D01*
X234315Y295000D02*
X244158Y285157D01*
X231500Y292500D02*
X236278Y287722D01*
Y259320D02*
Y287722D01*
X199642Y325299D02*
X203642D01*
X270799Y247701D02*
X273126Y245374D01*
X267583Y247701D02*
X270799D01*
X262673Y239827D02*
X267583D01*
X263968Y241795D02*
X267583D01*
X239346Y274500D02*
Y282000D01*
Y266346D02*
Y274500D01*
X238252Y265252D02*
X239346Y266346D01*
X238252Y259315D02*
Y265252D01*
X230856Y290000D02*
X234541Y286315D01*
Y266541D02*
Y286315D01*
X234315Y266315D02*
X234541Y266541D01*
X234315Y259315D02*
Y266315D01*
X236278Y259320D02*
X236283Y259315D01*
X275205Y257811D02*
X283205D01*
X271311D02*
X275205D01*
X267583Y254083D02*
X271311Y257811D01*
X267583Y251638D02*
Y254083D01*
X275205Y249937D02*
X283205D01*
X274937Y249669D02*
X275205Y249937D01*
X267583Y249669D02*
X274937D01*
X230642Y263921D02*
Y266874D01*
Y263921D02*
X232347Y262216D01*
Y259315D02*
Y262216D01*
X188626Y254874D02*
X192500Y251000D01*
Y247000D02*
Y251000D01*
Y247000D02*
X198500Y241000D01*
X182142Y254874D02*
X188626D01*
X182142Y270748D02*
X182268Y270874D01*
X200768Y254209D02*
X201063Y253913D01*
Y245732D02*
Y253913D01*
X208642Y245374D02*
X209000Y245732D01*
X222701D01*
X218453Y229984D02*
X222701D01*
X214374Y234063D02*
X218453Y229984D01*
X211000Y234063D02*
X214374D01*
X216220Y228016D02*
X222701D01*
X214394Y226189D02*
X216220Y228016D01*
X211000Y226189D02*
X214394D01*
X198000Y235937D02*
X203000D01*
X205563Y238500D01*
X214705D01*
X218000Y241795D01*
X222701D01*
X198500Y241000D02*
X213205D01*
X215968Y243764D01*
X222701D01*
X237142Y205874D02*
Y209066D01*
X234315Y211893D02*
X237142Y209066D01*
X234315Y211893D02*
Y214433D01*
X229268Y208768D02*
X232347Y211846D01*
X229268Y205874D02*
Y208768D01*
X232347Y211846D02*
Y214433D01*
X188240Y291000D02*
X188256Y291016D01*
X199642Y314142D02*
Y320181D01*
X199000Y313500D02*
X199642Y314142D01*
X199000Y306563D02*
Y313500D01*
X198937Y306500D02*
X199000Y306563D01*
X182937Y345000D02*
X183000Y344937D01*
X199642Y327858D02*
X201358D01*
X203000Y329500D01*
Y335374D01*
X199874Y338500D02*
X203000Y335374D01*
X190500Y338500D02*
X199874D01*
X188323Y336323D02*
X190500Y338500D01*
X188323Y331500D02*
Y336323D01*
X193441Y331500D02*
Y335500D01*
X184681Y327858D02*
Y330941D01*
X183000Y332622D02*
X184681Y330941D01*
X183000Y332622D02*
Y337063D01*
X196000Y331500D02*
X199705D01*
X229500Y344500D02*
X235591D01*
X228153Y345847D02*
X229500Y344500D01*
X228153Y345847D02*
Y348811D01*
X237970Y326000D02*
X238799D01*
X233000D02*
X237970D01*
X237968Y326002D02*
X237970Y326000D01*
X238799D02*
X240528Y324272D01*
Y322898D02*
Y324272D01*
X237968Y326002D02*
Y329000D01*
X231563Y327437D02*
X233000Y326000D01*
X228153Y327437D02*
X231563D01*
X240528Y327193D02*
Y329000D01*
Y327193D02*
X243087Y324634D01*
Y322898D02*
Y324634D01*
X228153Y332122D02*
Y335311D01*
Y332122D02*
X228839Y331437D01*
X234500D01*
X235409Y330528D01*
Y329000D02*
Y330528D01*
X235591Y336500D02*
X238390D01*
X239390Y335500D01*
Y332122D02*
Y335500D01*
Y332122D02*
X240528Y330984D01*
Y329000D02*
Y330984D01*
X243087Y331622D02*
X243465Y332000D01*
Y336500D01*
X243087Y329000D02*
Y331622D01*
X334626Y322563D02*
X355000D01*
X363500Y331063D01*
X311000Y314500D02*
X313563D01*
X309563Y313063D02*
X311000Y314500D01*
X309563Y299000D02*
Y313063D01*
X313563Y314500D02*
X314500Y315437D01*
X313000Y315063D02*
X313563Y314500D01*
X313000Y315063D02*
Y322459D01*
X314500Y315437D02*
Y321000D01*
X313000Y322459D02*
X318094Y327553D01*
Y331024D01*
X314500Y321000D02*
X320063Y326563D01*
Y331024D01*
X316126Y337126D02*
Y345000D01*
X315043Y336043D02*
X316126Y337126D01*
X313075Y336043D02*
X315043D01*
X311075Y334075D02*
X313075D01*
X310500Y328500D02*
Y333500D01*
X311075Y334075D01*
X310500Y328500D02*
X313075Y331075D01*
Y332106D01*
X324000Y323354D02*
Y331024D01*
X321437Y320791D02*
X324000Y323354D01*
X321437Y314500D02*
Y320791D01*
X317437Y299000D02*
Y320937D01*
X305000Y327000D02*
Y330138D01*
Y327000D02*
X306701Y325299D01*
X313299D01*
X316126Y328126D01*
Y331024D01*
X317362Y298925D02*
X317437Y299000D01*
X317362Y291500D02*
Y298925D01*
X322031Y325532D02*
Y331024D01*
X317437Y320937D02*
X322031Y325532D01*
X326988Y306953D02*
X327063Y306878D01*
X299626Y338012D02*
X305000D01*
X298874Y345000D02*
X308000D01*
X305000Y338012D02*
X313075D01*
X307500Y342826D02*
X310345Y339980D01*
X313075D01*
X308000Y345000D02*
X311051Y341949D01*
X313075D01*
X361800Y340826D02*
X363500Y339126D01*
Y331063D02*
Y339126D01*
X326988Y314500D02*
X327051Y314563D01*
Y332106D01*
X322031Y336094D02*
Y345000D01*
Y336094D02*
X324051Y334075D01*
X327051D01*
X325083Y336043D02*
X327051D01*
X324126Y337000D02*
X325083Y336043D01*
X324126Y337000D02*
Y341000D01*
X325075Y341949D01*
X327051D01*
X330126Y340826D02*
X361800D01*
X358626Y336063D02*
Y338500D01*
X357995Y339131D02*
X358626Y338500D01*
X330695Y339131D02*
X357995D01*
X329575Y338012D02*
X330695Y339131D01*
X329281Y339980D02*
X330126Y340826D01*
X327051Y339980D02*
X329281D01*
X327051Y338012D02*
X329575D01*
X334606Y343917D02*
X334626Y343937D01*
X327051Y343917D02*
X334606D01*
X334606Y336043D02*
X334626Y336063D01*
X327051Y336043D02*
X334606D01*
X313063Y338000D02*
X313075Y338012D01*
X265150Y330626D02*
Y335874D01*
X262449Y327925D02*
X265150Y330626D01*
X262449Y315500D02*
Y327925D01*
X261087Y337000D02*
X264024D01*
X265150Y335874D01*
X207705Y258874D02*
Y261937D01*
X206642Y257811D02*
X207705Y258874D01*
X206642Y254374D02*
Y257811D01*
X199705Y258874D02*
Y261937D01*
Y258874D02*
X200933Y257646D01*
Y254374D02*
Y257646D01*
X200768Y254209D02*
X200933Y254374D01*
X216878Y247701D02*
X222701D01*
X210205Y254374D02*
X216878Y247701D01*
X206642Y254374D02*
X210205D01*
X365362Y421925D02*
X366063Y422626D01*
X362925Y421925D02*
X365362D01*
X362126Y421126D02*
X362925Y421925D01*
X366063Y422626D02*
Y425063D01*
X362126Y417398D02*
Y421126D01*
X358563Y422488D02*
Y425063D01*
X357126Y421051D02*
X358563Y422488D01*
X357126Y417398D02*
Y421051D01*
X352126Y417398D02*
Y421374D01*
X351126Y422374D02*
X352126Y421374D01*
X351126Y422374D02*
Y425063D01*
X343563Y419000D02*
X345165Y417398D01*
X343563Y419000D02*
Y425063D01*
X345165Y417398D02*
X347126D01*
X196000Y320181D02*
X199642D01*
X190882Y325299D02*
X192161Y324020D01*
X181000Y316000D02*
X183500D01*
X184681Y317181D01*
Y320181D01*
X195252Y298890D02*
Y311748D01*
X193441Y313559D02*
X195252Y311748D01*
X193441Y313559D02*
Y316539D01*
X183500Y310437D02*
X186937D01*
X188323Y311823D01*
Y316539D01*
X190882Y306681D02*
Y316539D01*
X168937Y328000D02*
X169063Y328126D01*
X168937Y320500D02*
X169000Y320437D01*
X182201Y325299D02*
X184681D01*
X179374Y328126D02*
X182201Y325299D01*
X175500Y328126D02*
X179374D01*
X181803Y322740D02*
X184681D01*
X179500Y320437D02*
X181803Y322740D01*
X175500Y320437D02*
X179500D01*
D16*
X269000Y296500D02*
Y302000D01*
X268000Y303000D02*
X269000Y302000D01*
X252358Y303000D02*
X268000D01*
X249304Y306054D02*
X252358Y303000D01*
X249304Y306054D02*
Y318654D01*
X251425Y310102D02*
X254575Y306953D01*
X259622Y306878D02*
X263000D01*
X257650Y308850D02*
X259622Y306878D01*
X264626Y310437D02*
X274457Y300606D01*
X260736Y310437D02*
X264626D01*
X259150Y312024D02*
X260736Y310437D01*
X259150Y312024D02*
Y323500D01*
X274457Y293500D02*
Y300606D01*
X249304Y318654D02*
X251425Y320776D01*
X257650Y308850D02*
Y319500D01*
X251750Y325449D02*
X257201D01*
X259150Y323500D01*
X249882Y327317D02*
X251750Y325449D01*
X256150Y321000D02*
X257650Y319500D01*
X256150Y321000D02*
Y322413D01*
X251425Y310102D02*
Y318654D01*
X253000Y320229D01*
Y322413D01*
X251425Y320776D02*
Y322413D01*
Y327895D02*
X252101Y327219D01*
X253899D01*
X254575Y327895D01*
X249882Y327317D02*
Y329468D01*
X249850Y329500D02*
X249882Y329468D01*
X254575Y327895D02*
Y329500D01*
X249512Y336787D02*
X253000D01*
X248150Y335425D02*
X249512Y336787D01*
X248150Y323126D02*
Y335425D01*
Y323126D02*
X248862Y322413D01*
X249850D01*
X254575Y315500D02*
X254575Y315500D01*
Y322413D01*
X261087Y331437D02*
Y337000D01*
X259150Y329500D02*
X261087Y331437D01*
X256150Y329500D02*
X259150D01*
X256650Y335374D02*
X258276Y337000D01*
X256650Y333937D02*
Y335374D01*
X254575Y331862D02*
X256650Y333937D01*
X258276Y337000D02*
X261087D01*
X254575Y329500D02*
Y331862D01*
X251425Y327895D02*
Y329500D01*
X253000D02*
Y336787D01*
D17*
X181937Y202000D02*
Y217268D01*
X345563Y382126D02*
Y387500D01*
X304350Y291500D02*
X309488D01*
X304425Y299000D02*
X309563D01*
X338425Y425063D02*
X343563D01*
X357126Y388126D02*
Y398500D01*
X356500Y387500D02*
X357126Y388126D01*
X353437Y387500D02*
X356500D01*
X365000D01*
X367126Y389626D01*
Y398500D01*
X408000Y310000D02*
X430000D01*
X384563Y286563D02*
X408000Y310000D01*
X384563Y281705D02*
Y286563D01*
X416000Y381937D02*
Y390000D01*
X384563Y281705D02*
X393500D01*
X225000Y282000D02*
X231472D01*
X221500Y278500D02*
X225000Y282000D01*
X221500Y272500D02*
Y278500D01*
Y272500D02*
X222768Y271232D01*
Y266874D02*
Y271232D01*
X231472Y270972D02*
Y274500D01*
X230642Y270142D02*
X231472Y270972D01*
X230642Y266874D02*
Y270142D01*
X351126Y432937D02*
Y438075D01*
X353437Y382126D02*
Y387500D01*
X353264Y281705D02*
X384563D01*
X353264Y263988D02*
X384563D01*
X430000Y310000D02*
X439500Y319500D01*
Y388000D01*
X410102Y417398D02*
X439500Y388000D01*
X367126Y417398D02*
X410102D01*
X182142Y254874D02*
Y270748D01*
X334862Y314500D02*
X340000D01*
X334937Y306878D02*
X340000D01*
X313563Y292488D02*
Y306878D01*
X312575Y291500D02*
X313563Y292488D01*
X309488Y291500D02*
X312575D01*
X353437Y387500D02*
Y392563D01*
X352126Y393874D02*
X353437Y392563D01*
X352126Y393874D02*
Y398500D01*
X417374Y351500D02*
X428607D01*
X417374Y341500D02*
X428607D01*
X417374Y331500D02*
X428607D01*
X403874Y351500D02*
X409500D01*
X403874Y341500D02*
X409500D01*
X403874Y331500D02*
X409500D01*
X422500Y373000D02*
X428607D01*
X421437Y374063D02*
X422500Y373000D01*
X416000Y374063D02*
X421437D01*
X422500Y383000D02*
X428607D01*
X421437Y381937D02*
X422500Y383000D01*
X416000Y381937D02*
X421437D01*
X258874Y430185D02*
Y434126D01*
X256780Y436221D02*
X258874Y434126D01*
X256780Y436221D02*
Y440185D01*
X251858Y435858D02*
Y440185D01*
X251000Y435000D02*
X251858Y435858D01*
X251000Y430185D02*
Y435000D01*
X146000Y238000D02*
X150815D01*
X144327Y236327D02*
X146000Y238000D01*
X140433Y236327D02*
X144327D01*
X145874Y230126D02*
X150815D01*
X144595Y231405D02*
X145874Y230126D01*
X140433Y231405D02*
X144595D01*
X168937Y307000D02*
Y312500D01*
X169000Y312563D01*
X175500D01*
X155500Y328000D02*
X161063D01*
X155500Y320500D02*
X161063D01*
X169063Y328126D02*
X175500D01*
X169000Y320437D02*
X175500D01*
X422425Y291000D02*
X443185D01*
X422622Y281000D02*
X443185D01*
X284697Y162055D02*
X294500D01*
Y134315D02*
Y154575D01*
X284500Y134315D02*
Y154378D01*
X165055Y269315D02*
Y279181D01*
X137315Y269315D02*
X157575D01*
X137315Y279315D02*
X157315D01*
X301000Y422122D02*
Y441685D01*
X291000Y414445D02*
X300803D01*
X291000Y421925D02*
Y441685D01*
X414945Y281197D02*
Y291000D01*
D18*
X298083Y192433D02*
X301539D01*
X282728Y192500D02*
X286185D01*
X267583Y192433D02*
X271039D01*
X265673Y173496D02*
X272992D01*
X280858D02*
X288161D01*
X296173D02*
X303508D01*
Y181370D02*
Y188299D01*
X288154Y181378D02*
Y188366D01*
X273008Y181386D02*
Y188299D01*
X203000Y306500D02*
X204000Y305500D01*
X198937Y306500D02*
X203000D01*
X183500Y298500D02*
Y302563D01*
Y298500D02*
X187000Y295000D01*
X202000D01*
X204000Y297000D01*
Y305500D01*
X166555Y336000D02*
X175500D01*
X164555Y334000D02*
X166555Y336000D01*
X154000Y334000D02*
X164555D01*
D50*
X249850Y322413D02*
D03*
X251425D02*
D03*
X253000D02*
D03*
X254575D02*
D03*
X256150D02*
D03*
X249850Y329500D02*
D03*
X251425D02*
D03*
X253000D02*
D03*
X254575D02*
D03*
X256150D02*
D03*
D51*
X313075Y343917D02*
D03*
Y341949D02*
D03*
Y339980D02*
D03*
Y338012D02*
D03*
Y336043D02*
D03*
Y334075D02*
D03*
Y332106D02*
D03*
X327051D02*
D03*
Y334075D02*
D03*
Y336043D02*
D03*
Y338012D02*
D03*
Y339980D02*
D03*
Y341949D02*
D03*
Y343917D02*
D03*
D52*
X316126Y331024D02*
D03*
X318094D02*
D03*
X320063D02*
D03*
X322031D02*
D03*
X324000D02*
D03*
Y345000D02*
D03*
X322031D02*
D03*
X320063D02*
D03*
X318094D02*
D03*
X316126D02*
D03*
D53*
X293000Y338000D02*
D03*
X299000Y264000D02*
D03*
X307000Y214000D02*
D03*
Y224000D02*
D03*
X138000Y302563D02*
D03*
X279000Y240500D02*
D03*
Y234500D02*
D03*
X137315Y250500D02*
D03*
X443185Y310437D02*
D03*
X393500Y281705D02*
D03*
D54*
X289500Y354000D02*
D03*
X297000D02*
D03*
X175500Y374016D02*
D03*
X182500Y374000D02*
D03*
X274457Y293500D02*
D03*
X269000Y296500D02*
D03*
X416000Y390000D02*
D03*
X376500Y139000D02*
D03*
X326563D02*
D03*
X409500Y323354D02*
D03*
X400000D02*
D03*
X409500Y360000D02*
D03*
X271500Y441685D02*
D03*
X313563Y134315D02*
D03*
D55*
X417374Y331500D02*
D03*
X409500D02*
D03*
X403874D02*
D03*
X396000D02*
D03*
X403874Y341500D02*
D03*
X396000D02*
D03*
X417374D02*
D03*
X409500D02*
D03*
X417374Y351500D02*
D03*
X409500D02*
D03*
X403874D02*
D03*
X396000D02*
D03*
X357563Y162055D02*
D03*
X365437D02*
D03*
X345437D02*
D03*
X337563D02*
D03*
X334437Y204000D02*
D03*
X326563D02*
D03*
X334437Y244000D02*
D03*
X326563D02*
D03*
X334437Y234000D02*
D03*
X326563D02*
D03*
X161063Y312500D02*
D03*
X168937D02*
D03*
X191063Y306500D02*
D03*
X198937D02*
D03*
X168937Y328000D02*
D03*
X161063D02*
D03*
X168937Y320500D02*
D03*
X161063D02*
D03*
X262146Y278000D02*
D03*
X270020D02*
D03*
X266583Y285906D02*
D03*
X274457D02*
D03*
X313563Y306878D02*
D03*
X321437D02*
D03*
X334937D02*
D03*
X327063D02*
D03*
X309488Y291500D02*
D03*
X317362D02*
D03*
X321437Y314500D02*
D03*
X313563D02*
D03*
X326988D02*
D03*
X334862D02*
D03*
X317437Y299000D02*
D03*
X309563D02*
D03*
X235591Y336500D02*
D03*
X243465D02*
D03*
X235591Y344500D02*
D03*
X243465D02*
D03*
X258874Y430185D02*
D03*
X251000D02*
D03*
X345563Y387500D02*
D03*
X353437D02*
D03*
X157315Y279315D02*
D03*
X165189D02*
D03*
X422622Y281000D02*
D03*
X414748D02*
D03*
X229268Y205874D02*
D03*
X237142D02*
D03*
X230642Y266874D02*
D03*
X222768D02*
D03*
X208937Y245732D02*
D03*
X201063D02*
D03*
X190142Y270874D02*
D03*
X182268D02*
D03*
X174063Y202000D02*
D03*
X181937D02*
D03*
X231472Y282000D02*
D03*
X239346D02*
D03*
Y274500D02*
D03*
X231472D02*
D03*
X261087Y345000D02*
D03*
X253213D02*
D03*
X261087Y353000D02*
D03*
X253213D02*
D03*
X261087Y337000D02*
D03*
X253213D02*
D03*
X262449Y315500D02*
D03*
X254575D02*
D03*
D56*
X416000Y374063D02*
D03*
Y381937D02*
D03*
X329500Y185063D02*
D03*
Y192937D02*
D03*
X175500Y328126D02*
D03*
Y336000D02*
D03*
X195252Y291016D02*
D03*
Y298890D02*
D03*
X183000Y344937D02*
D03*
Y337063D02*
D03*
X175500Y312563D02*
D03*
Y320437D02*
D03*
X183500Y302563D02*
D03*
Y310437D02*
D03*
X237098Y150937D02*
D03*
Y143063D02*
D03*
X215272Y150937D02*
D03*
Y143063D02*
D03*
X192882Y150697D02*
D03*
Y142823D02*
D03*
X228153Y327437D02*
D03*
Y335311D02*
D03*
X150815Y238000D02*
D03*
Y230126D02*
D03*
X228153Y340937D02*
D03*
Y348811D02*
D03*
X272992Y173496D02*
D03*
Y181370D02*
D03*
X288161Y173496D02*
D03*
Y181370D02*
D03*
X303508Y173496D02*
D03*
Y181370D02*
D03*
X358563Y432937D02*
D03*
Y425063D02*
D03*
X366063Y432937D02*
D03*
Y425063D02*
D03*
X343563Y432937D02*
D03*
Y425063D02*
D03*
X351126D02*
D03*
Y432937D02*
D03*
X301000Y422122D02*
D03*
Y414248D02*
D03*
X284500Y154378D02*
D03*
Y162252D02*
D03*
X215705Y269811D02*
D03*
Y261937D02*
D03*
X211000Y234063D02*
D03*
Y226189D02*
D03*
X266626Y206268D02*
D03*
Y214142D02*
D03*
X275205Y249937D02*
D03*
Y257811D02*
D03*
X283205Y249937D02*
D03*
Y257811D02*
D03*
X207705Y269811D02*
D03*
Y261937D02*
D03*
X199705Y269811D02*
D03*
Y261937D02*
D03*
X345563Y269268D02*
D03*
Y277142D02*
D03*
X198000Y235937D02*
D03*
Y228063D02*
D03*
X305000Y330138D02*
D03*
Y338012D02*
D03*
X342626Y343937D02*
D03*
Y336063D02*
D03*
X350626Y343937D02*
D03*
Y336063D02*
D03*
X334626Y343937D02*
D03*
Y336063D02*
D03*
X358626Y343937D02*
D03*
Y336063D02*
D03*
X334626Y322563D02*
D03*
Y330437D02*
D03*
D57*
X192161Y324020D02*
D03*
D58*
X199642Y327858D02*
D03*
Y325299D02*
D03*
Y322740D02*
D03*
Y320181D02*
D03*
X184681D02*
D03*
Y322740D02*
D03*
Y325299D02*
D03*
Y327858D02*
D03*
D59*
X196000Y316539D02*
D03*
X193441D02*
D03*
X190882D02*
D03*
X188323D02*
D03*
Y331500D02*
D03*
X190882D02*
D03*
X193441D02*
D03*
X196000D02*
D03*
D60*
X188240Y291000D02*
D03*
X180760D02*
D03*
X176240Y345000D02*
D03*
X168760D02*
D03*
X165055Y269315D02*
D03*
X157575D02*
D03*
X414945Y291000D02*
D03*
X422425D02*
D03*
D61*
X244535Y143260D02*
D03*
Y150740D02*
D03*
X222878Y143260D02*
D03*
Y150740D02*
D03*
X200315Y143020D02*
D03*
Y150500D02*
D03*
X265476Y173693D02*
D03*
Y181173D02*
D03*
X280661Y173693D02*
D03*
Y181173D02*
D03*
X295976Y173693D02*
D03*
Y181173D02*
D03*
X291000Y414445D02*
D03*
Y421925D02*
D03*
X294500Y162055D02*
D03*
Y154575D02*
D03*
D62*
X243087Y329000D02*
D03*
X240528D02*
D03*
X237968D02*
D03*
X235409D02*
D03*
X243087Y322898D02*
D03*
X240528D02*
D03*
X237968D02*
D03*
X235409D02*
D03*
D63*
X274976Y192433D02*
D03*
X271039D02*
D03*
X273008Y188299D02*
D03*
X290122Y192500D02*
D03*
X286185D02*
D03*
X288154Y188366D02*
D03*
X305476Y192433D02*
D03*
X301539D02*
D03*
X303508Y188299D02*
D03*
D64*
X367126Y417398D02*
D03*
X362126D02*
D03*
X357126D02*
D03*
X352126D02*
D03*
X347126D02*
D03*
X367126Y398500D02*
D03*
X362126D02*
D03*
X357126D02*
D03*
X352126D02*
D03*
D65*
X347126D02*
D03*
D66*
X230378Y259315D02*
D03*
X232347D02*
D03*
X234315D02*
D03*
X236283D02*
D03*
X238252D02*
D03*
X240220D02*
D03*
X242189D02*
D03*
X244158D02*
D03*
X246126D02*
D03*
X248095D02*
D03*
X250063D02*
D03*
X252031D02*
D03*
X254000D02*
D03*
X255968D02*
D03*
X257937D02*
D03*
X259906D02*
D03*
Y214433D02*
D03*
X257937D02*
D03*
X255968D02*
D03*
X254000D02*
D03*
X252031D02*
D03*
X250063D02*
D03*
X248095D02*
D03*
X246126D02*
D03*
X244158D02*
D03*
X242189D02*
D03*
X240220D02*
D03*
X238252D02*
D03*
X236283D02*
D03*
X234315D02*
D03*
X232347D02*
D03*
X230378D02*
D03*
D67*
X267583Y251638D02*
D03*
Y249669D02*
D03*
Y247701D02*
D03*
Y245732D02*
D03*
Y243764D02*
D03*
Y241795D02*
D03*
Y239827D02*
D03*
Y237858D02*
D03*
Y235890D02*
D03*
Y233921D02*
D03*
Y231953D02*
D03*
Y229984D02*
D03*
Y228016D02*
D03*
Y226047D02*
D03*
Y224079D02*
D03*
Y222110D02*
D03*
X222701D02*
D03*
Y224079D02*
D03*
Y226047D02*
D03*
Y228016D02*
D03*
Y229984D02*
D03*
Y231953D02*
D03*
Y233921D02*
D03*
Y235890D02*
D03*
Y237858D02*
D03*
Y239827D02*
D03*
Y241795D02*
D03*
Y243764D02*
D03*
Y245732D02*
D03*
Y247701D02*
D03*
Y249669D02*
D03*
Y251638D02*
D03*
D68*
X206642Y254374D02*
D03*
X200933D02*
D03*
D69*
X384563Y263988D02*
D03*
X353264D02*
D03*
X384563Y281705D02*
D03*
X353264D02*
D03*
D70*
X182142Y254874D02*
D03*
Y217472D02*
D03*
D71*
X169500Y202000D02*
X174063D01*
X274457Y285906D02*
X279831D01*
X358626Y343937D02*
Y349311D01*
X342626Y343937D02*
Y349311D01*
X334626Y330437D02*
X340000D01*
X350626Y330689D02*
Y336063D01*
X299626Y330138D02*
X305000D01*
X235591Y344500D02*
Y349874D01*
X261087Y353000D02*
Y358374D01*
X262449Y315500D02*
X267823D01*
X243465Y344500D02*
Y349874D01*
X222779Y327437D02*
X228153D01*
X253213Y353000D02*
Y358374D01*
X396000Y331500D02*
Y341500D01*
Y351500D01*
X326563Y139000D02*
Y149143D01*
X376500Y139000D02*
Y149204D01*
X187508Y150697D02*
X192882D01*
X209898Y150937D02*
X215272D01*
X231724D02*
X237098D01*
Y143063D02*
X244339D01*
X215272D02*
X222681D01*
X193079Y143020D02*
X200315D01*
Y150500D02*
Y155874D01*
X222878Y150740D02*
Y156114D01*
X244535Y150740D02*
Y156114D01*
X334437Y234000D02*
Y244000D01*
Y186437D02*
Y204000D01*
X333063Y185063D02*
X334437Y186437D01*
X329500Y185063D02*
X333063D01*
X295976Y181173D02*
Y186547D01*
X280661Y181173D02*
Y186547D01*
X265476Y181173D02*
Y186547D01*
X261209Y285906D02*
X266583D01*
X256772Y278000D02*
X262146D01*
X283205Y249937D02*
X288579D01*
X275205Y257811D02*
Y263185D01*
X226098Y274500D02*
X231472D01*
X358563Y432937D02*
Y440185D01*
X355248Y443500D02*
X358563Y440185D01*
X346500Y443500D02*
X355248D01*
X343563Y440563D02*
X346500Y443500D01*
X343563Y432937D02*
Y440563D01*
X366063Y432937D02*
Y438311D01*
X358563Y432937D02*
X366063D01*
X390626Y341500D02*
X396000D01*
X353264Y258614D02*
Y263988D01*
X334437Y234000D02*
X339811D01*
X345563Y277142D02*
X352142D01*
X353264Y278264D01*
Y281705D01*
X345563Y269268D02*
X351732D01*
X353264Y267736D01*
Y263988D02*
Y267736D01*
X195941Y269811D02*
X199705D01*
X194878Y270874D02*
X195941Y269811D01*
X190142Y270874D02*
X194878D01*
X207705Y269811D02*
X215705D01*
X199705D02*
X207705D01*
X205626Y226189D02*
X211000D01*
X205626Y234063D02*
X211000D01*
X266626Y214142D02*
X272000D01*
X266626Y206268D02*
X272000D01*
X229268Y200500D02*
Y205874D01*
X237142Y200500D02*
Y205874D01*
X180744Y291016D02*
X180760Y291000D01*
X175500Y291016D02*
X180744D01*
X168697Y344937D02*
X168760Y345000D01*
X164000Y344937D02*
X168697D01*
X188256Y291016D02*
X195252D01*
X176240Y345000D02*
X182937D01*
X228153Y335311D02*
Y340937D01*
X235591Y336500D02*
Y344500D01*
X243465Y336500D02*
Y344500D01*
X326988Y306953D02*
Y314500D01*
X321437Y306878D02*
Y314500D01*
X350626Y343937D02*
X358626D01*
X334626Y330437D02*
Y336063D01*
X342626Y343937D02*
X350626D01*
X334626D02*
X342626D01*
Y336063D02*
X350626D01*
X334626D02*
X342626D01*
X261087Y345000D02*
Y353000D01*
Y337000D02*
Y345000D01*
X253213D02*
Y353000D01*
Y337000D02*
Y345000D01*
X253000Y336787D02*
X253213Y337000D01*
X317041Y244000D02*
X326563D01*
X317041Y234000D02*
X326563D01*
X317041Y204000D02*
X326563D01*
X317041Y194000D02*
X323500D01*
X324563Y192937D01*
X329500D01*
X317041Y184000D02*
X323500D01*
X324563Y185063D01*
X329500D01*
X345563Y387500D02*
Y392563D01*
X347126Y394126D01*
Y398500D01*
X346500Y149204D02*
Y155126D01*
X345437Y156189D02*
X346500Y155126D01*
X345437Y156189D02*
Y162055D01*
X337563Y156764D02*
Y162055D01*
X336500Y155701D02*
X337563Y156764D01*
X336500Y149205D02*
Y155701D01*
X366500Y149204D02*
Y155138D01*
X365437Y156201D02*
X366500Y155138D01*
X365437Y156201D02*
Y162055D01*
X357563Y156063D02*
Y162055D01*
X356500Y155000D02*
X357563Y156063D01*
X356500Y149204D02*
Y155000D01*
D72*
X272185Y441685D02*
X281000D01*
X443185Y301000D02*
Y309815D01*
X304500Y134315D02*
X313315D01*
X137315Y250500D02*
Y259315D01*
X199705Y269811D02*
Y275185D01*
X207705Y269811D02*
Y275185D01*
D73*
X178563Y309000D02*
X180000Y310437D01*
X177500Y309000D02*
X178563D01*
X175500Y307000D02*
X177500Y309000D01*
X180000Y310437D02*
X183500D01*
X190882Y306681D02*
X191063Y306500D01*
X154000Y314500D02*
X156000Y312500D01*
X161063D01*
X163500Y304000D02*
X177000D01*
X161063Y306437D02*
X163500Y304000D01*
X161063Y306437D02*
Y312500D01*
X177000Y304000D02*
X179500Y306500D01*
X191063D01*
D74*
X208465Y371575D02*
D03*
X375512D02*
D03*
X208465Y204528D02*
D03*
X375512D02*
D03*
D75*
X136969Y312307D02*
D03*
Y338291D02*
D03*
D76*
X440291Y222500D02*
D03*
Y232500D02*
D03*
Y242500D02*
D03*
X317041Y184000D02*
D03*
Y194000D02*
D03*
Y204000D02*
D03*
Y214000D02*
D03*
Y224000D02*
D03*
Y234000D02*
D03*
X428607Y373000D02*
D03*
X428607Y331500D02*
D03*
Y341500D02*
D03*
X428607Y321500D02*
D03*
X326500Y149206D02*
D03*
X356500Y149204D02*
D03*
X366500D02*
D03*
X346500Y149204D02*
D03*
X336500Y149205D02*
D03*
X443185Y291000D02*
D03*
Y281000D02*
D03*
X294500Y134315D02*
D03*
X284500D02*
D03*
X291000Y441685D02*
D03*
X301000D02*
D03*
X137315Y269315D02*
D03*
Y279315D02*
D03*
D77*
X317041Y244000D02*
D03*
X428607Y383000D02*
D03*
X428607Y351500D02*
D03*
X443185Y301000D02*
D03*
X137315Y259315D02*
D03*
D78*
X376500Y149204D02*
D03*
X304500Y134315D02*
D03*
X281000Y441685D02*
D03*
D79*
X140433Y221563D02*
D03*
D80*
Y226484D02*
D03*
Y231405D02*
D03*
Y236327D02*
D03*
X246937Y440185D02*
D03*
X251858D02*
D03*
X256780D02*
D03*
D81*
X242016D02*
D03*
D82*
X230856Y224079D02*
D03*
X233000Y229500D02*
D03*
X395000Y388000D02*
D03*
X297000Y346874D02*
D03*
X291500Y264000D02*
D03*
X329000Y296500D02*
D03*
X323000Y297500D02*
D03*
X306000Y285000D02*
D03*
X289500Y346823D02*
D03*
X299626Y338012D02*
D03*
X237000Y244000D02*
D03*
X250500D02*
D03*
X255500D02*
D03*
X345563Y382126D02*
D03*
X173500Y282500D02*
D03*
X183500Y279181D02*
D03*
X218500Y287000D02*
D03*
Y282500D02*
D03*
X319500Y170000D02*
D03*
X260500Y237000D02*
D03*
Y232500D02*
D03*
Y228063D02*
D03*
Y223500D02*
D03*
X320063Y351000D02*
D03*
X304350Y291500D02*
D03*
X304425Y299000D02*
D03*
X313075Y349874D02*
D03*
X327000D02*
D03*
X228500Y247602D02*
D03*
X327000Y412000D02*
D03*
Y400000D02*
D03*
X338425Y425063D02*
D03*
X338500Y268000D02*
D03*
X263500Y265398D02*
D03*
X245600Y317000D02*
D03*
X279831Y285906D02*
D03*
X358626Y349311D02*
D03*
X342626D02*
D03*
X340000Y330437D02*
D03*
X350626Y330689D02*
D03*
X299626Y330138D02*
D03*
X235591Y349874D02*
D03*
X261087Y358374D02*
D03*
X267823Y315500D02*
D03*
X243465Y349874D02*
D03*
X222779Y327437D02*
D03*
X253213Y358374D02*
D03*
X254575Y306953D02*
D03*
X263000Y306878D02*
D03*
X285500Y240500D02*
D03*
Y234500D02*
D03*
X187508Y150697D02*
D03*
X209898Y150937D02*
D03*
X231724D02*
D03*
X200315Y155874D02*
D03*
X222878Y156114D02*
D03*
X244535D02*
D03*
X216500Y236327D02*
D03*
X258500Y177500D02*
D03*
X298083Y192433D02*
D03*
X282728Y192500D02*
D03*
X267583Y192433D02*
D03*
X295976Y186547D02*
D03*
X280661D02*
D03*
X265476D02*
D03*
X261209Y285906D02*
D03*
X256772Y278000D02*
D03*
X251000Y270500D02*
D03*
Y265500D02*
D03*
X203642Y325299D02*
D03*
X288579Y249937D02*
D03*
X275205Y263185D02*
D03*
X226098Y274500D02*
D03*
X199705Y275185D02*
D03*
X207705D02*
D03*
X220000Y256500D02*
D03*
X225000Y260500D02*
D03*
X366063Y438311D02*
D03*
X351126Y438075D02*
D03*
X353437Y382126D02*
D03*
X390626Y341500D02*
D03*
X353264Y258614D02*
D03*
X339811Y234000D02*
D03*
X169500Y202000D02*
D03*
X205626Y226189D02*
D03*
Y234063D02*
D03*
X272000Y214142D02*
D03*
Y206268D02*
D03*
X229268Y200500D02*
D03*
X237142D02*
D03*
X164000Y344937D02*
D03*
X175500Y291016D02*
D03*
X193441Y335500D02*
D03*
X199705Y331500D02*
D03*
X340000Y306878D02*
D03*
Y314500D02*
D03*
X310500Y328500D02*
D03*
X189996Y321854D02*
D03*
Y326185D02*
D03*
X194327Y321854D02*
D03*
Y326185D02*
D03*
X181000Y316000D02*
D03*
X175500Y307000D02*
D03*
X168937D02*
D03*
X154000Y314500D02*
D03*
Y334000D02*
D03*
X155500Y320500D02*
D03*
Y328000D02*
D03*
M02*
