G04*
G04 #@! TF.GenerationSoftware,Altium Limited,Altium Designer,18.1.6 (161)*
G04*
G04 Layer_Physical_Order=2*
G04 Layer_Color=16711680*
%FSLAX24Y24*%
%MOIN*%
G70*
G01*
G75*
%ADD10C,0.0100*%
%ADD38C,0.0500*%
%ADD44R,0.0591X0.0591*%
%ADD45C,0.0591*%
%ADD46C,0.0800*%
%ADD47C,0.0500*%
G36*
X17250Y500D02*
X500D01*
Y29000D01*
X17250D01*
Y500D01*
D02*
G37*
%LPC*%
G36*
X12408Y27664D02*
Y27322D01*
X12750D01*
X12743Y27375D01*
X12704Y27471D01*
X12640Y27554D01*
X12558Y27617D01*
X12461Y27657D01*
X12408Y27664D01*
D02*
G37*
G36*
X12308D02*
X12255Y27657D01*
X12159Y27617D01*
X12076Y27554D01*
X12013Y27471D01*
X11973Y27375D01*
X11966Y27322D01*
X12308D01*
Y27664D01*
D02*
G37*
G36*
X11408D02*
Y27322D01*
X11750D01*
X11743Y27375D01*
X11704Y27471D01*
X11640Y27554D01*
X11558Y27617D01*
X11461Y27657D01*
X11408Y27664D01*
D02*
G37*
G36*
X11308D02*
X11255Y27657D01*
X11159Y27617D01*
X11076Y27554D01*
X11013Y27471D01*
X10973Y27375D01*
X10966Y27322D01*
X11308D01*
Y27664D01*
D02*
G37*
G36*
X10408D02*
Y27322D01*
X10750D01*
X10743Y27375D01*
X10704Y27471D01*
X10640Y27554D01*
X10558Y27617D01*
X10461Y27657D01*
X10408Y27664D01*
D02*
G37*
G36*
X10308D02*
X10255Y27657D01*
X10159Y27617D01*
X10076Y27554D01*
X10013Y27471D01*
X9973Y27375D01*
X9966Y27322D01*
X10308D01*
Y27664D01*
D02*
G37*
G36*
X9408D02*
Y27322D01*
X9750D01*
X9743Y27375D01*
X9704Y27471D01*
X9640Y27554D01*
X9558Y27617D01*
X9461Y27657D01*
X9408Y27664D01*
D02*
G37*
G36*
X9308D02*
X9255Y27657D01*
X9159Y27617D01*
X9076Y27554D01*
X9013Y27471D01*
X8973Y27375D01*
X8966Y27322D01*
X9308D01*
Y27664D01*
D02*
G37*
G36*
X8408D02*
Y27322D01*
X8750D01*
X8743Y27375D01*
X8704Y27471D01*
X8640Y27554D01*
X8558Y27617D01*
X8461Y27657D01*
X8408Y27664D01*
D02*
G37*
G36*
X8308D02*
X8255Y27657D01*
X8159Y27617D01*
X8076Y27554D01*
X8013Y27471D01*
X7973Y27375D01*
X7966Y27322D01*
X8308D01*
Y27664D01*
D02*
G37*
G36*
X7408D02*
Y27322D01*
X7750D01*
X7743Y27375D01*
X7704Y27471D01*
X7640Y27554D01*
X7558Y27617D01*
X7461Y27657D01*
X7408Y27664D01*
D02*
G37*
G36*
X7308D02*
X7255Y27657D01*
X7159Y27617D01*
X7076Y27554D01*
X7013Y27471D01*
X6973Y27375D01*
X6966Y27322D01*
X7308D01*
Y27664D01*
D02*
G37*
G36*
X6408D02*
Y27322D01*
X6750D01*
X6743Y27375D01*
X6704Y27471D01*
X6640Y27554D01*
X6558Y27617D01*
X6461Y27657D01*
X6408Y27664D01*
D02*
G37*
G36*
X6308D02*
X6255Y27657D01*
X6159Y27617D01*
X6076Y27554D01*
X6013Y27471D01*
X5973Y27375D01*
X5966Y27322D01*
X6308D01*
Y27664D01*
D02*
G37*
G36*
X5754Y27667D02*
X5408D01*
Y27322D01*
X5754D01*
Y27667D01*
D02*
G37*
G36*
X5308D02*
X4963D01*
Y27322D01*
X5308D01*
Y27667D01*
D02*
G37*
G36*
X12750Y27222D02*
X12408D01*
Y26880D01*
X12461Y26887D01*
X12558Y26926D01*
X12640Y26990D01*
X12704Y27072D01*
X12743Y27168D01*
X12750Y27222D01*
D02*
G37*
G36*
X12308D02*
X11966D01*
X11973Y27168D01*
X12013Y27072D01*
X12076Y26990D01*
X12159Y26926D01*
X12255Y26887D01*
X12308Y26880D01*
Y27222D01*
D02*
G37*
G36*
X11750D02*
X11408D01*
Y26880D01*
X11461Y26887D01*
X11558Y26926D01*
X11640Y26990D01*
X11704Y27072D01*
X11743Y27168D01*
X11750Y27222D01*
D02*
G37*
G36*
X11308D02*
X10966D01*
X10973Y27168D01*
X11013Y27072D01*
X11076Y26990D01*
X11159Y26926D01*
X11255Y26887D01*
X11308Y26880D01*
Y27222D01*
D02*
G37*
G36*
X10750D02*
X10408D01*
Y26880D01*
X10461Y26887D01*
X10558Y26926D01*
X10640Y26990D01*
X10704Y27072D01*
X10743Y27168D01*
X10750Y27222D01*
D02*
G37*
G36*
X10308D02*
X9966D01*
X9973Y27168D01*
X10013Y27072D01*
X10076Y26990D01*
X10159Y26926D01*
X10255Y26887D01*
X10308Y26880D01*
Y27222D01*
D02*
G37*
G36*
X9750D02*
X9408D01*
Y26880D01*
X9461Y26887D01*
X9558Y26926D01*
X9640Y26990D01*
X9704Y27072D01*
X9743Y27168D01*
X9750Y27222D01*
D02*
G37*
G36*
X9308D02*
X8966D01*
X8973Y27168D01*
X9013Y27072D01*
X9076Y26990D01*
X9159Y26926D01*
X9255Y26887D01*
X9308Y26880D01*
Y27222D01*
D02*
G37*
G36*
X8750D02*
X8408D01*
Y26880D01*
X8461Y26887D01*
X8558Y26926D01*
X8640Y26990D01*
X8704Y27072D01*
X8743Y27168D01*
X8750Y27222D01*
D02*
G37*
G36*
X8308D02*
X7966D01*
X7973Y27168D01*
X8013Y27072D01*
X8076Y26990D01*
X8159Y26926D01*
X8255Y26887D01*
X8308Y26880D01*
Y27222D01*
D02*
G37*
G36*
X7750D02*
X7408D01*
Y26880D01*
X7461Y26887D01*
X7558Y26926D01*
X7640Y26990D01*
X7704Y27072D01*
X7743Y27168D01*
X7750Y27222D01*
D02*
G37*
G36*
X7308D02*
X6966D01*
X6973Y27168D01*
X7013Y27072D01*
X7076Y26990D01*
X7159Y26926D01*
X7255Y26887D01*
X7308Y26880D01*
Y27222D01*
D02*
G37*
G36*
X6750D02*
X6408D01*
Y26880D01*
X6461Y26887D01*
X6558Y26926D01*
X6640Y26990D01*
X6704Y27072D01*
X6743Y27168D01*
X6750Y27222D01*
D02*
G37*
G36*
X6308D02*
X5966D01*
X5973Y27168D01*
X6013Y27072D01*
X6076Y26990D01*
X6159Y26926D01*
X6255Y26887D01*
X6308Y26880D01*
Y27222D01*
D02*
G37*
G36*
X5754D02*
X5408D01*
Y26876D01*
X5754D01*
Y27222D01*
D02*
G37*
G36*
X5308D02*
X4963D01*
Y26876D01*
X5308D01*
Y27222D01*
D02*
G37*
G36*
X12358Y26771D02*
X12229Y26754D01*
X12108Y26704D01*
X12005Y26625D01*
X11926Y26521D01*
X11885Y26424D01*
X11831D01*
X11791Y26521D01*
X11711Y26625D01*
X11608Y26704D01*
X11488Y26754D01*
X11358Y26771D01*
X11229Y26754D01*
X11108Y26704D01*
X11005Y26625D01*
X10926Y26521D01*
X10885Y26424D01*
X10831D01*
X10791Y26521D01*
X10711Y26625D01*
X10608Y26704D01*
X10488Y26754D01*
X10358Y26771D01*
X10229Y26754D01*
X10108Y26704D01*
X10005Y26625D01*
X9926Y26521D01*
X9885Y26424D01*
X9831D01*
X9791Y26521D01*
X9711Y26625D01*
X9608Y26704D01*
X9488Y26754D01*
X9358Y26771D01*
X9229Y26754D01*
X9108Y26704D01*
X9005Y26625D01*
X8926Y26521D01*
X8885Y26424D01*
X8831D01*
X8791Y26521D01*
X8712Y26625D01*
X8608Y26704D01*
X8488Y26754D01*
X8358Y26771D01*
X8229Y26754D01*
X8108Y26704D01*
X8005Y26625D01*
X7926Y26521D01*
X7885Y26424D01*
X7831D01*
X7791Y26521D01*
X7711Y26625D01*
X7608Y26704D01*
X7488Y26754D01*
X7358Y26771D01*
X7229Y26754D01*
X7108Y26704D01*
X7005Y26625D01*
X6926Y26521D01*
X6885Y26424D01*
X6831D01*
X6791Y26521D01*
X6712Y26625D01*
X6608Y26704D01*
X6488Y26754D01*
X6358Y26771D01*
X6229Y26754D01*
X6108Y26704D01*
X6005Y26625D01*
X5926Y26521D01*
X5885Y26424D01*
X5831D01*
X5791Y26521D01*
X5712Y26625D01*
X5608Y26704D01*
X5488Y26754D01*
X5358Y26771D01*
X5229Y26754D01*
X5108Y26704D01*
X5005Y26625D01*
X4926Y26521D01*
X4876Y26401D01*
X4859Y26272D01*
X4876Y26142D01*
X4926Y26022D01*
X5005Y25918D01*
X5108Y25839D01*
X5229Y25789D01*
X5358Y25772D01*
X5488Y25789D01*
X5608Y25839D01*
X5712Y25918D01*
X5791Y26022D01*
X5831Y26119D01*
X5885D01*
X5926Y26022D01*
X6005Y25918D01*
X6108Y25839D01*
X6229Y25789D01*
X6358Y25772D01*
X6488Y25789D01*
X6608Y25839D01*
X6712Y25918D01*
X6791Y26022D01*
X6831Y26119D01*
X6885D01*
X6926Y26022D01*
X7005Y25918D01*
X7108Y25839D01*
X7229Y25789D01*
X7358Y25772D01*
X7488Y25789D01*
X7608Y25839D01*
X7711Y25918D01*
X7791Y26022D01*
X7831Y26119D01*
X7885D01*
X7926Y26022D01*
X8005Y25918D01*
X8108Y25839D01*
X8229Y25789D01*
X8358Y25772D01*
X8488Y25789D01*
X8608Y25839D01*
X8712Y25918D01*
X8791Y26022D01*
X8831Y26119D01*
X8885D01*
X8926Y26022D01*
X9005Y25918D01*
X9108Y25839D01*
X9229Y25789D01*
X9358Y25772D01*
X9488Y25789D01*
X9608Y25839D01*
X9711Y25918D01*
X9791Y26022D01*
X9831Y26119D01*
X9885D01*
X9926Y26022D01*
X10005Y25918D01*
X10108Y25839D01*
X10229Y25789D01*
X10358Y25772D01*
X10488Y25789D01*
X10608Y25839D01*
X10711Y25918D01*
X10791Y26022D01*
X10831Y26119D01*
X10885D01*
X10926Y26022D01*
X11005Y25918D01*
X11108Y25839D01*
X11229Y25789D01*
X11358Y25772D01*
X11488Y25789D01*
X11608Y25839D01*
X11711Y25918D01*
X11791Y26022D01*
X11831Y26119D01*
X11885D01*
X11926Y26022D01*
X12005Y25918D01*
X12108Y25839D01*
X12229Y25789D01*
X12358Y25772D01*
X12488Y25789D01*
X12608Y25839D01*
X12711Y25918D01*
X12791Y26022D01*
X12841Y26142D01*
X12858Y26272D01*
X12841Y26401D01*
X12791Y26521D01*
X12711Y26625D01*
X12608Y26704D01*
X12488Y26754D01*
X12358Y26771D01*
D02*
G37*
G36*
X13300Y23346D02*
Y23050D01*
X13596D01*
X13591Y23091D01*
X13556Y23177D01*
X13500Y23250D01*
X13427Y23306D01*
X13341Y23341D01*
X13300Y23346D01*
D02*
G37*
G36*
X13200D02*
X13159Y23341D01*
X13073Y23306D01*
X13000Y23250D01*
X12944Y23177D01*
X12909Y23091D01*
X12904Y23050D01*
X13200D01*
Y23346D01*
D02*
G37*
G36*
X13596Y22950D02*
X13300D01*
Y22654D01*
X13341Y22659D01*
X13427Y22694D01*
X13500Y22750D01*
X13556Y22823D01*
X13591Y22909D01*
X13596Y22950D01*
D02*
G37*
G36*
X13200D02*
X12904D01*
X12909Y22909D01*
X12944Y22823D01*
X13000Y22750D01*
X13073Y22694D01*
X13159Y22659D01*
X13200Y22654D01*
Y22950D01*
D02*
G37*
G36*
X13300Y22346D02*
Y22050D01*
X13596D01*
X13591Y22091D01*
X13556Y22177D01*
X13500Y22250D01*
X13427Y22306D01*
X13341Y22341D01*
X13300Y22346D01*
D02*
G37*
G36*
X13200D02*
X13159Y22341D01*
X13073Y22306D01*
X13000Y22250D01*
X12944Y22177D01*
X12909Y22091D01*
X12904Y22050D01*
X13200D01*
Y22346D01*
D02*
G37*
G36*
X13596Y21950D02*
X13300D01*
Y21654D01*
X13341Y21659D01*
X13427Y21694D01*
X13500Y21750D01*
X13556Y21823D01*
X13591Y21909D01*
X13596Y21950D01*
D02*
G37*
G36*
X13200D02*
X12904D01*
X12909Y21909D01*
X12944Y21823D01*
X13000Y21750D01*
X13073Y21694D01*
X13159Y21659D01*
X13200Y21654D01*
Y21950D01*
D02*
G37*
G36*
X8073Y21204D02*
X8073Y21204D01*
X8073Y21204D01*
X3784D01*
X3784Y21204D01*
X3784Y21204D01*
X3744Y21196D01*
X3706Y21188D01*
X3706Y21188D01*
X3706Y21188D01*
X3674Y21167D01*
X3640Y21144D01*
X3640Y21144D01*
X3639Y21144D01*
X3604Y21109D01*
X3604Y21109D01*
X3604Y21109D01*
X3579Y21071D01*
X3560Y21043D01*
X3560Y21043D01*
X3560Y21043D01*
X3552Y21002D01*
X3544Y20965D01*
X3544Y20965D01*
X3544Y20965D01*
X3548Y10750D01*
X3556Y10711D01*
X3563Y10672D01*
X3563Y10672D01*
X3563Y10672D01*
X3586Y10639D01*
X3608Y10606D01*
X3608Y10606D01*
X3608Y10606D01*
X3641Y10584D01*
X3674Y10562D01*
X3674Y10562D01*
X3674Y10562D01*
X3713Y10554D01*
X3752Y10546D01*
X5274D01*
X7904Y7916D01*
Y4704D01*
X6750D01*
X6672Y4688D01*
X6606Y4644D01*
X6106Y4144D01*
X6062Y4078D01*
X6046Y4000D01*
Y2536D01*
X6062Y2458D01*
X6106Y2392D01*
X6172Y2347D01*
X6250Y2332D01*
X6450D01*
X6475Y2282D01*
X6426Y2218D01*
X6376Y2098D01*
X6359Y1969D01*
X6376Y1839D01*
X6426Y1719D01*
X6505Y1615D01*
X6608Y1536D01*
X6729Y1486D01*
X6858Y1469D01*
X6988Y1486D01*
X7108Y1536D01*
X7211Y1615D01*
X7291Y1719D01*
X7331Y1816D01*
X7385D01*
X7426Y1719D01*
X7505Y1615D01*
X7608Y1536D01*
X7729Y1486D01*
X7858Y1469D01*
X7988Y1486D01*
X8108Y1536D01*
X8212Y1615D01*
X8291Y1719D01*
X8331Y1816D01*
X8385D01*
X8426Y1719D01*
X8505Y1615D01*
X8608Y1536D01*
X8729Y1486D01*
X8858Y1469D01*
X8988Y1486D01*
X9108Y1536D01*
X9212Y1615D01*
X9291Y1719D01*
X9331Y1816D01*
X9385D01*
X9426Y1719D01*
X9505Y1615D01*
X9608Y1536D01*
X9729Y1486D01*
X9858Y1469D01*
X9988Y1486D01*
X10108Y1536D01*
X10211Y1615D01*
X10291Y1719D01*
X10313Y1772D01*
X10363Y1762D01*
Y1473D01*
X11354D01*
Y2332D01*
X11500D01*
X11578Y2347D01*
X11644Y2392D01*
X11688Y2458D01*
X11704Y2536D01*
Y4500D01*
X11688Y4578D01*
X11644Y4644D01*
X11062Y5226D01*
Y8916D01*
X12268Y10121D01*
X12282Y10143D01*
X12300Y10163D01*
X12304Y10176D01*
X12312Y10187D01*
X12317Y10213D01*
X12326Y10238D01*
X12325Y10252D01*
X12328Y10265D01*
X12365Y10311D01*
X12367Y10312D01*
X12477Y10357D01*
X12571Y10429D01*
X14071Y11929D01*
X14143Y12023D01*
X14188Y12133D01*
X14204Y12250D01*
Y17250D01*
X14188Y17367D01*
X14143Y17477D01*
X14071Y17571D01*
X13977Y17643D01*
X13867Y17688D01*
X13750Y17704D01*
X13633Y17688D01*
X13523Y17643D01*
X13429Y17571D01*
X13357Y17477D01*
X13312Y17367D01*
X13296Y17250D01*
Y12438D01*
X12658Y11800D01*
X12612Y11819D01*
Y18250D01*
X12597Y18328D01*
X12552Y18394D01*
X12486Y18438D01*
X12408Y18454D01*
X10750D01*
X10672Y18438D01*
X10606Y18394D01*
X10562Y18328D01*
X10546Y18250D01*
Y11704D01*
X8347D01*
X8312Y11739D01*
X8313Y19145D01*
X8363Y19178D01*
X8409Y19159D01*
X8450Y19154D01*
Y19500D01*
Y19846D01*
X8409Y19841D01*
X8363Y19822D01*
X8313Y19855D01*
X8313Y20965D01*
X8313Y20965D01*
X8313Y20965D01*
X8305Y21003D01*
X8297Y21043D01*
X8297Y21043D01*
X8297Y21043D01*
X8275Y21076D01*
X8253Y21109D01*
X8253Y21109D01*
X8253Y21109D01*
X8218Y21144D01*
X8218Y21144D01*
X8218Y21144D01*
X8187Y21164D01*
X8151Y21188D01*
X8151Y21188D01*
X8151Y21188D01*
X8117Y21195D01*
X8073Y21204D01*
D02*
G37*
G36*
X12300Y19846D02*
Y19550D01*
X12596D01*
X12591Y19591D01*
X12556Y19677D01*
X12500Y19750D01*
X12427Y19806D01*
X12341Y19841D01*
X12300Y19846D01*
D02*
G37*
G36*
X12200D02*
X12159Y19841D01*
X12073Y19806D01*
X12000Y19750D01*
X11944Y19677D01*
X11909Y19591D01*
X11904Y19550D01*
X12200D01*
Y19846D01*
D02*
G37*
G36*
X8550D02*
Y19550D01*
X8846D01*
X8841Y19591D01*
X8806Y19677D01*
X8750Y19750D01*
X8677Y19806D01*
X8591Y19841D01*
X8550Y19846D01*
D02*
G37*
G36*
X12596Y19450D02*
X12300D01*
Y19154D01*
X12341Y19159D01*
X12427Y19194D01*
X12500Y19250D01*
X12556Y19323D01*
X12591Y19409D01*
X12596Y19450D01*
D02*
G37*
G36*
X12200D02*
X11904D01*
X11909Y19409D01*
X11944Y19323D01*
X12000Y19250D01*
X12073Y19194D01*
X12159Y19159D01*
X12200Y19154D01*
Y19450D01*
D02*
G37*
G36*
X8846D02*
X8550D01*
Y19154D01*
X8591Y19159D01*
X8677Y19194D01*
X8750Y19250D01*
X8806Y19323D01*
X8841Y19409D01*
X8846Y19450D01*
D02*
G37*
G36*
X15800Y16846D02*
Y16550D01*
X16096D01*
X16091Y16591D01*
X16056Y16677D01*
X16000Y16750D01*
X15927Y16806D01*
X15841Y16841D01*
X15800Y16846D01*
D02*
G37*
G36*
X15700D02*
X15659Y16841D01*
X15573Y16806D01*
X15500Y16750D01*
X15444Y16677D01*
X15409Y16591D01*
X15404Y16550D01*
X15700D01*
Y16846D01*
D02*
G37*
G36*
X9908D02*
Y16550D01*
X10205D01*
X10199Y16591D01*
X10164Y16677D01*
X10108Y16750D01*
X10035Y16806D01*
X9950Y16841D01*
X9908Y16846D01*
D02*
G37*
G36*
X9808D02*
X9767Y16841D01*
X9682Y16806D01*
X9609Y16750D01*
X9553Y16677D01*
X9517Y16591D01*
X9512Y16550D01*
X9808D01*
Y16846D01*
D02*
G37*
G36*
X16096Y16450D02*
X15800D01*
Y16154D01*
X15841Y16159D01*
X15927Y16194D01*
X16000Y16250D01*
X16056Y16323D01*
X16091Y16409D01*
X16096Y16450D01*
D02*
G37*
G36*
X15700D02*
X15404D01*
X15409Y16409D01*
X15444Y16323D01*
X15500Y16250D01*
X15573Y16194D01*
X15659Y16159D01*
X15700Y16154D01*
Y16450D01*
D02*
G37*
G36*
X10205D02*
X9908D01*
Y16154D01*
X9950Y16159D01*
X10035Y16194D01*
X10108Y16250D01*
X10164Y16323D01*
X10199Y16409D01*
X10205Y16450D01*
D02*
G37*
G36*
X9808D02*
X9512D01*
X9517Y16409D01*
X9553Y16323D01*
X9609Y16250D01*
X9682Y16194D01*
X9767Y16159D01*
X9808Y16154D01*
Y16450D01*
D02*
G37*
G36*
X10100Y15096D02*
Y14800D01*
X10396D01*
X10391Y14841D01*
X10356Y14927D01*
X10300Y15000D01*
X10227Y15056D01*
X10141Y15091D01*
X10100Y15096D01*
D02*
G37*
G36*
X10000D02*
X9959Y15091D01*
X9873Y15056D01*
X9800Y15000D01*
X9744Y14927D01*
X9709Y14841D01*
X9704Y14800D01*
X10000D01*
Y15096D01*
D02*
G37*
G36*
X9300D02*
Y14800D01*
X9596D01*
X9591Y14841D01*
X9556Y14927D01*
X9500Y15000D01*
X9427Y15056D01*
X9341Y15091D01*
X9300Y15096D01*
D02*
G37*
G36*
X9200D02*
X9159Y15091D01*
X9073Y15056D01*
X9000Y15000D01*
X8944Y14927D01*
X8909Y14841D01*
X8904Y14800D01*
X9200D01*
Y15096D01*
D02*
G37*
G36*
X10396Y14700D02*
X10100D01*
Y14404D01*
X10141Y14409D01*
X10227Y14444D01*
X10300Y14500D01*
X10356Y14573D01*
X10391Y14659D01*
X10396Y14700D01*
D02*
G37*
G36*
X10000D02*
X9704D01*
X9709Y14659D01*
X9744Y14573D01*
X9800Y14500D01*
X9873Y14444D01*
X9959Y14409D01*
X10000Y14404D01*
Y14700D01*
D02*
G37*
G36*
X9596D02*
X9300D01*
Y14404D01*
X9341Y14409D01*
X9427Y14444D01*
X9500Y14500D01*
X9556Y14573D01*
X9591Y14659D01*
X9596Y14700D01*
D02*
G37*
G36*
X9200D02*
X8904D01*
X8909Y14659D01*
X8944Y14573D01*
X9000Y14500D01*
X9073Y14444D01*
X9159Y14409D01*
X9200Y14404D01*
Y14700D01*
D02*
G37*
G36*
X10100Y13096D02*
Y12800D01*
X10396D01*
X10391Y12841D01*
X10356Y12927D01*
X10300Y13000D01*
X10227Y13056D01*
X10141Y13091D01*
X10100Y13096D01*
D02*
G37*
G36*
X10000D02*
X9959Y13091D01*
X9873Y13056D01*
X9800Y13000D01*
X9744Y12927D01*
X9709Y12841D01*
X9704Y12800D01*
X10000D01*
Y13096D01*
D02*
G37*
G36*
X9300D02*
Y12800D01*
X9596D01*
X9591Y12841D01*
X9556Y12927D01*
X9500Y13000D01*
X9427Y13056D01*
X9341Y13091D01*
X9300Y13096D01*
D02*
G37*
G36*
X9200D02*
X9159Y13091D01*
X9073Y13056D01*
X9000Y13000D01*
X8944Y12927D01*
X8909Y12841D01*
X8904Y12800D01*
X9200D01*
Y13096D01*
D02*
G37*
G36*
X10396Y12700D02*
X10100D01*
Y12404D01*
X10141Y12409D01*
X10227Y12444D01*
X10300Y12500D01*
X10356Y12573D01*
X10391Y12659D01*
X10396Y12700D01*
D02*
G37*
G36*
X10000D02*
X9704D01*
X9709Y12659D01*
X9744Y12573D01*
X9800Y12500D01*
X9873Y12444D01*
X9959Y12409D01*
X10000Y12404D01*
Y12700D01*
D02*
G37*
G36*
X9596D02*
X9300D01*
Y12404D01*
X9341Y12409D01*
X9427Y12444D01*
X9500Y12500D01*
X9556Y12573D01*
X9591Y12659D01*
X9596Y12700D01*
D02*
G37*
G36*
X9200D02*
X8904D01*
X8909Y12659D01*
X8944Y12573D01*
X9000Y12500D01*
X9073Y12444D01*
X9159Y12409D01*
X9200Y12404D01*
Y12700D01*
D02*
G37*
G36*
X4300Y7498D02*
Y7050D01*
X4748D01*
X4737Y7131D01*
X4687Y7252D01*
X4607Y7357D01*
X4502Y7437D01*
X4381Y7487D01*
X4300Y7498D01*
D02*
G37*
G36*
X4200Y7498D02*
X4119Y7487D01*
X3998Y7437D01*
X3893Y7357D01*
X3813Y7252D01*
X3763Y7131D01*
X3752Y7050D01*
X4200D01*
Y7498D01*
D02*
G37*
G36*
X12050Y6846D02*
Y6550D01*
X12346D01*
X12341Y6591D01*
X12306Y6677D01*
X12250Y6750D01*
X12177Y6806D01*
X12091Y6841D01*
X12050Y6846D01*
D02*
G37*
G36*
X11950D02*
X11909Y6841D01*
X11823Y6806D01*
X11750Y6750D01*
X11694Y6677D01*
X11659Y6591D01*
X11654Y6550D01*
X11950D01*
Y6846D01*
D02*
G37*
G36*
X4748Y6950D02*
X4300D01*
Y6502D01*
X4381Y6513D01*
X4502Y6563D01*
X4607Y6643D01*
X4687Y6748D01*
X4737Y6869D01*
X4748Y6950D01*
D02*
G37*
G36*
X4200D02*
X3752D01*
X3763Y6869D01*
X3813Y6748D01*
X3893Y6643D01*
X3998Y6563D01*
X4119Y6513D01*
X4200Y6502D01*
Y6950D01*
D02*
G37*
G36*
X6711Y7603D02*
X6593Y7591D01*
X6480Y7557D01*
X6376Y7501D01*
X6284Y7426D01*
X6209Y7335D01*
X6153Y7231D01*
X6119Y7118D01*
X6108Y7000D01*
X6119Y6882D01*
X6153Y6769D01*
X6209Y6665D01*
X6284Y6574D01*
X6376Y6499D01*
X6480Y6443D01*
X6593Y6409D01*
X6711Y6397D01*
X6828Y6409D01*
X6941Y6443D01*
X7045Y6499D01*
X7137Y6574D01*
X7212Y6665D01*
X7268Y6769D01*
X7302Y6882D01*
X7313Y7000D01*
X7302Y7118D01*
X7268Y7231D01*
X7212Y7335D01*
X7137Y7426D01*
X7045Y7501D01*
X6941Y7557D01*
X6828Y7591D01*
X6711Y7603D01*
D02*
G37*
G36*
X12346Y6450D02*
X12050D01*
Y6154D01*
X12091Y6159D01*
X12177Y6194D01*
X12250Y6250D01*
X12306Y6323D01*
X12341Y6409D01*
X12346Y6450D01*
D02*
G37*
G36*
X11950D02*
X11654D01*
X11659Y6409D01*
X11694Y6323D01*
X11750Y6250D01*
X11823Y6194D01*
X11909Y6159D01*
X11950Y6154D01*
Y6450D01*
D02*
G37*
G36*
X12058Y5846D02*
Y5550D01*
X12355D01*
X12349Y5591D01*
X12314Y5677D01*
X12258Y5750D01*
X12185Y5806D01*
X12100Y5841D01*
X12058Y5846D01*
D02*
G37*
G36*
X11958D02*
X11917Y5841D01*
X11832Y5806D01*
X11759Y5750D01*
X11703Y5677D01*
X11667Y5591D01*
X11662Y5550D01*
X11958D01*
Y5846D01*
D02*
G37*
G36*
X5580Y5628D02*
Y5180D01*
X6027D01*
X6017Y5261D01*
X5966Y5382D01*
X5886Y5487D01*
X5782Y5567D01*
X5660Y5617D01*
X5580Y5628D01*
D02*
G37*
G36*
X5480Y5628D02*
X5399Y5617D01*
X5277Y5567D01*
X5173Y5487D01*
X5093Y5382D01*
X5042Y5261D01*
X5032Y5180D01*
X5480D01*
Y5628D01*
D02*
G37*
G36*
X12355Y5450D02*
X12058D01*
Y5154D01*
X12100Y5159D01*
X12185Y5194D01*
X12258Y5250D01*
X12314Y5323D01*
X12349Y5409D01*
X12355Y5450D01*
D02*
G37*
G36*
X11958D02*
X11662D01*
X11667Y5409D01*
X11703Y5323D01*
X11759Y5250D01*
X11832Y5194D01*
X11917Y5159D01*
X11958Y5154D01*
Y5450D01*
D02*
G37*
G36*
X5480Y5080D02*
X5032D01*
X5042Y4999D01*
X5093Y4878D01*
X5173Y4773D01*
X5277Y4693D01*
X5399Y4643D01*
X5480Y4632D01*
Y5080D01*
D02*
G37*
G36*
X6027D02*
X5580D01*
Y4632D01*
X5660Y4643D01*
X5782Y4693D01*
X5886Y4773D01*
X5966Y4878D01*
X6017Y4999D01*
X6027Y5080D01*
D02*
G37*
%LPD*%
G36*
X8109Y20965D02*
X8109Y19729D01*
X8107Y19727D01*
X8062Y19617D01*
X8046Y19500D01*
X8062Y19383D01*
X8107Y19273D01*
X8109Y19271D01*
X8108Y11500D01*
X10750D01*
Y18250D01*
X12408D01*
Y11550D01*
X11929Y11071D01*
X11857Y10977D01*
X11812Y10867D01*
X11796Y10750D01*
X11812Y10633D01*
X11857Y10523D01*
X11929Y10429D01*
X12023Y10357D01*
X12109Y10321D01*
X12124Y10265D01*
X10858Y9000D01*
Y5142D01*
X11500Y4500D01*
Y2536D01*
X6250D01*
Y4000D01*
X6750Y4500D01*
X8108D01*
Y8000D01*
X5358Y10750D01*
X3752D01*
X3748Y20965D01*
X3784Y21000D01*
X8073D01*
X8109Y20965D01*
D02*
G37*
D10*
X0Y0D02*
X17717D01*
Y29528D01*
X0D02*
X17717D01*
X0Y0D02*
Y29528D01*
D38*
X13750Y12250D02*
Y17250D01*
X12250Y10750D02*
X13750Y12250D01*
D44*
X5358Y27272D02*
D03*
X10858Y1969D02*
D03*
D45*
X5358Y26272D02*
D03*
X6358Y27272D02*
D03*
Y26272D02*
D03*
X7358Y27272D02*
D03*
Y26272D02*
D03*
X8358Y27272D02*
D03*
Y26272D02*
D03*
X9358Y27272D02*
D03*
Y26272D02*
D03*
X10358Y27272D02*
D03*
Y26272D02*
D03*
X11358Y27272D02*
D03*
Y26272D02*
D03*
X12358Y27272D02*
D03*
Y26272D02*
D03*
X10858Y2968D02*
D03*
X9858Y1969D02*
D03*
Y2968D02*
D03*
X8858Y1969D02*
D03*
Y2968D02*
D03*
X7858Y1969D02*
D03*
Y2968D02*
D03*
X6858Y1969D02*
D03*
Y2968D02*
D03*
D46*
X5530Y5130D02*
D03*
X4250Y7000D02*
D03*
X6711D02*
D03*
D47*
X12250Y10750D02*
D03*
X13750Y17250D02*
D03*
X8500Y19500D02*
D03*
X12250D02*
D03*
X13250Y23000D02*
D03*
Y22000D02*
D03*
X12000Y17500D02*
D03*
X8250Y11000D02*
D03*
X10858D02*
D03*
X12000Y15750D02*
D03*
X4250Y20500D02*
D03*
Y19500D02*
D03*
X15750Y16500D02*
D03*
X9250Y12750D02*
D03*
X10050D02*
D03*
X9250Y14750D02*
D03*
X10050D02*
D03*
X9858Y16500D02*
D03*
X12000Y6500D02*
D03*
X12008Y5500D02*
D03*
M02*
