G04*
G04 #@! TF.GenerationSoftware,Altium Limited,Altium Designer,18.1.6 (161)*
G04*
G04 Layer_Physical_Order=1*
G04 Layer_Color=255*
%FSLAX24Y24*%
%MOIN*%
G70*
G01*
G75*
%ADD10C,0.0100*%
%ADD14C,0.0200*%
%ADD17R,0.1654X0.1024*%
%ADD28R,0.1400X0.1000*%
%ADD29R,0.1200X0.3000*%
%ADD30O,0.0200X0.0400*%
%ADD31R,0.0551X0.0591*%
%ADD32R,0.0300X0.0800*%
%ADD33O,0.0300X0.0800*%
%ADD34R,0.0591X0.0551*%
%ADD35R,0.1000X0.0750*%
%ADD36C,0.0250*%
%ADD37C,0.0600*%
%ADD38C,0.0500*%
%ADD39C,0.0300*%
%ADD40C,0.1000*%
%ADD41C,0.0700*%
%ADD42C,0.0550*%
%ADD43C,0.0750*%
%ADD44R,0.0591X0.0591*%
%ADD45C,0.0591*%
%ADD46C,0.0800*%
%ADD47C,0.0500*%
G36*
X13502Y7500D02*
X13506Y7496D01*
X13517Y7409D01*
X13553Y7323D01*
X13609Y7250D01*
X13682Y7194D01*
X13767Y7159D01*
X13854Y7147D01*
X13896Y7106D01*
X14000D01*
Y2968D01*
X12531Y1500D01*
X6250D01*
Y2500D01*
X6695D01*
X6729Y2486D01*
X6858Y2469D01*
X6988Y2486D01*
X7021Y2500D01*
X7695D01*
X7729Y2486D01*
X7858Y2469D01*
X7988Y2486D01*
X8021Y2500D01*
X8695D01*
X8729Y2486D01*
X8858Y2469D01*
X8988Y2486D01*
X9021Y2500D01*
X9695D01*
X9729Y2486D01*
X9858Y2469D01*
X9988Y2486D01*
X10021Y2500D01*
X10695D01*
X10729Y2486D01*
X10858Y2469D01*
X10988Y2486D01*
X11021Y2500D01*
X12008D01*
Y3750D01*
X8644D01*
X7644Y4750D01*
X6250Y6000D01*
X5750Y6500D01*
Y7750D01*
X6250Y8250D01*
X9358D01*
Y5192D01*
X10050Y4500D01*
X13000D01*
X13250Y4750D01*
Y7000D01*
X13168Y7082D01*
X13199Y7159D01*
X13211Y7250D01*
Y7750D01*
Y8000D01*
Y8250D01*
X13502D01*
Y7500D01*
D02*
G37*
G36*
X10699Y16997D02*
X10751Y16929D01*
X10819Y16877D01*
X10858Y16860D01*
Y16749D01*
X10808Y16728D01*
X10741Y16773D01*
X10644Y16792D01*
X10546Y16773D01*
X10463Y16718D01*
X10426Y16680D01*
X10371Y16598D01*
X10351Y16500D01*
X10371Y16402D01*
X10426Y16320D01*
X10509Y16264D01*
X10606Y16245D01*
X10704Y16264D01*
X10787Y16320D01*
X10808Y16341D01*
X10858Y16321D01*
Y12250D01*
X8750D01*
Y17035D01*
X10683D01*
X10699Y16997D01*
D02*
G37*
G36*
X13780Y26700D02*
X13748Y26687D01*
X13643Y26607D01*
X13563Y26502D01*
X13513Y26381D01*
X13496Y26250D01*
X13513Y26119D01*
X13563Y25998D01*
X13643Y25893D01*
X13741Y25796D01*
X13721Y25750D01*
X5000D01*
X4250Y25000D01*
Y23250D01*
X4642Y22858D01*
X4750Y22750D01*
Y21250D01*
X3250D01*
Y26750D01*
X13770D01*
X13780Y26700D01*
D02*
G37*
%LPC*%
G36*
X12358Y26527D02*
X12261Y26507D01*
X12178Y26452D01*
X12123Y26369D01*
X12103Y26272D01*
X12123Y26174D01*
X12178Y26091D01*
X12200Y26070D01*
X12282Y26014D01*
X12380Y25995D01*
X12477Y26014D01*
X12560Y26070D01*
X12615Y26152D01*
X12635Y26250D01*
X12615Y26348D01*
X12560Y26430D01*
X12539Y26452D01*
X12456Y26507D01*
X12358Y26527D01*
D02*
G37*
%LPD*%
D10*
X13287Y16500D02*
Y16787D01*
X8250Y21750D02*
X8500Y22000D01*
X12358Y26272D02*
X12380Y26250D01*
X6856Y18752D02*
X7358Y18250D01*
X5750Y20644D02*
X5894Y20500D01*
X5106D02*
X5250Y20644D01*
X14750Y7500D02*
X15250Y7000D01*
X15037Y7323D02*
X15500Y7786D01*
X10606Y19500D02*
X10608Y19498D01*
X11358Y19465D02*
X11394Y19500D01*
X10606Y16500D02*
X10644Y16537D01*
X11358Y17500D02*
X11394Y17465D01*
X14708Y13750D02*
X14750Y13708D01*
X13150Y11250D02*
X13358Y11042D01*
X14608Y7000D02*
X15250D01*
X0Y0D02*
X17717D01*
Y29528D01*
X0D02*
X17717D01*
X0Y0D02*
Y29528D01*
D14*
X11358Y18600D02*
Y19465D01*
Y17500D02*
Y17892D01*
X11250Y18000D02*
X11358Y17892D01*
X10750Y18000D02*
X11250D01*
X10608Y17858D02*
X10750Y18000D01*
X10608Y17500D02*
Y17858D01*
X11394Y16500D02*
Y17465D01*
D17*
X8500Y7000D02*
D03*
X3750Y4250D02*
D03*
X10858Y7750D02*
D03*
X14000Y26250D02*
D03*
X15037Y7323D02*
D03*
X5106Y13750D02*
D03*
X7358Y18250D02*
D03*
X8250Y22000D02*
D03*
Y23250D02*
D03*
D28*
X10050Y13750D02*
D03*
X7450D02*
D03*
D29*
X14708D02*
D03*
X12008D02*
D03*
D30*
X10608Y17500D02*
D03*
X10983D02*
D03*
X11358D02*
D03*
X10608Y18600D02*
D03*
X11358D02*
D03*
D31*
X9856Y23000D02*
D03*
X10644D02*
D03*
X9856Y22000D02*
D03*
X10644D02*
D03*
X13287Y16500D02*
D03*
X12500D02*
D03*
X15037D02*
D03*
X14250D02*
D03*
X5894Y19500D02*
D03*
X5106D02*
D03*
X7644D02*
D03*
X6856D02*
D03*
X11606Y22000D02*
D03*
X12394D02*
D03*
X11606Y23000D02*
D03*
X12394D02*
D03*
X11394Y16500D02*
D03*
X10606D02*
D03*
X13502Y6500D02*
D03*
X12715D02*
D03*
X13502Y5500D02*
D03*
X12715D02*
D03*
X10606Y19500D02*
D03*
X11394D02*
D03*
X5106Y20500D02*
D03*
X5894D02*
D03*
D32*
X13858Y9950D02*
D03*
X4750Y21500D02*
D03*
D33*
X13358Y9950D02*
D03*
X12858D02*
D03*
X12358D02*
D03*
X13858Y7750D02*
D03*
X13358D02*
D03*
X12858D02*
D03*
X12358D02*
D03*
X5250Y21500D02*
D03*
X5750D02*
D03*
X6250D02*
D03*
X4750Y23700D02*
D03*
X5250D02*
D03*
X5750D02*
D03*
X6250D02*
D03*
D34*
X14750Y8356D02*
D03*
Y9144D02*
D03*
D35*
Y11250D02*
D03*
X13150D02*
D03*
D36*
X10606Y16500D02*
Y16783D01*
X10983Y17160D01*
X5750Y20644D02*
Y21500D01*
X10983Y17160D02*
Y17500D01*
D37*
X14000Y26250D02*
X14750Y25500D01*
Y21000D02*
Y25500D01*
X14250Y20500D02*
X14750Y21000D01*
X11000Y20500D02*
X14250D01*
X10606Y20106D02*
X11000Y20500D01*
X10606Y19500D02*
Y20106D01*
X5106Y13750D02*
Y19500D01*
X10608Y18600D02*
Y19498D01*
D38*
X13287Y16787D02*
X13750Y17250D01*
X13287Y16500D02*
X14250D01*
X8250Y23000D02*
X9856D01*
X6856Y18752D02*
Y19500D01*
X5894Y20500D02*
X7250D01*
X7644Y20106D01*
Y19500D02*
Y20106D01*
X5894Y19500D02*
X6856D01*
X7644D02*
X8500D01*
X11394D02*
X12250D01*
X8500Y22000D02*
X9856D01*
X10644D02*
X11606D01*
X10644Y23000D02*
X11606D01*
X12394D02*
X13250D01*
X12394Y22000D02*
X13250D01*
X4250Y20500D02*
X5106D01*
X4250Y19500D02*
X5106D01*
Y20500D01*
X15037Y16500D02*
X15750D01*
X15500Y7786D02*
Y10500D01*
X14750Y11250D02*
X15500Y10500D01*
X12008Y5500D02*
X12715D01*
X12000Y6500D02*
X12715D01*
X11394Y16500D02*
X12500D01*
Y16000D02*
Y16500D01*
X12008Y15508D02*
X12500Y16000D01*
X12008Y13750D02*
Y15508D01*
X12715Y5500D02*
Y6500D01*
D39*
X12250Y10750D02*
X12358Y10642D01*
Y9950D02*
Y10642D01*
X6250Y22858D02*
Y23700D01*
Y22858D02*
X7108Y22000D01*
X8250D01*
X5250Y23700D02*
Y24392D01*
X5608Y24750D01*
X7500D01*
X8250Y24000D01*
Y23250D02*
Y24000D01*
X7000Y21500D02*
X7500Y21000D01*
X8250D01*
X6250Y21500D02*
X7000D01*
X7358Y18250D02*
X8858D01*
X9250Y18642D01*
Y20000D01*
X8250Y21000D02*
X9250Y20000D01*
X11358Y17500D02*
X12000D01*
X5250Y20644D02*
Y21500D01*
X13358Y9950D02*
Y11042D01*
X12858Y9950D02*
X13358D01*
X12858Y7750D02*
Y9950D01*
X10858Y7750D02*
X12358D01*
X13858D02*
X14608Y7000D01*
X13858Y9950D02*
X14500D01*
X14750Y9700D01*
Y9144D02*
Y9700D01*
X12858Y7250D02*
Y7750D01*
X12715Y7106D02*
X12858Y7250D01*
X12715Y6500D02*
Y7106D01*
D40*
X7450Y11658D02*
Y13750D01*
Y11658D02*
X8108Y11000D01*
X11000D01*
X12008Y12008D01*
Y13750D01*
X5106D02*
X7450D01*
D41*
X14750Y11250D02*
Y13708D01*
D42*
Y7500D02*
Y8356D01*
D43*
X3750Y4250D02*
X4649D01*
X5530Y5130D01*
D44*
X5358Y27272D02*
D03*
X10858Y1969D02*
D03*
D45*
X5358Y26272D02*
D03*
X6358Y27272D02*
D03*
Y26272D02*
D03*
X7358Y27272D02*
D03*
Y26272D02*
D03*
X8358Y27272D02*
D03*
Y26272D02*
D03*
X9358Y27272D02*
D03*
Y26272D02*
D03*
X10358Y27272D02*
D03*
Y26272D02*
D03*
X11358Y27272D02*
D03*
Y26272D02*
D03*
X12358Y27272D02*
D03*
Y26272D02*
D03*
X10858Y2968D02*
D03*
X9858Y1969D02*
D03*
Y2968D02*
D03*
X8858Y1969D02*
D03*
Y2968D02*
D03*
X7858Y1969D02*
D03*
Y2968D02*
D03*
X6858Y1969D02*
D03*
Y2968D02*
D03*
D46*
X5530Y5130D02*
D03*
X4250Y7000D02*
D03*
X6711D02*
D03*
D47*
X12250Y10750D02*
D03*
X13750Y17250D02*
D03*
X8500Y19500D02*
D03*
X12250D02*
D03*
X13250Y23000D02*
D03*
Y22000D02*
D03*
X12000Y17500D02*
D03*
X8250Y11000D02*
D03*
X10858D02*
D03*
X12000Y15750D02*
D03*
X4250Y20500D02*
D03*
Y19500D02*
D03*
X15750Y16500D02*
D03*
X9250Y12750D02*
D03*
X10050D02*
D03*
X9250Y14750D02*
D03*
X10050D02*
D03*
X9858Y16500D02*
D03*
X12000Y6500D02*
D03*
X12008Y5500D02*
D03*
M02*
