G04*
G04 #@! TF.GenerationSoftware,Altium Limited,Altium Designer,18.1.6 (161)*
G04*
G04 Layer_Color=8388736*
%FSLAX24Y24*%
%MOIN*%
G70*
G01*
G75*
%ADD10C,0.0100*%
%ADD15R,0.1480X0.1080*%
%ADD16R,0.1280X0.3080*%
%ADD17R,0.1654X0.1024*%
%ADD18O,0.0280X0.0480*%
%ADD19R,0.0631X0.0671*%
%ADD20R,0.0380X0.0880*%
%ADD21O,0.0380X0.0880*%
%ADD22R,0.0671X0.0631*%
%ADD23R,0.1080X0.0830*%
%ADD24R,0.0671X0.0671*%
%ADD25C,0.0671*%
%ADD26C,0.0880*%
%ADD27C,0.0580*%
D10*
X0Y0D02*
X17717D01*
Y29528D01*
X0D02*
X17717D01*
X0Y0D02*
Y29528D01*
D15*
X10050Y13750D02*
D03*
X7450D02*
D03*
D16*
X14708D02*
D03*
X12008D02*
D03*
D17*
X8500Y7000D02*
D03*
X3750Y4250D02*
D03*
X10858Y7750D02*
D03*
X14000Y26250D02*
D03*
X15037Y7323D02*
D03*
X5106Y13750D02*
D03*
X7358Y18250D02*
D03*
X8250Y22000D02*
D03*
Y23250D02*
D03*
D18*
X10608Y17500D02*
D03*
X10983D02*
D03*
X11358D02*
D03*
X10608Y18600D02*
D03*
X11358D02*
D03*
D19*
X9856Y23000D02*
D03*
X10644D02*
D03*
X9856Y22000D02*
D03*
X10644D02*
D03*
X13287Y16500D02*
D03*
X12500D02*
D03*
X15037D02*
D03*
X14250D02*
D03*
X5894Y19500D02*
D03*
X5106D02*
D03*
X7644D02*
D03*
X6856D02*
D03*
X11606Y22000D02*
D03*
X12394D02*
D03*
X11606Y23000D02*
D03*
X12394D02*
D03*
X11394Y16500D02*
D03*
X10606D02*
D03*
X13502Y6500D02*
D03*
X12715D02*
D03*
X13502Y5500D02*
D03*
X12715D02*
D03*
X10606Y19500D02*
D03*
X11394D02*
D03*
X5106Y20500D02*
D03*
X5894D02*
D03*
D20*
X13858Y9950D02*
D03*
X4750Y21500D02*
D03*
D21*
X13358Y9950D02*
D03*
X12858D02*
D03*
X12358D02*
D03*
X13858Y7750D02*
D03*
X13358D02*
D03*
X12858D02*
D03*
X12358D02*
D03*
X5250Y21500D02*
D03*
X5750D02*
D03*
X6250D02*
D03*
X4750Y23700D02*
D03*
X5250D02*
D03*
X5750D02*
D03*
X6250D02*
D03*
D22*
X14750Y8356D02*
D03*
Y9144D02*
D03*
D23*
Y11250D02*
D03*
X13150D02*
D03*
D24*
X5358Y27272D02*
D03*
X10858Y1969D02*
D03*
D25*
X5358Y26272D02*
D03*
X6358Y27272D02*
D03*
Y26272D02*
D03*
X7358Y27272D02*
D03*
Y26272D02*
D03*
X8358Y27272D02*
D03*
Y26272D02*
D03*
X9358Y27272D02*
D03*
Y26272D02*
D03*
X10358Y27272D02*
D03*
Y26272D02*
D03*
X11358Y27272D02*
D03*
Y26272D02*
D03*
X12358Y27272D02*
D03*
Y26272D02*
D03*
X10858Y2968D02*
D03*
X9858Y1969D02*
D03*
Y2968D02*
D03*
X8858Y1969D02*
D03*
Y2968D02*
D03*
X7858Y1969D02*
D03*
Y2968D02*
D03*
X6858Y1969D02*
D03*
Y2968D02*
D03*
D26*
X5530Y5130D02*
D03*
X4250Y7000D02*
D03*
X6711D02*
D03*
D27*
X12250Y10750D02*
D03*
X13750Y17250D02*
D03*
X8500Y19500D02*
D03*
X12250D02*
D03*
X13250Y23000D02*
D03*
Y22000D02*
D03*
X12000Y17500D02*
D03*
X8250Y11000D02*
D03*
X10858D02*
D03*
X12000Y15750D02*
D03*
X4250Y20500D02*
D03*
Y19500D02*
D03*
X15750Y16500D02*
D03*
X9250Y12750D02*
D03*
X10050D02*
D03*
X9250Y14750D02*
D03*
X10050D02*
D03*
X9858Y16500D02*
D03*
X12000Y6500D02*
D03*
X12008Y5500D02*
D03*
M02*
