G04*
G04 #@! TF.GenerationSoftware,Altium Limited,Altium Designer,18.1.6 (161)*
G04*
G04 Layer_Color=128*
%FSLAX24Y24*%
%MOIN*%
G70*
G01*
G75*
%ADD10C,0.0100*%
%ADD52C,0.0020*%
D10*
X0Y0D02*
X17717D01*
Y29528D01*
X0D02*
X17717D01*
X0Y0D02*
Y29528D01*
D52*
X5181Y27272D02*
X5535D01*
X5358Y27094D02*
Y27449D01*
X5181Y26272D02*
X5535D01*
X5358Y26094D02*
Y26449D01*
X6181Y27272D02*
X6535D01*
X6358Y27094D02*
Y27449D01*
X6181Y26272D02*
X6535D01*
X6358Y26094D02*
Y26449D01*
X7181Y27272D02*
X7535D01*
X7358Y27094D02*
Y27449D01*
X7181Y26272D02*
X7535D01*
X7358Y26094D02*
Y26449D01*
X8181Y27272D02*
X8535D01*
X8358Y27094D02*
Y27449D01*
X8181Y26272D02*
X8535D01*
X8358Y26094D02*
Y26449D01*
X9181Y27272D02*
X9535D01*
X9358Y27094D02*
Y27449D01*
X9181Y26272D02*
X9535D01*
X9358Y26094D02*
Y26449D01*
X10181Y27272D02*
X10535D01*
X10358Y27094D02*
Y27449D01*
X10181Y26272D02*
X10535D01*
X10358Y26094D02*
Y26449D01*
X11181Y27272D02*
X11535D01*
X11358Y27094D02*
Y27449D01*
X11181Y26272D02*
X11535D01*
X11358Y26094D02*
Y26449D01*
X12181Y27272D02*
X12535D01*
X12358Y27094D02*
Y27449D01*
X12181Y26272D02*
X12535D01*
X12358Y26094D02*
Y26449D01*
X10681Y1969D02*
X11035D01*
X10858Y1791D02*
Y2146D01*
X10681Y2968D02*
X11035D01*
X10858Y2791D02*
Y3146D01*
X9681Y1969D02*
X10035D01*
X9858Y1791D02*
Y2146D01*
X9681Y2968D02*
X10035D01*
X9858Y2791D02*
Y3146D01*
X8681Y1969D02*
X9035D01*
X8858Y1791D02*
Y2146D01*
X8681Y2968D02*
X9035D01*
X8858Y2791D02*
Y3146D01*
X7681Y1969D02*
X8035D01*
X7858Y1791D02*
Y2146D01*
X7681Y2968D02*
X8035D01*
X7858Y2791D02*
Y3146D01*
X6681Y1969D02*
X7035D01*
X6858Y1791D02*
Y2146D01*
X6681Y2968D02*
X7035D01*
X6858Y2791D02*
Y3146D01*
X5304Y5130D02*
X5755D01*
X5530Y4905D02*
Y5355D01*
X4025Y7000D02*
X4475D01*
X4250Y6775D02*
Y7225D01*
X6485Y7000D02*
X6935D01*
X6711Y6775D02*
Y7225D01*
X12110Y10750D02*
X12390D01*
X12250Y10610D02*
Y10890D01*
X13610Y17250D02*
X13890D01*
X13750Y17110D02*
Y17390D01*
X8360Y19500D02*
X8640D01*
X8500Y19360D02*
Y19640D01*
X12110Y19500D02*
X12390D01*
X12250Y19360D02*
Y19640D01*
X13110Y23000D02*
X13390D01*
X13250Y22860D02*
Y23140D01*
X13110Y22000D02*
X13390D01*
X13250Y21860D02*
Y22140D01*
X11860Y17500D02*
X12140D01*
X12000Y17360D02*
Y17640D01*
X8110Y11000D02*
X8390D01*
X8250Y10860D02*
Y11140D01*
X10718Y11000D02*
X10998D01*
X10858Y10860D02*
Y11140D01*
X11860Y15750D02*
X12140D01*
X12000Y15610D02*
Y15890D01*
X4110Y20500D02*
X4390D01*
X4250Y20360D02*
Y20640D01*
X4110Y19500D02*
X4390D01*
X4250Y19360D02*
Y19640D01*
X15610Y16500D02*
X15890D01*
X15750Y16360D02*
Y16640D01*
X9110Y12750D02*
X9390D01*
X9250Y12610D02*
Y12890D01*
X9910Y12750D02*
X10190D01*
X10050Y12610D02*
Y12890D01*
X9110Y14750D02*
X9390D01*
X9250Y14610D02*
Y14890D01*
X9910Y14750D02*
X10190D01*
X10050Y14610D02*
Y14890D01*
X9718Y16500D02*
X9998D01*
X9858Y16360D02*
Y16640D01*
X11860Y6500D02*
X12140D01*
X12000Y6360D02*
Y6640D01*
X11868Y5500D02*
X12148D01*
X12008Y5360D02*
Y5640D01*
M02*
