M48
;Layer_Color=9474304
;FILE_FORMAT=2:4
INCH,LZ
;TYPE=PLATED
T1F00S00C0.0280
T2F00S00C0.0354
T3F00S00C0.0450
%
T01
X012008Y0055
X012Y0065
X01375Y01725
X01575Y0165
X012Y01575
Y0175
X01225Y0195
X01325Y022
Y023
X0085Y0195
X00425
Y0205
X009858Y0165
X01005Y01475
X00925
Y01275
X01005
X010858Y011
X01225Y01075
X00825Y011
T02
X006858Y001969
X007858
X008858
X009858
X010858
Y002968
X009858
X008858
X007858
X006858
X006358Y026272
X005358
Y027272
X006358
X007358
Y026272
X008358
Y027272
X009358
Y026272
X010358
Y027272
X011358
Y026272
X012358
Y027272
T03
X00553Y00513
X006711Y007
X00425
M30
