M48
;Layer_Color=9474304
;FILE_FORMAT=2:5
INCH,LZ
;TYPE=PLATED
T1F00S00C0.01575
T2F00S00C0.02800
T3F00S00C0.03500
T4F00S00C0.04500
;TYPE=NON_PLATED
T5F00S00C0.15748
%
T01
X0140157Y0102362
Y0106102
X0144095
Y0102362
X0156693Y0122638
Y0127953
X0172244Y0122244
Y0117913
X0176575
Y0122244
X0204528Y0105905
Y0102165
X0208465
Y0105905
X020689Y0236811
X0162205Y021752
X0157677Y0201575
X0138583Y0218898
X0115748Y0189961
X009685Y0230709
T02
X016752Y0098425
X0174213
Y0105315
X016752
X0181102
Y0098425
X0134843Y0239567
X0089764Y0215945
T03
X0148701Y0084055
X0158701
X0168701
X0178701Y0084056
X0188701Y0084056
X0198701Y0084057
X021811Y0275787
X022811
T04
X0163878Y0047047
X0183878
X0296772Y0159941
Y0179941
X0238945Y022011
X0224803Y0234252
X0183878Y0292835
X0163878
X0050984Y0179941
Y0159941
T05
X0090354Y0086417
X0257402
X0257402Y0253465
X0090354Y0253465
M30
